<?xml version="1.0" encoding="utf-8"?>
<!-- Generator: Adobe Illustrator 26.0.2, SVG Export Plug-In . SVG Version: 6.00 Build 0)  -->
<svg version="1.1" id="Layer_1" xmlns="http://www.w3.org/2000/svg" xmlns:xlink="http://www.w3.org/1999/xlink" x="0px" y="0px"
	 viewBox="0 0 920 150" style="enable-background:new 0 0 920 150;" xml:space="preserve">
<style type="text/css">
	.st0{fill:#312782;}
	.st1{fill:#00A099;}
	.st2{fill:#312782;stroke:#312782;stroke-width:1.129;stroke-miterlimit:10;}
</style>
<g>
	<g>
		<path class="st0" d="M266.9,78.1V85c0,3.5-1.9,4.9-4.5,4.9S258,88.5,258,85v-7h2.4v7c0,2,0.7,2.9,2.1,2.9c1.5,0,2.1-0.9,2.1-2.9
			v-7H266.9z"/>
		<path class="st0" d="M279.7,78.1v11.7h-2l-4.6-7.2v7.2h-2.3V78.1h2l4.6,7.3v-7.3H279.7z"/>
		<path class="st0" d="M282.5,89.8l4.1-11.7h2.3l4.1,11.7h-2.5l-0.7-2.2h-3.9l-0.7,2.2H282.5z M286.4,85.5h2.6l-1.3-4.1L286.4,85.5z
			"/>
		<path class="st0" d="M303.2,78.1l2.6,7.9l2.6-7.9h2.6l-4.1,11.7h-2.2l-4.1-11.7H303.2z"/>
		<path class="st0" d="M317.6,89.9c-2.6,0-4.5-1.6-4.5-5.2v-1.7c0-3.6,1.8-5.2,4.5-5.2c2.6,0,4.5,1.6,4.5,5.2v1.7
			C322.1,88.3,320.3,89.9,317.6,89.9z M315.5,84.8c0,2.2,0.7,3.2,2.1,3.2s2.1-0.9,2.1-3.2v-1.7c0-2.2-0.7-3.2-2.1-3.2
			s-2.1,0.9-2.1,3.2V84.8z"/>
		<path class="st0" d="M332.9,78.1v1.6l-4.7,8.1h4.9v2h-7.9v-1.6l4.7-8.1h-4.7v-2H332.9z"/>
		<path class="st0" d="M344.6,85.7v4.1h-2.4V78.1h4.2c2.7,0,4.4,1.2,4.4,3.7c0,2.5-1.7,3.8-4.4,3.8H344.6z M346.1,83.7
			c1.6,0,2.3-0.6,2.3-1.8c0-1.1-0.7-1.7-2.3-1.7h-1.5v3.6H346.1z"/>
		<path class="st0" d="M351.9,89.8l4.1-11.7h2.3l4.1,11.7h-2.5l-0.7-2.2h-3.9l-0.7,2.2H351.9z M355.8,85.5h2.6l-1.3-4.1L355.8,85.5z
			"/>
		<path class="st0" d="M371.5,89.8l-2.1-4.6h-1.9v4.6h-2.4V78.1h4.2c2.7,0,4.4,1.2,4.4,3.6c0,1.6-0.7,2.6-2,3.1l2.4,5H371.5z
			 M369,83.2c1.4,0,2.2-0.3,2.2-1.5c0-1.2-0.8-1.6-2.2-1.6h-1.6v3.1H369z"/>
		<path class="st0" d="M376.1,89.8l4.1-11.7h2.3l4.1,11.7H384l-0.7-2.2h-3.9l-0.7,2.2H376.1z M380,85.5h2.6l-1.3-4.1L380,85.5z"/>
		<path class="st0" d="M397.7,87.8h4.9v2h-7.3V78.1h2.4V87.8z"/>
		<path class="st0" d="M408.1,89.8h-2.4V78.1h2.4V89.8z"/>
		<path class="st0" d="M412.3,89.8V78.1h4.1c2.6,0,4.5,1.4,4.5,5.1v1.5c0,3.7-1.8,5.1-4.5,5.1H412.3z M418.5,84.7v-1.5
			c0-2-0.5-3.1-2.1-3.1h-1.8v7.7h1.8C418,87.8,418.5,86.7,418.5,84.7z"/>
		<path class="st0" d="M431.8,78.1v2h-4.9v2.6h4.4v2h-4.4v3h4.9v2h-7.3V78.1H431.8z"/>
		<path class="st0" d="M441.6,89.8l-2.1-4.6h-1.9v4.6h-2.4V78.1h4.2c2.7,0,4.4,1.2,4.4,3.6c0,1.6-0.7,2.6-2,3.1l2.4,5H441.6z
			 M439.2,83.2c1.4,0,2.2-0.3,2.2-1.5c0-1.2-0.8-1.6-2.2-1.6h-1.6v3.1H439.2z"/>
		<path class="st0" d="M446.3,89.8l4.1-11.7h2.3l4.1,11.7h-2.5l-0.7-2.2h-3.9l-0.7,2.2H446.3z M450.1,85.5h2.6l-1.3-4.1L450.1,85.5z
			"/>
		<path class="st0" d="M465.8,89.8l-2.1-4.6h-1.9v4.6h-2.4V78.1h4.2c2.7,0,4.4,1.2,4.4,3.6c0,1.6-0.7,2.6-2,3.1l2.4,5H465.8z
			 M463.4,83.2c1.4,0,2.2-0.3,2.2-1.5c0-1.2-0.8-1.6-2.2-1.6h-1.6v3.1H463.4z"/>
		<path class="st1" d="M259.5,106.1H258v-9.3h1.6V106.1z"/>
		<path class="st1" d="M270,96.8v9.3h-1.4l-3.8-6.4v6.4h-1.5v-9.3h1.4l3.8,6.4v-6.4H270z"/>
		<path class="st1" d="M274.5,96.8l2.3,6.8l2.3-6.8h1.7l-3.3,9.3h-1.4l-3.3-9.3H274.5z"/>
		<path class="st1" d="M289.3,96.8v1.4h-4.2v2.5h3.8v1.4h-3.8v2.8h4.2v1.4h-5.7v-9.3H289.3z"/>
		<path class="st1" d="M297.5,106.1l-1.8-3.8h-1.8v3.8h-1.6v-9.3h3.2c2.2,0,3.4,0.9,3.4,2.8c0,1.3-0.6,2.1-1.7,2.5l2,4.1H297.5z
			 M295.4,101c1.3,0,2-0.4,2-1.4s-0.7-1.4-2-1.4h-1.5v2.8H295.4z"/>
		<path class="st1" d="M308.1,96.8v1.4h-2.7v8h-1.6v-8h-2.7v-1.4H308.1z"/>
		<path class="st1" d="M312.5,106.1H311v-9.3h1.6V106.1z"/>
		<path class="st1" d="M321.5,106.1l-1.8-3.8h-1.8v3.8h-1.6v-9.3h3.2c2.2,0,3.4,0.9,3.4,2.8c0,1.3-0.6,2.1-1.7,2.5l2,4.1H321.5z
			 M319.4,101c1.3,0,2-0.4,2-1.4s-0.7-1.4-2-1.4h-1.5v2.8H319.4z"/>
		<path class="st1" d="M336.9,96.8v1.4h-4.2v2.5h3.8v1.4h-3.8v2.8h4.2v1.4h-5.7v-9.3H336.9z"/>
		<path class="st1" d="M346.7,96.8v9.3h-1.4l-3.8-6.4v6.4H340v-9.3h1.4l3.8,6.4v-6.4H346.7z"/>
		<path class="st1" d="M361.1,96.8v1.4h-4.2v2.5h3.8v1.4h-3.8v2.8h4.2v1.4h-5.7v-9.3H361.1z"/>
		<path class="st1" d="M370.9,96.8v9.3h-1.4l-3.8-6.4v6.4h-1.5v-9.3h1.4l3.8,6.4v-6.4H370.9z"/>
		<path class="st1" d="M380.3,96.8v1.4h-4.2v2.7h3.8v1.4h-3.8v3.9h-1.6v-9.3H380.3z"/>
		<path class="st1" d="M389,96.8v1.4h-4.2v2.5h3.8v1.4h-3.8v2.8h4.2v1.4h-5.7v-9.3H389z"/>
		<path class="st1" d="M397.3,106.1l-1.8-3.8h-1.8v3.8h-1.6v-9.3h3.2c2.2,0,3.4,0.9,3.4,2.8c0,1.3-0.6,2.1-1.7,2.5l2,4.1H397.3z
			 M395.2,101c1.3,0,2-0.4,2-1.4s-0.7-1.4-2-1.4h-1.5v2.8H395.2z"/>
		<path class="st1" d="M406.2,102.2l2.7-5.4h1.5v9.3h-1.5v-6.3l-2.1,4.5h-1.1l-2.1-4.4v6.2H402v-9.3h1.5L406.2,102.2z"/>
		<path class="st1" d="M419.7,96.8v1.4h-4.2v2.5h3.8v1.4h-3.8v2.8h4.2v1.4H414v-9.3H419.7z"/>
		<path class="st1" d="M428,106.1l-1.8-3.8h-1.8v3.8h-1.6v-9.3h3.2c2.2,0,3.4,0.9,3.4,2.8c0,1.3-0.6,2.1-1.7,2.5l2,4.1H428z
			 M425.9,101c1.3,0,2-0.4,2-1.4s-0.7-1.4-2-1.4h-1.5v2.8H425.9z"/>
		<path class="st1" d="M433.9,94.3h1.7l-1.4,1.7h-1.4L433.9,94.3z M434.4,106.1h-1.6v-9.3h1.6V106.1z"/>
		<path class="st1" d="M437.2,106.1l3.3-9.3h1.5l3.3,9.3h-1.7l-0.6-1.9h-3.4l-0.6,1.9H437.2z M439.9,102.8h2.5l-1.2-3.8L439.9,102.8
			z"/>
		<path class="st1" d="M453.8,96.8l1.9,3.7l1.9-3.7h1.8l-2.9,5.4v3.9h-1.6v-3.9l-2.9-5.4H453.8z"/>
		<path class="st1" d="M263,122.5l-1.8-3.8h-1.8v3.8h-1.6v-9.3h3.2c2.2,0,3.4,0.9,3.4,2.8c0,1.3-0.6,2.1-1.7,2.5l2,4.1H263z
			 M260.9,117.4c1.3,0,2-0.4,2-1.4s-0.7-1.4-2-1.4h-1.5v2.8H260.9z"/>
		<path class="st1" d="M273.4,113.2v1.4h-4.2v2.5h3.8v1.4h-3.8v2.8h4.2v1.4h-5.7v-9.3H273.4z"/>
		<path class="st1" d="M281.4,115.4c-0.5-0.6-1-1-2-1c-1,0-1.5,0.4-1.5,1.2c0,0.9,0.7,1.2,2,1.5c1.9,0.4,2.9,1.1,2.9,2.8
			c0,1.4-0.9,2.7-3.2,2.7c-1.6,0-2.7-0.5-3.5-1.5l1.2-0.9c0.6,0.7,1.1,1,2.2,1c1.3,0,1.7-0.6,1.7-1.2c0-0.7-0.4-1.2-2-1.6
			c-1.8-0.4-2.8-1.2-2.8-2.8c0-1.4,0.9-2.6,3.1-2.6c1.5,0,2.5,0.5,3.2,1.5L281.4,115.4z"/>
		<path class="st1" d="M287.5,119.1v3.4h-1.6v-9.3h3.2c2.2,0,3.4,1,3.4,3c0,1.9-1.3,3-3.4,3H287.5z M288.9,117.7c1.4,0,2-0.6,2-1.6
			c0-1-0.6-1.6-2-1.6h-1.4v3.2H288.9z"/>
		<path class="st1" d="M301.2,113.2v1.4H297v2.5h3.8v1.4H297v2.8h4.2v1.4h-5.7v-9.3H301.2z"/>
		<path class="st1" d="M310.3,113.2v1.4h-2.7v8h-1.6v-8h-2.7v-1.4H310.3z"/>
		<path class="st1" d="M311.6,122.5l3.3-9.3h1.5l3.3,9.3h-1.7l-0.6-1.9h-3.4l-0.6,1.9H311.6z M314.3,119.2h2.5l-1.2-3.8L314.3,119.2
			z"/>
		<path class="st1" d="M327.4,122.5l-1.8-3.8h-1.8v3.8h-1.6v-9.3h3.2c2.2,0,3.4,0.9,3.4,2.8c0,1.3-0.6,2.1-1.7,2.5l2,4.1H327.4z
			 M325.3,117.4c1.3,0,2-0.4,2-1.4s-0.7-1.4-2-1.4h-1.5v2.8H325.3z"/>
		<path class="st1" d="M338.7,121.2h4.2v1.4h-5.7v-9.3h1.6V121.2z"/>
		<path class="st1" d="M348.3,122.6c-2.1,0-3.5-1.3-3.5-4.2v-1.2c0-2.9,1.4-4.2,3.5-4.2c2.1,0,3.5,1.3,3.5,4.2v1.2
			C351.8,121.4,350.4,122.6,348.3,122.6z M346.4,118.4c0,2,0.7,2.8,1.9,2.8c1.2,0,1.9-0.8,1.9-2.8v-1.2c0-2-0.7-2.8-1.9-2.8
			c-1.2,0-1.9,0.8-1.9,2.8V118.4z"/>
		<path class="st1" d="M359.9,115.4c-0.5-0.6-1-1-2-1c-1,0-1.5,0.4-1.5,1.2c0,0.9,0.7,1.2,2,1.5c1.9,0.4,2.9,1.1,2.9,2.8
			c0,1.4-0.9,2.7-3.2,2.7c-1.6,0-2.7-0.5-3.5-1.5l1.2-0.9c0.6,0.7,1.1,1,2.2,1c1.3,0,1.7-0.6,1.7-1.2c0-0.7-0.4-1.2-2-1.6
			c-1.8-0.4-2.8-1.2-2.8-2.8c0-1.4,0.9-2.6,3.1-2.6c1.5,0,2.5,0.5,3.2,1.5L359.9,115.4z"/>
		<path class="st1" d="M369.4,122.5v-9.3h3.2c2.1,0,3.5,1.1,3.5,4.1v1.1c0,3-1.4,4.1-3.5,4.1H369.4z M374.5,118.4v-1.1
			c0-1.9-0.6-2.8-1.9-2.8H371v6.6h1.6C373.9,121.2,374.5,120.3,374.5,118.4z"/>
		<path class="st1" d="M385.1,113.2v1.4h-4.2v2.5h3.8v1.4h-3.8v2.8h4.2v1.4h-5.7v-9.3H385.1z"/>
		<path class="st1" d="M393.3,122.5l-1.8-3.8h-1.8v3.8h-1.6v-9.3h3.2c2.2,0,3.4,0.9,3.4,2.8c0,1.3-0.6,2.1-1.7,2.5l2,4.1H393.3z
			 M391.2,117.4c1.3,0,2-0.4,2-1.4s-0.7-1.4-2-1.4h-1.5v2.8H391.2z"/>
		<path class="st1" d="M403.8,113.2v1.4h-4.2v2.5h3.8v1.4h-3.8v2.8h4.2v1.4H398v-9.3H403.8z"/>
		<path class="st1" d="M411.8,116.1c-0.2-1.1-0.9-1.7-1.9-1.7c-1.2,0-1.9,0.8-1.9,2.8v1.2c0,2,0.7,2.8,1.9,2.8
			c1.1,0,1.6-0.5,1.9-1.7h1.5c-0.3,2.1-1.5,3-3.4,3c-2.1,0-3.5-1.3-3.5-4.2v-1.2c0-2.9,1.4-4.2,3.5-4.2c1.9,0,3.1,1,3.4,3H411.8z"/>
		<path class="st1" d="M418,117h3.6v-3.8h1.6v9.3h-1.6v-4.2H418v4.2h-1.6v-9.3h1.6V117z"/>
		<path class="st1" d="M429.9,122.6c-2.1,0-3.5-1.3-3.5-4.2v-1.2c0-2.9,1.4-4.2,3.5-4.2c2.1,0,3.5,1.3,3.5,4.2v1.2
			C433.4,121.4,432,122.6,429.9,122.6z M428,118.4c0,2,0.7,2.8,1.9,2.8s1.9-0.8,1.9-2.8v-1.2c0-2-0.7-2.8-1.9-2.8s-1.9,0.8-1.9,2.8
			V118.4z"/>
		<path class="st1" d="M441.5,115.4c-0.5-0.6-1-1-2-1c-1,0-1.5,0.4-1.5,1.2c0,0.9,0.7,1.2,2,1.5c1.9,0.4,2.9,1.1,2.9,2.8
			c0,1.4-0.9,2.7-3.2,2.7c-1.6,0-2.7-0.5-3.5-1.5l1.2-0.9c0.6,0.7,1.1,1,2.2,1c1.3,0,1.7-0.6,1.7-1.2c0-0.7-0.4-1.2-2-1.6
			c-1.8-0.4-2.8-1.2-2.8-2.8c0-1.4,0.9-2.6,3.1-2.6c1.5,0,2.5,0.5,3.2,1.5L441.5,115.4z"/>
		<path class="st1" d="M452.5,119.1v3.4H451v-9.3h3.2c2.2,0,3.4,1,3.4,3c0,1.9-1.3,3-3.4,3H452.5z M454,117.7c1.4,0,2-0.6,2-1.6
			c0-1-0.6-1.6-2-1.6h-1.4v3.2H454z"/>
		<path class="st1" d="M458.9,122.5l3.3-9.3h1.5l3.3,9.3h-1.7l-0.6-1.9h-3.4l-0.6,1.9H458.9z M461.7,119.2h2.5l-1.2-3.8L461.7,119.2
			z"/>
		<path class="st1" d="M474.8,122.5l-1.8-3.8h-1.8v3.8h-1.6v-9.3h3.2c2.2,0,3.4,0.9,3.4,2.8c0,1.3-0.6,2.1-1.7,2.5l2,4.1H474.8z
			 M472.6,117.4c1.3,0,2-0.4,2-1.4s-0.7-1.4-2-1.4h-1.5v2.8H472.6z"/>
		<path class="st1" d="M478.5,122.5l3.3-9.3h1.5l3.3,9.3h-1.7l-0.6-1.9h-3.4l-0.6,1.9H478.5z M481.2,119.2h2.5l-1.2-3.8L481.2,119.2
			z"/>
		<path class="st1" d="M264.4,134.1v0.7c0,2.9-1.3,4.2-3.4,4.2c-2.1,0-3.5-1.3-3.5-4.2v-1.1c0-3,1.4-4.3,3.5-4.3
			c1.9,0,3.1,1.1,3.4,3h-1.5c-0.2-1.1-0.8-1.7-1.9-1.7c-1.2,0-1.9,0.8-1.9,2.8v1.2c0,2,0.7,2.8,1.9,2.8c1.2,0,1.8-0.7,1.9-2.2H261
			v-1.4H264.4z"/>
		<path class="st1" d="M266.5,138.9l3.3-9.3h1.5l3.3,9.3h-1.7l-0.6-1.9h-3.4l-0.6,1.9H266.5z M269.3,135.6h2.5l-1.2-3.8L269.3,135.6
			z"/>
		<path class="st1" d="M282.4,138.9l-1.8-3.8h-1.8v3.8h-1.6v-9.3h3.2c2.2,0,3.4,0.9,3.4,2.8c0,1.3-0.6,2.1-1.7,2.5l2,4.1H282.4z
			 M280.3,133.7c1.3,0,2-0.4,2-1.4s-0.7-1.4-2-1.4h-1.5v2.8H280.3z"/>
		<path class="st1" d="M286.1,138.9l3.3-9.3h1.5l3.3,9.3h-1.7l-0.6-1.9h-3.4l-0.6,1.9H286.1z M288.9,135.6h2.5l-1.2-3.8L288.9,135.6
			z"/>
		<path class="st1" d="M303.5,129.5v9.3h-1.4l-3.8-6.4v6.4h-1.5v-9.3h1.4l3.8,6.4v-6.4H303.5z"/>
		<path class="st1" d="M313.2,129.5v1.4h-2.7v8h-1.6v-8h-2.7v-1.4H313.2z"/>
		<path class="st1" d="M317.6,138.9H316v-9.3h1.6V138.9z"/>
		<path class="st1" d="M326.9,129.5v1l-4.1,7h4.3v1.4h-6.3v-1l4.1-6.9h-4.1v-1.4H326.9z"/>
		<path class="st1" d="M329,138.9l3.3-9.3h1.5l3.3,9.3h-1.7l-0.6-1.9h-3.4l-0.6,1.9H329z M331.8,135.6h2.5l-1.2-3.8L331.8,135.6z"/>
		<path class="st1" d="M344.9,138.9l-1.8-3.8h-1.8v3.8h-1.6v-9.3h3.2c2.2,0,3.4,0.9,3.4,2.8c0,1.3-0.6,2.1-1.7,2.5l2,4.1H344.9z
			 M342.8,133.7c1.3,0,2-0.4,2-1.4s-0.7-1.4-2-1.4h-1.5v2.8H342.8z"/>
		<path class="st1" d="M356.1,137.5h4.2v1.4h-5.7v-9.3h1.6V137.5z"/>
		<path class="st1" d="M362.2,138.9l3.3-9.3h1.5l3.3,9.3h-1.7l-0.6-1.9h-3.4l-0.6,1.9H362.2z M364.9,135.6h2.5l-1.2-3.8L364.9,135.6
			z"/>
		<path class="st1" d="M382.7,131.8c-0.5-0.6-1-1-2-1c-1,0-1.5,0.4-1.5,1.2c0,0.9,0.7,1.2,2,1.5c1.9,0.4,2.9,1.1,2.9,2.8
			c0,1.4-0.9,2.7-3.2,2.7c-1.6,0-2.7-0.5-3.5-1.5l1.2-0.9c0.6,0.7,1.1,1,2.2,1c1.3,0,1.7-0.6,1.7-1.2c0-0.7-0.4-1.2-2-1.6
			c-1.8-0.4-2.8-1.2-2.8-2.8c0-1.4,0.9-2.6,3.1-2.6c1.5,0,2.5,0.5,3.2,1.5L382.7,131.8z"/>
		<path class="st1" d="M386.1,138.9l3.3-9.3h1.5l3.3,9.3h-1.7l-0.6-1.9h-3.4l-0.6,1.9H386.1z M388.8,135.6h2.5l-1.2-3.8L388.8,135.6
			z"/>
		<path class="st1" d="M398.3,137.5h4.2v1.4h-5.7v-9.3h1.6V137.5z"/>
		<path class="st1" d="M412.2,129.5v5.6c0,2.8-1.4,3.9-3.5,3.9c-2.1,0-3.5-1.2-3.5-3.9v-5.6h1.6v5.6c0,1.8,0.6,2.5,1.9,2.5
			s1.9-0.7,1.9-2.5v-5.6H412.2z"/>
		<path class="st1" d="M415.8,138.9v-9.3h3.2c2.1,0,3.5,1.1,3.5,4.1v1.1c0,3-1.4,4.1-3.5,4.1H415.8z M420.9,134.8v-1.1
			c0-1.9-0.6-2.8-1.9-2.8h-1.6v6.6h1.6C420.3,137.5,420.9,136.7,420.9,134.8z"/>
		<path class="st1" d="M437.3,134.1v0.7c0,2.9-1.3,4.2-3.4,4.2c-2.1,0-3.5-1.3-3.5-4.2v-1.1c0-3,1.4-4.3,3.5-4.3
			c1.9,0,3.1,1.1,3.4,3h-1.5c-0.2-1.1-0.8-1.7-1.9-1.7c-1.2,0-1.9,0.8-1.9,2.8v1.2c0,2,0.7,2.8,1.9,2.8c1.2,0,1.8-0.7,1.9-2.2h-1.9
			v-1.4H437.3z"/>
		<path class="st1" d="M442.2,137.5h4.2v1.4h-5.7v-9.3h1.6V137.5z"/>
		<path class="st1" d="M451.8,139c-2.1,0-3.5-1.3-3.5-4.2v-1.2c0-2.9,1.4-4.2,3.5-4.2c2.1,0,3.5,1.3,3.5,4.2v1.2
			C455.3,137.7,453.9,139,451.8,139z M449.9,134.8c0,2,0.7,2.8,1.9,2.8s1.9-0.8,1.9-2.8v-1.2c0-2-0.7-2.8-1.9-2.8s-1.9,0.8-1.9,2.8
			V134.8z"/>
		<path class="st1" d="M461.6,129.5c2.2,0,3.3,0.8,3.3,2.4c0,1-0.6,1.7-1.4,2c1.1,0.3,1.7,1,1.7,2.2c0,1.4-0.9,2.7-3.3,2.7h-3.3
			v-9.3H461.6z M460.2,133.3h1.5c1.2,0,1.7-0.5,1.7-1.3c0-0.7-0.4-1.2-1.9-1.2h-1.3V133.3z M460.2,137.5h1.6c1.3,0,1.8-0.5,1.8-1.4
			c0-1-0.7-1.4-2-1.4h-1.4V137.5z"/>
		<path class="st1" d="M467.3,138.9l3.3-9.3h1.5l3.3,9.3h-1.7l-0.6-1.9h-3.4l-0.6,1.9H467.3z M470.1,135.6h2.5l-1.2-3.8L470.1,135.6
			z"/>
		<path class="st1" d="M479.6,137.5h4.2v1.4H478v-9.3h1.6V137.5z"/>
	</g>
	<g>
		<path class="st2" d="M270.7,48.6v2.9h-8.8v5.2h8v2.9h-8v6h8.8v2.9h-12.2V48.6H270.7z"/>
		<path class="st2" d="M291.7,48.6v19.9h-3l-8.1-13.5v13.5h-3.2V48.6h2.9l8.2,13.7V48.6H291.7z"/>
		<path class="st2" d="M311.9,48.6v2.9H303v5.7h8V60h-8v8.4h-3.3V48.6H311.9z"/>
		<path class="st2" d="M330.5,48.6v2.9h-8.8v5.2h8v2.9h-8v6h8.8v2.9h-12.2V48.6H330.5z"/>
		<path class="st2" d="M348.3,68.4l-3.8-8.1h-3.9v8.1h-3.3V48.6h6.8c4.6,0,7.3,2,7.3,5.9c0,2.7-1.3,4.5-3.6,5.3l4.2,8.6H348.3z
			 M343.8,57.5c2.8,0,4.2-0.7,4.2-3c0-2.2-1.4-3-4.2-3h-3.2v6H343.8z"/>
		<path class="st2" d="M367.3,60.1l5.7-11.5h3.2v19.9H373V55.1l-4.5,9.5h-2.4l-4.5-9.4v13.2h-3.2V48.6h3.2L367.3,60.1z"/>
		<path class="st2" d="M396.4,48.6v2.9h-8.8v5.2h8v2.9h-8v6h8.8v2.9h-12.2V48.6H396.4z"/>
		<path class="st2" d="M414.1,68.4l-3.8-8.1h-3.9v8.1h-3.3V48.6h6.8c4.6,0,7.3,2,7.3,5.9c0,2.7-1.3,4.5-3.6,5.3l4.2,8.6H414.1z
			 M409.6,57.5c2.8,0,4.2-0.7,4.2-3c0-2.2-1.4-3-4.2-3h-3.2v6H409.6z"/>
		<path class="st2" d="M426.9,43.3h3.6l-3,3.7h-3L426.9,43.3z M427.9,68.4h-3.3V48.6h3.3V68.4z"/>
		<path class="st2" d="M434,68.4l6.9-19.9h3.2l6.9,19.9h-3.5l-1.4-4.1h-7.2l-1.4,4.1H434z M439.8,61.4h5.3l-2.6-8L439.8,61.4z"/>
	</g>
	<g>
		<g>
			<path class="st0" d="M512.4,89.8c-3.2,0-6.4-1.2-8.8-3.7L486.4,69h-25.4l42.6-42.6c2.4-2.4,5.5-3.6,8.8-3.6s6.5,1.3,8.8,3.6
				l21,21.5c4.8,4.9,4.7,12.7-0.1,17.6l-20.9,20.7C518.8,88.5,515.6,89.8,512.4,89.8z M468.1,66h19.6l18,18c1.8,1.8,4.2,2.8,6.8,2.8
				c2.6,0,5-1,6.8-2.8l0,0l20.9-20.7c3.7-3.7,3.7-9.7,0.1-13.5l-20.9-21.5c-1.8-1.8-4.2-2.8-6.8-2.8c-2.6,0-5,1-6.8,2.8L468.1,66z"
				/>
		</g>
		<g>
			<g>
				<g>
					<g>
						<path class="st1" d="M506.5,79.4V64.6l-6.5-6.5c-3.8-3.8-3.8-10,0-13.8c3.8-3.8,10-3.8,13.8,0l1.5,1.5l1.7-1.7
							c3.4-3.4,9-3.4,12.4,0c3.4,3.4,3.4,9,0,12.4l-0.2,0.3L506.5,79.4z M506.9,44.4c-1.8,0-3.6,0.7-4.8,2c-1.3,1.3-2,3-2,4.8
							c0,1.8,0.7,3.6,2,4.8l7.4,7.4v8.9l17.9-17.9c2.3-2.3,2.3-6,0-8.3c-2.3-2.3-6-2.3-8.3,0l-3.8,3.8l-3.6-3.6
							C510.4,45.1,508.7,44.4,506.9,44.4z"/>
					</g>
				</g>
			</g>
		</g>
	</g>
</g>
<g>
	<g>
		<path class="st0" d="M593.9,78.1V85c0,3.5-1.9,4.9-4.5,4.9s-4.5-1.4-4.5-4.9v-7h2.4v7c0,2,0.7,2.9,2.1,2.9c1.5,0,2.1-0.9,2.1-2.9
			v-7H593.9z"/>
		<path class="st0" d="M606.7,78.1v11.7h-2l-4.6-7.2v7.2h-2.3V78.1h2l4.6,7.3v-7.3H606.7z"/>
		<path class="st0" d="M618,78.1v2h-4.9v2.6h4.4v2h-4.4v3h4.9v2h-7.3V78.1H618z"/>
		<path class="st0" d="M628.8,78.1l2.6,7.9l2.6-7.9h2.6l-4.1,11.7h-2.2l-4.1-11.7H628.8z"/>
		<path class="st0" d="M643.3,89.9c-2.6,0-4.5-1.6-4.5-5.2v-1.7c0-3.6,1.8-5.2,4.5-5.2c2.6,0,4.5,1.6,4.5,5.2v1.7
			C647.7,88.3,645.9,89.9,643.3,89.9z M641.2,84.8c0,2.2,0.7,3.2,2.1,3.2c1.4,0,2.1-0.9,2.1-3.2v-1.7c0-2.2-0.7-3.2-2.1-3.2
			c-1.4,0-2.1,0.9-2.1,3.2V84.8z"/>
		<path class="st0" d="M653.9,89.8h-2.4V78.1h2.4V89.8z"/>
		<path class="st0" d="M657.2,89.8l3.3-6l-2.9-5.7h2.6l1.9,3.7l1.9-3.7h2.6l-2.9,5.7l3.3,6h-2.6l-2.2-4l-2.2,4H657.2z"/>
		<path class="st0" d="M683.1,78.1v2h-4.9V83h4.4v2h-4.4v4.8h-2.4V78.1H683.1z"/>
		<path class="st0" d="M684.7,89.8l4.1-11.7h2.3l4.1,11.7h-2.5l-0.7-2.2H688l-0.7,2.2H684.7z M688.6,85.5h2.6l-1.3-4.1L688.6,85.5z"
			/>
		<path class="st0" d="M700.5,89.8h-2.4V78.1h2.4V89.8z"/>
		<path class="st0" d="M712.4,78.1v2h-3.2v9.7h-2.4v-9.7h-3.2v-2H712.4z"/>
		<path class="st0" d="M722.7,78.1v2h-4.9v2.6h4.4v2h-4.4v3h4.9v2h-7.3V78.1H722.7z"/>
		<path class="st0" d="M734.4,85.7v4.1H732V78.1h4.2c2.7,0,4.4,1.2,4.4,3.7c0,2.5-1.7,3.8-4.4,3.8H734.4z M735.9,83.7
			c1.6,0,2.3-0.6,2.3-1.8c0-1.1-0.7-1.7-2.3-1.7h-1.5v3.6H735.9z"/>
		<path class="st0" d="M747.8,89.9c-2.6,0-4.5-1.6-4.5-5.2v-1.7c0-3.6,1.8-5.2,4.5-5.2c2.6,0,4.5,1.6,4.5,5.2v1.7
			C752.3,88.3,750.5,89.9,747.8,89.9z M745.7,84.8c0,2.2,0.7,3.2,2.1,3.2c1.4,0,2.1-0.9,2.1-3.2v-1.7c0-2.2-0.7-3.2-2.1-3.2
			c-1.4,0-2.1,0.9-2.1,3.2V84.8z"/>
		<path class="st0" d="M765,78.1V85c0,3.5-1.9,4.9-4.5,4.9S756,88.5,756,85v-7h2.4v7c0,2,0.7,2.9,2.1,2.9c1.5,0,2.1-0.9,2.1-2.9v-7
			H765z"/>
		<path class="st0" d="M775.3,89.8l-2.1-4.6h-1.9v4.6H769V78.1h4.2c2.7,0,4.4,1.2,4.4,3.6c0,1.6-0.7,2.6-2,3.1l2.4,5H775.3z
			 M772.9,83.2c1.4,0,2.2-0.3,2.2-1.5c0-1.2-0.8-1.6-2.2-1.6h-1.6v3.1H772.9z"/>
		<path class="st0" d="M787.1,89.8V78.1h4.1c2.6,0,4.5,1.4,4.5,5.1v1.5c0,3.7-1.8,5.1-4.5,5.1H787.1z M793.3,84.7v-1.5
			c0-2-0.5-3.1-2.1-3.1h-1.8v7.7h1.8C792.8,87.8,793.3,86.7,793.3,84.7z"/>
		<path class="st0" d="M801.9,89.8h-2.4V78.1h2.4V89.8z"/>
		<path class="st0" d="M812.5,89.8l-2.1-4.6h-1.9v4.6h-2.4V78.1h4.2c2.7,0,4.4,1.2,4.4,3.6c0,1.6-0.7,2.6-2,3.1l2.4,5H812.5z
			 M810.1,83.2c1.4,0,2.2-0.3,2.2-1.5c0-1.2-0.8-1.6-2.2-1.6h-1.6v3.1H810.1z"/>
		<path class="st0" d="M820.8,89.8h-2.4V78.1h2.4V89.8z"/>
		<path class="st0" d="M833.4,83.7v1.1c0,3.6-1.7,5.2-4.3,5.2c-2.6,0-4.5-1.6-4.5-5.2v-1.5c0-3.8,1.8-5.3,4.5-5.3
			c2.5,0,3.9,1.4,4.3,3.8h-2.3c-0.2-1.1-0.8-1.8-2-1.8c-1.4,0-2.1,0.9-2.1,3.2v1.7c0,2.2,0.7,3.2,2.1,3.2c1.3,0,1.9-0.8,2-2.2h-2v-2
			H833.4z"/>
		<path class="st0" d="M844.3,78.1v2h-4.9v2.6h4.4v2h-4.4v3h4.9v2h-7.3V78.1H844.3z"/>
		<path class="st0" d="M854.1,89.8l-2.1-4.6h-1.9v4.6h-2.4V78.1h4.2c2.7,0,4.4,1.2,4.4,3.6c0,1.6-0.7,2.6-2,3.1l2.4,5H854.1z
			 M851.7,83.2c1.4,0,2.2-0.3,2.2-1.5c0-1.2-0.8-1.6-2.2-1.6h-1.6v3.1H851.7z"/>
		<path class="st1" d="M586.5,106.1h-1.6v-9.3h1.6V106.1z"/>
		<path class="st1" d="M597,96.8v9.3h-1.4l-3.8-6.4v6.4h-1.5v-9.3h1.4l3.8,6.4v-6.4H597z"/>
		<path class="st1" d="M601.4,96.8l2.3,6.8l2.3-6.8h1.7l-3.3,9.3H603l-3.3-9.3H601.4z"/>
		<path class="st1" d="M616.2,96.8v1.4h-4.2v2.5h3.8v1.4h-3.8v2.8h4.2v1.4h-5.7v-9.3H616.2z"/>
		<path class="st1" d="M624.2,99.1c-0.5-0.6-1-1-2-1c-1,0-1.5,0.4-1.5,1.2c0,0.9,0.7,1.2,2,1.5c1.9,0.4,2.9,1.1,2.9,2.8
			c0,1.4-0.9,2.7-3.2,2.7c-1.6,0-2.7-0.5-3.5-1.5l1.2-0.9c0.6,0.7,1.1,1,2.2,1c1.3,0,1.7-0.6,1.7-1.2c0-0.7-0.4-1.2-2-1.6
			c-1.8-0.4-2.8-1.2-2.8-2.8c0-1.4,0.9-2.6,3.1-2.6c1.5,0,2.5,0.5,3.2,1.5L624.2,99.1z"/>
		<path class="st1" d="M634.6,96.8v1.4h-2.7v8h-1.6v-8h-2.7v-1.4H634.6z"/>
		<path class="st1" d="M639,106.1h-1.6v-9.3h1.6V106.1z"/>
		<path class="st1" d="M648,106.1l-1.8-3.8h-1.8v3.8h-1.6v-9.3h3.2c2.2,0,3.4,0.9,3.4,2.8c0,1.3-0.6,2.1-1.7,2.5l2,4.1H648z
			 M645.9,101c1.3,0,2-0.4,2-1.4s-0.7-1.4-2-1.4h-1.5v2.8H645.9z"/>
		<path class="st1" d="M657.6,106.1v-9.3h3.2c2.1,0,3.5,1.1,3.5,4.1v1.1c0,3-1.4,4.1-3.5,4.1H657.6z M662.7,102v-1.1
			c0-1.9-0.6-2.8-1.9-2.8h-1.6v6.6h1.6C662.1,104.8,662.7,103.9,662.7,102z"/>
		<path class="st1" d="M666.4,106.1l3.3-9.3h1.5l3.3,9.3h-1.7l-0.6-1.9h-3.4l-0.6,1.9H666.4z M669.2,102.8h2.5l-1.2-3.8L669.2,102.8
			z"/>
		<path class="st1" d="M683.8,96.8v9.3h-1.4l-3.8-6.4v6.4h-1.5v-9.3h1.4l3.8,6.4v-6.4H683.8z"/>
		<path class="st1" d="M692.3,99.1c-0.5-0.6-1-1-2-1c-1,0-1.5,0.4-1.5,1.2c0,0.9,0.7,1.2,2,1.5c1.9,0.4,2.9,1.1,2.9,2.8
			c0,1.4-0.9,2.7-3.2,2.7c-1.6,0-2.7-0.5-3.5-1.5l1.2-0.9c0.6,0.7,1.1,1,2.2,1c1.3,0,1.7-0.6,1.7-1.2c0-0.7-0.4-1.2-2-1.6
			c-1.8-0.4-2.8-1.2-2.8-2.8c0-1.4,0.9-2.6,3.1-2.6c1.5,0,2.5,0.5,3.2,1.5L692.3,99.1z"/>
		<path class="st1" d="M703.4,104.8h4.2v1.4h-5.7v-9.3h1.6V104.8z"/>
		<path class="st1" d="M716,96.8v1.4h-4.2v2.5h3.8v1.4h-3.8v2.8h4.2v1.4h-5.7v-9.3H716z"/>
		<path class="st1" d="M723.9,99.1c-0.5-0.6-1-1-2-1c-1,0-1.5,0.4-1.5,1.2c0,0.9,0.7,1.2,2,1.5c1.9,0.4,2.9,1.1,2.9,2.8
			c0,1.4-0.9,2.7-3.2,2.7c-1.6,0-2.7-0.5-3.5-1.5l1.2-0.9c0.6,0.7,1.1,1,2.2,1c1.3,0,1.7-0.6,1.7-1.2c0-0.7-0.4-1.2-2-1.6
			c-1.8-0.4-2.8-1.2-2.8-2.8c0-1.4,0.9-2.6,3.1-2.6c1.5,0,2.5,0.5,3.2,1.5L723.9,99.1z"/>
		<path class="st1" d="M738.3,99.1c-0.5-0.6-1-1-2-1c-1,0-1.5,0.4-1.5,1.2c0,0.9,0.7,1.2,2,1.5c1.9,0.4,2.9,1.1,2.9,2.8
			c0,1.4-0.9,2.7-3.2,2.7c-1.6,0-2.7-0.5-3.5-1.5l1.2-0.9c0.6,0.7,1.1,1,2.2,1c1.3,0,1.7-0.6,1.7-1.2c0-0.7-0.4-1.2-2-1.6
			c-1.8-0.4-2.8-1.2-2.8-2.8c0-1.4,0.9-2.6,3.1-2.6c1.5,0,2.5,0.5,3.2,1.5L738.3,99.1z"/>
		<path class="st1" d="M745.9,106.3c-2.1,0-3.5-1.3-3.5-4.2v-1.2c0-2.9,1.4-4.2,3.5-4.2c2.1,0,3.5,1.3,3.5,4.2v1.2
			C749.4,105,748,106.3,745.9,106.3z M744,102.1c0,2,0.7,2.8,1.9,2.8c1.2,0,1.9-0.8,1.9-2.8v-1.2c0-2-0.7-2.8-1.9-2.8
			c-1.2,0-1.9,0.8-1.9,2.8V102.1z"/>
		<path class="st1" d="M754.4,106.1h-1.6v-9.3h1.6V106.1z"/>
		<path class="st1" d="M764.9,96.8v9.3h-1.4l-3.8-6.4v6.4h-1.5v-9.3h1.4l3.8,6.4v-6.4H764.9z"/>
		<path class="st1" d="M773.4,99.1c-0.5-0.6-1-1-2-1c-1,0-1.5,0.4-1.5,1.2c0,0.9,0.7,1.2,2,1.5c1.9,0.4,2.9,1.1,2.9,2.8
			c0,1.4-0.9,2.7-3.2,2.7c-1.6,0-2.7-0.5-3.5-1.5l1.2-0.9c0.6,0.7,1.1,1,2.2,1c1.3,0,1.7-0.6,1.7-1.2c0-0.7-0.4-1.2-2-1.6
			c-1.8-0.4-2.8-1.2-2.8-2.8c0-1.4,0.9-2.6,3.1-2.6c1.5,0,2.5,0.5,3.2,1.5L773.4,99.1z"/>
		<path class="st1" d="M784.6,106.1H783v-9.3h1.6V106.1z"/>
		<path class="st1" d="M795.1,96.8v9.3h-1.4l-3.8-6.4v6.4h-1.5v-9.3h1.4l3.8,6.4v-6.4H795.1z"/>
		<path class="st1" d="M804.5,96.8v1.4h-4.2v2.7h3.8v1.4h-3.8v3.9h-1.6v-9.3H804.5z"/>
		<path class="st1" d="M809.2,106.1h-1.6v-9.3h1.6V106.1z"/>
		<path class="st1" d="M818.1,106.1l-1.8-3.8h-1.8v3.8h-1.6v-9.3h3.2c2.2,0,3.4,0.9,3.4,2.8c0,1.3-0.6,2.1-1.7,2.5l2,4.1H818.1z
			 M816,101c1.3,0,2-0.4,2-1.4s-0.7-1.4-2-1.4h-1.5v2.8H816z"/>
		<path class="st1" d="M827,102.2l2.7-5.4h1.5v9.3h-1.5v-6.3l-2.1,4.5h-1.1l-2.1-4.4v6.2h-1.5v-9.3h1.5L827,102.2z"/>
		<path class="st1" d="M836.6,106.1H835v-9.3h1.6V106.1z"/>
		<path class="st1" d="M846.1,96.8v1.4h-4.2v2.5h3.8v1.4h-3.8v2.8h4.2v1.4h-5.7v-9.3H846.1z"/>
		<path class="st1" d="M854.4,106.1l-1.8-3.8h-1.8v3.8h-1.6v-9.3h3.2c2.2,0,3.4,0.9,3.4,2.8c0,1.3-0.6,2.1-1.7,2.5l2,4.1H854.4z
			 M852.2,101c1.3,0,2-0.4,2-1.4s-0.7-1.4-2-1.4h-1.5v2.8H852.2z"/>
		<path class="st1" d="M863.9,99.1c-0.5-0.6-1-1-2-1c-1,0-1.5,0.4-1.5,1.2c0,0.9,0.7,1.2,2,1.5c1.9,0.4,2.9,1.1,2.9,2.8
			c0,1.4-0.9,2.7-3.2,2.7c-1.6,0-2.7-0.5-3.5-1.5l1.2-0.9c0.6,0.7,1.1,1,2.2,1c1.3,0,1.7-0.6,1.7-1.2c0-0.7-0.4-1.2-2-1.6
			c-1.8-0.4-2.8-1.2-2.8-2.8c0-1.4,0.9-2.6,3.1-2.6c1.5,0,2.5,0.5,3.2,1.5L863.9,99.1z"/>
		<path class="st1" d="M590.5,113.2v1.4h-4.2v2.5h3.8v1.4h-3.8v2.8h4.2v1.4h-5.7v-9.3H590.5z"/>
		<path class="st1" d="M599.6,113.2v1.4H597v8h-1.6v-8h-2.7v-1.4H599.6z"/>
		<path class="st1" d="M612.5,122.5l-1.8-3.8h-1.8v3.8h-1.6v-9.3h3.2c2.2,0,3.4,0.9,3.4,2.8c0,1.3-0.6,2.1-1.7,2.5l2,4.1H612.5z
			 M610.4,117.4c1.3,0,2-0.4,2-1.4s-0.7-1.4-2-1.4h-1.5v2.8H610.4z"/>
		<path class="st1" d="M623,113.2v1.4h-4.2v2.5h3.8v1.4h-3.8v2.8h4.2v1.4h-5.7v-9.3H623z"/>
		<path class="st1" d="M630.9,115.4c-0.5-0.6-1-1-2-1c-1,0-1.5,0.4-1.5,1.2c0,0.9,0.7,1.2,2,1.5c1.9,0.4,2.9,1.1,2.9,2.8
			c0,1.4-0.9,2.7-3.2,2.7c-1.6,0-2.7-0.5-3.5-1.5l1.2-0.9c0.6,0.7,1.1,1,2.2,1c1.3,0,1.7-0.6,1.7-1.2c0-0.7-0.4-1.2-2-1.6
			c-1.8-0.4-2.8-1.2-2.8-2.8c0-1.4,0.9-2.6,3.1-2.6c1.5,0,2.5,0.5,3.2,1.5L630.9,115.4z"/>
		<path class="st1" d="M637,119.1v3.4h-1.6v-9.3h3.2c2.2,0,3.4,1,3.4,3c0,1.9-1.3,3-3.4,3H637z M638.4,117.7c1.4,0,2-0.6,2-1.6
			c0-1-0.6-1.6-2-1.6H637v3.2H638.4z"/>
		<path class="st1" d="M650.7,113.2v1.4h-4.2v2.5h3.8v1.4h-3.8v2.8h4.2v1.4H645v-9.3H650.7z"/>
		<path class="st1" d="M658.8,116.1c-0.2-1.1-0.9-1.7-1.9-1.7c-1.2,0-1.9,0.8-1.9,2.8v1.2c0,2,0.7,2.8,1.9,2.8
			c1.1,0,1.6-0.5,1.9-1.7h1.5c-0.3,2.1-1.5,3-3.4,3c-2.1,0-3.5-1.3-3.5-4.2v-1.2c0-2.9,1.4-4.2,3.5-4.2c1.9,0,3.1,1,3.4,3H658.8z"/>
		<path class="st1" d="M669.3,113.2v1.4h-2.7v8H665v-8h-2.7v-1.4H669.3z"/>
		<path class="st1" d="M677.7,113.2v1.4h-4.2v2.5h3.8v1.4h-3.8v2.8h4.2v1.4H672v-9.3H677.7z"/>
		<path class="st1" d="M686,122.5l-1.8-3.8h-1.8v3.8h-1.6v-9.3h3.2c2.2,0,3.4,0.9,3.4,2.8c0,1.3-0.6,2.1-1.7,2.5l2,4.1H686z
			 M683.9,117.4c1.3,0,2-0.4,2-1.4s-0.7-1.4-2-1.4h-1.5v2.8H683.9z"/>
		<path class="st1" d="M697.2,121.2h4.2v1.4h-5.7v-9.3h1.6V121.2z"/>
		<path class="st1" d="M709.8,113.2v1.4h-4.2v2.5h3.8v1.4h-3.8v2.8h4.2v1.4h-5.7v-9.3H709.8z"/>
		<path class="st1" d="M717.8,115.4c-0.5-0.6-1-1-2-1c-1,0-1.5,0.4-1.5,1.2c0,0.9,0.7,1.2,2,1.5c1.9,0.4,2.9,1.1,2.9,2.8
			c0,1.4-0.9,2.7-3.2,2.7c-1.6,0-2.7-0.5-3.5-1.5l1.2-0.9c0.6,0.7,1.1,1,2.2,1c1.3,0,1.7-0.6,1.7-1.2c0-0.7-0.4-1.2-2-1.6
			c-1.8-0.4-2.8-1.2-2.8-2.8c0-1.4,0.9-2.6,3.1-2.6c1.5,0,2.5,0.5,3.2,1.5L717.8,115.4z"/>
		<path class="st1" d="M727.2,122.5v-9.3h3.2c2.1,0,3.5,1.1,3.5,4.1v1.1c0,3-1.4,4.1-3.5,4.1H727.2z M732.3,118.4v-1.1
			c0-1.9-0.6-2.8-1.9-2.8h-1.6v6.6h1.6C731.7,121.2,732.3,120.3,732.3,118.4z"/>
		<path class="st1" d="M742.4,122.5l-1.8-3.8h-1.8v3.8h-1.6v-9.3h3.2c2.2,0,3.4,0.9,3.4,2.8c0,1.3-0.6,2.1-1.7,2.5l2,4.1H742.4z
			 M740.3,117.4c1.3,0,2-0.4,2-1.4s-0.7-1.4-2-1.4h-1.5v2.8H740.3z"/>
		<path class="st1" d="M750.2,122.6c-2.1,0-3.5-1.3-3.5-4.2v-1.2c0-2.9,1.4-4.2,3.5-4.2c2.1,0,3.5,1.3,3.5,4.2v1.2
			C753.7,121.4,752.3,122.6,750.2,122.6z M748.2,118.4c0,2,0.7,2.8,1.9,2.8c1.2,0,1.9-0.8,1.9-2.8v-1.2c0-2-0.7-2.8-1.9-2.8
			c-1.2,0-1.9,0.8-1.9,2.8V118.4z"/>
		<path class="st1" d="M758.7,122.5h-1.6v-9.3h1.6V122.5z"/>
		<path class="st1" d="M768.4,113.2v1.4h-2.7v8h-1.6v-8h-2.7v-1.4H768.4z"/>
		<path class="st1" d="M776,115.4c-0.5-0.6-1-1-2-1c-1,0-1.5,0.4-1.5,1.2c0,0.9,0.7,1.2,2,1.5c1.9,0.4,2.9,1.1,2.9,2.8
			c0,1.4-0.9,2.7-3.2,2.7c-1.6,0-2.7-0.5-3.5-1.5l1.2-0.9c0.6,0.7,1.1,1,2.2,1c1.3,0,1.7-0.6,1.7-1.2c0-0.7-0.4-1.2-2-1.6
			c-1.8-0.4-2.8-1.2-2.8-2.8c0-1.4,0.9-2.6,3.1-2.6c1.5,0,2.5,0.5,3.2,1.5L776,115.4z"/>
		<path class="st1" d="M787.1,119.1v3.4h-1.6v-9.3h3.2c2.2,0,3.4,1,3.4,3c0,1.9-1.3,3-3.4,3H787.1z M788.5,117.7c1.4,0,2-0.6,2-1.6
			c0-1-0.6-1.6-2-1.6h-1.4v3.2H788.5z"/>
		<path class="st1" d="M798.2,122.6c-2.1,0-3.5-1.3-3.5-4.2v-1.2c0-2.9,1.4-4.2,3.5-4.2c2.1,0,3.5,1.3,3.5,4.2v1.2
			C801.7,121.4,800.3,122.6,798.2,122.6z M796.3,118.4c0,2,0.7,2.8,1.9,2.8c1.2,0,1.9-0.8,1.9-2.8v-1.2c0-2-0.7-2.8-1.9-2.8
			c-1.2,0-1.9,0.8-1.9,2.8V118.4z"/>
		<path class="st1" d="M812,113.2v5.6c0,2.8-1.4,3.9-3.5,3.9c-2.1,0-3.5-1.2-3.5-3.9v-5.6h1.6v5.6c0,1.8,0.6,2.5,1.9,2.5
			s1.9-0.7,1.9-2.5v-5.6H812z"/>
		<path class="st1" d="M820.8,122.5l-1.8-3.8h-1.8v3.8h-1.6v-9.3h3.2c2.2,0,3.4,0.9,3.4,2.8c0,1.3-0.6,2.1-1.7,2.5l2,4.1H820.8z
			 M818.7,117.4c1.3,0,2-0.4,2-1.4s-0.7-1.4-2-1.4h-1.5v2.8H818.7z"/>
		<path class="st1" d="M591.4,134.1v0.7c0,2.9-1.3,4.2-3.4,4.2c-2.1,0-3.5-1.3-3.5-4.2v-1.1c0-3,1.4-4.3,3.5-4.3
			c1.9,0,3.1,1.1,3.4,3h-1.5c-0.2-1.1-0.8-1.7-1.9-1.7c-1.2,0-1.9,0.8-1.9,2.8v1.2c0,2,0.7,2.8,1.9,2.8c1.2,0,1.8-0.7,1.9-2.2H588
			v-1.4H591.4z"/>
		<path class="st1" d="M593.5,138.9l3.3-9.3h1.5l3.3,9.3h-1.7l-0.6-1.9h-3.4l-0.6,1.9H593.5z M596.3,135.6h2.5l-1.2-3.8L596.3,135.6
			z"/>
		<path class="st1" d="M609.4,138.9l-1.8-3.8h-1.8v3.8h-1.6v-9.3h3.2c2.2,0,3.4,0.9,3.4,2.8c0,1.3-0.6,2.1-1.7,2.5l2,4.1H609.4z
			 M607.3,133.7c1.3,0,2-0.4,2-1.4s-0.7-1.4-2-1.4h-1.5v2.8H607.3z"/>
		<path class="st1" d="M613.1,138.9l3.3-9.3h1.5l3.3,9.3h-1.7l-0.6-1.9h-3.4l-0.6,1.9H613.1z M615.9,135.6h2.5l-1.2-3.8L615.9,135.6
			z"/>
		<path class="st1" d="M630.5,129.5v9.3h-1.4l-3.8-6.4v6.4h-1.5v-9.3h1.4l3.8,6.4v-6.4H630.5z"/>
		<path class="st1" d="M640.2,129.5v1.4h-2.7v8h-1.6v-8h-2.7v-1.4H640.2z"/>
		<path class="st1" d="M644.6,138.9H643v-9.3h1.6V138.9z"/>
		<path class="st1" d="M653.6,138.9l-1.8-3.8h-1.8v3.8h-1.6v-9.3h3.2c2.2,0,3.4,0.9,3.4,2.8c0,1.3-0.6,2.1-1.7,2.5l2,4.1H653.6z
			 M651.4,133.7c1.3,0,2-0.4,2-1.4s-0.7-1.4-2-1.4h-1.5v2.8H651.4z"/>
		<path class="st1" d="M664.8,137.5h4.2v1.4h-5.7v-9.3h1.6V137.5z"/>
		<path class="st1" d="M670.8,138.9l3.3-9.3h1.5l3.3,9.3h-1.7l-0.6-1.9h-3.4l-0.6,1.9H670.8z M673.6,135.6h2.5l-1.2-3.8L673.6,135.6
			z"/>
		<path class="st1" d="M691.3,131.8c-0.5-0.6-1-1-2-1c-1,0-1.5,0.4-1.5,1.2c0,0.9,0.7,1.2,2,1.5c1.9,0.4,2.9,1.1,2.9,2.8
			c0,1.4-0.9,2.7-3.2,2.7c-1.6,0-2.7-0.5-3.5-1.5l1.2-0.9c0.6,0.7,1.1,1,2.2,1c1.3,0,1.7-0.6,1.7-1.2c0-0.7-0.4-1.2-2-1.6
			c-1.8-0.4-2.8-1.2-2.8-2.8c0-1.4,0.9-2.6,3.1-2.6c1.5,0,2.5,0.5,3.2,1.5L691.3,131.8z"/>
		<path class="st1" d="M694.8,138.9l3.3-9.3h1.5l3.3,9.3h-1.7l-0.6-1.9h-3.4l-0.6,1.9H694.8z M697.5,135.6h2.5l-1.2-3.8L697.5,135.6
			z"/>
		<path class="st1" d="M712.2,129.5v9.3h-1.4l-3.8-6.4v6.4h-1.5v-9.3h1.4l3.8,6.4v-6.4H712.2z"/>
		<path class="st1" d="M721.8,129.5v1.4h-2.7v8h-1.6v-8h-2.7v-1.4H721.8z"/>
		<path class="st1" d="M730.3,129.5v1.4h-4.2v2.5h3.8v1.4h-3.8v2.8h4.2v1.4h-5.7v-9.3H730.3z M727.6,127h1.7l-1.4,1.7h-1.4
			L727.6,127z"/>
		<path class="st1" d="M742.5,134.9l2.7-5.4h1.5v9.3h-1.5v-6.3l-2.1,4.5H742l-2.1-4.4v6.2h-1.5v-9.3h1.5L742.5,134.9z"/>
		<path class="st1" d="M753.5,139c-2.1,0-3.5-1.3-3.5-4.2v-1.2c0-2.9,1.4-4.2,3.5-4.2c2.1,0,3.5,1.3,3.5,4.2v1.2
			C757,137.7,755.6,139,753.5,139z M751.6,134.8c0,2,0.7,2.8,1.9,2.8c1.2,0,1.9-0.8,1.9-2.8v-1.2c0-2-0.7-2.8-1.9-2.8
			c-1.2,0-1.9,0.8-1.9,2.8V134.8z"/>
		<path class="st1" d="M767,129.5v9.3h-1.4l-3.8-6.4v6.4h-1.5v-9.3h1.4l3.8,6.4v-6.4H767z"/>
		<path class="st1" d="M770.7,138.9v-9.3h3.2c2.1,0,3.5,1.1,3.5,4.1v1.1c0,3-1.4,4.1-3.5,4.1H770.7z M775.8,134.8v-1.1
			c0-1.9-0.6-2.8-1.9-2.8h-1.6v6.6h1.6C775.2,137.5,775.8,136.7,775.8,134.8z"/>
		<path class="st1" d="M782.3,138.9h-1.6v-9.3h1.6V138.9z"/>
		<path class="st1" d="M785.1,138.9l3.3-9.3h1.5l3.3,9.3h-1.7l-0.6-1.9h-3.4l-0.6,1.9H785.1z M787.9,135.6h2.5l-1.2-3.8L787.9,135.6
			z"/>
		<path class="st1" d="M797.3,137.5h4.2v1.4h-5.7v-9.3h1.6V137.5z"/>
		<path class="st1" d="M809.9,129.5v1.4h-4.2v2.5h3.8v1.4h-3.8v2.8h4.2v1.4h-5.7v-9.3H809.9z"/>
	</g>
	<g>
		<path class="st2" d="M588.6,36.8h8.8v2.9h-12.2V19.8h3.3V36.8z"/>
		<path class="st2" d="M601.5,39.6l6.9-19.9h3.2l6.9,19.9H615l-1.4-4.1h-7.2l-1.4,4.1H601.5z M607.4,32.6h5.3l-2.6-8L607.4,32.6z"/>
		<path class="st2" d="M638.5,32.4v7.3h-3.3V19.8h6.8c4.6,0,7.3,2.2,7.3,6.3c0,4-2.7,6.3-7.3,6.3H638.5z M641.6,29.5
			c3.1,0,4.3-1.2,4.3-3.5c0-2.2-1.3-3.4-4.3-3.4h-3.1v6.8H641.6z"/>
		<path class="st2" d="M666.7,39.6l-3.8-8.1H659v8.1h-3.3V19.8h6.8c4.6,0,7.3,2,7.3,5.9c0,2.7-1.3,4.5-3.6,5.3l4.2,8.6H666.7z
			 M662.2,28.7c2.8,0,4.2-0.7,4.2-3s-1.4-3-4.2-3H659v6H662.2z"/>
		<path class="st2" d="M683.4,39.9c-4.4,0-7.4-2.7-7.4-8.9v-2.5c0-6.2,3-8.9,7.4-8.9c4.5,0,7.5,2.7,7.5,8.9V31
			C690.8,37.2,687.9,39.9,683.4,39.9z M679.3,31c0,4.3,1.4,6,4.1,6c2.6,0,4.1-1.7,4.1-6v-2.5c0-4.3-1.5-6-4.1-6
			c-2.6,0-4.1,1.7-4.1,6V31z"/>
		<path class="st2" d="M710.2,19.8v2.9h-8.8v5.7h8v2.9h-8v8.4H698V19.8H710.2z"/>
		<path class="st2" d="M728.9,19.8v2.9H720v5.2h8v2.9h-8v6h8.8v2.9h-12.2V19.8H728.9z"/>
		<path class="st2" d="M745.9,24.6c-1-1.4-2-2.2-4.3-2.2c-2,0-3.3,0.9-3.3,2.6c0,1.9,1.5,2.6,4.3,3.3c4,0.9,6.1,2.4,6.1,5.9
			c0,3-2,5.7-6.8,5.7c-3.4,0-5.8-1-7.4-3.3l2.6-1.8c1.2,1.4,2.4,2.2,4.6,2.2c2.7,0,3.6-1.2,3.6-2.6c0-1.6-0.9-2.6-4.3-3.3
			c-3.8-0.8-6-2.6-6-6c0-3,2-5.5,6.6-5.5c3.2,0,5.4,1.1,6.8,3.3L745.9,24.6z"/>
		<path class="st2" d="M766,24.6c-1-1.4-2-2.2-4.3-2.2c-2,0-3.3,0.9-3.3,2.6c0,1.9,1.5,2.6,4.3,3.3c4,0.9,6.1,2.4,6.1,5.9
			c0,3-2,5.7-6.8,5.7c-3.4,0-5.8-1-7.4-3.3l2.6-1.8c1.2,1.4,2.4,2.2,4.6,2.2c2.7,0,3.6-1.2,3.6-2.6c0-1.6-0.9-2.6-4.3-3.3
			c-3.8-0.8-6-2.6-6-6c0-3,2-5.5,6.6-5.5c3.2,0,5.4,1.1,6.8,3.3L766,24.6z"/>
		<path class="st2" d="M779.3,39.6H776V19.8h3.3V39.6z"/>
		<path class="st2" d="M794.2,39.9c-4.4,0-7.4-2.7-7.4-8.9v-2.5c0-6.2,3-8.9,7.4-8.9c4.5,0,7.5,2.7,7.5,8.9V31
			C801.6,37.2,798.6,39.9,794.2,39.9z M790.1,31c0,4.3,1.4,6,4.1,6c2.6,0,4.1-1.7,4.1-6v-2.5c0-4.3-1.5-6-4.1-6
			c-2.6,0-4.1,1.7-4.1,6V31z"/>
		<path class="st2" d="M823,19.8v19.9h-3L812,26.1v13.5h-3.2V19.8h2.9l8.2,13.7V19.8H823z"/>
		<path class="st2" d="M588.8,68.4h-3.3V48.6h3.3V68.4z"/>
		<path class="st2" d="M611.3,48.6v19.9h-3l-8.1-13.5v13.5h-3.2V48.6h2.9l8.2,13.7V48.6H611.3z"/>
		<path class="st2" d="M631.5,48.6v2.9h-8.8v5.7h8V60h-8v8.4h-3.3V48.6H631.5z"/>
		<path class="st2" d="M641.6,68.4h-3.3V48.6h3.3V68.4z"/>
		<path class="st2" d="M660.8,68.4l-3.8-8.1h-3.9v8.1h-3.3V48.6h6.8c4.6,0,7.3,2,7.3,5.9c0,2.7-1.3,4.5-3.6,5.3l4.2,8.6H660.8z
			 M656.3,57.5c2.8,0,4.2-0.7,4.2-3c0-2.2-1.4-3-4.2-3h-3.2v6H656.3z"/>
		<path class="st2" d="M679.9,60.1l5.7-11.5h3.2v19.9h-3.2V55.1l-4.5,9.5h-2.4l-4.5-9.4v13.2H671V48.6h3.2L679.9,60.1z"/>
		<path class="st2" d="M700.4,68.4H697V48.6h3.3V68.4z"/>
		<path class="st2" d="M720.7,48.6v2.9h-8.8v5.2h8v2.9h-8v6h8.8v2.9h-12.2V48.6H720.7z M716.8,47h-3l-3-3.7h3.7L716.8,47z"/>
		<path class="st2" d="M738.5,68.4l-3.8-8.1h-3.9v8.1h-3.3V48.6h6.8c4.6,0,7.3,2,7.3,5.9c0,2.7-1.3,4.5-3.6,5.3l4.2,8.6H738.5z
			 M734,57.5c2.8,0,4.2-0.7,4.2-3c0-2.2-1.4-3-4.2-3h-3.2v6H734z"/>
		<path class="st2" d="M760.8,48.6v2.9H752v5.2h8v2.9h-8v6h8.8v2.9h-12.2V48.6H760.8z"/>
	</g>
	<g>
		<g>
			<path class="st0" d="M884.3,89.8c-3.2,0-6.4-1.2-8.8-3.7L858.3,69h-25.4l42.6-42.6c2.4-2.4,5.5-3.6,8.8-3.6s6.5,1.3,8.8,3.6
				l21,21.5c4.8,4.9,4.7,12.7-0.1,17.6l-20.9,20.7C890.7,88.5,887.5,89.8,884.3,89.8z M840,66h19.6l18,18c1.8,1.8,4.2,2.8,6.8,2.8
				c2.6,0,5-1,6.8-2.8l0,0L912,63.4c3.7-3.7,3.7-9.7,0.1-13.5l-20.9-21.5c-1.8-1.8-4.2-2.8-6.8-2.8c-2.6,0-5,1-6.8,2.8L840,66z"/>
		</g>
		<g>
			<g>
				<g>
					<g>
						<path class="st1" d="M878.3,79.4V64.6l-6.5-6.5c-3.8-3.8-3.8-10,0-13.8c3.8-3.8,10-3.8,13.8,0l1.5,1.5l1.7-1.7
							c3.4-3.4,9-3.4,12.4,0c3.4,3.4,3.4,9,0,12.4l-0.2,0.3L878.3,79.4z M878.7,44.4c-1.8,0-3.6,0.7-4.8,2c-1.3,1.3-2,3-2,4.8
							c0,1.8,0.7,3.6,2,4.8l7.4,7.4v8.9l17.9-17.9c2.3-2.3,2.3-6,0-8.3c-2.3-2.3-6-2.3-8.3,0l-3.8,3.8l-3.6-3.6
							C882.3,45.1,880.5,44.4,878.7,44.4z"/>
					</g>
				</g>
			</g>
		</g>
	</g>
</g>
<g>
	<g>
		<path class="st1" d="M8.5,106.1H6.9v-9.3h1.6V106.1z"/>
		<path class="st1" d="M19,96.8v9.3h-1.4l-3.8-6.4v6.4h-1.5v-9.3h1.4l3.8,6.4v-6.4H19z"/>
		<path class="st1" d="M23.4,96.8l2.3,6.8l2.3-6.8h1.7l-3.3,9.3H25l-3.3-9.3H23.4z"/>
		<path class="st1" d="M38.2,96.8v1.4H34v2.5h3.8v1.4H34v2.8h4.2v1.4h-5.7v-9.3H38.2z"/>
		<path class="st1" d="M46.1,99.1c-0.5-0.6-1-1-2-1c-1,0-1.5,0.4-1.5,1.2c0,0.9,0.7,1.2,2,1.5c1.9,0.4,2.9,1.1,2.9,2.8
			c0,1.4-0.9,2.7-3.2,2.7c-1.6,0-2.7-0.5-3.5-1.5l1.2-0.9c0.6,0.7,1.1,1,2.2,1c1.3,0,1.7-0.6,1.7-1.2c0-0.7-0.4-1.2-2-1.6
			c-1.8-0.4-2.8-1.2-2.8-2.8c0-1.4,0.9-2.6,3.1-2.6c1.5,0,2.5,0.5,3.2,1.5L46.1,99.1z"/>
		<path class="st1" d="M56.5,96.8v1.4h-2.7v8h-1.6v-8h-2.7v-1.4H56.5z"/>
		<path class="st1" d="M65.9,106.1h-1.6v-9.3h1.6V106.1z"/>
		<path class="st1" d="M76.4,96.8v9.3H75l-3.8-6.4v6.4h-1.5v-9.3h1.4l3.8,6.4v-6.4H76.4z"/>
		<path class="st1" d="M91.8,96.8v9.3h-1.4l-3.8-6.4v6.4h-1.5v-9.3h1.4l3.8,6.4v-6.4H91.8z"/>
		<path class="st1" d="M102.4,96.8v5.6c0,2.8-1.4,3.9-3.5,3.9s-3.5-1.2-3.5-3.9v-5.6H97v5.6c0,1.8,0.6,2.5,1.9,2.5
			c1.3,0,1.9-0.7,1.9-2.5v-5.6H102.4z"/>
		<path class="st1" d="M111.3,106.1l-1.8-3.8h-1.8v3.8h-1.6v-9.3h3.2c2.2,0,3.4,0.9,3.4,2.8c0,1.3-0.6,2.1-1.7,2.5l2,4.1H111.3z
			 M109.2,101c1.3,0,2-0.4,2-1.4s-0.7-1.4-2-1.4h-1.5v2.8H109.2z"/>
		<path class="st1" d="M120.8,99.1c-0.5-0.6-1-1-2-1c-1,0-1.5,0.4-1.5,1.2c0,0.9,0.7,1.2,2,1.5c1.9,0.4,2.9,1.1,2.9,2.8
			c0,1.4-0.9,2.7-3.2,2.7c-1.6,0-2.7-0.5-3.5-1.5l1.2-0.9c0.6,0.7,1.1,1,2.2,1c1.3,0,1.7-0.6,1.7-1.2c0-0.7-0.4-1.2-2-1.6
			c-1.8-0.4-2.8-1.2-2.8-2.8c0-1.4,0.9-2.6,3.1-2.6c1.5,0,2.5,0.5,3.2,1.5L120.8,99.1z"/>
		<path class="st1" d="M127,106.1h-1.6v-9.3h1.6V106.1z"/>
		<path class="st1" d="M137.5,96.8v9.3h-1.4l-3.8-6.4v6.4h-1.5v-9.3h1.4l3.8,6.4v-6.4H137.5z"/>
		<path class="st1" d="M147.8,101.3v0.7c0,2.9-1.3,4.2-3.4,4.2c-2.1,0-3.5-1.3-3.5-4.2v-1.1c0-3,1.4-4.3,3.5-4.3
			c1.9,0,3.1,1.1,3.4,3h-1.5c-0.2-1.1-0.8-1.7-1.9-1.7c-1.2,0-1.9,0.8-1.9,2.8v1.2c0,2,0.7,2.8,1.9,2.8c1.2,0,1.8-0.7,1.9-2.2h-1.9
			v-1.4H147.8z"/>
		<path class="st1" d="M155,106.1l3.3-9.3h1.5l3.3,9.3h-1.7l-0.6-1.9h-3.4l-0.6,1.9H155z M157.8,102.8h2.5l-1.2-3.8L157.8,102.8z"/>
		<path class="st1" d="M172.4,96.8v9.3H171l-3.8-6.4v6.4h-1.5v-9.3h1.4l3.8,6.4v-6.4H172.4z"/>
		<path class="st1" d="M176.1,106.1v-9.3h3.2c2.1,0,3.5,1.1,3.5,4.1v1.1c0,3-1.4,4.1-3.5,4.1H176.1z M181.2,102v-1.1
			c0-1.9-0.6-2.8-1.9-2.8h-1.6v6.6h1.6C180.6,104.8,181.2,103.9,181.2,102z"/>
		<path class="st1" d="M11.9,122.5l-1.8-3.8H8.3v3.8H6.8v-9.3h3.2c2.2,0,3.4,0.9,3.4,2.8c0,1.3-0.6,2.1-1.7,2.5l2,4.1H11.9z
			 M9.8,117.4c1.3,0,2-0.4,2-1.4s-0.7-1.4-2-1.4H8.3v2.8H9.8z"/>
		<path class="st1" d="M22.4,113.2v1.4h-4.2v2.5H22v1.4h-3.8v2.8h4.2v1.4h-5.7v-9.3H22.4z"/>
		<path class="st1" d="M30.3,115.4c-0.5-0.6-1-1-2-1c-1,0-1.5,0.4-1.5,1.2c0,0.9,0.7,1.2,2,1.5c1.9,0.4,2.9,1.1,2.9,2.8
			c0,1.4-0.9,2.7-3.2,2.7c-1.6,0-2.7-0.5-3.5-1.5l1.2-0.9c0.6,0.7,1.1,1,2.2,1c1.3,0,1.7-0.6,1.7-1.2c0-0.7-0.4-1.2-2-1.6
			c-1.8-0.4-2.8-1.2-2.8-2.8c0-1.4,0.9-2.6,3.1-2.6c1.5,0,2.5,0.5,3.2,1.5L30.3,115.4z"/>
		<path class="st1" d="M36.4,119.1v3.4h-1.6v-9.3H38c2.2,0,3.4,1,3.4,3c0,1.9-1.3,3-3.4,3H36.4z M37.8,117.7c1.4,0,2-0.6,2-1.6
			c0-1-0.6-1.6-2-1.6h-1.4v3.2H37.8z"/>
		<path class="st1" d="M50.1,113.2v1.4H46v2.5h3.8v1.4H46v2.8h4.2v1.4h-5.7v-9.3H50.1z"/>
		<path class="st1" d="M58.2,116.1c-0.2-1.1-0.9-1.7-1.9-1.7c-1.2,0-1.9,0.8-1.9,2.8v1.2c0,2,0.7,2.8,1.9,2.8c1.1,0,1.6-0.5,1.9-1.7
			h1.5c-0.3,2.1-1.5,3-3.4,3c-2.1,0-3.5-1.3-3.5-4.2v-1.2c0-2.9,1.4-4.2,3.5-4.2c1.9,0,3.1,1,3.4,3H58.2z"/>
		<path class="st1" d="M68.7,113.2v1.4H66v8h-1.6v-8h-2.7v-1.4H68.7z"/>
		<path class="st1" d="M81.6,122.5l-1.8-3.8H78v3.8h-1.6v-9.3h3.2c2.2,0,3.4,0.9,3.4,2.8c0,1.3-0.6,2.1-1.7,2.5l2,4.1H81.6z
			 M79.5,117.4c1.3,0,2-0.4,2-1.4s-0.7-1.4-2-1.4H78v2.8H79.5z"/>
		<path class="st1" d="M88,122.5h-1.6v-9.3H88V122.5z"/>
		<path class="st1" d="M98.3,117.7v0.7c0,2.9-1.3,4.2-3.4,4.2c-2.1,0-3.5-1.3-3.5-4.2v-1.1c0-3,1.4-4.3,3.5-4.3c1.9,0,3.1,1.1,3.4,3
			h-1.5c-0.2-1.1-0.8-1.7-1.9-1.7c-1.2,0-1.9,0.8-1.9,2.8v1.2c0,2,0.7,2.8,1.9,2.8c1.2,0,1.8-0.7,1.9-2.2h-1.9v-1.4H98.3z"/>
		<path class="st1" d="M103.2,117h3.6v-3.8h1.6v9.3h-1.6v-4.2h-3.6v4.2h-1.6v-9.3h1.6V117z"/>
		<path class="st1" d="M118,113.2v1.4h-2.7v8h-1.6v-8H111v-1.4H118z"/>
		<path class="st1" d="M125.6,115.4c-0.5-0.6-1-1-2-1c-1,0-1.5,0.4-1.5,1.2c0,0.9,0.7,1.2,2,1.5c1.9,0.4,2.9,1.1,2.9,2.8
			c0,1.4-0.9,2.7-3.2,2.7c-1.6,0-2.7-0.5-3.5-1.5l1.2-0.9c0.6,0.7,1.1,1,2.2,1c1.3,0,1.7-0.6,1.7-1.2c0-0.7-0.4-1.2-2-1.6
			c-1.8-0.4-2.8-1.2-2.8-2.8c0-1.4,0.9-2.6,3.1-2.6c1.5,0,2.5,0.5,3.2,1.5L125.6,115.4z"/>
		<path class="st1" d="M141.1,113.2v1.4h-2.7v8h-1.6v-8h-2.7v-1.4H141.1z"/>
		<path class="st1" d="M146.8,122.6c-2.1,0-3.5-1.3-3.5-4.2v-1.2c0-2.9,1.4-4.2,3.5-4.2c2.1,0,3.5,1.3,3.5,4.2v1.2
			C150.4,121.4,148.9,122.6,146.8,122.6z M144.9,118.4c0,2,0.7,2.8,1.9,2.8c1.2,0,1.9-0.8,1.9-2.8v-1.2c0-2-0.7-2.8-1.9-2.8
			c-1.2,0-1.9,0.8-1.9,2.8V118.4z"/>
		<path class="st1" d="M11.6,131.8c-0.5-0.6-1-1-2-1c-1,0-1.5,0.4-1.5,1.2c0,0.9,0.7,1.2,2,1.5c1.9,0.4,2.9,1.1,2.9,2.8
			c0,1.4-0.9,2.7-3.2,2.7c-1.6,0-2.7-0.5-3.5-1.5l1.2-0.9c0.6,0.7,1.1,1,2.2,1c1.3,0,1.7-0.6,1.7-1.2c0-0.7-0.4-1.2-2-1.6
			c-1.8-0.4-2.8-1.2-2.8-2.8c0-1.4,0.9-2.6,3.1-2.6c1.5,0,2.5,0.5,3.2,1.5L11.6,131.8z"/>
		<path class="st1" d="M21.8,129.5v1.4h-4.2v2.5h3.8v1.4h-3.8v2.8h4.2v1.4h-5.7v-9.3H21.8z"/>
		<path class="st1" d="M29.9,132.4c-0.2-1.1-0.9-1.7-1.9-1.7c-1.2,0-1.9,0.8-1.9,2.8v1.2c0,2,0.7,2.8,1.9,2.8c1.1,0,1.6-0.5,1.9-1.7
			h1.5c-0.3,2.1-1.5,3-3.4,3c-2.1,0-3.5-1.3-3.5-4.2v-1.2c0-2.9,1.4-4.2,3.5-4.2c1.9,0,3.1,1,3.4,3H29.9z"/>
		<path class="st1" d="M41.5,129.5v5.6c0,2.8-1.4,3.9-3.5,3.9c-2.1,0-3.5-1.2-3.5-3.9v-5.6h1.6v5.6c0,1.8,0.6,2.5,1.9,2.5
			c1.3,0,1.9-0.7,1.9-2.5v-5.6H41.5z"/>
		<path class="st1" d="M50.3,138.9l-1.8-3.8h-1.8v3.8h-1.6v-9.3h3.2c2.2,0,3.4,0.9,3.4,2.8c0,1.3-0.6,2.1-1.7,2.5l2,4.1H50.3z
			 M48.2,133.7c1.3,0,2-0.4,2-1.4s-0.7-1.4-2-1.4h-1.5v2.8H48.2z"/>
		<path class="st1" d="M60.7,129.5v1.4h-4.2v2.5h3.8v1.4h-3.8v2.8h4.2v1.4H55v-9.3H60.7z"/>
		<path class="st1" d="M75.4,134.1v0.7c0,2.9-1.3,4.2-3.4,4.2c-2.1,0-3.5-1.3-3.5-4.2v-1.1c0-3,1.4-4.3,3.5-4.3c1.9,0,3.1,1.1,3.4,3
			h-1.5c-0.2-1.1-0.8-1.7-1.9-1.7c-1.2,0-1.9,0.8-1.9,2.8v1.2c0,2,0.7,2.8,1.9,2.8c1.2,0,1.8-0.7,1.9-2.2H72v-1.4H75.4z"/>
		<path class="st1" d="M80.2,137.5h4.2v1.4h-5.7v-9.3h1.6V137.5z"/>
		<path class="st1" d="M89.9,139c-2.1,0-3.5-1.3-3.5-4.2v-1.2c0-2.9,1.4-4.2,3.5-4.2c2.1,0,3.5,1.3,3.5,4.2v1.2
			C93.4,137.7,92,139,89.9,139z M88,134.8c0,2,0.7,2.8,1.9,2.8c1.2,0,1.9-0.8,1.9-2.8v-1.2c0-2-0.7-2.8-1.9-2.8
			c-1.2,0-1.9,0.8-1.9,2.8V134.8z"/>
		<path class="st1" d="M99.7,129.5c2.2,0,3.3,0.8,3.3,2.4c0,1-0.6,1.7-1.4,2c1.1,0.3,1.7,1,1.7,2.2c0,1.4-0.9,2.7-3.3,2.7h-3.3v-9.3
			H99.7z M98.2,133.3h1.5c1.2,0,1.7-0.5,1.7-1.3c0-0.7-0.4-1.2-1.9-1.2h-1.3V133.3z M98.2,137.5h1.6c1.3,0,1.8-0.5,1.8-1.4
			c0-1-0.7-1.4-2-1.4h-1.4V137.5z"/>
		<path class="st1" d="M105.4,138.9l3.3-9.3h1.5l3.3,9.3h-1.7l-0.6-1.9h-3.4l-0.6,1.9H105.4z M108.2,135.6h2.5l-1.2-3.8L108.2,135.6
			z"/>
		<path class="st1" d="M117.6,137.5h4.2v1.4h-5.7v-9.3h1.6V137.5z"/>
		<path class="st1" d="M131,133.4h3.6v-3.8h1.6v9.3h-1.6v-4.2H131v4.2h-1.6v-9.3h1.6V133.4z"/>
		<path class="st1" d="M145.6,129.5v1.4h-4.2v2.5h3.8v1.4h-3.8v2.8h4.2v1.4h-5.7v-9.3H145.6z"/>
		<path class="st1" d="M147.7,138.9l3.3-9.3h1.5l3.3,9.3H154l-0.6-1.9H150l-0.6,1.9H147.7z M150.4,135.6h2.5l-1.2-3.8L150.4,135.6z"
			/>
		<path class="st1" d="M159.9,137.5h4.2v1.4h-5.7v-9.3h1.6V137.5z"/>
		<path class="st1" d="M172.2,129.5v1.4h-2.7v8h-1.6v-8h-2.7v-1.4H172.2z"/>
		<path class="st1" d="M176.5,133.4h3.6v-3.8h1.6v9.3H180v-4.2h-3.6v4.2h-1.6v-9.3h1.6V133.4z"/>
	</g>
	<g>
		<g>
			<path class="st0" d="M185.6,89.8c-3.2,0-6.4-1.2-8.8-3.7L159.6,69h-25.4l42.6-42.6c2.4-2.4,5.5-3.6,8.8-3.6
				c3.3,0,6.5,1.3,8.8,3.6l21,21.5c4.8,4.9,4.7,12.7-0.1,17.6l-20.9,20.7C192,88.5,188.8,89.8,185.6,89.8z M141.2,66h19.6l18,18
				c1.8,1.8,4.2,2.8,6.8,2.8c2.6,0,5-1,6.8-2.8l0,0l20.9-20.7c3.7-3.7,3.7-9.7,0.1-13.5l-20.9-21.5c-1.8-1.8-4.2-2.8-6.8-2.8
				c-2.6,0-5,1-6.8,2.8L141.2,66z"/>
		</g>
		<g>
			<g>
				<g>
					<g>
						<path class="st1" d="M179.6,79.4V64.6l-6.5-6.5c-3.8-3.8-3.8-10,0-13.8c3.8-3.8,10-3.8,13.8,0l1.5,1.5l1.7-1.7
							c3.4-3.4,9-3.4,12.4,0c3.4,3.4,3.4,9,0,12.4l-0.2,0.3L179.6,79.4z M180,44.4c-1.8,0-3.6,0.7-4.8,2c-1.3,1.3-2,3-2,4.8
							c0,1.8,0.7,3.6,2,4.8l7.4,7.4v8.9l17.9-17.9c2.3-2.3,2.3-6,0-8.3c-2.3-2.3-6-2.3-8.3,0l-3.8,3.8l-3.6-3.6
							C183.5,45.1,181.8,44.4,180,44.4z"/>
					</g>
				</g>
			</g>
		</g>
	</g>
	<g>
		<path class="st0" d="M5.7,89.8l4.1-11.7H12l4.1,11.7h-2.5l-0.7-2.2H8.9l-0.7,2.2H5.7z M9.5,85.5h2.6l-1.3-4.1L9.5,85.5z"/>
		<path class="st0" d="M26.3,78.1l2.6,7.9l2.6-7.9H34l-4.1,11.7h-2.2l-4.1-11.7H26.3z"/>
		<path class="st0" d="M40.7,89.9c-2.6,0-4.5-1.6-4.5-5.2v-1.7c0-3.6,1.8-5.2,4.5-5.2c2.6,0,4.5,1.6,4.5,5.2v1.7
			C45.2,88.3,43.4,89.9,40.7,89.9z M38.6,84.8c0,2.2,0.7,3.2,2.1,3.2c1.4,0,2.1-0.9,2.1-3.2v-1.7c0-2.2-0.7-3.2-2.1-3.2
			c-1.4,0-2.1,0.9-2.1,3.2V84.8z"/>
		<path class="st0" d="M51.4,89.8h-2.4V78.1h2.4V89.8z"/>
		<path class="st0" d="M61.7,81.7c-0.2-1.1-0.9-1.8-2-1.8c-1.4,0-2.1,0.9-2.1,3.2v1.7c0,2.2,0.7,3.2,2.1,3.2c1.2,0,1.8-0.6,2-1.8H64
			c-0.4,2.6-1.9,3.8-4.3,3.8c-2.6,0-4.5-1.6-4.5-5.2v-1.7c0-3.6,1.8-5.2,4.5-5.2c2.3,0,3.9,1.2,4.3,3.8H61.7z"/>
		<path class="st0" d="M74.7,78.1v2h-4.9v2.6h4.4v2h-4.4v3h4.9v2h-7.3V78.1H74.7z"/>
		<path class="st0" d="M91.8,78.1v2h-3.2v9.7h-2.4v-9.7H83v-2H91.8z"/>
		<path class="st0" d="M98.8,89.9c-2.6,0-4.5-1.6-4.5-5.2v-1.7c0-3.6,1.8-5.2,4.5-5.2c2.6,0,4.5,1.6,4.5,5.2v1.7
			C103.2,88.3,101.4,89.9,98.8,89.9z M96.7,84.8c0,2.2,0.7,3.2,2.1,3.2c1.4,0,2.1-0.9,2.1-3.2v-1.7c0-2.2-0.7-3.2-2.1-3.2
			c-1.4,0-2.1,0.9-2.1,3.2V84.8z"/>
		<path class="st0" d="M115.2,87.8h4.9v2h-7.3V78.1h2.4V87.8z"/>
		<path class="st0" d="M130.4,78.1v2h-4.9v2.6h4.4v2h-4.4v3h4.9v2h-7.3V78.1H130.4z"/>
		<path class="st0" d="M132.5,89.8l4.1-11.7h2.3l4.1,11.7h-2.5l-0.7-2.2h-3.9l-0.7,2.2H132.5z M136.4,85.5h2.6l-1.3-4.1L136.4,85.5z
			"/>
		<path class="st0" d="M145.7,89.8V78.1h4.1c2.6,0,4.5,1.4,4.5,5.1v1.5c0,3.7-1.8,5.1-4.5,5.1H145.7z M152,84.7v-1.5
			c0-2-0.5-3.1-2.1-3.1h-1.8v7.7h1.8C151.4,87.8,152,86.7,152,84.7z"/>
	</g>
	<g>
		<polygon class="st0" points="16.5,60.2 9.2,48 5.5,48 5.5,69 9.8,69 9.8,57 17,69 20.9,69 20.9,48 16.5,48 		"/>
		<path class="st0" d="M39.2,60.4c0,4.2-1.8,4.8-3.5,4.8c-1.7,0-3.5-0.6-3.5-4.8V48h-4.5v12.4c0,5.7,2.8,8.9,8,8.9s8-3.2,8-8.9V48
			h-4.5V60.4z"/>
		<path class="st0" d="M65.7,54.5c0-4.1-2.9-6.5-7.9-6.5h-7.3v21H55v-8.1h2.9l3.8,8.1h4.9l-4.4-8.9C64.5,59.1,65.7,57.2,65.7,54.5z
			 M55,52h2.6c3,0,3.6,0.9,3.6,2.5c0,1.5-0.6,2.4-3.6,2.4H55V52z"/>
		<path class="st0" d="M79.4,56.5c-2.9-0.6-3.8-1.3-3.8-2.7c0-1.7,1.5-2,2.7-2c2,0,2.9,0.7,3.8,1.9l0.3,0.5l3.4-2.5l-0.3-0.5
			c-1.5-2.4-3.9-3.5-7.3-3.5c-3.5,0-7.2,1.6-7.2,6.1c0,3.5,2.2,5.7,6.4,6.6c3.6,0.8,3.9,1.8,3.9,2.8c0,0.5,0,2.1-3,2.1
			c-2.1,0-3.2-0.7-4.2-2l-0.3-0.4l-3.5,2.4l0.3,0.5c1.7,2.3,4.3,3.5,7.9,3.5c3.4,0,7.3-1.6,7.3-6.3C85.9,58.5,82.8,57.2,79.4,56.5z"
			/>
		<polygon class="st0" points="91.7,69 105,69 105,65 96.2,65 96.2,60.2 104.2,60.2 104.2,56.1 96.2,56.1 96.2,52 105,52 105,48 
			91.7,48 		"/>
		<path class="st0" d="M118.4,56.5c-2.9-0.6-3.8-1.3-3.8-2.7c0-1.7,1.5-2,2.7-2c2,0,2.9,0.7,3.8,1.9l0.3,0.5l3.4-2.5l-0.3-0.5
			c-1.5-2.4-3.9-3.5-7.3-3.5c-3.5,0-7.2,1.6-7.2,6.1c0,3.5,2.2,5.7,6.4,6.6c3.6,0.8,3.9,1.8,3.9,2.8c0,0.5,0,2.1-3,2.1
			c-2.1,0-3.2-0.7-4.2-2l-0.3-0.4l-3.5,2.4l0.3,0.5c1.7,2.3,4.3,3.5,7.9,3.5c3.4,0,7.3-1.6,7.3-6.3
			C124.9,58.5,121.8,57.2,118.4,56.5z"/>
	</g>
</g>
</svg>
