<?xml version="1.0" encoding="utf-8"?>
<!-- Generator: Adobe Illustrator 26.0.2, SVG Export Plug-In . SVG Version: 6.00 Build 0)  -->
<svg version="1.1" id="Layer_1" xmlns="http://www.w3.org/2000/svg" xmlns:xlink="http://www.w3.org/1999/xlink" x="0px" y="0px"
	 viewBox="0 0 425.2 226.8" style="enable-background:new 0 0 425.2 226.8;" xml:space="preserve">
<style type="text/css">
	.st0{fill:#00A19A;}
	.st1{fill:#312783;}
</style>
<g>
	<path class="st0" d="M30.8,155.9h-2.8v-16.6h2.8V155.9z"/>
	<path class="st0" d="M49.4,139.3v16.6H47l-6.7-11.3v11.3h-2.7v-16.6h2.4l6.8,11.4v-11.4H49.4z"/>
	<path class="st0" d="M57.3,139.3l4.1,12.1l4.1-12.1h3l-5.9,16.6h-2.5l-5.9-16.6H57.3z"/>
	<path class="st0" d="M83.5,139.3v2.4h-7.4v4.4h6.6v2.4h-6.6v5h7.4v2.4H73.3v-16.6H83.5z"/>
	<path class="st0" d="M97.6,143.3c-0.8-1.1-1.7-1.8-3.6-1.8c-1.7,0-2.7,0.8-2.7,2.2c0,1.6,1.2,2.2,3.6,2.7c3.3,0.7,5.1,2,5.1,4.9
		c0,2.5-1.7,4.8-5.6,4.8c-2.8,0-4.8-0.9-6.2-2.7l2.2-1.5c1,1.2,2,1.8,3.9,1.8c2.3,0,3-1,3-2.2c0-1.3-0.7-2.1-3.6-2.8
		c-3.2-0.7-5-2.2-5-5c0-2.5,1.6-4.6,5.5-4.6c2.6,0,4.5,0.9,5.7,2.7L97.6,143.3z"/>
	<path class="st0" d="M116,139.3v2.4h-4.8v14.1h-2.8v-14.1h-4.8v-2.4H116z"/>
	<path class="st0" d="M132.6,155.9h-2.8v-16.6h2.8V155.9z"/>
	<path class="st0" d="M151.2,139.3v16.6h-2.5l-6.7-11.3v11.3h-2.7v-16.6h2.4l6.8,11.4v-11.4H151.2z"/>
	<path class="st0" d="M178.5,139.3v16.6H176l-6.7-11.3v11.3h-2.7v-16.6h2.4l6.8,11.4v-11.4H178.5z"/>
	<path class="st0" d="M197.3,139.3v9.8c0,4.9-2.5,6.9-6.2,6.9s-6.2-2-6.2-6.9v-9.9h2.8v9.9c0,3.2,1.1,4.5,3.4,4.5s3.4-1.3,3.4-4.5
		v-9.9H197.3z"/>
	<path class="st0" d="M213,155.9l-3.2-6.7h-3.2v6.7h-2.8v-16.6h5.6c3.8,0,6.1,1.7,6.1,4.9c0,2.3-1.1,3.7-3,4.4l3.5,7.2H213z
		 M209.3,146.8c2.4,0,3.5-0.6,3.5-2.5s-1.2-2.5-3.5-2.5h-2.7v5H209.3z"/>
	<path class="st0" d="M229.9,143.3c-0.8-1.1-1.7-1.8-3.6-1.8c-1.7,0-2.7,0.8-2.7,2.2c0,1.6,1.2,2.2,3.6,2.7c3.3,0.7,5.1,2,5.1,4.9
		c0,2.5-1.7,4.8-5.6,4.8c-2.8,0-4.8-0.9-6.2-2.7l2.2-1.5c1,1.2,2,1.8,3.9,1.8c2.3,0,3-1,3-2.2c0-1.3-0.7-2.1-3.6-2.8
		c-3.2-0.7-5-2.2-5-5c0-2.5,1.6-4.6,5.5-4.6c2.6,0,4.5,0.9,5.7,2.7L229.9,143.3z"/>
	<path class="st0" d="M240.9,155.9h-2.8v-16.6h2.8V155.9z"/>
	<path class="st0" d="M259.5,139.3v16.6H257l-6.7-11.3v11.3h-2.7v-16.6h2.4l6.8,11.4v-11.4H259.5z"/>
	<path class="st0" d="M277.6,147.4v1.3c0,5.2-2.4,7.4-6.1,7.4c-3.7,0-6.2-2.2-6.2-7.4v-2c0-5.3,2.5-7.6,6.2-7.6c3.4,0,5.5,1.9,6,5.4
		h-2.7c-0.4-1.9-1.5-2.9-3.3-2.9c-2.2,0-3.4,1.4-3.4,5v2.1c0,3.6,1.2,5,3.4,5c2.1,0,3.2-1.2,3.4-3.9h-3.3v-2.4H277.6z"/>
	<path class="st0" d="M290.5,155.9l5.8-16.6h2.6l5.8,16.6h-3l-1.1-3.4h-6l-1.1,3.4H290.5z M295.3,150.1h4.4l-2.2-6.7L295.3,150.1z"
		/>
	<path class="st0" d="M321.3,139.3v16.6h-2.5l-6.7-11.3v11.3h-2.7v-16.6h2.4l6.8,11.4v-11.4H321.3z"/>
	<path class="st0" d="M327.7,155.9v-16.6h5.6c3.7,0,6.2,2,6.2,7.3v2c0,5.3-2.5,7.3-6.2,7.3H327.7z M336.8,148.6v-2
		c0-3.4-1.1-4.9-3.4-4.9h-2.8v11.7h2.8C335.7,153.5,336.8,152,336.8,148.6z"/>
	<path class="st0" d="M37,184.9l-3.2-6.7h-3.2v6.7h-2.8v-16.6h5.6c3.8,0,6.1,1.7,6.1,4.9c0,2.3-1.1,3.7-3,4.4l3.5,7.2H37z
		 M33.3,175.8c2.4,0,3.5-0.6,3.5-2.5s-1.2-2.5-3.5-2.5h-2.7v5H33.3z"/>
	<path class="st0" d="M55.5,168.3v2.4h-7.4v4.4h6.6v2.4h-6.6v5h7.4v2.4H45.3v-16.6H55.5z"/>
	<path class="st0" d="M69.6,172.3c-0.8-1.1-1.7-1.8-3.6-1.8c-1.7,0-2.7,0.8-2.7,2.2c0,1.6,1.2,2.2,3.6,2.7c3.3,0.7,5.1,2,5.1,4.9
		c0,2.5-1.7,4.8-5.6,4.8c-2.8,0-4.8-0.9-6.2-2.7l2.2-1.5c1,1.2,2,1.8,3.9,1.8c2.3,0,3-1,3-2.2c0-1.3-0.7-2.1-3.6-2.8
		c-3.2-0.7-5-2.2-5-5c0-2.5,1.6-4.6,5.5-4.6c2.6,0,4.5,0.9,5.7,2.7L69.6,172.3z"/>
	<path class="st0" d="M80.3,178.8v6h-2.8v-16.6h5.6c3.8,0,6.1,1.8,6.1,5.2c0,3.4-2.3,5.3-6.1,5.3H80.3z M82.9,176.4
		c2.5,0,3.6-1,3.6-2.9c0-1.8-1.1-2.8-3.6-2.8h-2.6v5.7H82.9z"/>
	<path class="st0" d="M104.6,168.3v2.4h-7.4v4.4h6.6v2.4h-6.6v5h7.4v2.4H94.5v-16.6H104.6z"/>
	<path class="st0" d="M119,173.5c-0.4-2-1.5-2.9-3.3-2.9c-2.2,0-3.4,1.4-3.4,5v2.1c0,3.5,1.2,5,3.4,5c1.9,0,2.9-0.9,3.3-2.9h2.7
		c-0.6,3.7-2.7,5.4-6,5.4c-3.7,0-6.2-2.2-6.2-7.4v-2.1c0-5.2,2.5-7.4,6.2-7.4c3.3,0,5.5,1.8,6,5.4H119z"/>
	<path class="st0" d="M137.5,168.3v2.4h-4.8v14.1H130v-14.1h-4.8v-2.4H137.5z"/>
	<path class="st0" d="M160.3,184.9l-3.2-6.7h-3.2v6.7h-2.8v-16.6h5.6c3.8,0,6.1,1.7,6.1,4.9c0,2.3-1.1,3.7-3,4.4l3.5,7.2H160.3z
		 M156.6,175.8c2.4,0,3.5-0.6,3.5-2.5s-1.2-2.5-3.5-2.5h-2.7v5H156.6z"/>
	<path class="st0" d="M171.7,184.9h-2.8v-16.6h2.8V184.9z"/>
	<path class="st0" d="M190,176.4v1.3c0,5.2-2.4,7.4-6.1,7.4c-3.7,0-6.2-2.2-6.2-7.4v-2c0-5.3,2.5-7.6,6.2-7.6c3.4,0,5.5,1.9,6,5.4
		h-2.7c-0.4-1.9-1.5-2.9-3.3-2.9c-2.2,0-3.4,1.4-3.4,5v2.1c0,3.6,1.2,5,3.4,5c2.1,0,3.2-1.2,3.4-3.9H184v-2.4H190z"/>
	<path class="st0" d="M198.6,175.1h6.3v-6.8h2.8v16.6h-2.8v-7.4h-6.3v7.4h-2.8v-16.6h2.8V175.1z"/>
	<path class="st0" d="M224.8,168.3v2.4h-4.8v14.1h-2.8v-14.1h-4.8v-2.4H224.8z"/>
	<path class="st0" d="M238.3,172.3c-0.8-1.1-1.7-1.8-3.6-1.8c-1.7,0-2.7,0.8-2.7,2.2c0,1.6,1.2,2.2,3.6,2.7c3.3,0.7,5.1,2,5.1,4.9
		c0,2.5-1.7,4.8-5.6,4.8c-2.8,0-4.8-0.9-6.2-2.7l2.2-1.5c1,1.2,2,1.8,3.9,1.8c2.3,0,3-1,3-2.2c0-1.3-0.7-2.1-3.6-2.8
		c-3.2-0.7-5-2.2-5-5c0-2.5,1.6-4.6,5.5-4.6c2.6,0,4.5,0.9,5.7,2.7L238.3,172.3z"/>
	<path class="st0" d="M265.7,168.3v2.4H261v14.1h-2.8v-14.1h-4.8v-2.4H265.7z"/>
	<path class="st0" d="M276,185.1c-3.7,0-6.2-2.2-6.2-7.4v-2.1c0-5.2,2.5-7.4,6.2-7.4c3.7,0,6.2,2.2,6.2,7.4v2.1
		C282.2,182.9,279.7,185.1,276,185.1z M272.6,177.7c0,3.6,1.2,5,3.4,5s3.4-1.4,3.4-5v-2.1c0-3.6-1.2-5-3.4-5s-3.4,1.4-3.4,5V177.7z"
		/>
	<path class="st0" d="M36.4,201.3c-0.8-1.1-1.7-1.8-3.6-1.8c-1.7,0-2.7,0.8-2.7,2.2c0,1.6,1.2,2.2,3.6,2.7c3.3,0.7,5.1,2,5.1,4.9
		c0,2.5-1.7,4.8-5.6,4.8c-2.8,0-4.8-0.9-6.2-2.7l2.2-1.5c1,1.2,2,1.8,3.9,1.8c2.3,0,3-1,3-2.2c0-1.3-0.7-2.1-3.6-2.8
		c-3.2-0.7-5-2.2-5-5c0-2.5,1.6-4.6,5.5-4.6c2.6,0,4.5,0.9,5.7,2.7L36.4,201.3z"/>
	<path class="st0" d="M54.6,197.3v2.4h-7.4v4.4h6.6v2.4h-6.6v5h7.4v2.4H44.4v-16.6H54.6z"/>
	<path class="st0" d="M68.9,202.5c-0.4-2-1.5-2.9-3.3-2.9c-2.2,0-3.4,1.4-3.4,5v2.1c0,3.5,1.2,5,3.4,5c1.9,0,2.9-0.9,3.3-2.9h2.7
		c-0.6,3.7-2.7,5.4-6,5.4c-3.7,0-6.2-2.2-6.2-7.4v-2.1c0-5.2,2.5-7.4,6.2-7.4c3.3,0,5.5,1.8,6,5.4H68.9z"/>
	<path class="st0" d="M89.3,197.3v9.8c0,4.9-2.5,6.9-6.2,6.9s-6.2-2-6.2-6.9v-9.9h2.8v9.9c0,3.2,1.1,4.5,3.4,4.5s3.4-1.3,3.4-4.5
		v-9.9H89.3z"/>
	<path class="st0" d="M105,213.9l-3.2-6.7h-3.2v6.7h-2.8v-16.6h5.6c3.8,0,6.1,1.7,6.1,4.9c0,2.3-1.1,3.7-3,4.4l3.5,7.2H105z
		 M101.3,204.8c2.4,0,3.5-0.6,3.5-2.5s-1.2-2.5-3.5-2.5h-2.7v5H101.3z"/>
	<path class="st0" d="M123.5,197.3v2.4h-7.4v4.4h6.6v2.4h-6.6v5h7.4v2.4h-10.2v-16.6H123.5z"/>
	<path class="st0" d="M149.4,205.4v1.3c0,5.2-2.4,7.4-6.1,7.4c-3.7,0-6.2-2.2-6.2-7.4v-2c0-5.3,2.5-7.6,6.2-7.6c3.4,0,5.5,1.9,6,5.4
		h-2.7c-0.4-1.9-1.5-2.9-3.3-2.9c-2.2,0-3.4,1.4-3.4,5v2.1c0,3.6,1.2,5,3.4,5c2.1,0,3.2-1.2,3.4-3.9h-3.3v-2.4H149.4z"/>
	<path class="st0" d="M158,211.5h7.4v2.4h-10.2v-16.6h2.8V211.5z"/>
	<path class="st0" d="M175.1,214.1c-3.7,0-6.2-2.2-6.2-7.4v-2.1c0-5.2,2.5-7.4,6.2-7.4c3.7,0,6.2,2.2,6.2,7.4v2.1
		C181.3,211.9,178.8,214.1,175.1,214.1z M171.6,206.7c0,3.6,1.2,5,3.4,5c2.2,0,3.4-1.4,3.4-5v-2.1c0-3.6-1.2-5-3.4-5
		c-2.2,0-3.4,1.4-3.4,5V206.7z"/>
	<path class="st0" d="M192.4,197.3c3.9,0,5.9,1.4,5.9,4.3c0,1.7-1,3.1-2.4,3.6c1.9,0.5,3,1.8,3,3.9c0,2.5-1.6,4.8-5.9,4.8h-5.9
		v-16.6H192.4z M189.9,204.1h2.7c2.1,0,2.9-0.9,2.9-2.3c0-1.3-0.6-2.1-3.3-2.1h-2.4V204.1z M189.9,211.5h2.9c2.2,0,3.3-0.9,3.3-2.5
		c0-1.8-1.2-2.5-3.6-2.5h-2.6V211.5z"/>
	<path class="st0" d="M202.6,213.9l5.8-16.6h2.6l5.8,16.6h-3l-1.1-3.4h-6l-1.1,3.4H202.6z M207.5,208.1h4.4l-2.2-6.7L207.5,208.1z"
		/>
	<path class="st0" d="M224.3,211.5h7.4v2.4h-10.2v-16.6h2.8V211.5z"/>
	<path class="st0" d="M248,204.1h6.3v-6.8h2.8v16.6h-2.8v-7.4H248v7.4h-2.8v-16.6h2.8V204.1z"/>
	<path class="st0" d="M273.7,197.3v2.4h-7.4v4.4h6.6v2.4h-6.6v5h7.4v2.4h-10.2v-16.6H273.7z"/>
	<path class="st0" d="M277.4,213.9l5.8-16.6h2.6l5.8,16.6h-3l-1.1-3.4h-6l-1.1,3.4H277.4z M282.3,208.1h4.4l-2.2-6.7L282.3,208.1z"
		/>
	<path class="st0" d="M299.1,211.5h7.4v2.4h-10.2v-16.6h2.8V211.5z"/>
	<path class="st0" d="M320.8,197.3v2.4h-4.8v14.1h-2.8v-14.1h-4.8v-2.4H320.8z"/>
	<path class="st0" d="M328.4,204.1h6.3v-6.8h2.8v16.6h-2.8v-7.4h-6.3v7.4h-2.8v-16.6h2.8V204.1z"/>
</g>
<g>
	<g>
		<path class="st1" d="M344.6,126.9c-5.7,0-11.3-2.2-15.7-6.5L298.5,90h-44.9L329,14.6c4.2-4.2,9.7-6.5,15.6-6.5s11.5,2.3,15.6,6.5
			l37.1,38c8.4,8.6,8.3,22.6-0.2,31.1l-37,36.7C355.9,124.7,350.3,126.9,344.6,126.9z M266.1,84.9h34.6l31.9,31.9
			c3.2,3.2,7.5,4.9,12,4.9c4.6,0,8.8-1.8,12-4.9l0,0l37-36.7c6.5-6.5,6.6-17.2,0.1-23.8l-37.1-38c-3.2-3.2-7.4-4.9-12-4.9
			c-4.6,0-8.8,1.8-12,4.9L266.1,84.9z"/>
	</g>
	<g>
		<g>
			<g>
				<g>
					<path class="st0" d="M334.1,108.5V82.4l-11.6-11.6c-6.7-6.7-6.7-17.7,0-24.4c6.7-6.7,17.7-6.7,24.4,0l2.7,2.7l3.1-3.1
						c6-6.1,15.9-6.1,21.9,0c6,6,6,15.9,0,21.9l-0.4,0.4L334.1,108.5z M334.7,46.5c-3.2,0-6.3,1.3-8.6,3.5c-2.3,2.3-3.5,5.3-3.5,8.6
						c0,3.2,1.3,6.3,3.5,8.6l13.1,13.1v15.8L371,64.3c4.1-4.1,4.1-10.6,0-14.7c-4-4-10.6-4-14.7,0l-6.7,6.7l-6.4-6.4
						C341,47.7,337.9,46.5,334.7,46.5z"/>
				</g>
			</g>
		</g>
	</g>
</g>
<g>
	<path class="st1" d="M25.9,126.9l7.2-20.7h4l7.2,20.7h-4.5l-1.3-3.9h-6.9l-1.3,3.9H25.9z M32.7,119.4h4.7l-2.3-7.3L32.7,119.4z"/>
	<path class="st1" d="M62.4,106.2l4.5,13.9l4.5-13.9h4.6l-7.2,20.7h-3.8l-7.2-20.7H62.4z"/>
	<path class="st1" d="M88,127.2c-4.6,0-7.9-2.8-7.9-9.1v-2.9c0-6.4,3.3-9.1,7.9-9.1c4.7,0,7.9,2.8,7.9,9.1v2.9
		C96,124.3,92.7,127.2,88,127.2z M84.3,118c0,4,1.3,5.6,3.7,5.6c2.4,0,3.8-1.7,3.8-5.6v-2.9c0-4-1.3-5.6-3.8-5.6
		c-2.4,0-3.7,1.7-3.7,5.6V118z"/>
	<path class="st1" d="M107,126.9h-4.2v-20.7h4.2V126.9z"/>
	<path class="st1" d="M125.2,112.6c-0.4-2-1.5-3.2-3.6-3.2c-2.4,0-3.7,1.7-3.7,5.6v2.9c0,3.8,1.3,5.6,3.7,5.6c2.1,0,3.1-1.1,3.6-3.2
		h4c-0.7,4.7-3.3,6.7-7.6,6.7c-4.6,0-7.9-2.8-7.9-9.1v-2.9c0-6.4,3.3-9.1,7.9-9.1c4.1,0,6.9,2.2,7.6,6.7H125.2z"/>
	<path class="st1" d="M148.1,106.2v3.6h-8.7v4.6h7.8v3.5h-7.8v5.4h8.7v3.5h-12.9v-20.7H148.1z"/>
	<path class="st1" d="M178.4,106.2v3.6h-5.7v17.1h-4.2v-17.1h-5.7v-3.6H178.4z"/>
	<path class="st1" d="M190.8,127.2c-4.6,0-7.9-2.8-7.9-9.1v-2.9c0-6.4,3.3-9.1,7.9-9.1c4.7,0,7.9,2.8,7.9,9.1v2.9
		C198.7,124.3,195.5,127.2,190.8,127.2z M187.1,118c0,4,1.3,5.6,3.7,5.6c2.4,0,3.8-1.7,3.8-5.6v-2.9c0-4-1.3-5.6-3.8-5.6
		c-2.4,0-3.7,1.7-3.7,5.6V118z"/>
	<path class="st1" d="M219.9,123.4h8.7v3.5h-12.9v-20.7h4.2V123.4z"/>
	<path class="st1" d="M246.8,106.2v3.6h-8.7v4.6h7.8v3.5h-7.8v5.4h8.7v3.5h-12.9v-20.7H246.8z"/>
	<path class="st1" d="M250.6,126.9l7.2-20.7h4l7.2,20.7h-4.5l-1.3-3.9h-6.9l-1.3,3.9H250.6z M257.4,119.4h4.7l-2.3-7.3L257.4,119.4z
		"/>
	<path class="st1" d="M274,126.9v-20.7h7.3c4.7,0,7.9,2.4,7.9,9v2.7c0,6.6-3.3,9-7.9,9H274z M285.1,117.9v-2.7c0-3.6-1-5.4-3.8-5.4
		h-3.1v13.6h3.1C284.1,123.4,285.1,121.5,285.1,117.9z"/>
</g>
<g>
	<polygon class="st1" points="45.1,74.5 32.2,52.9 25.6,52.9 25.6,90.1 33.3,90.1 33.3,68.8 46,90.1 52.9,90.1 52.9,52.9 45.1,52.9 
			"/>
	<path class="st1" d="M85.3,74.9c0,7.5-3.2,8.5-6.2,8.5s-6.2-1-6.2-8.5v-22h-7.9v22c0,10.1,5,15.7,14.2,15.7S93.2,85,93.2,74.8V52.9
		h-7.9V74.9z"/>
	<path class="st1" d="M132.3,64.4c0-7.3-5.1-11.5-14-11.5h-13v37.2h7.9V75.8h5.2l6.8,14.3h8.8l-7.7-15.7
		C130.2,72.5,132.3,69.1,132.3,64.4z M113.2,60.1h4.7c5.4,0,6.4,1.7,6.4,4.4c0,2.7-1.1,4.3-6.4,4.3h-4.7V60.1z"/>
	<path class="st1" d="M156.5,68c-5.1-1.1-6.8-2.3-6.8-4.8c0-3,2.6-3.6,4.8-3.6c3.6,0,5.2,1.3,6.8,3.4l0.6,0.8l6.1-4.3l-0.5-0.8
		c-2.7-4.2-6.9-6.2-12.9-6.2c-6.2,0-12.7,2.8-12.7,10.7c0,6.1,3.8,10,11.4,11.6c6.4,1.4,6.9,3.1,6.9,4.9c0,0.9,0,3.7-5.4,3.7
		c-3.8,0-5.6-1.3-7.4-3.5l-0.6-0.7l-6.2,4.3l0.6,0.8c3.1,4.2,7.6,6.2,14,6.2c6,0,13-2.9,13-11.1C168.1,71.6,162.5,69.3,156.5,68z"/>
	<polygon class="st1" points="178.4,90.1 201.9,90.1 201.9,83 186.3,83 186.3,74.4 200.4,74.4 200.4,67.3 186.3,67.3 186.3,60.1 
		201.9,60.1 201.9,52.9 178.4,52.9 	"/>
	<path class="st1" d="M225.6,68c-5.1-1.1-6.8-2.3-6.8-4.8c0-3,2.6-3.6,4.8-3.6c3.6,0,5.2,1.3,6.8,3.4l0.6,0.8l6.1-4.3l-0.5-0.8
		c-2.7-4.2-6.9-6.2-12.9-6.2c-6.2,0-12.7,2.8-12.7,10.7c0,6.1,3.8,10,11.4,11.6c6.4,1.4,6.9,3.1,6.9,4.9c0,0.9,0,3.7-5.4,3.7
		c-3.8,0-5.6-1.3-7.4-3.5l-0.6-0.7l-6.2,4.3l0.6,0.8c3.1,4.2,7.6,6.2,14,6.2c6,0,13-2.9,13-11.1C237.1,71.6,231.6,69.3,225.6,68z"/>
</g>
</svg>
