<?xml version="1.0" encoding="utf-8"?>
<!-- Generator: Adobe Illustrator 21.0.2, SVG Export Plug-In . SVG Version: 6.00 Build 0)  -->
<svg version="1.1" id="Layer_1" xmlns="http://www.w3.org/2000/svg" xmlns:xlink="http://www.w3.org/1999/xlink" x="0px" y="0px"
	 viewBox="0 0 317.6 317.6" style="enable-background:new 0 0 317.6 317.6;" xml:space="preserve">
<style type="text/css">
	.st0{fill:#FBC500;}
	.st1{fill:#FFFFFF;}
	.st2{fill:#A6183B;}
	.st3{fill:#EB611E;}
	.st4{fill:#DA025F;}
	.st5{fill:#F59D10;}
	.st6{fill:#C48E13;}
	.st7{fill:none;stroke:#FFFFFF;stroke-width:0.73;stroke-miterlimit:10;}
	.st8{fill:#DE1730;}
	.st9{fill:none;stroke:#FFFFFF;stroke-width:1.3067;stroke-linecap:round;stroke-miterlimit:10;}
	.st10{fill:#E1AA29;}
	.st11{fill:#C41722;}
	.st12{fill:#E6331F;}
	.st13{fill:#3BBBE4;}
	.st14{fill:#4B9B34;}
	.st15{fill:#F7F7F8;}
	.st16{fill:#39ABE2;}
	.st17{fill:#3E8EDE;}
	.st18{fill:#62B231;}
	.st19{fill:#E7B81A;}
	.st20{fill:#C31723;}
	.st21{fill:#499A35;}
	.st22{fill:#407E3D;}
	.st23{fill:#F9C400;}
	.st24{fill:#E6351D;}
	.st25{fill:#F59E12;}
	.st26{fill:#2494D2;}
	.st27{fill:#A5193C;}
	.st28{fill:#3ABAE3;}
	.st29{fill:#EB621F;}
	.st30{fill:#E01630;}
	.st31{fill:#D9045F;}
	.st32{fill:#1C4468;}
	.st33{fill:#CB9914;}
	.st34{fill:#04649B;}
	.st35{fill:#5FB130;}
	.st36{fill:#407D3C;}
	.st37{fill:#2496D3;}
	.st38{fill:#1E4468;}
	.st39{fill:#05639B;}
</style>
<g>
	<rect x="0.2" class="st15" width="317.4" height="317.4"/>
	<g>
		<g>
			<g>
				<g>
					<path class="st16" d="M14.9,171.2h10.3c9.3,0,15.3,6.4,15.3,15.8v0.4c0,9.4-6,15.8-15.3,15.8H14.9V171.2z M21.5,177.2v20h3.7
						c5,0,8.5-3.5,8.5-9.9v-0.2c0-6.4-3.4-9.9-8.5-9.9H21.5z"/>
					<path class="st16" d="M44,171.2h20.6v6h-14v6.9H63v6H50.6v7.1h14.2v6H44V171.2z"/>
					<path class="st16" d="M66,171.2h7.2l6.8,22.1l6.8-22.1h7l-10.8,32.2h-6.1L66,171.2z"/>
					<path class="st16" d="M96,171.2h20.6v6h-14v6.9h12.4v6h-12.4v7.1h14.2v6H96V171.2z"/>
					<path class="st16" d="M120.3,171.2h6.6v25.9h13v6.1h-19.6V171.2z"/>
					<path class="st16" d="M139.9,187.5V187c0-9.6,6-16.3,14.5-16.3c8.5,0,14.5,6.7,14.5,16.2v0.5c0,9.6-6,16.3-14.5,16.3
						C145.8,203.8,139.9,197.1,139.9,187.5z M162,187.4v-0.3c0-6.3-3.2-10.3-7.6-10.3c-4.5,0-7.6,3.9-7.6,10.3v0.3
						c0,6.3,3.2,10.3,7.7,10.3C158.8,197.6,162,193.7,162,187.4z"/>
					<path class="st16" d="M172.4,171.2H183c7.2,0,11.7,4.2,11.7,11v0.1c0,7.4-5.3,11.1-12,11.2H179v9.7h-6.6V171.2z M182.7,187.5
						c3.4,0,5.4-2.2,5.4-5.1v0c0-3.3-1.9-5.2-5.4-5.2H179v10.3H182.7z"/>
					<path class="st16" d="M197.4,171.2h7l7.1,13l7-13h7v32h-6.5v-20.5l-7.6,13.2h-0.1l-7.5-13.1v20.4h-6.5V171.2z"/>
					<path class="st16" d="M230.3,171.2h20.6v6h-14v6.9h12.4v6h-12.4v7.1h14.2v6h-20.8V171.2z"/>
					<path class="st16" d="M254.6,171.2h6.1l12.3,18.7v-18.7h6.5v32h-5.7l-12.7-19.4v19.4h-6.5V171.2z"/>
					<path class="st16" d="M290.3,177.3h-8.1v-6.1h22.7v6.1h-8.1v25.9h-6.6V177.3z"/>
				</g>
				<g>
					<path class="st16" d="M12.6,156.1l4.3-5.4c2.4,2.1,5.2,4,8.7,4c2.8,0,4.5-1.4,4.5-3.5v-0.1c0-1.8-1-2.9-6-4.8
						C17.9,144,14,141.6,14,135.6v-0.1c0-6.1,4.7-10.3,11.5-10.3c4.1,0,8.1,1.4,11.3,4.3l-4.1,5.5c-2.2-1.8-4.8-3.3-7.5-3.3
						c-2.5,0-4.1,1.3-4.1,3.1v0.1c0,2,1.2,3,6.7,5.2c6.1,2.4,9.4,5,9.4,10.5v0.1c0,6.5-5,10.5-11.8,10.5
						C21.1,161.2,16.4,159.7,12.6,156.1z"/>
					<path class="st16" d="M40.4,147.1v-21.5h7.3v21.5c0,5,2.4,7.4,6.1,7.4c3.8,0,6.1-2.4,6.1-7.3v-21.7h7.2V147
						c0,9.7-5.3,14.4-13.5,14.4C45.6,161.3,40.4,156.6,40.4,147.1z"/>
					<path class="st16" d="M69.3,156.1l4.3-5.4c2.4,2.1,5.2,4,8.7,4c2.8,0,4.5-1.4,4.5-3.5v-0.1c0-1.8-1-2.9-6-4.8
						c-6.2-2.4-10.1-4.8-10.1-10.8v-0.1c0-6.1,4.7-10.3,11.5-10.3c4.1,0,8.1,1.4,11.3,4.3l-4.1,5.5c-2.2-1.8-4.8-3.3-7.5-3.3
						c-2.5,0-4.1,1.3-4.1,3.1v0.1c0,2,1.2,3,6.7,5.2c6.1,2.4,9.4,5,9.4,10.5v0.1c0,6.5-5,10.5-11.8,10.5
						C77.8,161.2,73.2,159.7,69.3,156.1z"/>
					<path class="st16" d="M103.6,132.4h-8.8v-6.7h24.9v6.7h-8.8v28.4h-7.2V132.4z"/>
					<path class="st16" d="M129,125.5h6.9l12.6,35.3H141l-2.6-7.6h-12.1l-2.6,7.6h-7.3L129,125.5z M136.2,146.7l-3.8-11.4l-3.9,11.4
						H136.2z"/>
					<path class="st16" d="M151.3,125.7h7.3v35.1h-7.3V125.7z"/>
					<path class="st16" d="M164,125.7h6.7l13.5,20.5v-20.5h7.1v35.1H185l-13.9-21.2v21.2H164V125.7z"/>
					<path class="st16" d="M206.4,125.5h6.9l12.6,35.3h-7.5l-2.6-7.6h-12.1l-2.6,7.6h-7.3L206.4,125.5z M213.5,146.7l-3.8-11.4
						l-3.9,11.4H213.5z"/>
					<path class="st16" d="M228.4,125.7h13c3.9,0,7.2,1.1,9.2,3.1c1.6,1.6,2.4,3.5,2.4,6v0.2c0,4.1-2.3,6.3-4.8,7.7
						c3.8,1.5,6.3,3.8,6.3,8.4v0.3c0,6.3-5.1,9.6-12.7,9.6h-13.4V125.7z M245.8,136c0-2.6-1.8-3.9-4.9-3.9h-5.4v7.9h5.1
						C243.7,140,245.8,138.7,245.8,136L245.8,136z M241.8,146.1h-6.4v8.2h6.5c3.3,0,5.3-1.4,5.3-4.1v-0.1
						C247.3,147.7,245.5,146.1,241.8,146.1z"/>
					<path class="st16" d="M257.9,125.7h7.3v28.5h14.2v6.7h-21.5V125.7z"/>
					<path class="st16" d="M282.4,125.7H305v6.6h-15.4v7.6h13.6v6.6h-13.6v7.8h15.6v6.6h-22.8V125.7z"/>
				</g>
			</g>
			<g>
				<path class="st17" d="M182.7,64.2c2.8,5.5,3.6,13,1.8,19.2c-1.9,7.3-8,14.7-15.2,17.7c-8.1,3.9-19.5,3-26.7-2.2
					c-10-6.8-14.1-18.6-11-30.3c1.8-6.9,7.3-13.9,14.1-17.1c3.8-1.9,7.9-2.9,12.4-2.9C168.4,48.6,178.2,54.7,182.7,64.2z
					 M158.7,49.9c0.2,1.1,0.1,2.6,0,3.8c0-0.1,0.1-0.2,0.1-0.3c0.2-0.1,0.4,0.1,0.4,0.2c0,0.2,0.1,0.5-0.1,0.6
					c0.2,0,0.2-0.1,0.4-0.1c3.1,0.2,6,1.1,8.6,2.6v-0.1c0.5-0.3,1.2-0.6,1.8-0.1c0.7-0.2,0.8,0.6,1.3,0.7c0.6,0.4,1.4,1.1,1.4,1.8
					c0.1,0.2,0.5,0.4,0.6,0.7c0.4-0.9,1.3-1.6,2.1-2.4l0.5-0.2c-4.1-3.9-9-6.1-14.5-6.9C160.5,50.1,159.5,50.2,158.7,49.9z
					 M157.1,50.1c-5.5,0.2-10.4,2.1-14.7,5.2c-0.8,0.6-1.6,1.4-2.4,1.9h0.1c1.1,0.8,2.1,1.9,3,2.9l0.1-0.2c4-3.6,8.6-5.6,14-5.9
					l-0.1-0.3l0-3.3L157.1,50.1z M161.8,52.1l-2,0.8c-0.2-0.1-0.5-0.2-0.6,0.1c-0.1,0.1,0,0.2,0,0.2c0.7,0.9,2,0.4,2.9,0.2
					c0.7,0.3,1.3-0.1,1.8-0.5V53C163.5,52.3,162.6,52.2,161.8,52.1z M158.6,55.5l0.1,0.3c0,1.3,0.1,2.6-0.1,3.8
					c0.5-0.2,1.1,0,1.6,0.1c2.7,0.4,5.2,1.3,7.3,2.9c-0.3-0.3-0.6-0.6-0.6-1c0-0.1,0.1-0.1,0.2-0.1c0-0.4-0.4-0.6-0.5-1
					c0.1-0.1,0.2-0.2,0.3-0.1c0.5,0.4,0.9,0.9,1.2,1.4c0.3-0.1,0.5,0.1,0.8,0.2c0.4,0.2,0.2,0.7,0.5,1c0.1,0.8,1,1.3,1,2.1
					c0,0.2,0.2,0,0.3,0.1l0.8,1c-0.2,0.2,0,0.4,0.1,0.6c0.4,0.2,0.6-0.3,0.9-0.2c0.5,0.3-0.1,0.7,0,1c0.2,0,0.5-0.2,0.6,0
					c0.1,0.3-0.2,0.5-0.4,0.7c0,0.3,0.2,0.2,0.5,0.3c0.2,0,0.4,0.3,0.3,0.5c0.7,0.7-0.2,1.5,0.1,2.2c0.2,0.5-0.1,1-0.4,1.3
					c0,0.6-0.5,1-0.8,1.5l-0.7,0.1c-0.4,0.4,0.3,0.8-0.1,1.1l1.5,0l-0.2-0.2c-0.2-0.6-0.2-1.4,0.2-1.9c0.2-0.5,0.3-1.1,0.7-1.5
					c0.1,0,0.3-0.2,0.4,0c0,0.5,0,1-0.2,1.4c0.4,0.6,0.4,1.4,0.4,2.2c1.4-0.1,2.7-0.1,4-0.1l-0.1-0.3c-0.2-2.5-0.7-4.9-1.8-7.1
					c-0.3,0-0.5,0.2-0.8,0.2c-0.1,0-0.2-0.1-0.2-0.3c-0.5-0.5-0.9-1.2-1.5-1.7c-0.7,0.1-1-0.7-1.6-0.8c-0.6-0.2-0.2-1.1-1-0.9
					c-0.4-0.2-0.8-0.5-0.9-0.9c0-0.7-0.1-1.5-0.8-1.9c-0.5-0.2-0.7,0.5-1.2,0.4c-0.3-0.1-0.2-0.5-0.2-0.7c-0.1-0.2-0.3-0.4-0.3-0.6
					c0.6-0.8-0.8-0.8-0.5-1.7c-0.1-0.6-0.7-0.8-1-1.3c-2.1-1-4.2-1.6-6.6-1.9C159.7,55.7,159.1,55.8,158.6,55.5z M171,55.5
					c-0.3,0.3-0.5-0.2-0.8,0.1c0,0.2,0,0.3,0.1,0.4c0.6,0.2,0.6,1,1.4,0.8c0.2-0.2-0.1-0.5-0.1-0.8C171.5,55.7,171.3,55.6,171,55.5z
					 M146.5,59.2c-0.8,0.6-1.6,1.4-2.5,1.9c1,0.6,1.8,1.7,2.8,2.6l0.1,0.3c2.3-2.2,5.1-3.5,8.2-4.1c0.7-0.1,1.4-0.3,2.2-0.2
					c-0.1-1.3-0.2-2.6,0-3.9C153.2,55.9,149.7,57.1,146.5,59.2z M176.8,58c-0.8,1-1.8,2-2.7,2.9l-0.5,0.1c0.3,0.1,0.4,0.4,0.6,0.6
					c1,0.5,1.3,1.6,2.1,2.2c0.5,1,1.6,1.8,1.7,3c1.2,2.6,2,5.4,2.1,8.5l-0.1,0.2c0.1,0,0.2-0.1,0.3-0.1l3.9-0.1
					c-0.3-0.4-0.1-0.9-0.2-1.4C183.5,67.8,180.9,62.6,176.8,58z M139.3,58.1c-3.9,4.3-6.3,9.3-7,14.9c-0.1,0.8-0.1,1.7-0.2,2.5
					c1.4-0.1,2.9-0.1,4.2,0l-0.1-0.5c0.3-4.4,1.7-8.2,4.1-11.7c0.6-0.7,1.1-1.6,1.8-2.1c-0.9-0.8-1.8-1.8-2.7-2.7L139.3,58.1z
					 M157.2,60.9l-0.2,0.1c-3.5,0.2-6.5,1.7-9.1,3.9c1,0.7,2,1.9,2.9,2.7c0.1-0.1,0.1-0.2,0.2-0.3c1.3-0.9,2.6-1.8,4.2-2.2
					c0.7-0.1,1.4-0.4,2.1-0.2C157.1,63.7,157.1,62.2,157.2,60.9z M158.7,60.9l0.1,0.3l0,3.7l0.4-0.1c2.3,0.3,4.3,1,6.1,2.5l0.1,0.3
					c0.6-0.9,1.5-1.6,2.3-2.4l0.7-0.4l-0.3-0.1c-1.5-1.3-3.1-2.2-4.9-2.8C161.7,61.4,160.2,61.2,158.7,60.9z M143,62l0,0.3l-1.5,1.9
					c-2.4,3.3-3.6,7.2-3.9,11.3l3.7-0.1l0.4,0.1c-0.2-0.1-0.1-0.3-0.2-0.4c0.3-3.9,1.7-7.4,4.4-10.3C144.8,63.9,143.9,63,143,62z
					 M169.1,65.8l-0.1,0.2c-1.3,1.3-2.6,2.7-3.8,4c0.1,0.2,0.2,0.3,0.4,0.4c0.1-0.3,0.2-0.6,0.3-1c0.3-0.5,0.8-0.2,1.2-0.1
					c0.7-0.2,1.3,0.1,1.9,0.1c0.5,0.2,0.5,0.9,1,1.1c0.1,0.2,0,0.4-0.1,0.5c0.1,1,0.6-0.3,1.1,0c0.2,0.1,0.5,0.1,0.7,0.3
					c0.1,0.4,0.6,0.3,0.6,0.8c0,0.2-0.3,0.3-0.4,0.4c0.1,0.4-0.4,0.7-0.2,1.1c0.8,0.1,0.8-0.8,1.2-1.2c-0.2-0.7-0.4-1.4-0.8-2.1
					c-0.5-0.1-0.7-0.6-1.2-0.7c-0.9-0.3,0.1-0.9,0-1.4C170.5,67.3,169.7,66.5,169.1,65.8z M146.9,65.9c-1.9,2.3-3.2,4.7-3.7,7.6
					c-0.2,0.7-0.1,1.4-0.3,2c0.5-0.2,1.2-0.1,1.7-0.1c-0.3-0.2-0.1-0.6-0.2-0.8c0-0.3-0.1-0.8,0.2-1c0-0.6,0.6-0.8,0.6-1.4
					c0.2-0.6,0.8-0.2,1.1-0.5c0.2-0.1,0-0.3,0-0.5c0.3-0.4,0.7-0.4,1-0.6c0.2-0.4,0.5-0.7,0.9-1c0.8,0,0.8-1.1,1.6-1.1
					C148.9,67.9,147.9,66.8,146.9,65.9z M158.7,66.3c0.3,0.8,0,1.9,0.2,2.8l1,0.3c0.3-0.5,0.9-0.6,1.2-1c0.2-0.2,0.4,0,0.5,0.2
					c0,0.4-0.1,0.7-0.2,1.1c-0.4,0.7-1.2,0.8-1.7,1.4c0.3,0.2,0.5-0.2,0.8-0.2c0.4,0,0.7,0.4,0.9,0.6c0.2,0.1,0.5,0,0.7-0.1
					c0.2-1.1,1.6-1,2-2l-0.3,0.1c-0.1-0.2-0.4-0.1-0.4-0.3c0.2-0.2,0.5-0.6,0.8-0.7c-1.2-0.8-2.5-1.4-3.9-1.8
					C159.8,66.6,159.2,66.5,158.7,66.3z M151.4,69.2h0.3c0.3,0.3,0.9,0.3,1.1,0.7c0.1,0.2-0.2,0.2-0.2,0.4c0.1,0.1,0.2,0.1,0.2,0.2
					c0.3,0.1,0.2-0.2,0.3-0.3c0.3-0.3,0.4,0.3,0.7,0.3c0.2-0.2,0.6-0.2,0.7,0.1c0.2-0.2,0.7,0,0.8-0.4c0.4-0.4,0.2-1.1,0.8-1.4
					c0.2,0.1,0,0.3,0.1,0.5c0.4,0.2,0.9-0.4,1.2,0.1c-0.3-0.9-0.2-2-0.2-3C155,66.7,153,67.5,151.4,69.2z M158,71.5
					c-0.2-0.2-0.7-0.1-1,0c0.3,0.3,0.2,0.8,0.3,1.1c-0.4,0.7-1.1,0.8-1.7,1c-0.2,0.2-0.1,0.7-0.6,0.7c-0.1,0.3-0.6,0.5-0.4,0.9
					c-0.2,0.5-0.1,1.1-0.2,1.6c-0.8,0.5-0.6-0.7-1-0.9l-0.1,0.2c-0.2,0-0.3-0.1-0.4-0.2c-0.1,0-0.3-0.1-0.4,0
					c-0.2,0.3-0.5,0.5-0.4,1c-0.1,0.2-0.5,0.2-0.4,0.4c0.5,0,0.9-0.1,1.4-0.2c0.3,0.1,0.6-0.2,0.9-0.2c0.1,0.1,0.2,0.2,0.2,0.3h0.1
					c0.2-0.2,0.3-0.4,0.2-0.7c0-0.3,0.3-0.3,0.5-0.4c0.2,0.1,0.1,0.3,0.1,0.4c0.6,0.2-0.1,0.7-0.2,1c-0.2,0.3,0,0.8-0.5,0.8
					c-0.1,0-0.2-0.1-0.1-0.2h-0.1c0,0.2,0.2,0.5,0.4,0.6c0.4-0.3,0.4-0.8,0.9-0.9c0.3-0.3-0.1-0.8,0.3-1c0.7,0,1.5-0.3,2,0.3
					c0,0.2-0.1,0.4,0.1,0.6c-0.1,0.3-0.2,0.7-0.5,0.9c0.1,0.2,0,0.4-0.1,0.5c-0.2,0.8-1.1,0.4-1.7,0.7c0.9,0.7,1.9,0.9,3,0.8
					c0.6,0,0.3-0.8,0.6-1.1c0.2-1,1.1-0.3,1.6-0.6c0.2-0.4,0.4-0.8,0.5-1.3c-0.3-0.2-0.5-0.6-0.4-1c-0.2-0.3-0.2-0.9-0.7-0.9
					c-0.1-0.1,0-0.2,0.1-0.3c0-0.3,0.3-0.4,0.4-0.6c-0.3-0.2-0.2-0.7-0.2-0.9c-0.5,0.1-0.6-0.5-1-0.7c-0.1-0.3-0.4-0.4-0.7-0.4
					c-0.7,0.3-0.8-0.5-1.3-0.7c-0.1-0.2-0.2-0.4,0-0.5c0.2-0.2,0.6,0,0.9,0L158,71.5z M146.1,74.8c-1.1,0.4,0.2,1.2-0.1,1.9
					c-0.1,0.4-0.6,0-0.8,0.2l-0.1,0.7c-0.2,0.4-0.7,0.1-0.9,0.4c-0.2,0.3,0,0.6,0.2,0.8c-0.4,0.9,0.9,1.1,0.8,1.9
					c0.4,0.5-0.1,1.2,0.5,1.6c0.1,0.9-0.1,2.1,0.7,2.8l0.1,0.8c0.2,0.6-0.7,0.4-0.6,1c0.2-0.1,0.2,0.1,0.2,0.2v0
					c1.1-1.2,2.3-2.5,3.5-3.6L149,83c-1-1.4-1.7-3-2.1-4.7l-0.4-0.2c0,0.4-0.2,0.8-0.2,1.2l-0.1,0.2c-0.3,0-0.5-0.2-0.7-0.4
					c-0.1-0.2-0.2-0.4,0-0.5c0.1,0,0.2,0,0.3,0.1c0.1-0.1,0.1-0.4,0.1-0.6c0-0.3-0.2-0.6,0-0.9c0.3,0,0.5,0.3,0.6,0.5
					c0.3,0.1,0.5-0.1,0.7-0.2c0-0.2,0.3-0.5,0-0.7c0.2-0.5,0.1-1.1,0-1.6C147,74.7,146.5,74.8,146.1,74.8z M171.7,75.3
					c-0.1,0.1-0.3,0-0.4,0C171.4,75.3,171.5,75.3,171.7,75.3z M170.8,76.6l0.4,0.4c0.4,0.3,0.1,0.9,0.6,1.1c0.5,0.3,0.7,0.9,1,1.4
					c0.1-0.1,0.1-0.3,0.1-0.4c0.2-0.8,0.2-1.6,0.4-2.3C172.5,76.9,171.5,77,170.8,76.6z M180.2,76.8l-0.2-0.2l0.1,0.4
					c-0.2,4.5-1.7,8.6-4.3,12.1c-0.5,0.6-1,1.3-1.6,1.8c1,0.8,2.2,2,3,3l0.1-0.2c4.2-4.8,6.6-10.3,6.8-16.7l0.2-0.3l-0.2,0.1
					L180.2,76.8z M174.7,76.7c0.1,0.8-0.1,1.6-0.2,2.5l0.5,0.5c0.1,0.2,0.1,0.5-0.1,0.6c-0.2,0.1-0.4,0.1-0.6,0
					c-0.6,1.8-1.2,3.6-2.4,5.2c-0.5,0.6-0.9,1.4-1.5,1.7l1.2,1.1c0.1-0.1,0-0.2,0-0.3c0-0.2,0.1-0.4,0.3-0.3c0.6,0,0.6,0.6,1,1
					c-0.1,0.5,0.4,0.9,0.2,1.4c3.4-3.6,5.2-8.1,5.5-13l0.2-0.2c-1.2,0.1-2.5,0-3.8,0.1L174.7,76.7z M142.8,76.8l0.2,0.3
					c0,0.9,0.4,1.8,0.2,2.7c0.2-0.3,0.2-0.6,0.5-0.8c0-0.2-0.3-0.3-0.3-0.6c0.3-0.5,0-1.3,0.7-1.5C143.7,77,143.3,77.1,142.8,76.8z
					 M136.3,76.8l-0.4,0.1l-3.8,0c0.2,4.4,1.4,8.3,3.3,12c1,1.8,2.4,3.4,3.6,5.1l2.7-2.8l0.3-0.1c-0.5-0.3-0.9-0.9-1.3-1.3
					c-0.5-0.1-0.9-0.4-1.1-0.9c-0.1-0.1,0-0.4-0.2-0.5l-0.2,0.2c-0.5,0.2-0.7-0.3-1-0.5c-0.4-0.2-0.2-1-0.8-0.9
					c-0.2,0-0.3-0.3-0.4-0.4c-0.5,0.1-0.7-0.5-1-0.8c-0.1,0.1,0,0.3-0.2,0.4c-0.5,0.1-0.7-0.5-1.1-0.8c-0.1,0-0.2,0.2-0.3,0.1
					c-0.3-0.3-0.5-0.7-0.6-1.1c-0.5-0.5-0.2-1.3-0.2-1.9c0.1-0.2,0.3-0.3,0.3-0.5c0.1-0.3,0.4-0.3,0.7-0.3c0.1,0.1,0.2,0.2,0.3,0.3
					c0.2-0.1,0.6,0,0.4-0.4c0.2-0.2,0.6-0.3,0.9-0.3c0.2,0.3,0.3,0.6,0.6,0.8l-0.2-0.3c-0.3-1.3-0.6-2.7-0.7-4.2
					c0-0.1-0.2-0.1-0.1-0.2l0,0C136.2,77.3,136.2,77,136.3,76.8z M141.6,76.8l-0.3,0.1c-1.3,0-2.6,0.1-3.8-0.1l0.2,0.2l0.3,2.5
					c0.1,1,0.5,1.9,0.5,2.9c0.2-0.2,0.1-0.6,0.4-0.7c-0.1-0.3,0.3-0.6,0-0.8c0.1-0.7,0.2-1.3,0.8-1.8c0.7,0,0.8-0.9,1.4-1
					c0.4,0,0.6,0.5,0.7,0.6C141.5,78.3,141.5,77.4,141.6,76.8z M148.6,78.5c0.4,0.7,0.6,1.5,1,2.2c0.2,0.6,0.8,1.1,1,1.7
					c0.3-0.5,0.8-0.9,1.1-1.3c0-0.2,0-0.4-0.1-0.5c-0.1-0.3,0-0.7-0.2-0.9c-0.4,0.1,0.1,0.5,0,0.7c-0.2,0.1-0.3,0-0.3-0.2
					c-0.3-0.1-0.6-0.3-0.7-0.6c0.3-0.2-0.1-0.2-0.1-0.4c-0.1-0.1-0.2-0.1-0.3,0.1c-0.1,0-0.1,0-0.2,0
					C149.8,78.5,148.9,78.9,148.6,78.5z M152.9,79.6c-0.1,0.3-0.3,0.6-0.6,0.9l0,0c0.3-0.2,0.6-0.7,1-0.7L152.9,79.6z M163.7,80.7
					c0,0.2,0,0.5,0.2,0.7c0.5-0.1,0.3,0.7,0.8,0.6c0.3-0.1,0-0.3,0.1-0.5c-0.1-0.4-0.5-0.5-0.8-0.7c0-0.1,0-0.1,0.1-0.2
					C163.9,80.4,163.8,80.6,163.7,80.7z M171.4,80.7c-0.4,0-0.9,0.2-1.2-0.1c-0.1-0.1-0.2,0.1-0.2,0.2c-0.1,0.2-0.3,0.5-0.6,0.4
					c-0.2-0.1-0.2-0.4-0.3-0.6c0,0.2,0,0.3-0.1,0.4c-0.3,0.3-0.4,0.6-0.6,0.9c-0.3,0.3-0.8,0.2-1.1,0.5c-0.1,0.7-0.8,0.5-1.2,0.7
					c0,0.1,0.1,0.1,0.1,0.2c0.2,0.1,0.5,0.1,0.6-0.1c0.6,0.2,0.5-0.6,0.8-0.8c0.3,0,0.6-0.3,0.9-0.1c0.3,0.4,0.4,0.9,0.3,1.4
					c-0.3,0.3-0.2,0.9-0.4,1.2c0.1,0.5-0.5,0.7-0.4,1.1c-0.2,0.2-0.5,0.2-0.8,0.2c-1.1-0.4-2.2-0.7-3.4-0.8c-0.1,0-0.2,0.1-0.2,0.3
					c0.5,0.3,1.1,0.3,1.6,0.5c0.5,0.1,0.8,0.7,1.4,0.5c0.5-0.3,1.3,0.2,1.6-0.4c-0.1-0.5,0.4-0.9,0.6-1.3l0.2,0
					c0.3,0.3,0.3,0.7,0.4,1c0.4-0.4,0.7-0.9,1-1.3c0.9-1.3,1.7-2.7,2-4.2C172.1,80.6,171.8,80.6,171.4,80.7z M154.2,80.7
					c-0.6,1-1.7,1.8-2.5,2.7c1.5,1.2,3.1,2,4.9,2.3c0.1-0.4-0.1-0.8,0.1-1.1c0.1-0.3,0.5-0.3,0.8-0.2c0.2,0,0.3-0.2,0.2-0.4
					c-0.4-0.1-0.2-0.5-0.4-0.8c0-0.1,0.2-0.1,0.2-0.3c-0.3-0.2,0.1-0.5-0.1-0.7c0.1-0.1,0.2-0.2,0.3-0.2c-0.9,0.5-1.8-0.1-2.6-0.4
					C154.8,81.4,154.3,81.2,154.2,80.7z M162.1,83.1c0,0.1-0.2,0.3,0,0.4c0.3-0.3,1-0.3,1.1-0.8C162.7,82.6,162.5,82.9,162.1,83.1z
					 M163.7,84.1c-0.4,0-0.6,0.3-1,0.6c-0.4,0.2-0.6-0.4-0.9-0.3c0,0.1,0.1,0.1,0.1,0.1c0.1,0.1,0.1,0.3,0,0.4
					c-0.5,0.4-0.7-0.2-1.1-0.2V85c0,0.1,0,0.2-0.2,0.2c-0.3-0.5-0.8-0.3-1.1-0.7c-0.2-0.1-0.3,0-0.5,0.1c-0.1,0.2-0.5,0-0.4,0.3
					c-0.3,0.1-0.4,0.5-0.6,0.7c-0.4-0.1-0.6,0.4-1,0.4c0,0.1,0,0.2,0.1,0.2c0.2,0.1,0.5,0.1,0.8,0.1c0.4-0.7,1.1-0.1,1.7-0.4
					c0.4,0.1,0.1,0.5,0.4,0.6c0.6-0.2,1,0.5,1.4,0.1c0-0.6,0.7-0.6,1.1-0.8c0.6-0.4,1.3-0.9,1.2-1.7L163.7,84.1z M150.5,84.5
					c-0.8,1-1.8,2-2.7,2.8c0.4,0,0.7,0.5,1,0.7c2,1.7,4.6,2.5,7,3.1l-0.7-0.3c-0.5-0.6-1.2-1.2-1.2-2c0.5-0.2,0.4-0.7,0.6-1.1
					c0.4-0.4,0.9-0.7,1.4-0.8c-1.4,0.6-2.6-0.5-3.7-1C151.6,85.5,150.9,85.2,150.5,84.5z M169.5,88.3l-0.1-0.3
					c-0.1,0.3-0.4,0.5-0.6,0.8c0,0.2-0.1,0.5,0.2,0.7c0.5,0.2,1.3,0.5,1.4,1.2c-0.2,0.6-1.4,1.1-0.7,1.8c0.2,0.3-0.3,0.5-0.2,0.7
					l0.2-0.3c0.8-0.6,1.7-1.2,2.4-2h0.1c-0.2-0.1-0.4,0.1-0.6,0c-0.4-0.2-0.4-0.5-0.4-0.9L169.5,88.3z M147.5,88.9L147.5,88.9
					L147.5,88.9L147.5,88.9z M148,89.4c-0.2-0.1-0.3-0.2-0.3-0.4L148,89.4z M148.1,89.6c0.1,0.3,0.5,0.5,0.4,0.9
					c-0.2,0.4-0.7,0.4-1.1,0.4c-0.8-0.1-1.4,0.5-2.1,0.5c-0.7,0.2-0.9-0.6-1.5-0.5c3.8,3.3,8.1,5.4,13.2,5.7l0.4,0.3l-0.2-0.5v-3.6
					l-0.3,0.1C153.5,92.7,150.6,91.5,148.1,89.6z M173.3,92.1l-0.1-0.3c-0.4,0.8-1.2,1.2-1.9,1.8c-0.9,0.9-2.3,1.1-2.8,2.4
					c-0.5,0.4-0.6,1.1-1.3,1.4c-0.2,0.7-0.9,0.6-1.3,1.1c-1.1,1-1.9-0.7-2.9-0.9l-2.1,0.4c-0.7,0-1.4,0.3-2.1,0
					c0.1,1.4,0.1,2.9,0,4.3l0.3-0.2c6.6-0.3,12.3-2.8,17.1-7.2L173.3,92.1z M143,92.1l0,0.2l-2.8,2.8c4.3,3.7,9.1,6.1,14.6,6.8
					c0.9,0.2,1.9,0.1,2.7,0.3l-0.2-0.3v-3.7l0.1-0.2l-0.4,0.1C151.6,97.7,146.9,95.8,143,92.1z M158.6,93l0.2,0.3
					c0,1.1,0.1,2.3,0,3.4c1-0.3,2.2-0.3,3.3-0.5c-0.2-0.1-0.4-0.1-0.6-0.4c-0.6,0-0.9-0.7-1.1-1.2c-0.1-0.4,0.1-0.7,0.3-1
					c-0.3-0.6-1.1-0.1-1.6-0.4C158.9,93.2,158.8,93,158.6,93z"/>
				<g>
					<path class="st17" d="M183.7,53.8c2,1.8,2.9,4.1,3.5,6.5l0.3,0.8c-2.9-2.1-5.5-4.9-7.4-7.9l-2.3-2.3
						C179.8,51.7,182,52.2,183.7,53.8z"/>
					<path class="st17" d="M132.9,57.3c-1.3,1.7-3,2.7-4.6,4.2c0.8-1.7,0.8-3.7,2-5.3c1.7-2.9,4.7-3.9,7.4-5
						C135.8,53,134.4,55.3,132.9,57.3z"/>
					<path class="st17" d="M190.8,60.4c0.6,2.9-0.3,5.7,0.3,8.6l0,0c-1.6-3.1-4.9-4.5-7.2-7c-1.3-1.5-1.9-3.2-2.2-5.1
						c1.3,3.2,4.8,3.8,6.9,6.5c0.7,0.6,0.9,1.5,1.3,2.2l0.1-0.1c-1.2-2.5-1.6-5.3-2.4-7.9c-0.4-1.1-1.2-2.3-2.3-3
						C187.9,55,190.2,57.8,190.8,60.4z"/>
					<path class="st17" d="M130.4,55c-2.7,1.9-2.5,5.2-3.4,8c-0.3,1-0.8,2-1,3l0.1,0.1c0.5-1.2,1.2-2.3,2.2-3.3
						c1.9-1.8,4.8-2.9,5.7-5.5c0,3.6-3.1,6.5-6,8.6c-1.2,1.1-2.4,2.3-3,3.6c-0.1-0.9,0.1-1.8,0.1-2.8c-0.3-3.2-0.5-6.8,1.7-9.2
						C127.8,56.2,129,55.3,130.4,55z"/>
					<path class="st17" d="M192.5,61c2.4,3.3,2.9,8.5,1.2,12.2c-0.7,1.6-1.1,3.3-1.4,5.1c-0.1-0.3-0.2-0.7-0.3-1.1
						c-1-3.7-4.4-6.3-5.9-9.8c-0.5-1.1-0.8-2.3-1.1-3.5c1.5,2.8,5.3,4.3,6.3,7.4c0.4,0.8,0.4,1.8,0.7,2.6c0.1,0,0.1,0,0.1-0.1
						c-0.5-3.2-0.3-6.6,0.1-9.7c0-1.7-0.2-3.4-1.1-4.7C191.8,59.8,192.1,60.5,192.5,61z"/>
					<path class="st17" d="M124.7,60c-2.1,3.2-0.4,7.1-0.5,10.7l-0.3,3.7c0,0,0,0.1,0.1,0.1c0.1-0.4,0.2-0.8,0.2-1.3
						c0.5-3,3.1-5.1,5.3-7.1c0.5-0.5,0.9-1.1,1.1-1.7c-0.2,1.5-0.6,3-1.3,4.3c-1.7,3.4-5,6.2-5.6,10.1c-0.3-3.7-2.8-6.5-2.6-10.5
						c-0.1-3.2,1.3-5.9,3.1-8.3C124.5,60,124.6,59.9,124.7,60z"/>
					<path class="st17" d="M194.7,82.2c-1.4,2-3.2,3.9-4.5,6c0.2-1.6,0.3-3.7-0.3-5.2c-1.1-3.3-2.1-6.7-2.4-10.4l0-1.4
						c0.8,3.8,4.5,6.3,4.3,10.5c0.1,1-0.2,1.9-0.4,2.8l0.1,0.1l0.2-0.2c0.5-2.1,0.8-4.2,1.7-6.2c1.2-2.8,2.7-5.6,2.1-8.9
						C197.3,73.3,196.7,78.6,194.7,82.2z"/>
					<path class="st17" d="M123.6,80.9c0.4,1.4,0.5,2.9,1.1,4.2c0.1,0,0.1,0,0.1-0.1c-1.4-3.9,0.6-7.6,2.6-10.6
						c0.5-0.8,0.8-1.8,1-2.7c0.2,1.8-0.2,3.8-0.5,5.7c-0.5,2.3-1.2,4.6-1.9,6.9c-0.4,1.4-0.3,3-0.1,4.5l-0.2-0.2
						c-1.5-2.7-4.4-4.9-5.3-7.9c-0.7-2.4-1.2-5.2-0.7-7.8c0.2-1,0.4-2,0.8-3C119.8,74.2,122.7,77.2,123.6,80.9z"/>
					<path class="st17" d="M189.1,88.7c-0.1,1.8-0.7,3.5-1.7,5h0.2c1.3-1.7,2.3-3.5,3.9-5.2c2.4-2.3,4.8-4.6,5.1-7.8
						c0.8,5.3-2.2,10-6.6,13c-1.8,1.2-3.7,2.3-5.4,3.6v-0.2c2.7-4.5,1.4-10.6,3-15.4l0.6-1.6C187.9,83.1,189.2,85.6,189.1,88.7z"/>
					<path class="st17" d="M130.5,94.7c0.3,1,0.9,1.9,1.3,2.9c-4.1-2.8-9.6-5.4-11.4-10.5c-0.8-1.7-0.8-3.9-0.7-5.9
						c0.3,4.5,5.2,6.9,7.4,10.6c0.5,0.8,1,1.6,1.7,2.3c-0.1-0.5-0.6-0.9-0.7-1.4c-0.8-1.6-1.1-3.4-0.9-5.3c0.2-2.3,1.2-4.4,0.8-6.9
						C130,84.8,129.4,90.1,130.5,94.7z"/>
					<path class="st17" d="M183,98.1c-0.7,1.2-1.7,2.4-2.8,3.3c0.4,0,0.7-0.3,1-0.5c2.9-2.9,6.8-3.7,9.9-6.1c1.3-1,2.4-2.3,3-3.8
						c-0.6,4.8-5.4,9.4-10,10.8c-2.3,0.6-4.9,0.8-7.1,1.6c3.9-3.3,3.6-8.5,6.2-12.4c0.8-1.1,1.5-2.3,2.5-3.3
						C184.2,91,184.8,95,183,98.1z"/>
					<path class="st17" d="M134.3,94c1.4,3.4,1.9,7.2,5,9.7c-3.4-1.1-7.4-0.8-10.4-2.9c-3.3-2-6.2-5.4-6.8-9.2
						c2.3,5.1,7.9,5.6,11.8,8.7c0.7,0.6,1.4,1.1,2.2,1.5l0,0c-0.9-0.8-1.9-1.7-2.5-2.7c-2.2-3.1-1.4-7.4-3.1-10.8
						C132,90.1,133.4,91.9,134.3,94z"/>
					<path class="st17" d="M174.8,104c-0.8,0.5-1.9,0.6-2.7,1.1c1.2,0,2.3-0.4,3.6-0.5c4.5-0.7,9.7,0,12.8-3.8
						c-1.2,2.7-4.1,4.9-6.8,5.9c-4.6,1.7-9.2-0.4-13.6-1.1l-0.8-0.1v0c2.1-0.5,4.1-1.1,5.8-2.6c2.5-2.4,4.7-4.8,7.4-6.7
						C178.4,98.6,178.1,102.3,174.8,104z"/>
					<path class="st17" d="M143.2,102.8c1.7,1.5,3.8,2.2,6.1,2.7c-0.5,0.2-1.2,0.1-1.8,0.3c-4,1-8.4,2.6-12.6,1.1
						c-2.7-0.9-5.6-3-6.9-5.7c3.6,4.1,9.6,2.8,14.4,3.8c0.7,0.1,1.3,0.4,2,0.3c-0.6-0.4-1.4-0.3-2-0.7c-3.8-1.3-4.4-5.4-6.4-8.2
						C138.6,98.1,140.8,100.5,143.2,102.8z"/>
					<path class="st17" d="M172.9,108.4c2.9,1.1,6.8,0.8,9.3-1c-1.3,1.6-3.1,2.8-4.9,3.4c-4.1,1.5-8.4-0.1-11.6-2.5
						c-1.3-0.8-2.4-2-4.1-1.9c-0.6,0-1.2,0-1.7,0.2c3.1,1.4,6,3.4,8.6,6c-0.4,0.5-1,1-1.6,1.4c-2.5-2.7-5.4-5.4-8.5-6.9
						c-0.6,0.1-1.2,0.5-1.8,0.8c-2.6,1.6-5.1,3.7-7,6.3l-1.6-1.4c2.6-2.6,5.5-4.7,8.7-6.2c-3.1-1-5.1,1.6-7.5,2.9
						c-2.8,1.9-6.7,2.8-10,1.5c-1.8-0.7-3.5-1.7-4.8-3.3c2.6,1.8,6.5,2,9.5,0.8c4-1.7,8.1-3.9,13-2.9c0.8,0,1.5,0.8,2.2,0.1
						c3.6-0.9,7.6-0.3,10.7,1.4L172.9,108.4z"/>
				</g>
			</g>
			<g>
				<path class="st17" d="M49.8,241.7h31c-0.5,24.9-14.3,37.4-32.8,37.4c-19.9,0-32.7-16.8-32.7-34.9c0-18.1,12.8-34.9,32.7-34.9
					c22.1,0,28.2,13.8,30.7,20.9l-14,0.9c-2.4-5.9-7.2-9.8-16.6-9.8c-10.5,0-18.8,8.6-18.8,22.9c0,12.1,7.6,22.9,19.7,22.9
					c10.8,0,15.8-7.7,17-14H49.8V241.7z"/>
				<path class="st17" d="M213.3,210.9h13.4v54.5h25.8v12.5h-39.1V210.9z"/>
				<path class="st17" d="M290,228.5c0-4.6-4.5-7.5-9.8-7.5c-6.7,0-10.7,2.9-10.7,7.4c0,4.6,4.5,6.9,7.8,7.9l12.3,3.9
					c8.9,2.9,15.2,8,15.2,18.4c0,8.2-5.9,20.5-24.4,20.5c-23.3,0-25.4-15.1-25.4-21l13.4-0.3c0,7.1,5.6,9.9,12.1,9.9
					c4.5,0,11-2.2,11-7.4c0-3.6-1.5-5.4-8.1-7.8l-14.6-5.3c-7.4-2.7-12.6-9.2-12.6-16.8c0-8.6,5.9-20.9,23.3-20.9
					c20.7,0,24,13.7,24,18.6L290,228.5z"/>
				<g>
					<path class="st18" d="M102.2,236c0.8-1.4,1.8-2.7,3-3.8l-9.7-10.7c-2.4,2.3-4.5,5-6.2,8L102.2,236z"/>
					<path class="st19" d="M126,228.5c1.5,0.7,2.8,1.5,4.1,2.6l9.7-10.6c-2.6-2.2-5.5-4-8.6-5.4L126,228.5z"/>
					<path class="st20" d="M148.4,231.7l-12.9,6.4c0.6,1.4,1.1,3,1.3,4.6l14.4-1.4C150.7,238,149.7,234.7,148.4,231.7"/>
					<path class="st21" d="M134.5,236.3l12.9-6.4c-1.6-3-3.6-5.7-6-8l-9.7,10.6C132.8,233.6,133.7,234.9,134.5,236.3"/>
					<path class="st22" d="M99.6,245.5c0-0.3,0-0.6,0-0.9l-14.4-1.3c0,0.7-0.1,1.4-0.1,2.2c0,2.8,0.3,5.4,1,8l13.9-4
						C99.8,248.2,99.6,246.8,99.6,245.5"/>
					<path class="st23" d="M132.7,257.3c-1,1.2-2.2,2.4-3.5,3.3l7.6,12.3c2.8-1.9,5.3-4.2,7.4-6.9L132.7,257.3z"/>
					<path class="st24" d="M136.9,245.5c0,1.4-0.1,2.7-0.4,4l13.9,4c0.6-2.5,1-5.2,1-8c0-0.7,0-1.4-0.1-2l-14.4,1.4
						C136.9,245,136.9,245.2,136.9,245.5"/>
					<path class="st25" d="M104.1,257.6l-11.5,8.7c2.1,2.6,4.7,4.9,7.5,6.8l7.6-12.3C106.4,259.9,105.1,258.8,104.1,257.6"/>
					<path class="st26" d="M99.9,242.5c0.3-1.6,0.7-3.2,1.4-4.6l-12.9-6.4c-1.4,3-2.4,6.3-2.9,9.8L99.9,242.5z"/>
					<path class="st27" d="M135,274l-7.6-12.3c-1.4,0.8-2.9,1.4-4.4,1.8l2.7,14.2C129,276.9,132.2,275.7,135,274"/>
					<path class="st28" d="M136,251.4c-0.5,1.5-1.2,2.9-2,4.2l11.5,8.7c1.9-2.7,3.4-5.7,4.4-8.9L136,251.4z"/>
					<path class="st29" d="M121,263.9c-0.9,0.1-1.8,0.2-2.7,0.2c-0.7,0-1.5,0-2.2-0.1l-2.7,14.2c1.6,0.2,3.2,0.4,4.8,0.4
						c1.8,0,3.6-0.2,5.4-0.4L121,263.9z"/>
					<path class="st30" d="M119.5,226.8c1.6,0.1,3.1,0.4,4.6,0.9l5.2-13.5c-3.1-1.1-6.4-1.7-9.8-1.9V226.8z"/>
					<path class="st31" d="M114.1,263.6c-1.6-0.4-3.2-1-4.6-1.7l-7.6,12.3c2.9,1.7,6.1,2.9,9.5,3.6L114.1,263.6z"/>
					<path class="st32" d="M112.7,227.7c1.5-0.5,3.1-0.8,4.7-0.8v-14.4c-3.5,0.1-6.8,0.7-9.9,1.8L112.7,227.7z"/>
					<path class="st33" d="M102.8,255.9c-0.9-1.4-1.7-2.8-2.2-4.4l-13.9,4c1.1,3.3,2.6,6.4,4.6,9.2L102.8,255.9z"/>
					<path class="st34" d="M106.7,230.8c1.2-1,2.6-1.8,4-2.4l-5.2-13.5c-3.1,1.3-6,3.1-8.5,5.2L106.7,230.8z"/>
				</g>
				<g>
					<path class="st17" d="M191.4,263.7h-24.8l-4.4,14.2h-14.6l24.8-67.9h14.3l24.4,67.9H196L191.4,263.7z M179.1,226.3h-0.2
						l-8.6,26.4h17.4L179.1,226.3z"/>
				</g>
			</g>
		</g>
		<g>
			<g>
				<g>
					<path class="st16" d="M14.9,171.2h10.3c9.3,0,15.3,6.4,15.3,15.8v0.4c0,9.4-6,15.8-15.3,15.8H14.9V171.2z M21.5,177.2v20h3.7
						c5,0,8.5-3.5,8.5-9.9v-0.2c0-6.4-3.4-9.9-8.5-9.9H21.5z"/>
					<path class="st16" d="M44,171.2h20.6v6h-14v6.9H63v6H50.6v7.1h14.2v6H44V171.2z"/>
					<path class="st16" d="M66,171.2h7.2l6.8,22.1l6.8-22.1h7l-10.8,32.2h-6.1L66,171.2z"/>
					<path class="st16" d="M96,171.2h20.6v6h-14v6.9h12.4v6h-12.4v7.1h14.2v6H96V171.2z"/>
					<path class="st16" d="M120.3,171.2h6.6v25.9h13v6.1h-19.6V171.2z"/>
					<path class="st16" d="M139.9,187.5V187c0-9.6,6-16.3,14.5-16.3c8.5,0,14.5,6.7,14.5,16.2v0.5c0,9.6-6,16.3-14.5,16.3
						C145.8,203.8,139.9,197.1,139.9,187.5z M162,187.4v-0.3c0-6.3-3.2-10.3-7.6-10.3c-4.5,0-7.6,3.9-7.6,10.3v0.3
						c0,6.3,3.2,10.3,7.7,10.3C158.8,197.6,162,193.7,162,187.4z"/>
					<path class="st16" d="M172.4,171.2H183c7.2,0,11.7,4.2,11.7,11v0.1c0,7.4-5.3,11.1-12,11.2H179v9.7h-6.6V171.2z M182.7,187.5
						c3.4,0,5.4-2.2,5.4-5.1v0c0-3.3-1.9-5.2-5.4-5.2H179v10.3H182.7z"/>
					<path class="st16" d="M197.4,171.2h7l7.1,13l7-13h7v32h-6.5v-20.5l-7.6,13.2h-0.1l-7.5-13.1v20.4h-6.5V171.2z"/>
					<path class="st16" d="M230.3,171.2h20.6v6h-14v6.9h12.4v6h-12.4v7.1h14.2v6h-20.8V171.2z"/>
					<path class="st16" d="M254.6,171.2h6.1l12.3,18.7v-18.7h6.5v32h-5.7l-12.7-19.4v19.4h-6.5V171.2z"/>
					<path class="st16" d="M290.3,177.3h-8.1v-6.1h22.7v6.1h-8.1v25.9h-6.6V177.3z"/>
				</g>
				<g>
					<path class="st16" d="M12.6,156.1l4.3-5.4c2.4,2.1,5.2,4,8.7,4c2.8,0,4.5-1.4,4.5-3.5v-0.1c0-1.8-1-2.9-6-4.8
						C17.9,144,14,141.6,14,135.6v-0.1c0-6.1,4.7-10.3,11.5-10.3c4.1,0,8.1,1.4,11.3,4.3l-4.1,5.5c-2.2-1.8-4.8-3.3-7.5-3.3
						c-2.5,0-4.1,1.3-4.1,3.1v0.1c0,2,1.2,3,6.7,5.2c6.1,2.4,9.4,5,9.4,10.5v0.1c0,6.5-5,10.5-11.8,10.5
						C21.1,161.2,16.4,159.7,12.6,156.1z"/>
					<path class="st16" d="M40.4,147.1v-21.5h7.3v21.5c0,5,2.4,7.4,6.1,7.4c3.8,0,6.1-2.4,6.1-7.3v-21.7h7.2V147
						c0,9.7-5.3,14.4-13.5,14.4C45.6,161.3,40.4,156.6,40.4,147.1z"/>
					<path class="st16" d="M69.3,156.1l4.3-5.4c2.4,2.1,5.2,4,8.7,4c2.8,0,4.5-1.4,4.5-3.5v-0.1c0-1.8-1-2.9-6-4.8
						c-6.2-2.4-10.1-4.8-10.1-10.8v-0.1c0-6.1,4.7-10.3,11.5-10.3c4.1,0,8.1,1.4,11.3,4.3l-4.1,5.5c-2.2-1.8-4.8-3.3-7.5-3.3
						c-2.5,0-4.1,1.3-4.1,3.1v0.1c0,2,1.2,3,6.7,5.2c6.1,2.4,9.4,5,9.4,10.5v0.1c0,6.5-5,10.5-11.8,10.5
						C77.8,161.2,73.2,159.7,69.3,156.1z"/>
					<path class="st16" d="M103.6,132.4h-8.8v-6.7h24.9v6.7h-8.8v28.4h-7.2V132.4z"/>
					<path class="st16" d="M129,125.5h6.9l12.6,35.3H141l-2.6-7.6h-12.1l-2.6,7.6h-7.3L129,125.5z M136.2,146.7l-3.8-11.4l-3.9,11.4
						H136.2z"/>
					<path class="st16" d="M151.3,125.7h7.3v35.1h-7.3V125.7z"/>
					<path class="st16" d="M164,125.7h6.7l13.5,20.5v-20.5h7.1v35.1H185l-13.9-21.2v21.2H164V125.7z"/>
					<path class="st16" d="M206.4,125.5h6.9l12.6,35.3h-7.5l-2.6-7.6h-12.1l-2.6,7.6h-7.3L206.4,125.5z M213.5,146.7l-3.8-11.4
						l-3.9,11.4H213.5z"/>
					<path class="st16" d="M228.4,125.7h13c3.9,0,7.2,1.1,9.2,3.1c1.6,1.6,2.4,3.5,2.4,6v0.2c0,4.1-2.3,6.3-4.8,7.7
						c3.8,1.5,6.3,3.8,6.3,8.4v0.3c0,6.3-5.1,9.6-12.7,9.6h-13.4V125.7z M245.8,136c0-2.6-1.8-3.9-4.9-3.9h-5.4v7.9h5.1
						C243.7,140,245.8,138.7,245.8,136L245.8,136z M241.8,146.1h-6.4v8.2h6.5c3.3,0,5.3-1.4,5.3-4.1v-0.1
						C247.3,147.7,245.5,146.1,241.8,146.1z"/>
					<path class="st16" d="M257.9,125.7h7.3v28.5h14.2v6.7h-21.5V125.7z"/>
					<path class="st16" d="M282.4,125.7H305v6.6h-15.4v7.6h13.6v6.6h-13.6v7.8h15.6v6.6h-22.8V125.7z"/>
				</g>
			</g>
			<g>
				<path class="st17" d="M182.7,64.2c2.8,5.5,3.6,13,1.8,19.2c-1.9,7.3-8,14.7-15.2,17.7c-8.1,3.9-19.5,3-26.7-2.2
					c-10-6.8-14.1-18.6-11-30.3c1.8-6.9,7.3-13.9,14.1-17.1c3.8-1.9,7.9-2.9,12.4-2.9C168.4,48.6,178.2,54.7,182.7,64.2z
					 M158.7,49.9c0.2,1.1,0.1,2.6,0,3.8c0-0.1,0.1-0.2,0.1-0.3c0.2-0.1,0.4,0.1,0.4,0.2c0,0.2,0.1,0.5-0.1,0.6
					c0.2,0,0.2-0.1,0.4-0.1c3.1,0.2,6,1.1,8.6,2.6v-0.1c0.5-0.3,1.2-0.6,1.8-0.1c0.7-0.2,0.8,0.6,1.3,0.7c0.6,0.4,1.4,1.1,1.4,1.8
					c0.1,0.2,0.5,0.4,0.6,0.7c0.4-0.9,1.3-1.6,2.1-2.4l0.5-0.2c-4.1-3.9-9-6.1-14.5-6.9C160.5,50.1,159.5,50.2,158.7,49.9z
					 M157.1,50.1c-5.5,0.2-10.4,2.1-14.7,5.2c-0.8,0.6-1.6,1.4-2.4,1.9h0.1c1.1,0.8,2.1,1.9,3,2.9l0.1-0.2c4-3.6,8.6-5.6,14-5.9
					l-0.1-0.3l0-3.3L157.1,50.1z M161.8,52.1l-2,0.8c-0.2-0.1-0.5-0.2-0.6,0.1c-0.1,0.1,0,0.2,0,0.2c0.7,0.9,2,0.4,2.9,0.2
					c0.7,0.3,1.3-0.1,1.8-0.5V53C163.5,52.3,162.6,52.2,161.8,52.1z M158.6,55.5l0.1,0.3c0,1.3,0.1,2.6-0.1,3.8
					c0.5-0.2,1.1,0,1.6,0.1c2.7,0.4,5.2,1.3,7.3,2.9c-0.3-0.3-0.6-0.6-0.6-1c0-0.1,0.1-0.1,0.2-0.1c0-0.4-0.4-0.6-0.5-1
					c0.1-0.1,0.2-0.2,0.3-0.1c0.5,0.4,0.9,0.9,1.2,1.4c0.3-0.1,0.5,0.1,0.8,0.2c0.4,0.2,0.2,0.7,0.5,1c0.1,0.8,1,1.3,1,2.1
					c0,0.2,0.2,0,0.3,0.1l0.8,1c-0.2,0.2,0,0.4,0.1,0.6c0.4,0.2,0.6-0.3,0.9-0.2c0.5,0.3-0.1,0.7,0,1c0.2,0,0.5-0.2,0.6,0
					c0.1,0.3-0.2,0.5-0.4,0.7c0,0.3,0.2,0.2,0.5,0.3c0.2,0,0.4,0.3,0.3,0.5c0.7,0.7-0.2,1.5,0.1,2.2c0.2,0.5-0.1,1-0.4,1.3
					c0,0.6-0.5,1-0.8,1.5l-0.7,0.1c-0.4,0.4,0.3,0.8-0.1,1.1l1.5,0l-0.2-0.2c-0.2-0.6-0.2-1.4,0.2-1.9c0.2-0.5,0.3-1.1,0.7-1.5
					c0.1,0,0.3-0.2,0.4,0c0,0.5,0,1-0.2,1.4c0.4,0.6,0.4,1.4,0.4,2.2c1.4-0.1,2.7-0.1,4-0.1l-0.1-0.3c-0.2-2.5-0.7-4.9-1.8-7.1
					c-0.3,0-0.5,0.2-0.8,0.2c-0.1,0-0.2-0.1-0.2-0.3c-0.5-0.5-0.9-1.2-1.5-1.7c-0.7,0.1-1-0.7-1.6-0.8c-0.6-0.2-0.2-1.1-1-0.9
					c-0.4-0.2-0.8-0.5-0.9-0.9c0-0.7-0.1-1.5-0.8-1.9c-0.5-0.2-0.7,0.5-1.2,0.4c-0.3-0.1-0.2-0.5-0.2-0.7c-0.1-0.2-0.3-0.4-0.3-0.6
					c0.6-0.8-0.8-0.8-0.5-1.7c-0.1-0.6-0.7-0.8-1-1.3c-2.1-1-4.2-1.6-6.6-1.9C159.7,55.7,159.1,55.8,158.6,55.5z M171,55.5
					c-0.3,0.3-0.5-0.2-0.8,0.1c0,0.2,0,0.3,0.1,0.4c0.6,0.2,0.6,1,1.4,0.8c0.2-0.2-0.1-0.5-0.1-0.8C171.5,55.7,171.3,55.6,171,55.5z
					 M146.5,59.2c-0.8,0.6-1.6,1.4-2.5,1.9c1,0.6,1.8,1.7,2.8,2.6l0.1,0.3c2.3-2.2,5.1-3.5,8.2-4.1c0.7-0.1,1.4-0.3,2.2-0.2
					c-0.1-1.3-0.2-2.6,0-3.9C153.2,55.9,149.7,57.1,146.5,59.2z M176.8,58c-0.8,1-1.8,2-2.7,2.9l-0.5,0.1c0.3,0.1,0.4,0.4,0.6,0.6
					c1,0.5,1.3,1.6,2.1,2.2c0.5,1,1.6,1.8,1.7,3c1.2,2.6,2,5.4,2.1,8.5l-0.1,0.2c0.1,0,0.2-0.1,0.3-0.1l3.9-0.1
					c-0.3-0.4-0.1-0.9-0.2-1.4C183.5,67.8,180.9,62.6,176.8,58z M139.3,58.1c-3.9,4.3-6.3,9.3-7,14.9c-0.1,0.8-0.1,1.7-0.2,2.5
					c1.4-0.1,2.9-0.1,4.2,0l-0.1-0.5c0.3-4.4,1.7-8.2,4.1-11.7c0.6-0.7,1.1-1.6,1.8-2.1c-0.9-0.8-1.8-1.8-2.7-2.7L139.3,58.1z
					 M157.2,60.9l-0.2,0.1c-3.5,0.2-6.5,1.7-9.1,3.9c1,0.7,2,1.9,2.9,2.7c0.1-0.1,0.1-0.2,0.2-0.3c1.3-0.9,2.6-1.8,4.2-2.2
					c0.7-0.1,1.4-0.4,2.1-0.2C157.1,63.7,157.1,62.2,157.2,60.9z M158.7,60.9l0.1,0.3l0,3.7l0.4-0.1c2.3,0.3,4.3,1,6.1,2.5l0.1,0.3
					c0.6-0.9,1.5-1.6,2.3-2.4l0.7-0.4l-0.3-0.1c-1.5-1.3-3.1-2.2-4.9-2.8C161.7,61.4,160.2,61.2,158.7,60.9z M143,62l0,0.3l-1.5,1.9
					c-2.4,3.3-3.6,7.2-3.9,11.3l3.7-0.1l0.4,0.1c-0.2-0.1-0.1-0.3-0.2-0.4c0.3-3.9,1.7-7.4,4.4-10.3C144.8,63.9,143.9,63,143,62z
					 M169.1,65.8l-0.1,0.2c-1.3,1.3-2.6,2.7-3.8,4c0.1,0.2,0.2,0.3,0.4,0.4c0.1-0.3,0.2-0.6,0.3-1c0.3-0.5,0.8-0.2,1.2-0.1
					c0.7-0.2,1.3,0.1,1.9,0.1c0.5,0.2,0.5,0.9,1,1.1c0.1,0.2,0,0.4-0.1,0.5c0.1,1,0.6-0.3,1.1,0c0.2,0.1,0.5,0.1,0.7,0.3
					c0.1,0.4,0.6,0.3,0.6,0.8c0,0.2-0.3,0.3-0.4,0.4c0.1,0.4-0.4,0.7-0.2,1.1c0.8,0.1,0.8-0.8,1.2-1.2c-0.2-0.7-0.4-1.4-0.8-2.1
					c-0.5-0.1-0.7-0.6-1.2-0.7c-0.9-0.3,0.1-0.9,0-1.4C170.5,67.3,169.7,66.5,169.1,65.8z M146.9,65.9c-1.9,2.3-3.2,4.7-3.7,7.6
					c-0.2,0.7-0.1,1.4-0.3,2c0.5-0.2,1.2-0.1,1.7-0.1c-0.3-0.2-0.1-0.6-0.2-0.8c0-0.3-0.1-0.8,0.2-1c0-0.6,0.6-0.8,0.6-1.4
					c0.2-0.6,0.8-0.2,1.1-0.5c0.2-0.1,0-0.3,0-0.5c0.3-0.4,0.7-0.4,1-0.6c0.2-0.4,0.5-0.7,0.9-1c0.8,0,0.8-1.1,1.6-1.1
					C148.9,67.9,147.9,66.8,146.9,65.9z M158.7,66.3c0.3,0.8,0,1.9,0.2,2.8l1,0.3c0.3-0.5,0.9-0.6,1.2-1c0.2-0.2,0.4,0,0.5,0.2
					c0,0.4-0.1,0.7-0.2,1.1c-0.4,0.7-1.2,0.8-1.7,1.4c0.3,0.2,0.5-0.2,0.8-0.2c0.4,0,0.7,0.4,0.9,0.6c0.2,0.1,0.5,0,0.7-0.1
					c0.2-1.1,1.6-1,2-2l-0.3,0.1c-0.1-0.2-0.4-0.1-0.4-0.3c0.2-0.2,0.5-0.6,0.8-0.7c-1.2-0.8-2.5-1.4-3.9-1.8
					C159.8,66.6,159.2,66.5,158.7,66.3z M151.4,69.2h0.3c0.3,0.3,0.9,0.3,1.1,0.7c0.1,0.2-0.2,0.2-0.2,0.4c0.1,0.1,0.2,0.1,0.2,0.2
					c0.3,0.1,0.2-0.2,0.3-0.3c0.3-0.3,0.4,0.3,0.7,0.3c0.2-0.2,0.6-0.2,0.7,0.1c0.2-0.2,0.7,0,0.8-0.4c0.4-0.4,0.2-1.1,0.8-1.4
					c0.2,0.1,0,0.3,0.1,0.5c0.4,0.2,0.9-0.4,1.2,0.1c-0.3-0.9-0.2-2-0.2-3C155,66.7,153,67.5,151.4,69.2z M158,71.5
					c-0.2-0.2-0.7-0.1-1,0c0.3,0.3,0.2,0.8,0.3,1.1c-0.4,0.7-1.1,0.8-1.7,1c-0.2,0.2-0.1,0.7-0.6,0.7c-0.1,0.3-0.6,0.5-0.4,0.9
					c-0.2,0.5-0.1,1.1-0.2,1.6c-0.8,0.5-0.6-0.7-1-0.9l-0.1,0.2c-0.2,0-0.3-0.1-0.4-0.2c-0.1,0-0.3-0.1-0.4,0
					c-0.2,0.3-0.5,0.5-0.4,1c-0.1,0.2-0.5,0.2-0.4,0.4c0.5,0,0.9-0.1,1.4-0.2c0.3,0.1,0.6-0.2,0.9-0.2c0.1,0.1,0.2,0.2,0.2,0.3h0.1
					c0.2-0.2,0.3-0.4,0.2-0.7c0-0.3,0.3-0.3,0.5-0.4c0.2,0.1,0.1,0.3,0.1,0.4c0.6,0.2-0.1,0.7-0.2,1c-0.2,0.3,0,0.8-0.5,0.8
					c-0.1,0-0.2-0.1-0.1-0.2h-0.1c0,0.2,0.2,0.5,0.4,0.6c0.4-0.3,0.4-0.8,0.9-0.9c0.3-0.3-0.1-0.8,0.3-1c0.7,0,1.5-0.3,2,0.3
					c0,0.2-0.1,0.4,0.1,0.6c-0.1,0.3-0.2,0.7-0.5,0.9c0.1,0.2,0,0.4-0.1,0.5c-0.2,0.8-1.1,0.4-1.7,0.7c0.9,0.7,1.9,0.9,3,0.8
					c0.6,0,0.3-0.8,0.6-1.1c0.2-1,1.1-0.3,1.6-0.6c0.2-0.4,0.4-0.8,0.5-1.3c-0.3-0.2-0.5-0.6-0.4-1c-0.2-0.3-0.2-0.9-0.7-0.9
					c-0.1-0.1,0-0.2,0.1-0.3c0-0.3,0.3-0.4,0.4-0.6c-0.3-0.2-0.2-0.7-0.2-0.9c-0.5,0.1-0.6-0.5-1-0.7c-0.1-0.3-0.4-0.4-0.7-0.4
					c-0.7,0.3-0.8-0.5-1.3-0.7c-0.1-0.2-0.2-0.4,0-0.5c0.2-0.2,0.6,0,0.9,0L158,71.5z M146.1,74.8c-1.1,0.4,0.2,1.2-0.1,1.9
					c-0.1,0.4-0.6,0-0.8,0.2l-0.1,0.7c-0.2,0.4-0.7,0.1-0.9,0.4c-0.2,0.3,0,0.6,0.2,0.8c-0.4,0.9,0.9,1.1,0.8,1.9
					c0.4,0.5-0.1,1.2,0.5,1.6c0.1,0.9-0.1,2.1,0.7,2.8l0.1,0.8c0.2,0.6-0.7,0.4-0.6,1c0.2-0.1,0.2,0.1,0.2,0.2v0
					c1.1-1.2,2.3-2.5,3.5-3.6L149,83c-1-1.4-1.7-3-2.1-4.7l-0.4-0.2c0,0.4-0.2,0.8-0.2,1.2l-0.1,0.2c-0.3,0-0.5-0.2-0.7-0.4
					c-0.1-0.2-0.2-0.4,0-0.5c0.1,0,0.2,0,0.3,0.1c0.1-0.1,0.1-0.4,0.1-0.6c0-0.3-0.2-0.6,0-0.9c0.3,0,0.5,0.3,0.6,0.5
					c0.3,0.1,0.5-0.1,0.7-0.2c0-0.2,0.3-0.5,0-0.7c0.2-0.5,0.1-1.1,0-1.6C147,74.7,146.5,74.8,146.1,74.8z M171.7,75.3
					c-0.1,0.1-0.3,0-0.4,0C171.4,75.3,171.5,75.3,171.7,75.3z M170.8,76.6l0.4,0.4c0.4,0.3,0.1,0.9,0.6,1.1c0.5,0.3,0.7,0.9,1,1.4
					c0.1-0.1,0.1-0.3,0.1-0.4c0.2-0.8,0.2-1.6,0.4-2.3C172.5,76.9,171.5,77,170.8,76.6z M180.2,76.8l-0.2-0.2l0.1,0.4
					c-0.2,4.5-1.7,8.6-4.3,12.1c-0.5,0.6-1,1.3-1.6,1.8c1,0.8,2.2,2,3,3l0.1-0.2c4.2-4.8,6.6-10.3,6.8-16.7l0.2-0.3l-0.2,0.1
					L180.2,76.8z M174.7,76.7c0.1,0.8-0.1,1.6-0.2,2.5l0.5,0.5c0.1,0.2,0.1,0.5-0.1,0.6c-0.2,0.1-0.4,0.1-0.6,0
					c-0.6,1.8-1.2,3.6-2.4,5.2c-0.5,0.6-0.9,1.4-1.5,1.7l1.2,1.1c0.1-0.1,0-0.2,0-0.3c0-0.2,0.1-0.4,0.3-0.3c0.6,0,0.6,0.6,1,1
					c-0.1,0.5,0.4,0.9,0.2,1.4c3.4-3.6,5.2-8.1,5.5-13l0.2-0.2c-1.2,0.1-2.5,0-3.8,0.1L174.7,76.7z M142.8,76.8l0.2,0.3
					c0,0.9,0.4,1.8,0.2,2.7c0.2-0.3,0.2-0.6,0.5-0.8c0-0.2-0.3-0.3-0.3-0.6c0.3-0.5,0-1.3,0.7-1.5C143.7,77,143.3,77.1,142.8,76.8z
					 M136.3,76.8l-0.4,0.1l-3.8,0c0.2,4.4,1.4,8.3,3.3,12c1,1.8,2.4,3.4,3.6,5.1l2.7-2.8l0.3-0.1c-0.5-0.3-0.9-0.9-1.3-1.3
					c-0.5-0.1-0.9-0.4-1.1-0.9c-0.1-0.1,0-0.4-0.2-0.5l-0.2,0.2c-0.5,0.2-0.7-0.3-1-0.5c-0.4-0.2-0.2-1-0.8-0.9
					c-0.2,0-0.3-0.3-0.4-0.4c-0.5,0.1-0.7-0.5-1-0.8c-0.1,0.1,0,0.3-0.2,0.4c-0.5,0.1-0.7-0.5-1.1-0.8c-0.1,0-0.2,0.2-0.3,0.1
					c-0.3-0.3-0.5-0.7-0.6-1.1c-0.5-0.5-0.2-1.3-0.2-1.9c0.1-0.2,0.3-0.3,0.3-0.5c0.1-0.3,0.4-0.3,0.7-0.3c0.1,0.1,0.2,0.2,0.3,0.3
					c0.2-0.1,0.6,0,0.4-0.4c0.2-0.2,0.6-0.3,0.9-0.3c0.2,0.3,0.3,0.6,0.6,0.8l-0.2-0.3c-0.3-1.3-0.6-2.7-0.7-4.2
					c0-0.1-0.2-0.1-0.1-0.2l0,0C136.2,77.3,136.2,77,136.3,76.8z M141.6,76.8l-0.3,0.1c-1.3,0-2.6,0.1-3.8-0.1l0.2,0.2l0.3,2.5
					c0.1,1,0.5,1.9,0.5,2.9c0.2-0.2,0.1-0.6,0.4-0.7c-0.1-0.3,0.3-0.6,0-0.8c0.1-0.7,0.2-1.3,0.8-1.8c0.7,0,0.8-0.9,1.4-1
					c0.4,0,0.6,0.5,0.7,0.6C141.5,78.3,141.5,77.4,141.6,76.8z M148.6,78.5c0.4,0.7,0.6,1.5,1,2.2c0.2,0.6,0.8,1.1,1,1.7
					c0.3-0.5,0.8-0.9,1.1-1.3c0-0.2,0-0.4-0.1-0.5c-0.1-0.3,0-0.7-0.2-0.9c-0.4,0.1,0.1,0.5,0,0.7c-0.2,0.1-0.3,0-0.3-0.2
					c-0.3-0.1-0.6-0.3-0.7-0.6c0.3-0.2-0.1-0.2-0.1-0.4c-0.1-0.1-0.2-0.1-0.3,0.1c-0.1,0-0.1,0-0.2,0
					C149.8,78.5,148.9,78.9,148.6,78.5z M152.9,79.6c-0.1,0.3-0.3,0.6-0.6,0.9l0,0c0.3-0.2,0.6-0.7,1-0.7L152.9,79.6z M163.7,80.7
					c0,0.2,0,0.5,0.2,0.7c0.5-0.1,0.3,0.7,0.8,0.6c0.3-0.1,0-0.3,0.1-0.5c-0.1-0.4-0.5-0.5-0.8-0.7c0-0.1,0-0.1,0.1-0.2
					C163.9,80.4,163.8,80.6,163.7,80.7z M171.4,80.7c-0.4,0-0.9,0.2-1.2-0.1c-0.1-0.1-0.2,0.1-0.2,0.2c-0.1,0.2-0.3,0.5-0.6,0.4
					c-0.2-0.1-0.2-0.4-0.3-0.6c0,0.2,0,0.3-0.1,0.4c-0.3,0.3-0.4,0.6-0.6,0.9c-0.3,0.3-0.8,0.2-1.1,0.5c-0.1,0.7-0.8,0.5-1.2,0.7
					c0,0.1,0.1,0.1,0.1,0.2c0.2,0.1,0.5,0.1,0.6-0.1c0.6,0.2,0.5-0.6,0.8-0.8c0.3,0,0.6-0.3,0.9-0.1c0.3,0.4,0.4,0.9,0.3,1.4
					c-0.3,0.3-0.2,0.9-0.4,1.2c0.1,0.5-0.5,0.7-0.4,1.1c-0.2,0.2-0.5,0.2-0.8,0.2c-1.1-0.4-2.2-0.7-3.4-0.8c-0.1,0-0.2,0.1-0.2,0.3
					c0.5,0.3,1.1,0.3,1.6,0.5c0.5,0.1,0.8,0.7,1.4,0.5c0.5-0.3,1.3,0.2,1.6-0.4c-0.1-0.5,0.4-0.9,0.6-1.3l0.2,0
					c0.3,0.3,0.3,0.7,0.4,1c0.4-0.4,0.7-0.9,1-1.3c0.9-1.3,1.7-2.7,2-4.2C172.1,80.6,171.8,80.6,171.4,80.7z M154.2,80.7
					c-0.6,1-1.7,1.8-2.5,2.7c1.5,1.2,3.1,2,4.9,2.3c0.1-0.4-0.1-0.8,0.1-1.1c0.1-0.3,0.5-0.3,0.8-0.2c0.2,0,0.3-0.2,0.2-0.4
					c-0.4-0.1-0.2-0.5-0.4-0.8c0-0.1,0.2-0.1,0.2-0.3c-0.3-0.2,0.1-0.5-0.1-0.7c0.1-0.1,0.2-0.2,0.3-0.2c-0.9,0.5-1.8-0.1-2.6-0.4
					C154.8,81.4,154.3,81.2,154.2,80.7z M162.1,83.1c0,0.1-0.2,0.3,0,0.4c0.3-0.3,1-0.3,1.1-0.8C162.7,82.6,162.5,82.9,162.1,83.1z
					 M163.7,84.1c-0.4,0-0.6,0.3-1,0.6c-0.4,0.2-0.6-0.4-0.9-0.3c0,0.1,0.1,0.1,0.1,0.1c0.1,0.1,0.1,0.3,0,0.4
					c-0.5,0.4-0.7-0.2-1.1-0.2V85c0,0.1,0,0.2-0.2,0.2c-0.3-0.5-0.8-0.3-1.1-0.7c-0.2-0.1-0.3,0-0.5,0.1c-0.1,0.2-0.5,0-0.4,0.3
					c-0.3,0.1-0.4,0.5-0.6,0.7c-0.4-0.1-0.6,0.4-1,0.4c0,0.1,0,0.2,0.1,0.2c0.2,0.1,0.5,0.1,0.8,0.1c0.4-0.7,1.1-0.1,1.7-0.4
					c0.4,0.1,0.1,0.5,0.4,0.6c0.6-0.2,1,0.5,1.4,0.1c0-0.6,0.7-0.6,1.1-0.8c0.6-0.4,1.3-0.9,1.2-1.7L163.7,84.1z M150.5,84.5
					c-0.8,1-1.8,2-2.7,2.8c0.4,0,0.7,0.5,1,0.7c2,1.7,4.6,2.5,7,3.1l-0.7-0.3c-0.5-0.6-1.2-1.2-1.2-2c0.5-0.2,0.4-0.7,0.6-1.1
					c0.4-0.4,0.9-0.7,1.4-0.8c-1.4,0.6-2.6-0.5-3.7-1C151.6,85.5,150.9,85.2,150.5,84.5z M169.5,88.3l-0.1-0.3
					c-0.1,0.3-0.4,0.5-0.6,0.8c0,0.2-0.1,0.5,0.2,0.7c0.5,0.2,1.3,0.5,1.4,1.2c-0.2,0.6-1.4,1.1-0.7,1.8c0.2,0.3-0.3,0.5-0.2,0.7
					l0.2-0.3c0.8-0.6,1.7-1.2,2.4-2h0.1c-0.2-0.1-0.4,0.1-0.6,0c-0.4-0.2-0.4-0.5-0.4-0.9L169.5,88.3z M147.5,88.9L147.5,88.9
					L147.5,88.9L147.5,88.9z M148,89.4c-0.2-0.1-0.3-0.2-0.3-0.4L148,89.4z M148.1,89.6c0.1,0.3,0.5,0.5,0.4,0.9
					c-0.2,0.4-0.7,0.4-1.1,0.4c-0.8-0.1-1.4,0.5-2.1,0.5c-0.7,0.2-0.9-0.6-1.5-0.5c3.8,3.3,8.1,5.4,13.2,5.7l0.4,0.3l-0.2-0.5v-3.6
					l-0.3,0.1C153.5,92.7,150.6,91.5,148.1,89.6z M173.3,92.1l-0.1-0.3c-0.4,0.8-1.2,1.2-1.9,1.8c-0.9,0.9-2.3,1.1-2.8,2.4
					c-0.5,0.4-0.6,1.1-1.3,1.4c-0.2,0.7-0.9,0.6-1.3,1.1c-1.1,1-1.9-0.7-2.9-0.9l-2.1,0.4c-0.7,0-1.4,0.3-2.1,0
					c0.1,1.4,0.1,2.9,0,4.3l0.3-0.2c6.6-0.3,12.3-2.8,17.1-7.2L173.3,92.1z M143,92.1l0,0.2l-2.8,2.8c4.3,3.7,9.1,6.1,14.6,6.8
					c0.9,0.2,1.9,0.1,2.7,0.3l-0.2-0.3v-3.7l0.1-0.2l-0.4,0.1C151.6,97.7,146.9,95.8,143,92.1z M158.6,93l0.2,0.3
					c0,1.1,0.1,2.3,0,3.4c1-0.3,2.2-0.3,3.3-0.5c-0.2-0.1-0.4-0.1-0.6-0.4c-0.6,0-0.9-0.7-1.1-1.2c-0.1-0.4,0.1-0.7,0.3-1
					c-0.3-0.6-1.1-0.1-1.6-0.4C158.9,93.2,158.8,93,158.6,93z"/>
				<g>
					<path class="st17" d="M183.7,53.8c2,1.8,2.9,4.1,3.5,6.5l0.3,0.8c-2.9-2.1-5.5-4.9-7.4-7.9l-2.3-2.3
						C179.8,51.7,182,52.2,183.7,53.8z"/>
					<path class="st17" d="M132.9,57.3c-1.3,1.7-3,2.7-4.6,4.2c0.8-1.7,0.8-3.7,2-5.3c1.7-2.9,4.7-3.9,7.4-5
						C135.8,53,134.4,55.3,132.9,57.3z"/>
					<path class="st17" d="M190.8,60.4c0.6,2.9-0.3,5.7,0.3,8.6l0,0c-1.6-3.1-4.9-4.5-7.2-7c-1.3-1.5-1.9-3.2-2.2-5.1
						c1.3,3.2,4.8,3.8,6.9,6.5c0.7,0.6,0.9,1.5,1.3,2.2l0.1-0.1c-1.2-2.5-1.6-5.3-2.4-7.9c-0.4-1.1-1.2-2.3-2.3-3
						C187.9,55,190.2,57.8,190.8,60.4z"/>
					<path class="st17" d="M130.4,55c-2.7,1.9-2.5,5.2-3.4,8c-0.3,1-0.8,2-1,3l0.1,0.1c0.5-1.2,1.2-2.3,2.2-3.3
						c1.9-1.8,4.8-2.9,5.7-5.5c0,3.6-3.1,6.5-6,8.6c-1.2,1.1-2.4,2.3-3,3.6c-0.1-0.9,0.1-1.8,0.1-2.8c-0.3-3.2-0.5-6.8,1.7-9.2
						C127.8,56.2,129,55.3,130.4,55z"/>
					<path class="st17" d="M192.5,61c2.4,3.3,2.9,8.5,1.2,12.2c-0.7,1.6-1.1,3.3-1.4,5.1c-0.1-0.3-0.2-0.7-0.3-1.1
						c-1-3.7-4.4-6.3-5.9-9.8c-0.5-1.1-0.8-2.3-1.1-3.5c1.5,2.8,5.3,4.3,6.3,7.4c0.4,0.8,0.4,1.8,0.7,2.6c0.1,0,0.1,0,0.1-0.1
						c-0.5-3.2-0.3-6.6,0.1-9.7c0-1.7-0.2-3.4-1.1-4.7C191.8,59.8,192.1,60.5,192.5,61z"/>
					<path class="st17" d="M124.7,60c-2.1,3.2-0.4,7.1-0.5,10.7l-0.3,3.7c0,0,0,0.1,0.1,0.1c0.1-0.4,0.2-0.8,0.2-1.3
						c0.5-3,3.1-5.1,5.3-7.1c0.5-0.5,0.9-1.1,1.1-1.7c-0.2,1.5-0.6,3-1.3,4.3c-1.7,3.4-5,6.2-5.6,10.1c-0.3-3.7-2.8-6.5-2.6-10.5
						c-0.1-3.2,1.3-5.9,3.1-8.3C124.5,60,124.6,59.9,124.7,60z"/>
					<path class="st17" d="M194.7,82.2c-1.4,2-3.2,3.9-4.5,6c0.2-1.6,0.3-3.7-0.3-5.2c-1.1-3.3-2.1-6.7-2.4-10.4l0-1.4
						c0.8,3.8,4.5,6.3,4.3,10.5c0.1,1-0.2,1.9-0.4,2.8l0.1,0.1l0.2-0.2c0.5-2.1,0.8-4.2,1.7-6.2c1.2-2.8,2.7-5.6,2.1-8.9
						C197.3,73.3,196.7,78.6,194.7,82.2z"/>
					<path class="st17" d="M123.6,80.9c0.4,1.4,0.5,2.9,1.1,4.2c0.1,0,0.1,0,0.1-0.1c-1.4-3.9,0.6-7.6,2.6-10.6
						c0.5-0.8,0.8-1.8,1-2.7c0.2,1.8-0.2,3.8-0.5,5.7c-0.5,2.3-1.2,4.6-1.9,6.9c-0.4,1.4-0.3,3-0.1,4.5l-0.2-0.2
						c-1.5-2.7-4.4-4.9-5.3-7.9c-0.7-2.4-1.2-5.2-0.7-7.8c0.2-1,0.4-2,0.8-3C119.8,74.2,122.7,77.2,123.6,80.9z"/>
					<path class="st17" d="M189.1,88.7c-0.1,1.8-0.7,3.5-1.7,5h0.2c1.3-1.7,2.3-3.5,3.9-5.2c2.4-2.3,4.8-4.6,5.1-7.8
						c0.8,5.3-2.2,10-6.6,13c-1.8,1.2-3.7,2.3-5.4,3.6v-0.2c2.7-4.5,1.4-10.6,3-15.4l0.6-1.6C187.9,83.1,189.2,85.6,189.1,88.7z"/>
					<path class="st17" d="M130.5,94.7c0.3,1,0.9,1.9,1.3,2.9c-4.1-2.8-9.6-5.4-11.4-10.5c-0.8-1.7-0.8-3.9-0.7-5.9
						c0.3,4.5,5.2,6.9,7.4,10.6c0.5,0.8,1,1.6,1.7,2.3c-0.1-0.5-0.6-0.9-0.7-1.4c-0.8-1.6-1.1-3.4-0.9-5.3c0.2-2.3,1.2-4.4,0.8-6.9
						C130,84.8,129.4,90.1,130.5,94.7z"/>
					<path class="st17" d="M183,98.1c-0.7,1.2-1.7,2.4-2.8,3.3c0.4,0,0.7-0.3,1-0.5c2.9-2.9,6.8-3.7,9.9-6.1c1.3-1,2.4-2.3,3-3.8
						c-0.6,4.8-5.4,9.4-10,10.8c-2.3,0.6-4.9,0.8-7.1,1.6c3.9-3.3,3.6-8.5,6.2-12.4c0.8-1.1,1.5-2.3,2.5-3.3
						C184.2,91,184.8,95,183,98.1z"/>
					<path class="st17" d="M134.3,94c1.4,3.4,1.9,7.2,5,9.7c-3.4-1.1-7.4-0.8-10.4-2.9c-3.3-2-6.2-5.4-6.8-9.2
						c2.3,5.1,7.9,5.6,11.8,8.7c0.7,0.6,1.4,1.1,2.2,1.5l0,0c-0.9-0.8-1.9-1.7-2.5-2.7c-2.2-3.1-1.4-7.4-3.1-10.8
						C132,90.1,133.4,91.9,134.3,94z"/>
					<path class="st17" d="M174.8,104c-0.8,0.5-1.9,0.6-2.7,1.1c1.2,0,2.3-0.4,3.6-0.5c4.5-0.7,9.7,0,12.8-3.8
						c-1.2,2.7-4.1,4.9-6.8,5.9c-4.6,1.7-9.2-0.4-13.6-1.1l-0.8-0.1v0c2.1-0.5,4.1-1.1,5.8-2.6c2.5-2.4,4.7-4.8,7.4-6.7
						C178.4,98.6,178.1,102.3,174.8,104z"/>
					<path class="st17" d="M143.2,102.8c1.7,1.5,3.8,2.2,6.1,2.7c-0.5,0.2-1.2,0.1-1.8,0.3c-4,1-8.4,2.6-12.6,1.1
						c-2.7-0.9-5.6-3-6.9-5.7c3.6,4.1,9.6,2.8,14.4,3.8c0.7,0.1,1.3,0.4,2,0.3c-0.6-0.4-1.4-0.3-2-0.7c-3.8-1.3-4.4-5.4-6.4-8.2
						C138.6,98.1,140.8,100.5,143.2,102.8z"/>
					<path class="st17" d="M172.9,108.4c2.9,1.1,6.8,0.8,9.3-1c-1.3,1.6-3.1,2.8-4.9,3.4c-4.1,1.5-8.4-0.1-11.6-2.5
						c-1.3-0.8-2.4-2-4.1-1.9c-0.6,0-1.2,0-1.7,0.2c3.1,1.4,6,3.4,8.6,6c-0.4,0.5-1,1-1.6,1.4c-2.5-2.7-5.4-5.4-8.5-6.9
						c-0.6,0.1-1.2,0.5-1.8,0.8c-2.6,1.6-5.1,3.7-7,6.3l-1.6-1.4c2.6-2.6,5.5-4.7,8.7-6.2c-3.1-1-5.1,1.6-7.5,2.9
						c-2.8,1.9-6.7,2.8-10,1.5c-1.8-0.7-3.5-1.7-4.8-3.3c2.6,1.8,6.5,2,9.5,0.8c4-1.7,8.1-3.9,13-2.9c0.8,0,1.5,0.8,2.2,0.1
						c3.6-0.9,7.6-0.3,10.7,1.4L172.9,108.4z"/>
				</g>
			</g>
			<g>
				<path class="st17" d="M49.8,241.7h31c-0.5,24.9-14.3,37.4-32.8,37.4c-19.9,0-32.7-16.8-32.7-34.9c0-18.1,12.8-34.9,32.7-34.9
					c22.1,0,28.2,13.8,30.7,20.9l-14,0.9c-2.4-5.9-7.2-9.8-16.6-9.8c-10.5,0-18.8,8.6-18.8,22.9c0,12.1,7.6,22.9,19.7,22.9
					c10.8,0,15.8-7.7,17-14H49.8V241.7z"/>
				<path class="st17" d="M213.3,210.9h13.4v54.5h25.8v12.5h-39.1V210.9z"/>
				<path class="st17" d="M290,228.5c0-4.6-4.5-7.5-9.8-7.5c-6.7,0-10.7,2.9-10.7,7.4c0,4.6,4.5,6.9,7.8,7.9l12.3,3.9
					c8.9,2.9,15.2,8,15.2,18.4c0,8.2-5.9,20.5-24.4,20.5c-23.3,0-25.4-15.1-25.4-21l13.4-0.3c0,7.1,5.6,9.9,12.1,9.9
					c4.5,0,11-2.2,11-7.4c0-3.6-1.5-5.4-8.1-7.8l-14.6-5.3c-7.4-2.7-12.6-9.2-12.6-16.8c0-8.6,5.9-20.9,23.3-20.9
					c20.7,0,24,13.7,24,18.6L290,228.5z"/>
				<g>
					<path class="st18" d="M102.2,236c0.8-1.4,1.8-2.7,3-3.8l-9.7-10.7c-2.4,2.3-4.5,5-6.2,8L102.2,236z"/>
					<path class="st19" d="M126,228.5c1.5,0.7,2.8,1.5,4.1,2.6l9.7-10.6c-2.6-2.2-5.5-4-8.6-5.4L126,228.5z"/>
					<path class="st20" d="M148.4,231.7l-12.9,6.4c0.6,1.4,1.1,3,1.3,4.6l14.4-1.4C150.7,238,149.7,234.7,148.4,231.7"/>
					<path class="st21" d="M134.5,236.3l12.9-6.4c-1.6-3-3.6-5.7-6-8l-9.7,10.6C132.8,233.6,133.7,234.9,134.5,236.3"/>
					<path class="st22" d="M99.6,245.5c0-0.3,0-0.6,0-0.9l-14.4-1.3c0,0.7-0.1,1.4-0.1,2.2c0,2.8,0.3,5.4,1,8l13.9-4
						C99.8,248.2,99.6,246.8,99.6,245.5"/>
					<path class="st23" d="M132.7,257.3c-1,1.2-2.2,2.4-3.5,3.3l7.6,12.3c2.8-1.9,5.3-4.2,7.4-6.9L132.7,257.3z"/>
					<path class="st24" d="M136.9,245.5c0,1.4-0.1,2.7-0.4,4l13.9,4c0.6-2.5,1-5.2,1-8c0-0.7,0-1.4-0.1-2l-14.4,1.4
						C136.9,245,136.9,245.2,136.9,245.5"/>
					<path class="st25" d="M104.1,257.6l-11.5,8.7c2.1,2.6,4.7,4.9,7.5,6.8l7.6-12.3C106.4,259.9,105.1,258.8,104.1,257.6"/>
					<path class="st26" d="M99.9,242.5c0.3-1.6,0.7-3.2,1.4-4.6l-12.9-6.4c-1.4,3-2.4,6.3-2.9,9.8L99.9,242.5z"/>
					<path class="st27" d="M135,274l-7.6-12.3c-1.4,0.8-2.9,1.4-4.4,1.8l2.7,14.2C129,276.9,132.2,275.7,135,274"/>
					<path class="st28" d="M136,251.4c-0.5,1.5-1.2,2.9-2,4.2l11.5,8.7c1.9-2.7,3.4-5.7,4.4-8.9L136,251.4z"/>
					<path class="st29" d="M121,263.9c-0.9,0.1-1.8,0.2-2.7,0.2c-0.7,0-1.5,0-2.2-0.1l-2.7,14.2c1.6,0.2,3.2,0.4,4.8,0.4
						c1.8,0,3.6-0.2,5.4-0.4L121,263.9z"/>
					<path class="st30" d="M119.5,226.8c1.6,0.1,3.1,0.4,4.6,0.9l5.2-13.5c-3.1-1.1-6.4-1.7-9.8-1.9V226.8z"/>
					<path class="st31" d="M114.1,263.6c-1.6-0.4-3.2-1-4.6-1.7l-7.6,12.3c2.9,1.7,6.1,2.9,9.5,3.6L114.1,263.6z"/>
					<path class="st32" d="M112.7,227.7c1.5-0.5,3.1-0.8,4.7-0.8v-14.4c-3.5,0.1-6.8,0.7-9.9,1.8L112.7,227.7z"/>
					<path class="st33" d="M102.8,255.9c-0.9-1.4-1.7-2.8-2.2-4.4l-13.9,4c1.1,3.3,2.6,6.4,4.6,9.2L102.8,255.9z"/>
					<path class="st34" d="M106.7,230.8c1.2-1,2.6-1.8,4-2.4l-5.2-13.5c-3.1,1.3-6,3.1-8.5,5.2L106.7,230.8z"/>
				</g>
				<g>
					<path class="st17" d="M191.4,263.7h-24.8l-4.4,14.2h-14.6l24.8-67.9h14.3l24.4,67.9H196L191.4,263.7z M179.1,226.3h-0.2
						l-8.6,26.4h17.4L179.1,226.3z"/>
				</g>
			</g>
		</g>
	</g>
</g>
</svg>
