<?xml version="1.0" encoding="utf-8"?>
<!-- Generator: Adobe Illustrator 21.0.2, SVG Export Plug-In . SVG Version: 6.00 Build 0)  -->
<svg version="1.1" id="Layer_1" xmlns="http://www.w3.org/2000/svg" xmlns:xlink="http://www.w3.org/1999/xlink" x="0px" y="0px"
	 viewBox="0 0 317.6 317.6" style="enable-background:new 0 0 317.6 317.6;" xml:space="preserve">
<style type="text/css">
	.st0{fill:#FBC500;}
	.st1{fill:#FFFFFF;}
	.st2{fill:#A6183B;}
	.st3{fill:#EB611E;}
	.st4{fill:#DA025F;}
	.st5{fill:#F59D10;}
	.st6{fill:#C48E13;}
	.st7{fill:none;stroke:#FFFFFF;stroke-width:0.73;stroke-miterlimit:10;}
	.st8{fill:#DE1730;}
	.st9{fill:none;stroke:#FFFFFF;stroke-width:1.3067;stroke-linecap:round;stroke-miterlimit:10;}
	.st10{fill:#E1AA29;}
	.st11{fill:#C41722;}
	.st12{fill:#E6331F;}
	.st13{fill:#3BBBE4;}
	.st14{fill:#4B9B34;}
	.st15{fill:#F7F7F8;}
	.st16{fill:#39ABE2;}
	.st17{fill:#3E8EDE;}
	.st18{fill:#62B231;}
	.st19{fill:#E7B81A;}
	.st20{fill:#C31723;}
	.st21{fill:#499A35;}
	.st22{fill:#407E3D;}
	.st23{fill:#F9C400;}
	.st24{fill:#E6351D;}
	.st25{fill:#F59E12;}
	.st26{fill:#2494D2;}
	.st27{fill:#A5193C;}
	.st28{fill:#3ABAE3;}
	.st29{fill:#EB621F;}
	.st30{fill:#E01630;}
	.st31{fill:#D9045F;}
	.st32{fill:#1C4468;}
	.st33{fill:#CB9914;}
	.st34{fill:#04649B;}
	.st35{fill:#5FB130;}
	.st36{fill:#407D3C;}
	.st37{fill:#2496D3;}
	.st38{fill:#1E4468;}
	.st39{fill:#05639B;}
</style>
<g>
	<rect x="0" class="st36" width="317.6" height="317.6"/>
	<path class="st1" d="M75.6,40.5v5.6c0,5.4-2.9,9-7.4,10.4c5.4,1.2,7.9,5,7.9,10.9v9.4c0,8.9-4.7,14.6-15.6,14.6
		c-11,0-14.8-6.2-14.8-16V67h9.8v9.2c0,3.8,1.3,6.2,5,6.2c3.3,0,4.8-2.4,4.8-5.8V66.1c0-3.4-1.5-5.2-5.3-5.2h-4.5v-8.2h4.1
		c3.5,0,5.8-1.8,5.8-5.2v-6.9c0-3.5-1.2-5.8-4.6-5.8c-3.4,0-4.6,2.3-4.6,6.2v6.5h-9.8v-5.7c0-9.4,3.9-16.1,15-16.1
		C71.2,25.9,75.6,31.5,75.6,40.5"/>
	<path class="st1" d="M277.7,198.8c-8.4-11.7-46.2-58.6-116.6-58.6c-70.4,0-108.2,46.9-116.6,58.6c-0.4,0.5-0.7,0.9-0.9,1.3
		c0.3,0.4,0.6,0.8,0.9,1.3C53,213.2,90.8,260,161.2,260c70.4,0,108.2-46.9,116.6-58.6c0.4-0.5,0.7-0.9,0.9-1.3
		C278.4,199.8,278.1,199.3,277.7,198.8 M121.9,169.9c0.6-0.9,2.7-3.6,3-3.9c0.5-0.7,1.6-0.8,2.4-1c0.7-0.1,1.7,0.3,1.9,0.8
		c0.1,0.6-0.3,2.7-0.7,3.1c-1,1.1-3.7,2.6-5.2,2.3C122.1,171.1,121.7,170.2,121.9,169.9 M119.4,174.9c0.1-0.1,0.2-0.2,0.3-0.3
		c0.9-1,2.6-1.2,3.9-1.4c1.2-0.2,2.8,0.4,3,1.2c0.2,0.8-3.1,2.3-3.7,2.8c-1.7,1.6-4.3,4.7-5.9,5.1c-0.5,0.1-0.9,0-1.3-0.1
		C116.8,179.6,118,177.2,119.4,174.9 M145.7,228.9c-1,3.7-2.1,5.1-3,6.3c-0.9,1.2-4.5,2.7-6.7,2.6c-2.2-0.2-2.5-6.1-2.5-9.2
		c0-1.1-1.5,2.1-2.3-4.3c-0.5-4.1-3.1,0.4-3.3-2.3c-0.2-2.7-1.5-2.2-2.9-3.9c-1.4-1.7-3.1,0.2-5,1c-1.9,0.8-1.1,1.3-3.8,0.4
		c-0.1,0-0.1,0-0.2-0.1c-2.5-5.9-3.9-12.3-3.9-19.1c0-1.7,0.1-3.3,0.2-4.9c0.1-0.2,0.2-0.3,0.3-0.5c2.6-3.1,2.5-3.8,2.5-3.8l2.9-1
		c0,0,4.6,0.7,8,2c2.8,1.1,7.3,3.5,9.9,2.4c1.9-0.8,3.4-1.8,3.2-3.4c-0.2-2-1.8-2.4-3.6-1.1c-0.7,0.5-2.2-3-3.3-2.8
		c-1.2,0.2,1.4,4.1,0.4,4.2c-1,0.2-3-4-3.3-4.7c-0.3-0.7-1.9-2.4-3.2-1.1c-2.9,2.7-7.6,2.6-8.5,3.3c-2.9,2.1-3.6-0.7-3.6-2.4
		c0.1-0.4,0.2-0.8,0.4-1.2c0.9-1,4.3-1.4,5.5-0.6c1.3,0.8,2.2-0.2,2.7-0.7c0.5-0.5,0.3-1.3,0-2c-0.3-0.7,0.6-1.2,1.3-1.4
		c0.7-0.2,2.8-1.7,3.7-2.2c0.9-0.5,5.4-1.1,7.4,0c2,1,3.9,0.2,4.9-1c1.3-1.5,2.8-2.6,3.6-3c0.7-0.3-1.7-2.6-3.8-0.1
		c-2,2.5-3.1,2.7-4,2.7s-6.6-1.4-7.3-3.2c-0.7-1.8,1.8-3.1,3.9-4.1c2.1-1,7.8-1,9.3-1.3c3-0.7,6.8-2.1,8.7-0.8
		c1.9,1.3-8,3.5-4.7,5.3c1.2,0.6,6.4-3,8.2-3.9c4.2-2.2-4.1-2.9-3-7.3c1.2-5-10.2-3.1-15.9-2.6c7.6-4.9,16.7-7.7,26.4-7.7
		c23.1,0,42.5,16,47.7,37.6c0,1.1-0.1,1.8-0.2,2.3c-0.4,1.8-3.8,3.3-5.7,0.4c-0.5-0.7-2.6-2.7-2.5,0.7c0.1,3.4,3.3,3.7,0.2,5.8
		c-3.1,2-3.7,1.5-5.2,2.1c-1.4,0.5-2.8,4-2.5,5.9c0.4,1.9,4.8,7,1.5,6.8c-0.8-0.1-6.6-4.1-7.6-6.6c-1-2.7-2.1-5.4-2.9-7.4
		c-0.8-2-2.9-2.6-4.6-1.4c-1.7,1.2,0.5,2.4-0.8,4.9c-1.2,2.5-2.1,4.8-4,2.7c-4.8-5.5-11.7-2.8-12.8-8.9c-0.6-3.3-3.4-3-5.8-4.9
		c-2.4-1.9-3.7-2.9-4.1-1.5c-0.4,1.2,7.5,7.4,8.1,9c0.8,2.4-2.3,4.5-4.7,5c-2.3,0.6-3.3-1.3-5.6-3.7c-2.3-2.4-3.3-4.1-3.4-2.2
		c-0.2,2.7,2.2,6.7,4.5,8.1c2,1.3,4.2,1.8,3.6,3.9c-0.6,2,0,0.9-2.2,3.1c-2.2,2.2-2.6,2.9-2.5,6c0.2,3.1-0.6,3.2-1.1,5.8
		C147.8,227.3,146.7,225.1,145.7,228.9 M198.3,209.3c1.6-0.1,4.1,2.1,3.2,3c-1,0.9-3.4,0.6-4.7-0.4
		C195.6,211,197.6,209.4,198.3,209.3 M196.2,207.8c-0.5-0.2-1-0.7-1.4-1.9c-0.4-1.2,0.6-1.9,1.6-1.4c1,0.5,2.3,2,2.3,2.8
		C198.7,208.1,196.8,208,196.2,207.8 M174.6,207.7c-1,0.9-3.4,0.5-4.7-0.4c-1.2-1,0.8-2.5,1.5-2.6
		C173.1,204.6,175.6,206.9,174.6,207.7 M154.6,217.5c-0.7,1.1-2.5,9.3-3.8,8.4c-1.2-1,0.5-9.6,0.9-10.2
		C153.6,212.1,157.8,212.3,154.6,217.5 M161.2,249.4c-4.8,0-9.4-0.7-13.8-2c-0.6-0.5-1-1.4-0.6-2.4c1.5-4,6-5.5,9.6-5.8
		c7.9-0.8,18.4,5.2,20.1,4.2c1.7-1,5-5.3,10-5.1c3.4,0.1,3.3,0.7,4.5,1.1C182.7,245.7,172.4,249.4,161.2,249.4 M195.8,235.2
		c-0.5-0.1-1-0.3-1.5-0.6c-2.7-1.4-2.4,0.8-3.7,0.3c-1.3-0.5,1.5-3.5-2.5-1c-3.9,2.6-2.9-0.4-4.6-4.8c-1.7-4.4,2-9.3,5.1-10.5
		c4.3-1.5,6.9-1.9,8.9-2.3c5.9-1.5,7.1-5,8.2-2.8c0.2,0.4,0.4,0.8,0.6,1.1c0.3,0.6,0.7,1.9,0.8,3.2
		C204.5,224.4,200.7,230.3,195.8,235.2 M209.2,210.4c-1.3-0.4-6.8-8-2.5-13c0.7-0.8-1.5-3.2-0.9-3.3c2.4-0.2,3.6,1.3,4.3,3.4
		c0,0.9,0.1,1.9,0.1,2.8C210.3,203.8,209.9,207.2,209.2,210.4"/>
	<polygon class="st1" points="41.1,26.7 41.1,90.7 30.4,90.7 30.4,41.7 30.3,41.7 22.7,49.6 22.6,49.6 22.6,38.3 32.5,26.7 	"/>
	<g>
		<path class="st1" d="M98,46.2V33.3c0-4.2,2-7.2,6.7-7.2c5,0,6.4,2.8,6.4,6.7v3.2h-4.1v-3.5c0-1.7-0.6-2.6-2.2-2.6
			c-1.6,0-2.3,1.1-2.3,2.8v14.4c0,1.6,0.7,2.8,2.3,2.8c1.6,0,2.2-1,2.2-2.6v-4.9h4.1v4.6c0,3.8-1.6,6.7-6.4,6.7
			C100,53.4,98,50.4,98,46.2z"/>
		<path class="st1" d="M113.5,26.4h4.5v23.1h5.4v3.7h-9.9V26.4z"/>
		<path class="st1" d="M125.4,26.4h4.5v26.8h-4.5V26.4z"/>
		<path class="st1" d="M144.9,35.8h-0.1l-3,17.4h-2.1l-3.4-17.4h-0.1v17.4h-3.7V26.4h5.3l2.9,15.1h0l2.6-15.1h5.7v26.8h-4.1V35.8z"
			/>
		<path class="st1" d="M150.9,53.1l5.1-26.8h5.1l5.1,26.8h-4.6l-0.8-4.9h-4.8l-0.8,4.9H150.9z M156.5,44.6h3.6l-1.8-10.7h0
			L156.5,44.6z"/>
		<path class="st1" d="M165.5,26.4h12V30h-3.7v23.1h-4.5V30h-3.7V26.4z"/>
		<path class="st1" d="M179.6,26.4h10.7V30h-6.2v7.7h4.5v3.6h-4.5v8.1h6.2v3.7h-10.7V26.4z"/>
		<path class="st1" d="M97.3,90.6l5.1-26.8h5.1l5.1,26.8h-4.6l-0.8-4.9h-4.8l-0.8,4.9H97.3z M102.9,82.1h3.6l-1.8-10.7h0L102.9,82.1
			z"/>
		<path class="st1" d="M113.8,83.7V70.8c0-4.2,2-7.2,6.7-7.2c5,0,6.4,2.8,6.4,6.7v3.2h-4.1v-3.5c0-1.7-0.6-2.6-2.2-2.6
			c-1.6,0-2.3,1.1-2.3,2.8v14.4c0,1.6,0.7,2.8,2.3,2.8c1.6,0,2.2-1,2.2-2.6v-4.9h4.1v4.6c0,3.8-1.6,6.7-6.4,6.7
			C115.8,90.9,113.8,87.9,113.8,83.7z"/>
		<path class="st1" d="M128.4,63.9h12v3.7h-3.7v23.1h-4.5V67.5h-3.7V63.9z"/>
		<path class="st1" d="M142.5,63.9h4.5v26.8h-4.5V63.9z"/>
		<path class="st1" d="M149.6,83.7V70.8c0-4.2,2.1-7.2,6.8-7.2c4.8,0,6.8,3,6.8,7.2v12.9c0,4.1-2.1,7.2-6.8,7.2
			C151.6,90.9,149.6,87.9,149.6,83.7z M158.7,84.4V70.1c0-1.6-0.7-2.8-2.3-2.8c-1.6,0-2.3,1.1-2.3,2.8v14.4c0,1.6,0.7,2.8,2.3,2.8
			C158,87.2,158.7,86,158.7,84.4z"/>
		<path class="st1" d="M169.5,73.8v16.8h-3.8V63.9h4.4l4.9,15.4V63.9h3.8v26.8h-3.9L169.5,73.8z"/>
	</g>
</g>
</svg>
