<?xml version="1.0" encoding="utf-8"?>
<!-- Generator: Adobe Illustrator 21.0.2, SVG Export Plug-In . SVG Version: 6.00 Build 0)  -->
<svg version="1.1" id="Layer_1" xmlns="http://www.w3.org/2000/svg" xmlns:xlink="http://www.w3.org/1999/xlink" x="0px" y="0px"
	 viewBox="0 0 317.6 317.6" style="enable-background:new 0 0 317.6 317.6;" xml:space="preserve">
<style type="text/css">
	.st0{fill:#FBC500;}
	.st1{fill:#FFFFFF;}
	.st2{fill:#A6183B;}
	.st3{fill:#EB611E;}
	.st4{fill:#DA025F;}
	.st5{fill:#F59D10;}
	.st6{fill:#C48E13;}
	.st7{fill:none;stroke:#FFFFFF;stroke-width:0.73;stroke-miterlimit:10;}
	.st8{fill:#DE1730;}
	.st9{fill:none;stroke:#FFFFFF;stroke-width:1.3067;stroke-linecap:round;stroke-miterlimit:10;}
	.st10{fill:#E1AA29;}
	.st11{fill:#C41722;}
	.st12{fill:#E6331F;}
	.st13{fill:#3BBBE4;}
	.st14{fill:#4B9B34;}
	.st15{fill:#F7F7F8;}
	.st16{fill:#39ABE2;}
	.st17{fill:#3E8EDE;}
	.st18{fill:#62B231;}
	.st19{fill:#E7B81A;}
	.st20{fill:#C31723;}
	.st21{fill:#499A35;}
	.st22{fill:#407E3D;}
	.st23{fill:#F9C400;}
	.st24{fill:#E6351D;}
	.st25{fill:#F59E12;}
	.st26{fill:#2494D2;}
	.st27{fill:#A5193C;}
	.st28{fill:#3ABAE3;}
	.st29{fill:#EB621F;}
	.st30{fill:#E01630;}
	.st31{fill:#D9045F;}
	.st32{fill:#1C4468;}
	.st33{fill:#CB9914;}
	.st34{fill:#04649B;}
	.st35{fill:#5FB130;}
	.st36{fill:#407D3C;}
	.st37{fill:#2496D3;}
	.st38{fill:#1E4468;}
	.st39{fill:#05639B;}
</style>
<g>
	<rect y="0" class="st2" width="317.6" height="317.6"/>
	<path class="st1" d="M61.7,75v-7c0-6.1-2.2-10.6-7.2-12.8c4.2-2.1,6.2-5.9,6.2-11.1v-2.6c0-10-5.2-15.4-15.1-15.4
		c-9.8,0-14.9,5.4-14.9,15.4V44c0,5.2,1.9,9.1,6,11.1c-5,2.3-7.1,6.7-7.1,12.8v7c0,9.7,4.6,16.5,16,16.5
		C57.1,91.5,61.7,84.7,61.7,75 M40.8,40.7c0-3.9,1.3-6.1,4.8-6.1c3.6,0,4.9,2.3,4.9,6.1V45c0,3.9-1.3,6.1-4.9,6.1
		c-3.5,0-4.8-2.3-4.8-6.1V40.7z M50.9,76.1c0,3.9-1.4,6.6-5.3,6.6c-3.8,0-5.2-2.7-5.2-6.6V65.7c0-3.9,1.4-6.6,5.2-6.6
		c3.9,0,5.3,2.7,5.3,6.6V76.1z"/>
	<path class="st1" d="M219.1,156.3L186.8,187c-1.2,1.2-1.8,2.1-1.8,4.6v86.1c0,1,0.8,1.8,1.8,1.8h33.3c1,0,1.8-0.8,1.8-1.8V157
		C222,156,221.2,154.2,219.1,156.3"/>
	<path class="st1" d="M126.1,196.3L93.8,227c-1.2,1.2-1.8,2.1-1.8,4.6v46.1c0,1,0.8,1.8,1.8,1.8h33.3c1,0,1.8-0.8,1.8-1.8V197
		C129,196,128.2,194.2,126.1,196.3"/>
	<path class="st1" d="M233.7,119c0-0.2-0.1-0.5-0.3-0.7c-0.2-0.2-0.4-0.2-0.6-0.3l-0.2,0l-0.3,0l-24.7,5.6l-0.4,0
		c-0.2,0-0.3,0.1-0.5,0.3c-0.4,0.4-0.4,1,0,1.3l0.3,0.3l5.6,5.6l-56,56l-25.9-25.9c-0.3-0.3-0.8-0.3-1.1,0l-7,7l0,0l-41.5,41.5
		c-0.3,0.3-0.3,0.8,0,1.1l7,7c0.3,0.3,0.8,0.3,1,0l41-40.9l18.8,18.8c0,0,0,0.1,0.1,0.1l7,7c0.3,0.3,0.8,0.3,1.1,0l63.6-63.6
		l5.9,5.9c0.4,0.4,1,0.4,1.3,0c0.2-0.2,0.3-0.4,0.3-0.6l0-0.1l5.4-25.2L233.7,119z"/>
	<path class="st1" d="M172.7,201.7l-15.6,15.7c-0.3,0.2-0.7,0.2-1,0L142,202.9c-2.6-2.6-3.1-0.5-3.1,0.5v74.2c0,1,0.8,1.8,1.8,1.8
		H174c1,0,1.8-0.8,1.8-1.8v-75.4C175.8,201.2,175,199.4,172.7,201.7"/>
	<g>
		<path class="st1" d="M98.2,33.9v12.4c0,4.1-1.7,7.2-6.5,7.2h-6.9V26.7h6.9C96.5,26.7,98.2,29.7,98.2,33.9z M91.2,49.8
			c1.9,0,2.6-1.1,2.6-2.7V33c0-1.6-0.7-2.7-2.6-2.7h-1.9v19.4H91.2z"/>
		<path class="st1" d="M100.8,26.7h10.7v3.7h-6.2V38h4.5v3.6h-4.5v8.1h6.2v3.7h-10.7V26.7z"/>
		<path class="st1" d="M113.6,46.5V33.6c0-4.2,2-7.2,6.7-7.2c5,0,6.4,2.8,6.4,6.7v3.2h-4.1v-3.5c0-1.7-0.6-2.6-2.2-2.6
			c-1.6,0-2.3,1.1-2.3,2.8v14.4c0,1.6,0.7,2.8,2.3,2.8c1.6,0,2.2-1,2.2-2.6v-4.9h4.1v4.6c0,3.8-1.6,6.7-6.4,6.7
			C115.5,53.8,113.6,50.7,113.6,46.5z"/>
		<path class="st1" d="M129.1,26.7h10.7v3.7h-6.2V38h4.5v3.6h-4.5v8.1h6.2v3.7h-10.7V26.7z"/>
		<path class="st1" d="M146,36.6v16.8h-3.8V26.7h4.4l4.9,15.4V26.7h3.8v26.8h-3.9L146,36.6z"/>
		<path class="st1" d="M157.3,26.7h12v3.7h-3.7v23.1H161V30.4h-3.7V26.7z"/>
		<path class="st1" d="M185.2,36.9l-2.5,16.5h-4.2l-3.6-26.8h4.3l2.1,17h0l2.2-17h3.7l2.5,17h0l2.1-17h3.8l-3.5,26.8h-4.3
			L185.2,36.9L185.2,36.9z"/>
		<path class="st1" d="M197.2,46.5V33.6c0-4.2,2.1-7.2,6.8-7.2c4.8,0,6.8,3,6.8,7.2v12.9c0,4.1-2.1,7.2-6.8,7.2
			C199.2,53.8,197.2,50.7,197.2,46.5z M206.3,47.3V32.9c0-1.6-0.7-2.8-2.3-2.8c-1.6,0-2.3,1.1-2.3,2.8v14.4c0,1.6,0.7,2.8,2.3,2.8
			C205.6,50,206.3,48.9,206.3,47.3z"/>
		<path class="st1" d="M217.8,41.2v12.3h-4.5V26.7h6.6c4.5,0,6.2,2.3,6.2,6v3.4c0,2.9-1,4.6-3.6,5.2l4.3,12.2h-4.7L217.8,41.2z
			 M217.8,30.4v8.3h1.5c1.5,0,2.2-0.8,2.2-2.2v-3.9c0-1.5-0.7-2.2-2.2-2.2H217.8z"/>
		<path class="st1" d="M233,40.4v13h-4.5V26.7h4.5v11.8l4.9-11.8h4.4l-5.2,12l5.3,14.7h-4.7L233,40.4z"/>
		<path class="st1" d="M247.6,53.5l5.1-26.8h5.1l5.1,26.8h-4.6l-0.8-4.9h-4.8l-0.8,4.9H247.6z M253.2,45h3.6l-1.8-10.7h0L253.2,45z"
			/>
		<path class="st1" d="M268.5,36.6v16.8h-3.8V26.7h4.4L274,42V26.7h3.8v26.8h-3.9L268.5,36.6z"/>
		<path class="st1" d="M293.8,33.9v12.4c0,4.1-1.7,7.2-6.5,7.2h-6.9V26.7h6.9C292.1,26.7,293.8,29.7,293.8,33.9z M286.7,49.8
			c1.9,0,2.6-1.1,2.6-2.7V33c0-1.6-0.7-2.7-2.6-2.7h-1.9v19.4H286.7z"/>
		<path class="st1" d="M84.8,64.2h10.7v3.7h-6.2v7.7h4.5v3.6h-4.5v8.1h6.2v3.7H84.8V64.2z"/>
		<path class="st1" d="M97.5,84V71.1c0-4.2,2-7.2,6.7-7.2c5,0,6.4,2.8,6.4,6.7v3.2h-4.1v-3.5c0-1.7-0.6-2.6-2.2-2.6
			c-1.6,0-2.3,1.1-2.3,2.8v14.4c0,1.6,0.7,2.8,2.3,2.8c1.6,0,2.2-1,2.2-2.6V80h4.1v4.6c0,3.8-1.6,6.7-6.4,6.7
			C99.5,91.3,97.5,88.2,97.5,84z"/>
		<path class="st1" d="M113,84V71.1c0-4.2,2.1-7.2,6.8-7.2c4.8,0,6.8,3,6.8,7.2V84c0,4.1-2.1,7.2-6.8,7.2
			C115.1,91.3,113,88.2,113,84z M122.2,84.8V70.4c0-1.6-0.7-2.8-2.3-2.8c-1.6,0-2.3,1.1-2.3,2.8v14.4c0,1.6,0.7,2.8,2.3,2.8
			C121.4,87.5,122.2,86.4,122.2,84.8z"/>
		<path class="st1" d="M133,74.1v16.8h-3.8V64.2h4.4l4.9,15.4V64.2h3.8v26.8h-3.9L133,74.1z"/>
		<path class="st1" d="M144.8,84V71.1c0-4.2,2.1-7.2,6.8-7.2c4.8,0,6.8,3,6.8,7.2V84c0,4.1-2.1,7.2-6.8,7.2
			C146.9,91.3,144.8,88.2,144.8,84z M153.9,84.8V70.4c0-1.6-0.7-2.8-2.3-2.8c-1.6,0-2.3,1.1-2.3,2.8v14.4c0,1.6,0.7,2.8,2.3,2.8
			C153.2,87.5,153.9,86.4,153.9,84.8z"/>
		<path class="st1" d="M173.4,73.6h-0.1l-3,17.4h-2.1l-3.4-17.4h-0.1v17.4H161V64.2h5.3l2.9,15.1h0l2.6-15.1h5.7v26.8h-4.1V73.6z"/>
		<path class="st1" d="M180.1,64.2h4.5v26.8h-4.5V64.2z"/>
		<path class="st1" d="M187.2,84V71.1c0-4.2,2-7.2,6.7-7.2c5,0,6.4,2.8,6.4,6.7v3.2h-4.1v-3.5c0-1.7-0.6-2.6-2.2-2.6
			c-1.6,0-2.3,1.1-2.3,2.8v14.4c0,1.6,0.7,2.8,2.3,2.8c1.6,0,2.2-1,2.2-2.6V80h4.1v4.6c0,3.8-1.6,6.7-6.4,6.7
			C189.1,91.3,187.2,88.2,187.2,84z"/>
		<path class="st1" d="M213.6,76.7h6.4v14.3h-3.2V88c-0.6,2-1.9,3.2-4.3,3.2c-3.9,0-5.6-3.1-5.6-7.2V71.1c0-4.2,2-7.2,6.8-7.2
			c5,0,6.4,2.8,6.4,6.7v2.4h-4.1v-2.7c0-1.7-0.6-2.6-2.3-2.6c-1.6,0-2.3,1.1-2.3,2.8v14.4c0,1.6,0.7,2.8,2.2,2.8
			c1.5,0,2.2-0.8,2.2-2.6v-4.7h-2.1V76.7z"/>
		<path class="st1" d="M227.1,78.7v12.3h-4.5V64.2h6.6c4.5,0,6.2,2.3,6.2,6v3.4c0,2.9-1,4.6-3.6,5.2l4.3,12.2h-4.7L227.1,78.7z
			 M227.1,67.9v8.3h1.5c1.5,0,2.2-0.8,2.2-2.2V70c0-1.5-0.7-2.2-2.2-2.2H227.1z"/>
		<path class="st1" d="M237.8,84V71.1c0-4.2,2.1-7.2,6.8-7.2c4.8,0,6.8,3,6.8,7.2V84c0,4.1-2.1,7.2-6.8,7.2
			C239.8,91.3,237.8,88.2,237.8,84z M246.9,84.8V70.4c0-1.6-0.7-2.8-2.3-2.8c-1.6,0-2.3,1.1-2.3,2.8v14.4c0,1.6,0.7,2.8,2.3,2.8
			C246.2,87.5,246.9,86.4,246.9,84.8z"/>
		<path class="st1" d="M263.3,74.4l-2.5,16.5h-4.2l-3.6-26.8h4.3l2.1,17h0l2.2-17h3.7l2.5,17h0l2.1-17h3.8l-3.5,26.8h-4.3
			L263.3,74.4L263.3,74.4z"/>
		<path class="st1" d="M275.1,64.2h12v3.7h-3.7v23.1h-4.5V67.9h-3.7V64.2z"/>
		<path class="st1" d="M298,79.1h-4.3v11.8h-4.5V64.2h4.5v11.3h4.3V64.2h4.5v26.8H298V79.1z"/>
	</g>
</g>
</svg>
