<?xml version="1.0" encoding="utf-8"?>
<!-- Generator: Adobe Illustrator 21.0.2, SVG Export Plug-In . SVG Version: 6.00 Build 0)  -->
<svg version="1.1" id="Layer_1" xmlns="http://www.w3.org/2000/svg" xmlns:xlink="http://www.w3.org/1999/xlink" x="0px" y="0px"
	 viewBox="0 0 317.6 317.6" style="enable-background:new 0 0 317.6 317.6;" xml:space="preserve">
<style type="text/css">
	.st0{fill:#FBC500;}
	.st1{fill:#FFFFFF;}
	.st2{fill:#A6183B;}
	.st3{fill:#EB611E;}
	.st4{fill:#DA025F;}
	.st5{fill:#F59D10;}
	.st6{fill:#C48E13;}
	.st7{fill:none;stroke:#FFFFFF;stroke-width:0.73;stroke-miterlimit:10;}
	.st8{fill:#DE1730;}
	.st9{fill:none;stroke:#FFFFFF;stroke-width:1.3067;stroke-linecap:round;stroke-miterlimit:10;}
	.st10{fill:#E1AA29;}
	.st11{fill:#C41722;}
	.st12{fill:#E6331F;}
	.st13{fill:#3BBBE4;}
	.st14{fill:#4B9B34;}
	.st15{fill:#F7F7F8;}
	.st16{fill:#39ABE2;}
	.st17{fill:#3E8EDE;}
	.st18{fill:#62B231;}
	.st19{fill:#E7B81A;}
	.st20{fill:#C31723;}
	.st21{fill:#499A35;}
	.st22{fill:#407E3D;}
	.st23{fill:#F9C400;}
	.st24{fill:#E6351D;}
	.st25{fill:#F59E12;}
	.st26{fill:#2494D2;}
	.st27{fill:#A5193C;}
	.st28{fill:#3ABAE3;}
	.st29{fill:#EB621F;}
	.st30{fill:#E01630;}
	.st31{fill:#D9045F;}
	.st32{fill:#1C4468;}
	.st33{fill:#CB9914;}
	.st34{fill:#04649B;}
	.st35{fill:#5FB130;}
	.st36{fill:#407D3C;}
	.st37{fill:#2496D3;}
	.st38{fill:#1E4468;}
	.st39{fill:#05639B;}
</style>
<g>
	<rect y="0" class="st14" width="317.6" height="317.6"/>
	<path class="st1" d="M45.3,91.5c10.9,0,15.6-5.8,15.6-14.6v-9.4c0-5.9-2.5-9.6-7.9-10.9c4.4-1.4,7.4-5,7.4-10.4v-5.6
		C60.3,31.6,56,26,46.1,26c-11.1,0-15,6.6-15,16.1v5.7h9.8v-6.5c0-4,1.2-6.2,4.6-6.2c3.4,0,4.6,2.3,4.6,5.8v6.9
		c0,3.4-2.3,5.2-5.8,5.2h-4.1V61h4.5c3.8,0,5.3,1.8,5.3,5.2v10.6c0,3.4-1.5,5.8-4.8,5.8c-3.7,0-5-2.5-5-6.2v-9.2h-9.8v8.4
		C30.5,85.3,34.4,91.5,45.3,91.5"/>
	<g>
		<path class="st1" d="M265.4,198.5c0-8.9-5.7-16.2-14.4-16.2c-4.3,0-9.6,4.8-12.4,7.7c-2.8-2.9-7.7-7.7-12.1-7.7
			c-8.7,0-14.8,7.2-14.8,16.2c0,4.5,1.8,8.5,4.6,11.4l0,0l22.3,22.3l22.2-22.3l0,0C263.7,207,265.4,203,265.4,198.5z"/>
		<g>
			<path class="st1" d="M170.7,268.6c-0.1,0-0.2,0-0.2,0c-1.7-0.1-3.1-1.4-3.4-3l-11.3-65.9l-17.1,31.8c-0.7,1.4-2.3,2.1-3.9,1.9
				c-1.6-0.3-2.8-1.5-3-3.1l-7.3-50.8l-13.3,29.9c-0.6,1.3-1.9,2.2-3.3,2.2H56.2c-2,0-3.7-1.6-3.7-3.7c0-2,1.6-3.7,3.7-3.7h49.3
				l17.5-39.3c0.7-1.5,2.2-2.4,3.8-2.1c1.6,0.2,2.9,1.5,3.1,3.1l7.5,52.4l16.9-31.3c0.7-1.4,2.3-2.1,3.8-1.9c1.5,0.3,2.7,1.5,3,3
				l10.5,61l38.2-126.8c0.4-1.4,1.7-2.5,3.2-2.6c1.5-0.1,2.9,0.7,3.6,2.1l20.1,41.6c0.9,1.8,0.1,4-1.7,4.9c-1.8,0.9-4,0.1-4.9-1.7
				l-16-33.2L174.2,266C173.7,267.6,172.3,268.6,170.7,268.6z"/>
		</g>
	</g>
	<g>
		<path class="st1" d="M95.3,38.4h6.4v14.3h-3.2v-2.9c-0.6,2-1.9,3.2-4.3,3.2c-3.9,0-5.6-3.1-5.6-7.2V32.8c0-4.2,2-7.2,6.8-7.2
			c5,0,6.4,2.8,6.4,6.7v2.4h-4.1v-2.7c0-1.7-0.6-2.6-2.3-2.6c-1.6,0-2.3,1.1-2.3,2.8v14.4c0,1.6,0.7,2.8,2.2,2.8
			c1.5,0,2.2-0.8,2.2-2.6v-4.7h-2.1V38.4z"/>
		<path class="st1" d="M104.3,45.7V32.8c0-4.2,2.1-7.2,6.8-7.2c4.8,0,6.8,3,6.8,7.2v12.9c0,4.1-2.1,7.2-6.8,7.2
			C106.3,53,104.3,49.9,104.3,45.7z M113.4,46.4V32.1c0-1.6-0.7-2.8-2.3-2.8c-1.6,0-2.3,1.1-2.3,2.8v14.4c0,1.6,0.7,2.8,2.3,2.8
			C112.7,49.2,113.4,48.1,113.4,46.4z"/>
		<path class="st1" d="M120.4,45.7V32.8c0-4.2,2.1-7.2,6.8-7.2c4.8,0,6.8,3,6.8,7.2v12.9c0,4.1-2.1,7.2-6.8,7.2
			C122.5,53,120.4,49.9,120.4,45.7z M129.6,46.4V32.1c0-1.6-0.7-2.8-2.3-2.8c-1.6,0-2.3,1.1-2.3,2.8v14.4c0,1.6,0.7,2.8,2.3,2.8
			C128.8,49.2,129.6,48.1,129.6,46.4z"/>
		<path class="st1" d="M150.1,33.1v12.4c0,4.1-1.7,7.2-6.5,7.2h-6.9V25.9h6.9C148.4,25.9,150.1,28.9,150.1,33.1z M143,49
			c1.9,0,2.6-1.1,2.6-2.7v-14c0-1.6-0.7-2.7-2.6-2.7h-1.9V49H143z"/>
		<path class="st1" d="M165.6,40.8h-4.3v11.8h-4.5V25.9h4.5v11.3h4.3V25.9h4.5v26.8h-4.5V40.8z"/>
		<path class="st1" d="M172.7,25.9h10.7v3.7h-6.2v7.7h4.5v3.6h-4.5V49h6.2v3.7h-10.7V25.9z"/>
		<path class="st1" d="M185.2,52.6l5.1-26.8h5.1l5.1,26.8h-4.6l-0.8-4.9h-4.8l-0.8,4.9H185.2z M190.8,44.2h3.6l-1.8-10.7h0
			L190.8,44.2z"/>
		<path class="st1" d="M202.3,25.9h4.5V49h5.4v3.7h-9.9V25.9z"/>
		<path class="st1" d="M211.1,25.9h12v3.7h-3.7v23.1h-4.5V29.5h-3.7V25.9z"/>
		<path class="st1" d="M234,40.8h-4.3v11.8h-4.5V25.9h4.5v11.3h4.3V25.9h4.5v26.8H234V40.8z"/>
		<path class="st1" d="M87.8,90.1l5.1-26.8H98l5.1,26.8h-4.6l-0.8-4.9h-4.8l-0.8,4.9H87.8z M93.4,81.7H97l-1.8-10.7h0L93.4,81.7z"/>
		<path class="st1" d="M108.7,73.3v16.8h-3.8V63.4h4.4l4.9,15.4V63.4h3.8v26.8H114L108.7,73.3z"/>
		<path class="st1" d="M134,70.6V83c0,4.1-1.7,7.2-6.5,7.2h-6.9V63.4h6.9C132.3,63.4,134,66.4,134,70.6z M126.9,86.5
			c1.9,0,2.6-1.1,2.6-2.7v-14c0-1.6-0.7-2.7-2.6-2.7H125v19.4H126.9z"/>
		<path class="st1" d="M150.4,73.6l-2.5,16.5h-4.2l-3.6-26.8h4.3l2.1,17h0l2.2-17h3.7l2.5,17h0l2.1-17h3.8l-3.5,26.8h-4.3
			L150.4,73.6L150.4,73.6z"/>
		<path class="st1" d="M162.7,63.4h10.7V67h-6.2v7.7h4.5v3.6h-4.5v8.1h6.2v3.7h-10.7V63.4z"/>
		<path class="st1" d="M175.9,63.4h4.5v23.1h5.4v3.7h-9.9V63.4z"/>
		<path class="st1" d="M187.8,63.4h4.5v23.1h5.4v3.7h-9.9V63.4z"/>
		<path class="st1" d="M197.1,75.9h6.3v3.6h-6.3V75.9z"/>
		<path class="st1" d="M205.7,63.4h6.5c4.5,0,6,2.1,6,5.9V72c0,2.3-0.8,3.7-2.7,4.3c2.2,0.5,3.4,2,3.4,4.5v3.6
			c0,3.8-1.7,5.9-6.2,5.9h-7V63.4z M210.2,74.7h1.6c1.5,0,2.1-0.7,2.1-2.2v-3.3c0-1.5-0.7-2.2-2.2-2.2h-1.5V74.7z M210.2,78.1v8.4h2
			c1.5,0,2.2-0.8,2.2-2.2v-4c0-1.4-0.7-2.2-2.3-2.2H210.2z"/>
		<path class="st1" d="M221.1,63.4h10.7V67h-6.2v7.7h4.5v3.6h-4.5v8.1h6.2v3.7h-10.7V63.4z"/>
		<path class="st1" d="M234.3,63.4h4.5v26.8h-4.5V63.4z"/>
		<path class="st1" d="M245.2,73.3v16.8h-3.8V63.4h4.4l4.9,15.4V63.4h3.8v26.8h-3.9L245.2,73.3z"/>
		<path class="st1" d="M263.8,75.8h6.4v14.3h-3.2v-2.9c-0.6,2-1.9,3.2-4.3,3.2c-3.9,0-5.6-3.1-5.6-7.2V70.3c0-4.2,2-7.2,6.8-7.2
			c5,0,6.4,2.8,6.4,6.7v2.4H266v-2.7c0-1.7-0.6-2.6-2.3-2.6c-1.6,0-2.3,1.1-2.3,2.8v14.4c0,1.6,0.7,2.8,2.2,2.8
			c1.5,0,2.2-0.8,2.2-2.6v-4.7h-2.1V75.8z"/>
	</g>
</g>
</svg>
