<?xml version="1.0" encoding="utf-8"?>
<!-- Generator: Adobe Illustrator 21.0.2, SVG Export Plug-In . SVG Version: 6.00 Build 0)  -->
<svg version="1.1" id="Layer_1" xmlns="http://www.w3.org/2000/svg" xmlns:xlink="http://www.w3.org/1999/xlink" x="0px" y="0px"
	 viewBox="0 0 317.6 317.6" style="enable-background:new 0 0 317.6 317.6;" xml:space="preserve">
<style type="text/css">
	.st0{fill:#DD172F;}
	.st1{fill:#FFFFFF;}
	.st2{fill:none;stroke:#FFFFFF;stroke-width:1.3067;stroke-linecap:round;stroke-miterlimit:10;}
	.st3{fill:#E0A928;}
	.st4{fill:#499935;}
	.st5{fill:#C31922;}
	.st6{fill:#E53321;}
	.st7{fill:#38BAE3;}
	.st8{fill:#FAC400;}
	.st9{fill:#A5183B;}
	.st10{fill:#E9611D;}
	.st11{fill:#D9055F;}
	.st12{fill:#F59C12;}
	.st13{fill:#C38C12;}
	.st14{fill:none;stroke:#FFFFFF;stroke-width:0.73;stroke-miterlimit:10;}
	.st15{fill:#3F7C3C;}
	.st16{fill:#2593D2;}
	.st17{fill:#5EB032;}
	.st18{fill:#00639B;}
	.st19{fill:#1D4467;}
	.st20{fill:#EFEFEF;}
	.st21{fill:#010202;}
	.st22{fill:#61B032;}
	.st23{fill:#E6B719;}
	.st24{fill:#C21822;}
	.st25{fill:#489935;}
	.st26{fill:#3F7E3C;}
	.st27{fill:#F8C300;}
	.st28{fill:#E4351F;}
	.st29{fill:#F59C13;}
	.st30{fill:#2691D0;}
	.st31{fill:#A4193C;}
	.st32{fill:#37B9E2;}
	.st33{fill:#E9611F;}
	.st34{fill:#DF1531;}
	.st35{fill:#D80560;}
	.st36{fill:#1B4367;}
	.st37{fill:#CA9811;}
	.st38{fill:#00659A;}
</style>
<g>
	<rect class="st12" width="317.6" height="317.6"/>
	<polygon class="st1" points="20,38.2 20,49.5 20.1,49.5 27.7,41.6 27.8,41.6 27.8,90.6 38.6,90.6 38.6,26.6 30,26.6 	"/>
	<polygon class="st1" points="44.6,38.2 44.6,49.5 44.7,49.5 52.2,41.6 52.3,41.6 52.3,90.6 63.1,90.6 63.1,26.6 54.5,26.6 	"/>
	<g>
		<g>
			<path class="st1" d="M62.7,245.2h0.5h43.6c0.6,0,1.1-0.5,1.1-1.1c0-0.3-0.1-0.5-0.3-0.7l-0.1-0.1L85.6,215l-0.2-0.2
				c-0.2-0.2-0.5-0.4-0.8-0.4c-0.3,0-0.5,0.1-0.7,0.3l-0.1,0.2l-0.2,0.2l-21.4,28.1l-0.3,0.4c-0.1,0.2-0.2,0.4-0.2,0.6
				C61.6,244.7,62.1,245.2,62.7,245.2z"/>
			<path class="st1" d="M106.6,249.2H62.4c-0.6,0-1.1,0.5-1.1,1.1v34.6c0,0.6,0.5,1.1,1.1,1.1h14.2v-21.8c0-0.6,0.5-1.1,1.1-1.1
				h13.2c0.6,0,1.1,0.5,1.1,1.1V286h14.6c0.6,0,1.1-0.5,1.1-1.1v-34.6C107.7,249.7,107.2,249.2,106.6,249.2z"/>
		</g>
		<path class="st1" d="M259.3,240.2h-43.7c-0.6,0-1.1,0.5-1.1,1v44.2c0,0.6,0.5,1,1.1,1h43.7c0.6,0,1.1-0.5,1.1-1v-44.2
			C260.4,240.6,259.9,240.2,259.3,240.2 M235.4,269c0,0.6-0.5,1-1.1,1h-13.1c-0.6,0-1.1-0.5-1.1-1v-7.9c0-0.6,0.5-1,1.1-1h13.1
			c0.6,0,1.1,0.5,1.1,1V269z M235.4,254.3c0,0.6-0.5,1-1.1,1h-13.1c-0.6,0-1.1-0.5-1.1-1v-7.9c0-0.6,0.5-1,1.1-1h13.1
			c0.6,0,1.1,0.5,1.1,1V254.3z M255.4,269c0,0.6-0.5,1-1.1,1h-13.1c-0.6,0-1.1-0.5-1.1-1v-7.9c0-0.6,0.5-1,1.1-1h13.1
			c0.6,0,1.1,0.5,1.1,1V269z M255.4,254.3c0,0.6-0.5,1-1.1,1h-13.1c-0.6,0-1.1-0.5-1.1-1v-7.9c0-0.6,0.5-1,1.1-1h13.1
			c0.6,0,1.1,0.5,1.1,1V254.3z"/>
		<path class="st1" d="M157.7,137.7h-42.8c-0.6,0-1,0.5-1,1V285c0,0.6,0.5,1,1,1h42.8c0.6,0,1.1-0.5,1.1-1V138.7
			C158.7,138.1,158.2,137.7,157.7,137.7 M132.2,269.4c0,0.3-0.3,0.6-0.6,0.6h-9.8c-0.3,0-0.6-0.3-0.6-0.6v-10.9
			c0-0.3,0.3-0.6,0.6-0.6h9.8c0.3,0,0.6,0.2,0.6,0.6V269.4z M132.2,244.3c0,0.3-0.3,0.6-0.6,0.6h-9.8c-0.3,0-0.6-0.2-0.6-0.6v-10.9
			c0-0.3,0.3-0.6,0.6-0.6h9.8c0.3,0,0.6,0.2,0.6,0.6V244.3z M132.2,219.2c0,0.3-0.3,0.6-0.6,0.6h-9.8c-0.3,0-0.6-0.3-0.6-0.6v-10.9
			c0-0.3,0.3-0.6,0.6-0.6h9.8c0.3,0,0.6,0.3,0.6,0.6V219.2z M132.2,194.1c0,0.3-0.3,0.6-0.6,0.6h-9.8c-0.3,0-0.6-0.3-0.6-0.6v-10.9
			c0-0.3,0.3-0.6,0.6-0.6h9.8c0.3,0,0.6,0.2,0.6,0.6V194.1z M132.2,169.1c0,0.3-0.3,0.6-0.6,0.6h-9.8c-0.3,0-0.6-0.3-0.6-0.6v-10.9
			c0-0.3,0.3-0.6,0.6-0.6h9.8c0.3,0,0.6,0.2,0.6,0.6V169.1z M151.4,269.4c0,0.3-0.3,0.6-0.6,0.6h-9.8c-0.3,0-0.6-0.3-0.6-0.6v-10.9
			c0-0.3,0.2-0.6,0.6-0.6h9.8c0.3,0,0.6,0.2,0.6,0.6V269.4z M151.4,244.3c0,0.3-0.3,0.6-0.6,0.6h-9.8c-0.3,0-0.6-0.2-0.6-0.6v-10.9
			c0-0.3,0.2-0.6,0.6-0.6h9.8c0.3,0,0.6,0.2,0.6,0.6V244.3z M151.4,219.2c0,0.3-0.3,0.6-0.6,0.6h-9.8c-0.3,0-0.6-0.3-0.6-0.6v-10.9
			c0-0.3,0.2-0.6,0.6-0.6h9.8c0.3,0,0.6,0.3,0.6,0.6V219.2z M151.4,194.1c0,0.3-0.3,0.6-0.6,0.6h-9.8c-0.3,0-0.6-0.3-0.6-0.6v-10.9
			c0-0.3,0.2-0.6,0.6-0.6h9.8c0.3,0,0.6,0.2,0.6,0.6V194.1z M151.4,169.1c0,0.3-0.3,0.6-0.6,0.6h-9.8c-0.3,0-0.6-0.3-0.6-0.6v-10.9
			c0-0.3,0.2-0.6,0.6-0.6h9.8c0.3,0,0.6,0.2,0.6,0.6V169.1z"/>
		<path class="st1" d="M260.3,235.7c0,0.5-0.4,0.9-0.9,0.9h-44c-0.5,0-0.9-0.4-0.9-0.9v-8.8c0-0.5,0.4-0.9,0.9-0.9h44
			c0.5,0,0.9,0.4,0.9,0.9V235.7z"/>
		<path class="st1" d="M209.4,165.3c-0.1-0.5-0.6-0.8-1.1-0.8c-0.2,0-0.4,0.1-0.6,0.2c0,0-0.1,0-0.1,0.1l-0.4,0.5l-42.1,53.4
			l-0.2,0.3c-0.2,0.2-0.4,0.5-0.4,0.8v0.1v65.5c0,0.6,0.5,1,1,1h42.8c0.6,0,1-0.5,1-1V165.7C209.5,165.6,209.4,165.4,209.4,165.3z
			 M191.7,194.3l0.3-0.4c2.9-3.7,7.7-9.7,10.1-12.6l0.3-0.4c0.2-0.3,0.6-0.4,0.9-0.4c0.6,0,1.1,0.4,1.2,1v0.5v0.4V195
			c0,0.7-0.5,1.2-1.2,1.2c0,0,0,0-0.1,0c0,0,0,0-0.1,0h-10h-0.5c0,0,0,0-0.1,0c0,0,0,0-0.1,0c-0.6,0-1.2-0.6-1.2-1.2
			C191.4,194.7,191.5,194.5,191.7,194.3z M185,269c0,0.6-0.5,1-1,1h-12.8c-0.6,0-1-0.5-1-1v-8c0-0.6,0.5-1,1-1H184c0.6,0,1,0.5,1,1
			V269z M185,254.2c0,0.6-0.5,1-1,1h-12.8c-0.6,0-1-0.5-1-1v-8c0-0.6,0.5-1,1-1H184c0.6,0,1,0.5,1,1V254.2z M185,239.5
			c0,0.6-0.5,1-1,1h-12.8c-0.6,0-1-0.5-1-1v-8c0-0.6,0.5-1,1-1H184c0.6,0,1,0.5,1,1V239.5z M185,207.2v0.4v17.2c0,0.6-0.5,1-1,1
			h-12.8c-0.6,0-1.1-0.5-1.1-1v-2.1v-0.1c0-0.1,0-0.3,0.1-0.4c0,0,0-0.1,0.1-0.1c0,0,0.1-0.1,0.1-0.1c0,0,0.1-0.1,0.1-0.2
			c1.6-2.3,9-11.4,12.1-15.2l0.3-0.4c0.2-0.3,0.6-0.4,0.9-0.4c0.6,0,1.1,0.4,1.2,1V207.2z M204.5,269c0,0.6-0.5,1-1,1h-12.8
			c-0.6,0-1.1-0.5-1.1-1v-8c0-0.6,0.5-1,1.1-1h12.8c0.6,0,1,0.5,1,1V269z M204.5,254.2c0,0.6-0.5,1-1,1h-12.8c-0.6,0-1.1-0.5-1.1-1
			v-8c0-0.6,0.5-1,1.1-1h12.8c0.6,0,1,0.5,1,1V254.2z M204.5,239.5c0,0.6-0.5,1-1,1h-12.8c-0.6,0-1.1-0.5-1.1-1v-8
			c0-0.6,0.5-1,1.1-1h12.8c0.6,0,1,0.5,1,1V239.5z M204.5,224.7c0,0.6-0.5,1-1,1h-12.8c-0.6,0-1.1-0.5-1.1-1v-8c0-0.6,0.5-1,1.1-1
			h12.8c0.6,0,1,0.5,1,1V224.7z M204.5,210c0,0.6-0.5,1-1,1h-12.8c-0.6,0-1.1-0.5-1.1-1v-8c0-0.6,0.5-1,1.1-1h12.8c0.6,0,1,0.5,1,1
			V210z"/>
	</g>
	<g>
		<path class="st1" d="M86.4,45.9h-2.8l-6.4-19.3h3.9L85,39.2l3.9-12.6h3.9L86.4,45.9z"/>
		<path class="st1" d="M95.2,45.9V26.6h3.8v19.3H95.2z"/>
		<path class="st1" d="M103.5,45.9V26.6h3.8v15.9h8.8v3.4H103.5z"/>
		<path class="st1" d="M119,45.9V26.6h3.8v15.9h8.8v3.4H119z"/>
		<path class="st1" d="M134.6,45.9V26.6h12.7V30h-8.9v4.5h7.6v3.4h-7.6v4.7h8.9v3.4H134.6z"/>
		<path class="st1" d="M156.4,46.1c-2.9,0-5.2-0.6-7-2.5l2.4-2.4c1.2,1.2,2.9,1.6,4.7,1.6c2.2,0,3.4-0.8,3.4-2.4
			c0-0.7-0.2-1.2-0.6-1.6c-0.4-0.4-0.8-0.5-1.7-0.7l-2.3-0.3c-1.7-0.2-2.9-0.8-3.7-1.6c-0.9-0.9-1.4-2.2-1.4-3.8
			c0-3.4,2.5-5.9,6.7-5.9c2.7,0,4.6,0.7,6.2,2.2l-2.4,2.4c-1.2-1.2-2.7-1.3-4-1.3c-2,0-3,1.1-3,2.4c0,0.5,0.2,1,0.6,1.4
			c0.4,0.4,1,0.7,1.8,0.8l2.3,0.3c1.8,0.2,2.9,0.7,3.7,1.5c1,1,1.5,2.4,1.5,4.1C163.5,44,160.4,46.1,156.4,46.1z"/>
		<path class="st1" d="M173.4,45.9V26.6h12.7V30h-8.9v4.5h7.6v3.4h-7.6v4.7h8.9v3.4H173.4z"/>
		<path class="st1" d="M197.2,30v15.9h-3.8V30h-5v-3.4h13.9V30H197.2z"/>
		<path class="st1" d="M85.9,78.6c-2.1,0-3.8-0.8-5.2-2.1c-2-2-1.9-4.4-1.9-7.7c0-3.3-0.1-5.7,1.9-7.7c1.4-1.4,3.1-2.1,5.2-2.1
			c3.6,0,6.4,2.1,7.1,6.1h-3.8c-0.4-1.5-1.4-2.7-3.3-2.7c-1,0-1.9,0.4-2.4,1c-0.7,0.8-0.9,1.7-0.9,5.4c0,3.7,0.2,4.6,0.9,5.4
			c0.5,0.6,1.4,1,2.4,1c1.9,0,2.9-1.2,3.3-2.7H93C92.3,76.6,89.4,78.6,85.9,78.6z"/>
		<path class="st1" d="M107.9,76.5c-1.4,1.4-3,2.1-5.2,2.1s-3.9-0.8-5.2-2.1c-1.9-2-1.9-4.4-1.9-7.7c0-3.3-0.1-5.7,1.9-7.7
			c1.4-1.4,3-2.1,5.2-2.1s3.9,0.8,5.2,2.1c2,2,1.9,4.4,1.9,7.7C109.8,72.2,109.9,74.6,107.9,76.5z M105.1,63.4c-0.5-0.6-1.4-1-2.4-1
			c-1,0-1.9,0.4-2.4,1c-0.7,0.8-0.9,1.7-0.9,5.4c0,3.7,0.2,4.6,0.9,5.4c0.5,0.6,1.4,1,2.4,1c1,0,1.9-0.4,2.4-1
			c0.7-0.8,0.9-1.7,0.9-5.4C106.1,65.1,105.9,64.2,105.1,63.4z"/>
		<path class="st1" d="M127.4,78.5V67.2l-3.7,7.3h-2.5l-3.7-7.3v11.3h-3.8V59.2h3.7l5,10.4l5-10.4h3.7v19.3H127.4z"/>
		<path class="st1" d="M149.4,78.5V67.2l-3.7,7.3h-2.5l-3.7-7.3v11.3h-3.8V59.2h3.7l5,10.4l5-10.4h3.7v19.3H149.4z"/>
		<path class="st1" d="M164.5,78.6c-4,0-7.1-2.7-7.1-6.8V59.2h3.8v12.6c0,2.2,1.3,3.6,3.3,3.6s3.4-1.3,3.4-3.6V59.2h3.7v12.7
			C171.6,76,168.5,78.6,164.5,78.6z"/>
		<path class="st1" d="M187.2,78.5l-7.6-11.8v11.8h-3.8V59.2h3.4l7.6,11.8V59.2h3.8v19.3H187.2z"/>
		<path class="st1" d="M206.1,78.5l-1.1-3.4h-6.9l-1.2,3.4H193l7-19.3h3l7.1,19.3H206.1z M201.6,64.9l-2.4,7h4.8L201.6,64.9z"/>
		<path class="st1" d="M219.2,78.6c-4,0-7.1-2.7-7.1-6.8V59.2h3.8v12.6c0,2.2,1.3,3.6,3.3,3.6s3.4-1.3,3.4-3.6V59.2h3.7v12.7
			C226.3,76,223.2,78.6,219.2,78.6z"/>
		<path class="st1" d="M237.9,62.5v15.9h-3.8V62.5h-5v-3.4H243v3.4H237.9z"/>
		<path class="st1" d="M246,78.5V59.2h12.7v3.4h-8.9v4.5h7.6v3.4h-7.6v4.7h8.9v3.4H246z M253,57.3h-2.4l1.7-4.6h3.7L253,57.3z"/>
		<path class="st1" d="M267.8,78.6c-2.9,0-5.2-0.6-7-2.5l2.4-2.4c1.2,1.2,2.9,1.6,4.7,1.6c2.2,0,3.4-0.8,3.4-2.4
			c0-0.7-0.2-1.2-0.6-1.6c-0.4-0.4-0.8-0.5-1.7-0.7l-2.3-0.3c-1.7-0.2-2.9-0.8-3.7-1.6c-0.9-0.9-1.4-2.2-1.4-3.8
			c0-3.4,2.5-5.9,6.7-5.9c2.7,0,4.6,0.7,6.2,2.2l-2.4,2.4c-1.2-1.2-2.7-1.3-4-1.3c-2,0-3,1.1-3,2.4c0,0.5,0.2,1,0.6,1.4
			c0.4,0.4,1,0.7,1.8,0.8l2.3,0.3c1.8,0.2,2.9,0.7,3.7,1.5c1,1,1.5,2.4,1.5,4.1C274.9,76.5,271.8,78.6,267.8,78.6z"/>
		<path class="st1" d="M91.5,109.2c-1.3,1.3-3.1,1.8-5.1,1.8h-7V91.7h7c2,0,3.8,0.6,5.1,1.8c2.2,2.2,1.9,4.8,1.9,7.7
			S93.6,107,91.5,109.2z M88.8,96.3c-0.6-0.8-1.5-1.2-2.8-1.2h-2.8v12.6H86c1.3,0,2.2-0.4,2.8-1.2c0.7-0.9,0.8-2.3,0.8-5.2
			S89.6,97.2,88.8,96.3z"/>
		<path class="st1" d="M104.1,111.2c-4,0-7.1-2.7-7.1-6.8V91.7h3.8v12.6c0,2.2,1.3,3.6,3.3,3.6s3.4-1.3,3.4-3.6V91.7h3.7v12.7
			C111.2,108.5,108.1,111.2,104.1,111.2z"/>
		<path class="st1" d="M125.7,111l-3.8-7.7h-2.7v7.7h-3.8V91.7h7.6c3.9,0,6.3,2.7,6.3,5.9c0,2.7-1.7,4.4-3.5,5.1l4.3,8.3H125.7z
			 M122.7,95.1h-3.6v5.1h3.6c1.7,0,2.7-1.1,2.7-2.5C125.5,96.2,124.4,95.1,122.7,95.1z"/>
		<path class="st1" d="M144.1,111l-1.1-3.4h-6.9L135,111H131l7-19.3h3l7.1,19.3H144.1z M139.6,97.4l-2.4,7h4.8L139.6,97.4z"/>
		<path class="st1" d="M158.5,111h-8.1V91.7h7.8c3.8,0,6,2.1,6,5.4c0,2.1-1.4,3.5-2.4,4c1.2,0.5,2.7,1.8,2.7,4.3
			C164.5,109.1,162,111,158.5,111z M157.9,95.1h-3.7v4.4h3.7c1.6,0,2.5-0.9,2.5-2.2C160.4,96,159.5,95.1,157.9,95.1z M158.2,102.9
			h-3.9v4.7h3.9c1.7,0,2.5-1.1,2.5-2.4C160.7,104,159.9,102.9,158.2,102.9z"/>
		<path class="st1" d="M168.3,111V91.7h3.8v15.9h8.8v3.4H168.3z"/>
		<path class="st1" d="M183.9,111V91.7h12.7v3.4h-8.9v4.5h7.6v3.4h-7.6v4.7h8.9v3.4H183.9z"/>
		<path class="st1" d="M205.6,111.2c-2.9,0-5.2-0.6-7-2.5l2.4-2.4c1.2,1.2,2.9,1.6,4.7,1.6c2.2,0,3.4-0.8,3.4-2.4
			c0-0.7-0.2-1.2-0.6-1.6c-0.4-0.4-0.8-0.5-1.7-0.7l-2.3-0.3c-1.7-0.2-2.9-0.8-3.7-1.6c-0.9-0.9-1.4-2.2-1.4-3.8
			c0-3.4,2.5-5.9,6.7-5.9c2.7,0,4.6,0.7,6.2,2.2l-2.4,2.4c-1.2-1.2-2.7-1.3-4-1.3c-2,0-3,1.1-3,2.4c0,0.5,0.2,1,0.6,1.4
			c0.4,0.4,1,0.7,1.8,0.8l2.3,0.3c1.8,0.2,2.9,0.7,3.7,1.5c1,1,1.5,2.4,1.5,4.1C212.8,109.1,209.7,111.2,205.6,111.2z"/>
	</g>
</g>
</svg>
