<?xml version="1.0" encoding="utf-8"?>
<!-- Generator: Adobe Illustrator 21.0.2, SVG Export Plug-In . SVG Version: 6.00 Build 0)  -->
<svg version="1.1" id="Layer_1" xmlns="http://www.w3.org/2000/svg" xmlns:xlink="http://www.w3.org/1999/xlink" x="0px" y="0px"
	 viewBox="0 0 317.6 317.6" style="enable-background:new 0 0 317.6 317.6;" xml:space="preserve">
<style type="text/css">
	.st0{fill:#FBC500;}
	.st1{fill:#FFFFFF;}
	.st2{fill:#A6183B;}
	.st3{fill:#EB611E;}
	.st4{fill:#DA025F;}
	.st5{fill:#F59D10;}
	.st6{fill:#C48E13;}
	.st7{fill:none;stroke:#FFFFFF;stroke-width:0.73;stroke-miterlimit:10;}
	.st8{fill:#DE1730;}
	.st9{fill:none;stroke:#FFFFFF;stroke-width:1.3067;stroke-linecap:round;stroke-miterlimit:10;}
	.st10{fill:#E1AA29;}
	.st11{fill:#C41722;}
	.st12{fill:#E6331F;}
	.st13{fill:#3BBBE4;}
	.st14{fill:#4B9B34;}
	.st15{fill:#F7F7F8;}
	.st16{fill:#39ABE2;}
	.st17{fill:#3E8EDE;}
	.st18{fill:#62B231;}
	.st19{fill:#E7B81A;}
	.st20{fill:#C31723;}
	.st21{fill:#499A35;}
	.st22{fill:#407E3D;}
	.st23{fill:#F9C400;}
	.st24{fill:#E6351D;}
	.st25{fill:#F59E12;}
	.st26{fill:#2494D2;}
	.st27{fill:#A5193C;}
	.st28{fill:#3ABAE3;}
	.st29{fill:#EB621F;}
	.st30{fill:#E01630;}
	.st31{fill:#D9045F;}
	.st32{fill:#1C4468;}
	.st33{fill:#CB9914;}
	.st34{fill:#04649B;}
	.st35{fill:#5FB130;}
	.st36{fill:#407D3C;}
	.st37{fill:#2496D3;}
	.st38{fill:#1E4468;}
	.st39{fill:#05639B;}
</style>
<g>
	<rect y="0" class="st0" width="317.6" height="317.6"/>
	<polygon class="st1" points="32.6,35.4 49.2,35.4 34.8,90.7 45.5,90.7 59.6,36.5 59.6,26.6 32.6,26.6 	"/>
	<path class="st1" d="M158.9,153.9c-25.7,0-46.5,20.8-46.5,46.5c0,25.7,20.8,46.6,46.5,46.6s46.5-20.8,46.5-46.6
		C205.4,174.7,184.6,153.9,158.9,153.9 M155.5,172.3c0-1.5,1.6-3.3,3.5-3.3c1.9,0,3.4,1.7,3.4,3.3v16c0,1.5-1.5,3.2-3.4,3.2
		c-1.9,0-3.5-1.7-3.5-3.2V172.3z M158.9,224.3c-13.4,0-24.2-10.8-24.2-24.2c0-10.9,7.2-20.1,17-23.1v9c-5.1,2.6-8.7,7.9-8.7,14.1
		c0,8.8,7.1,15.8,15.8,15.8c8.8,0,15.8-7.1,15.8-15.8c0-6.2-3.5-11.5-8.7-14.1v-9c9.9,3.1,17.1,12.3,17.1,23.1
		C183.1,213.4,172.3,224.3,158.9,224.3"/>
	<path class="st1" d="M105.5,200c0-2.1-1.9-3.8-3.6-3.8H81.5c-1.7,0-3.6,1.7-3.6,3.8c0,2.1,1.9,3.8,3.6,3.8h20.4
		C103.6,203.9,105.5,202.1,105.5,200"/>
	<path class="st1" d="M239.9,200c0-2.1-1.9-3.8-3.6-3.8H216c-1.7,0-3.6,1.7-3.6,3.8c0,2.1,1.9,3.8,3.6,3.8h20.4
		C238.1,203.9,239.9,202.1,239.9,200"/>
	<path class="st1" d="M158.9,146.6c2.1,0,3.8-1.9,3.8-3.6v-20.4c0-1.7-1.7-3.6-3.8-3.6c-2.1,0-3.8,1.9-3.8,3.6V143
		C155.1,144.7,156.8,146.6,158.9,146.6"/>
	<path class="st1" d="M158.9,281c2.1,0,3.8-1.9,3.8-3.6v-20.4c0-1.7-1.7-3.6-3.8-3.6c-2.1,0-3.8,1.9-3.8,3.6v20.4
		C155.1,279.2,156.8,281,158.9,281"/>
	<path class="st1" d="M112.5,173.5c1.1-1.8,0.3-4.2-1.2-5.1l-17.7-10.1c-1.5-0.9-4-0.3-5,1.5c-1.1,1.8-0.3,4.3,1.2,5.1l17.7,10.1
		C109,175.9,111.5,175.3,112.5,173.5"/>
	<path class="st1" d="M229.2,240.3c1-1.8,0.3-4.2-1.2-5.1L210.3,225c-1.5-0.9-4-0.3-5,1.5c-1.1,1.8-0.3,4.3,1.2,5.1l17.7,10.1
		C225.7,242.7,228.2,242.1,229.2,240.3"/>
	<path class="st1" d="M185.5,153.6c1.8,1,4.2,0.3,5.1-1.2l10.1-17.7c0.9-1.5,0.3-4-1.5-5c-1.8-1.1-4.3-0.3-5.1,1.2l-10.1,17.7
		C183.1,150.1,183.6,152.6,185.5,153.6"/>
	<path class="st1" d="M118.7,270.3c1.8,1,4.2,0.3,5.1-1.2l10.1-17.7c0.9-1.5,0.3-4-1.5-5c-1.8-1.1-4.3-0.3-5.1,1.2l-10.1,17.7
		C116.3,266.8,116.9,269.3,118.7,270.3"/>
	<path class="st1" d="M132.3,153.7c1.8-1.1,2.4-3.5,1.5-5L123.7,131c-0.9-1.5-3.3-2.3-5.1-1.2c-1.8,1.1-2.4,3.5-1.5,5l10.2,17.7
		C128,154,130.4,154.7,132.3,153.7"/>
	<path class="st1" d="M199.3,270.2c1.8-1.1,2.4-3.5,1.5-5l-10.2-17.7c-0.9-1.5-3.3-2.3-5.1-1.2c-1.8,1.1-2.4,3.5-1.5,5l10.2,17.7
		C195,270.5,197.5,271.3,199.3,270.2"/>
	<path class="st1" d="M205.2,173.4c1.1,1.8,3.5,2.4,5,1.5l17.7-10.2c1.5-0.9,2.3-3.3,1.2-5.1c-1.1-1.8-3.5-2.4-5-1.5l-17.7,10.2
		C205,169.1,204.2,171.6,205.2,173.4"/>
	<path class="st1" d="M88.7,240.4c1.1,1.8,3.5,2.4,5,1.5l17.7-10.2c1.5-0.9,2.3-3.3,1.2-5.1c-1.1-1.8-3.5-2.4-5-1.5l-17.7,10.2
		C88.4,236.2,87.6,238.6,88.7,240.4"/>
	<g>
		<path class="st1" d="M89.7,53.5l5.1-26.8h5.1l5.1,26.8h-4.6l-0.8-4.9h-4.8L94,53.5H89.7z M95.4,45H99l-1.8-10.7h0L95.4,45z"/>
		<path class="st1" d="M106.9,26.7h10.5v3.7h-6V38h4.5v3.6h-4.5v11.8h-4.5V26.7z"/>
		<path class="st1" d="M119.4,26.7h10.5v3.7h-6V38h4.5v3.6h-4.5v11.8h-4.5V26.7z"/>
		<path class="st1" d="M131.5,46.5V33.6c0-4.2,2.1-7.2,6.8-7.2c4.8,0,6.8,3,6.8,7.2v12.9c0,4.1-2.1,7.2-6.8,7.2
			C133.6,53.8,131.5,50.7,131.5,46.5z M140.6,47.3V32.9c0-1.6-0.7-2.8-2.3-2.8c-1.6,0-2.3,1.1-2.3,2.8v14.4c0,1.6,0.7,2.8,2.3,2.8
			C139.9,50,140.6,48.9,140.6,47.3z"/>
		<path class="st1" d="M152.2,41.2v12.3h-4.5V26.7h6.6c4.5,0,6.2,2.3,6.2,6v3.4c0,2.9-1,4.6-3.6,5.2l4.3,12.2h-4.7L152.2,41.2z
			 M152.2,30.4v8.3h1.5c1.5,0,2.2-0.8,2.2-2.2v-3.9c0-1.5-0.7-2.2-2.2-2.2H152.2z"/>
		<path class="st1" d="M176.3,33.9v12.4c0,4.1-1.7,7.2-6.5,7.2h-6.9V26.7h6.9C174.6,26.7,176.3,29.7,176.3,33.9z M169.3,49.8
			c1.9,0,2.6-1.1,2.6-2.7V33c0-1.6-0.7-2.7-2.6-2.7h-1.9v19.4H169.3z"/>
		<path class="st1" d="M177.6,53.5l5.1-26.8h5.1l5.1,26.8h-4.6l-0.8-4.9h-4.8l-0.8,4.9H177.6z M183.3,45h3.6l-1.8-10.7h0L183.3,45z"
			/>
		<path class="st1" d="M194.7,26.7h6.5c4.5,0,6,2.1,6,5.9v2.7c0,2.3-0.8,3.7-2.7,4.3c2.2,0.5,3.4,2,3.4,4.5v3.6
			c0,3.8-1.7,5.9-6.2,5.9h-7V26.7z M199.2,38h1.6c1.5,0,2.1-0.7,2.1-2.2v-3.3c0-1.5-0.7-2.2-2.2-2.2h-1.5V38z M199.2,41.4v8.4h2
			c1.5,0,2.2-0.8,2.2-2.2v-4c0-1.4-0.7-2.2-2.3-2.2H199.2z"/>
		<path class="st1" d="M210.2,26.7h4.5v23.1h5.4v3.7h-9.9V26.7z"/>
		<path class="st1" d="M222.1,26.7h10.7v3.7h-6.2V38h4.5v3.6h-4.5v8.1h6.2v3.7h-10.7V26.7z"/>
		<path class="st1" d="M238.7,53.5l5.1-26.8h5.1l5.1,26.8h-4.6l-0.8-4.9h-4.8l-0.8,4.9H238.7z M244.3,45h3.6l-1.8-10.7h0L244.3,45z"
			/>
		<path class="st1" d="M259.6,36.6v16.8h-3.8V26.7h4.4l4.9,15.4V26.7h3.8v26.8h-3.9L259.6,36.6z"/>
		<path class="st1" d="M284.8,33.9v12.4c0,4.1-1.7,7.2-6.5,7.2h-6.9V26.7h6.9C283.1,26.7,284.8,29.7,284.8,33.9z M277.8,49.8
			c1.9,0,2.6-1.1,2.6-2.7V33c0-1.6-0.7-2.7-2.6-2.7h-1.9v19.4H277.8z"/>
		<path class="st1" d="M90.5,84V71.1c0-4.2,2-7.2,6.7-7.2c5,0,6.4,2.8,6.4,6.7v3.2h-4.1v-3.5c0-1.7-0.6-2.6-2.2-2.6
			c-1.6,0-2.3,1.1-2.3,2.8v14.4c0,1.6,0.7,2.8,2.3,2.8c1.6,0,2.2-1,2.2-2.6V80h4.1v4.6c0,3.8-1.6,6.7-6.4,6.7
			C92.4,91.3,90.5,88.2,90.5,84z"/>
		<path class="st1" d="M106,64.2h4.5v23.1h5.4v3.7H106V64.2z"/>
		<path class="st1" d="M117.9,64.2h10.7v3.7h-6.2v7.7h4.5v3.6h-4.5v8.1h6.2v3.7h-10.7V64.2z"/>
		<path class="st1" d="M130.3,90.9l5.1-26.8h5.1l5.1,26.8H141l-0.8-4.9h-4.8l-0.8,4.9H130.3z M136,82.5h3.6l-1.8-10.7h0L136,82.5z"
			/>
		<path class="st1" d="M151.2,74.1v16.8h-3.8V64.2h4.4l4.9,15.4V64.2h3.8v26.8h-3.9L151.2,74.1z"/>
		<path class="st1" d="M167.2,64.2h10.7v3.7h-6.2v7.7h4.5v3.6h-4.5v8.1h6.2v3.7h-10.7V64.2z"/>
		<path class="st1" d="M184.1,74.1v16.8h-3.8V64.2h4.4l4.9,15.4V64.2h3.8v26.8h-3.9L184.1,74.1z"/>
		<path class="st1" d="M195.9,64.2h10.7v3.7h-6.2v7.7h4.5v3.6h-4.5v8.1h6.2v3.7h-10.7V64.2z"/>
		<path class="st1" d="M213.6,78.7v12.3h-4.5V64.2h6.6c4.5,0,6.2,2.3,6.2,6v3.4c0,2.9-1,4.6-3.6,5.2l4.3,12.2h-4.7L213.6,78.7z
			 M213.6,67.9v8.3h1.5c1.5,0,2.2-0.8,2.2-2.2V70c0-1.5-0.7-2.2-2.2-2.2H213.6z"/>
		<path class="st1" d="M231,76.7h6.4v14.3h-3.2V88c-0.6,2-1.9,3.2-4.3,3.2c-3.9,0-5.6-3.1-5.6-7.2V71.1c0-4.2,2-7.2,6.8-7.2
			c5,0,6.4,2.8,6.4,6.7v2.4h-4.1v-2.7c0-1.7-0.6-2.6-2.3-2.6s-2.3,1.1-2.3,2.8v14.4c0,1.6,0.7,2.8,2.2,2.8c1.5,0,2.2-0.8,2.2-2.6
			v-4.7H231V76.7z"/>
		<path class="st1" d="M247.8,80.8v10.2h-4.5V80.8l-5-16.6h4.7l2.7,10.1h0l2.7-10.1h4.3L247.8,80.8z"/>
	</g>
</g>
</svg>
