<?xml version="1.0" encoding="utf-8"?>
<!-- Generator: Adobe Illustrator 21.0.2, SVG Export Plug-In . SVG Version: 6.00 Build 0)  -->
<svg version="1.1" id="Layer_1" xmlns="http://www.w3.org/2000/svg" xmlns:xlink="http://www.w3.org/1999/xlink" x="0px" y="0px"
	 viewBox="0 0 317.6 317.6" style="enable-background:new 0 0 317.6 317.6;" xml:space="preserve">
<style type="text/css">
	.st0{fill:#DD172F;}
	.st1{fill:#FFFFFF;}
	.st2{fill:none;stroke:#FFFFFF;stroke-width:1.3067;stroke-linecap:round;stroke-miterlimit:10;}
	.st3{fill:#E0A928;}
	.st4{fill:#499935;}
	.st5{fill:#C31922;}
	.st6{fill:#E53321;}
	.st7{fill:#38BAE3;}
	.st8{fill:#FAC400;}
	.st9{fill:#A5183B;}
	.st10{fill:#E9611D;}
	.st11{fill:#D9055F;}
	.st12{fill:#F59C12;}
	.st13{fill:#C38C12;}
	.st14{fill:none;stroke:#FFFFFF;stroke-width:0.73;stroke-miterlimit:10;}
	.st15{fill:#3F7C3C;}
	.st16{fill:#2593D2;}
	.st17{fill:#5EB032;}
	.st18{fill:#00639B;}
	.st19{fill:#1D4467;}
	.st20{fill:#EFEFEF;}
	.st21{fill:#010202;}
	.st22{fill:#61B032;}
	.st23{fill:#E6B719;}
	.st24{fill:#C21822;}
	.st25{fill:#489935;}
	.st26{fill:#3F7E3C;}
	.st27{fill:#F8C300;}
	.st28{fill:#E4351F;}
	.st29{fill:#F59C13;}
	.st30{fill:#2691D0;}
	.st31{fill:#A4193C;}
	.st32{fill:#37B9E2;}
	.st33{fill:#E9611F;}
	.st34{fill:#DF1531;}
	.st35{fill:#D80560;}
	.st36{fill:#1B4367;}
	.st37{fill:#CA9811;}
	.st38{fill:#00659A;}
</style>
<g>
	<rect class="st13" width="317.6" height="317.6"/>
	<polygon class="st1" points="26.3,41.7 26.4,41.7 26.4,90.7 37.1,90.7 37.1,26.7 28.5,26.7 18.6,38.3 18.6,49.6 18.7,49.6 	"/>
	<path class="st1" d="M43.6,39.9v7.7h9.8v-8c0-3.9,1.9-5,4.2-5c2.1,0,3.9,0.8,3.9,4.8v5.3c0,5.3-0.5,7.4-4,11.1l-6,6.4
		c-5.9,6.2-8,10.4-8,16.7v11.8h28V82H53.7v-3c0-5,1.8-6.9,4.5-9.8l6.9-7.3c5.6-5.9,6.8-9.7,6.8-16.2v-6.2c0-9.2-4.4-13.5-14.1-13.5
		C48.4,26,43.6,31,43.6,39.9"/>
	<path class="st1" d="M239.4,164.8c-14-11.1-32.6-11.3-39.4-9.7l-0.8,0.2c-7.9,1.9-20.3,4.9-35,23.1c-0.1,0.1-0.2,0.2-0.2,0.3
		l-0.2,0.2c-0.1,0.2-0.2,0.4-0.2,0.7c0,0.2,0.1,0.4,0.2,0.6l0.3,0.6c1.8,3.1,4.1,7,6.1,10.7c0,0,0,0.1,0.1,0.1
		c0.2,0.4,0.6,0.7,1.1,0.7c0.3,0,0.6-0.1,0.9-0.4c0.1-0.1,0.2-0.2,0.3-0.4c13-17.9,23.2-20.4,30.1-22l0.8-0.2c3.6-0.9,17.2-0.8,27,7
		c7.7,6.1,11.6,15.7,11.6,28.6c0,21.7-10.6,30.2-19.4,33.5c-13.7,5.1-26.9-1.7-27-1.8l-0.6-0.3c-7.5-3.3-18.8-10.1-29.4-31.4
		c-21.4-42.9-39.3-47-51.1-49.7l-0.6-0.1c-5.4-1.2-24.1-2.1-38.8,9.7c-7.7,6.1-16.8,18.1-16.8,40c0,13.4,2.7,22.2,9.8,31.5
		c1.5,2.1,17.4,22.5,48,16.6c4.9-0.9,11.5-3.3,18.8-8.7l6.7,6.1c0.4,0.4,1.1,0.4,1.5-0.1c0.2-0.2,0.3-0.5,0.3-0.7v-0.1l4.9-29.9
		l0-0.3c0-0.3-0.1-0.6-0.4-0.8c-0.2-0.2-0.5-0.3-0.7-0.3l-0.2,0l-0.3,0l-28.6,8l-0.5,0.1c-0.2,0-0.4,0.2-0.5,0.3
		c-0.4,0.5-0.4,1.1,0.1,1.6l0.3,0.3l6.4,5.8c-4.1,2.7-7.8,3.9-10.5,4.4c-22.1,4.2-33.1-10.3-33.5-10.9l-0.2-0.2
		c-5.1-6.8-6.9-12.5-6.9-22.8c0-13,3.8-22.6,11.4-28.6c9.6-7.6,22.8-7.7,26.5-6.8l0.6,0.1c9.7,2.2,23,5.2,41.3,42
		c9.5,19.1,21.4,31.6,36.4,38.1c1.9,1,11,5.3,22.8,5.3c4.9,0,10.3-0.8,15.9-2.8c8.7-3.2,28.9-14.3,28.9-47.2
		C256.5,182.9,247.2,170.9,239.4,164.8"/>
	<path class="st14" d="M239.4,164.8c-14-11.1-32.6-11.3-39.4-9.7l-0.8,0.2c-7.9,1.9-20.3,4.9-35,23.1c-0.1,0.1-0.2,0.2-0.2,0.3
		l-0.2,0.2c-0.1,0.2-0.2,0.4-0.2,0.7c0,0.2,0.1,0.4,0.2,0.6l0.3,0.6c1.8,3.1,4.1,7,6.1,10.7c0,0,0,0.1,0.1,0.1
		c0.2,0.4,0.6,0.7,1.1,0.7c0.3,0,0.6-0.1,0.9-0.4c0.1-0.1,0.2-0.2,0.3-0.4c13-17.9,23.2-20.4,30.1-22l0.8-0.2c3.6-0.9,17.2-0.8,27,7
		c7.7,6.1,11.6,15.7,11.6,28.6c0,21.7-10.6,30.2-19.4,33.5c-13.7,5.1-26.9-1.7-27-1.8l-0.6-0.3c-7.5-3.3-18.8-10.1-29.4-31.4
		c-21.4-42.9-39.3-47-51.1-49.7l-0.6-0.1c-5.4-1.2-24.1-2.1-38.8,9.7c-7.7,6.1-16.8,18.1-16.8,40c0,13.4,2.7,22.2,9.8,31.5
		c1.5,2.1,17.4,22.5,48,16.6c4.9-0.9,11.5-3.3,18.8-8.7l6.7,6.1c0.4,0.4,1.1,0.4,1.5-0.1c0.2-0.2,0.3-0.5,0.3-0.7v-0.1l4.9-29.9
		l0-0.3c0-0.3-0.1-0.6-0.4-0.8c-0.2-0.2-0.5-0.3-0.7-0.3l-0.2,0l-0.3,0l-28.6,8l-0.5,0.1c-0.2,0-0.4,0.2-0.5,0.3
		c-0.4,0.5-0.4,1.1,0.1,1.6l0.3,0.3l6.4,5.8c-4.1,2.7-7.8,3.9-10.5,4.4c-22.1,4.2-33.1-10.3-33.5-10.9l-0.2-0.2
		c-5.1-6.8-6.9-12.5-6.9-22.8c0-13,3.8-22.6,11.4-28.6c9.6-7.6,22.8-7.7,26.5-6.8l0.6,0.1c9.7,2.2,23,5.2,41.3,42
		c9.5,19.1,21.4,31.6,36.4,38.1c1.9,1,11,5.3,22.8,5.3c4.9,0,10.3-0.8,15.9-2.8c8.7-3.2,28.9-14.3,28.9-47.2
		C256.5,182.9,247.2,170.9,239.4,164.8"/>
	<g>
		<path class="st1" d="M95.7,45.4c-2.1,0-3.8-0.8-5.2-2.1c-2-2-1.9-4.4-1.9-7.7s-0.1-5.7,1.9-7.7c1.4-1.4,3.1-2.1,5.2-2.1
			c3.6,0,6.4,2.1,7.1,6.1H99c-0.4-1.5-1.4-2.7-3.3-2.7c-1,0-1.9,0.4-2.4,1c-0.7,0.8-0.9,1.7-0.9,5.4s0.2,4.6,0.9,5.4
			c0.5,0.6,1.4,1,2.4,1c1.9,0,2.9-1.2,3.3-2.7h3.8C102.2,43.4,99.3,45.4,95.7,45.4z"/>
		<path class="st1" d="M117.8,43.3c-1.4,1.4-3,2.1-5.2,2.1c-2.2,0-3.9-0.8-5.2-2.1c-1.9-2-1.9-4.4-1.9-7.7s-0.1-5.7,1.9-7.7
			c1.4-1.4,3-2.1,5.2-2.1c2.2,0,3.8,0.8,5.2,2.1c2,2,1.9,4.4,1.9,7.7S119.7,41.4,117.8,43.3z M115,30.2c-0.5-0.6-1.4-1-2.4-1
			s-1.9,0.4-2.4,1c-0.7,0.8-0.9,1.7-0.9,5.4s0.2,4.6,0.9,5.4c0.5,0.6,1.4,1,2.4,1s1.9-0.4,2.4-1c0.7-0.8,0.9-1.7,0.9-5.4
			S115.7,31,115,30.2z"/>
		<path class="st1" d="M135,45.3l-7.6-11.8v11.8h-3.8V26h3.4l7.6,11.8V26h3.8v19.3H135z"/>
		<path class="st1" d="M148.2,45.4c-2.9,0-5.2-0.6-7-2.5l2.4-2.4c1.2,1.2,2.9,1.6,4.7,1.6c2.2,0,3.4-0.8,3.4-2.4
			c0-0.7-0.2-1.2-0.6-1.6c-0.4-0.4-0.8-0.5-1.7-0.7l-2.3-0.3c-1.7-0.2-2.9-0.8-3.7-1.6c-0.9-0.9-1.4-2.2-1.4-3.8
			c0-3.4,2.5-5.9,6.7-5.9c2.7,0,4.6,0.7,6.2,2.2l-2.4,2.4c-1.2-1.2-2.7-1.3-4-1.3c-2,0-3,1.1-3,2.4c0,0.5,0.2,1,0.6,1.4
			c0.4,0.4,1,0.7,1.8,0.8l2.3,0.3c1.8,0.2,2.9,0.7,3.7,1.5c1,1,1.5,2.4,1.5,4.1C155.3,43.3,152.2,45.4,148.2,45.4z"/>
		<path class="st1" d="M170.6,43.3c-1.4,1.4-3,2.1-5.2,2.1s-3.9-0.8-5.2-2.1c-2-2-1.9-4.4-1.9-7.7s-0.1-5.7,1.9-7.7
			c1.4-1.4,3-2.1,5.2-2.1s3.8,0.8,5.2,2.1c2,2,1.9,4.4,1.9,7.7S172.5,41.4,170.6,43.3z M167.8,30.2c-0.5-0.6-1.4-1-2.4-1
			s-1.9,0.4-2.4,1c-0.7,0.8-0.9,1.7-0.9,5.4s0.2,4.6,0.9,5.4c0.5,0.6,1.4,1,2.4,1s1.9-0.4,2.4-1c0.7-0.8,0.9-1.7,0.9-5.4
			S168.5,31,167.8,30.2z"/>
		<path class="st1" d="M190.1,45.3V34l-3.7,7.3h-2.5l-3.7-7.3v11.3h-3.8V26h3.7l5,10.4l5-10.4h3.7v19.3H190.1z"/>
		<path class="st1" d="M212.1,45.3V34l-3.7,7.3h-2.5l-3.7-7.3v11.3h-3.8V26h3.7l5,10.4l5-10.4h3.7v19.3H212.1z"/>
		<path class="st1" d="M231.4,45.3l-1.1-3.4h-6.9l-1.2,3.4h-3.9l7-19.3h3l7,19.3H231.4z M226.9,31.7l-2.4,7h4.8L226.9,31.7z"/>
		<path class="st1" d="M243.4,29.3v15.9h-3.8V29.3h-5V26h13.9v3.4H243.4z"/>
		<path class="st1" d="M251.5,45.3V26h3.8v19.3H251.5z"/>
		<path class="st1" d="M271.5,43.3c-1.4,1.4-3,2.1-5.2,2.1c-2.2,0-3.9-0.8-5.2-2.1c-1.9-2-1.9-4.4-1.9-7.7s-0.1-5.7,1.9-7.7
			c1.4-1.4,3-2.1,5.2-2.1c2.2,0,3.8,0.8,5.2,2.1c2,2,1.9,4.4,1.9,7.7S273.5,41.4,271.5,43.3z M268.7,30.2c-0.5-0.6-1.4-1-2.4-1
			s-1.9,0.4-2.4,1c-0.7,0.8-0.9,1.7-0.9,5.4s0.2,4.6,0.9,5.4c0.5,0.6,1.4,1,2.4,1s1.9-0.4,2.4-1c0.7-0.8,0.9-1.7,0.9-5.4
			S269.4,31,268.7,30.2z"/>
		<path class="st1" d="M288.7,45.3l-7.6-11.8v11.8h-3.8V26h3.4l7.6,11.8V26h3.8v19.3H288.7z"/>
		<path class="st1" d="M99.5,77.8l-3.8-7.7h-2.7v7.7h-3.8V58.5h7.6c3.9,0,6.3,2.7,6.3,5.9c0,2.7-1.7,4.4-3.5,5.1l4.3,8.3H99.5z
			 M96.6,61.9h-3.6V67h3.6c1.7,0,2.7-1.1,2.7-2.5C99.3,62.9,98.3,61.9,96.6,61.9z"/>
		<path class="st1" d="M107,77.8V58.5h12.7v3.4h-8.9v4.5h7.6v3.4h-7.6v4.7h8.9v3.4H107z"/>
		<path class="st1" d="M128.8,78c-2.9,0-5.2-0.6-7-2.5l2.4-2.4c1.2,1.2,2.9,1.6,4.7,1.6c2.2,0,3.4-0.8,3.4-2.4
			c0-0.7-0.2-1.2-0.6-1.6c-0.4-0.4-0.8-0.5-1.7-0.7l-2.3-0.3c-1.7-0.2-2.9-0.8-3.7-1.6c-0.9-0.9-1.4-2.2-1.4-3.8
			c0-3.4,2.5-5.9,6.7-5.9c2.7,0,4.6,0.7,6.2,2.2L133,63c-1.2-1.2-2.7-1.3-4-1.3c-2,0-3,1.1-3,2.4c0,0.5,0.2,1,0.6,1.4
			c0.4,0.4,1,0.7,1.8,0.8l2.3,0.3c1.8,0.2,2.9,0.7,3.7,1.5c1,1,1.5,2.4,1.5,4.1C135.9,75.9,132.8,78,128.8,78z"/>
		<path class="st1" d="M147,70.6h-3.7v7.3h-3.8V58.5h7.5c4,0,6.4,2.7,6.4,6C153.3,67.8,150.9,70.6,147,70.6z M146.8,61.9h-3.5v5.3
			h3.5c1.7,0,2.8-1.1,2.8-2.6C149.6,63,148.5,61.9,146.8,61.9z"/>
		<path class="st1" d="M168.2,75.9c-1.4,1.4-3,2.1-5.2,2.1s-3.9-0.8-5.2-2.1c-2-2-1.9-4.4-1.9-7.7c0-3.3-0.1-5.7,1.9-7.7
			c1.4-1.4,3-2.1,5.2-2.1s3.8,0.8,5.2,2.1c2,2,1.9,4.4,1.9,7.7C170.1,71.5,170.2,73.9,168.2,75.9z M165.4,62.8c-0.5-0.6-1.4-1-2.4-1
			s-1.9,0.4-2.4,1c-0.7,0.8-0.9,1.7-0.9,5.4c0,3.7,0.2,4.6,0.9,5.4c0.5,0.6,1.4,1,2.4,1s1.9-0.4,2.4-1c0.7-0.8,0.9-1.7,0.9-5.4
			C166.4,64.5,166.1,63.6,165.4,62.8z"/>
		<path class="st1" d="M185.4,77.8L177.8,66v11.8H174V58.5h3.4l7.6,11.8V58.5h3.8v19.3H185.4z"/>
		<path class="st1" d="M198.6,78c-2.9,0-5.2-0.6-7-2.5L194,73c1.2,1.2,2.9,1.6,4.7,1.6c2.2,0,3.4-0.8,3.4-2.4c0-0.7-0.2-1.2-0.6-1.6
			c-0.4-0.4-0.8-0.5-1.7-0.7l-2.3-0.3c-1.7-0.2-2.9-0.8-3.7-1.6c-0.9-0.9-1.4-2.2-1.4-3.8c0-3.4,2.5-5.9,6.7-5.9
			c2.7,0,4.6,0.7,6.2,2.2l-2.4,2.4c-1.2-1.2-2.7-1.3-4-1.3c-2,0-3,1.1-3,2.4c0,0.5,0.2,1,0.6,1.4c0.4,0.4,1,0.7,1.8,0.8l2.3,0.3
			c1.8,0.2,2.9,0.7,3.7,1.5c1,1,1.5,2.4,1.5,4.1C205.7,75.9,202.6,78,198.6,78z"/>
		<path class="st1" d="M220.3,77.8l-1.1-3.4h-6.9l-1.2,3.4h-3.9l7-19.3h3l7,19.3H220.3z M215.8,64.2l-2.4,7h4.8L215.8,64.2z"/>
		<path class="st1" d="M234.7,77.8h-8.1V58.5h7.8c3.8,0,6,2.1,6,5.4c0,2.1-1.4,3.5-2.4,4c1.2,0.5,2.7,1.8,2.7,4.3
			C240.6,75.9,238.1,77.8,234.7,77.8z M234.1,61.9h-3.7v4.4h3.7c1.6,0,2.5-0.9,2.5-2.2C236.6,62.8,235.7,61.9,234.1,61.9z
			 M234.3,69.7h-3.9v4.7h3.9c1.7,0,2.5-1.1,2.5-2.4C236.8,70.8,236,69.7,234.3,69.7z"/>
		<path class="st1" d="M244.5,77.8V58.5h3.8v15.9h8.8v3.4H244.5z"/>
		<path class="st1" d="M260.1,77.8V58.5h12.7v3.4h-8.9v4.5h7.6v3.4h-7.6v4.7h8.9v3.4H260.1z"/>
	</g>
</g>
</svg>
