<?xml version="1.0" encoding="utf-8"?>
<!-- Generator: Adobe Illustrator 21.0.2, SVG Export Plug-In . SVG Version: 6.00 Build 0)  -->
<svg version="1.1" id="Layer_1" xmlns="http://www.w3.org/2000/svg" xmlns:xlink="http://www.w3.org/1999/xlink" x="0px" y="0px"
	 viewBox="0 0 317.6 317.6" style="enable-background:new 0 0 317.6 317.6;" xml:space="preserve">
<style type="text/css">
	.st0{fill:#FBC500;}
	.st1{fill:#FFFFFF;}
	.st2{fill:#A6183B;}
	.st3{fill:#EB611E;}
	.st4{fill:#DA025F;}
	.st5{fill:#F59D10;}
	.st6{fill:#C48E13;}
	.st7{fill:none;stroke:#FFFFFF;stroke-width:0.73;stroke-miterlimit:10;}
	.st8{fill:#DE1730;}
	.st9{fill:none;stroke:#FFFFFF;stroke-width:1.3067;stroke-linecap:round;stroke-miterlimit:10;}
	.st10{fill:#E1AA29;}
	.st11{fill:#C41722;}
	.st12{fill:#E6331F;}
	.st13{fill:#3BBBE4;}
	.st14{fill:#4B9B34;}
	.st15{fill:#F7F7F8;}
	.st16{fill:#39ABE2;}
	.st17{fill:#3E8EDE;}
	.st18{fill:#62B231;}
	.st19{fill:#E7B81A;}
	.st20{fill:#C31723;}
	.st21{fill:#499A35;}
	.st22{fill:#407E3D;}
	.st23{fill:#F9C400;}
	.st24{fill:#E6351D;}
	.st25{fill:#F59E12;}
	.st26{fill:#2494D2;}
	.st27{fill:#A5193C;}
	.st28{fill:#3ABAE3;}
	.st29{fill:#EB621F;}
	.st30{fill:#E01630;}
	.st31{fill:#D9045F;}
	.st32{fill:#1C4468;}
	.st33{fill:#CB9914;}
	.st34{fill:#04649B;}
	.st35{fill:#5FB130;}
	.st36{fill:#407D3C;}
	.st37{fill:#2496D3;}
	.st38{fill:#1E4468;}
	.st39{fill:#05639B;}
</style>
<g>
	<rect y="0" class="st10" width="317.6" height="317.6"/>
	<path class="st1" d="M59.4,81.9H41.7v-3c0-5,1.8-6.9,4.5-9.8l6.9-7.3C58.7,55.8,60,52,60,45.6v-6.2c0-9.2-4.4-13.5-14.1-13.5
		c-9.4,0-14.3,5-14.3,14v7.7h9.8v-8c0-3.9,1.9-5,4.2-5c2.1,0,3.9,0.9,3.9,4.8v5.3c0,5.3-0.5,7.4-4,11.1l-6,6.4
		c-5.9,6.2-8,10.4-8,16.7v11.8h28V81.9z"/>
	<path class="st1" d="M126.7,269.9v4.5c0,0,0,0.1,0,0.1c0,0,0,0.1,0,0.1c0,1.1,0.9,2,2.1,2c0,0,0,0,0,0c0,0,0.1,0,0.1,0h52.4
		c0,0,0,0,0,0c0,0,0,0,0,0c1.1,0,2.1-1,2.1-2.1c0,0,0,0,0,0c0,0,0,0,0,0v-5.1c29.5-9.7,51.6-33.6,56.4-62.7c0-0.1,0-0.1,0-0.2
		c0-0.1,0-0.2,0-0.3c0-1.2-0.9-2.1-2.1-2.1h-166h-1c-1.2,0-2.1,0.9-2.1,2.1l0.1,1C73.9,236.6,96.6,260.6,126.7,269.9"/>
	<path class="st1" d="M183.3,132.8c-0.7,1-16.8,24.2,0.4,43c7.9,8.6,7.2,16.2,4.9,21.4h11c2.2-7.6,1.3-17.1-7.6-26.9
		c-12.7-13.8,0.2-32.5,0.4-32.8c1.5-2.1,0.7-4.9-1.8-6.2C188.1,130,184.8,130.7,183.3,132.8"/>
	<path class="st1" d="M155.4,197.2h11c2.2-7.6,1.3-17.1-7.6-26.9c-12.7-13.8,0.1-32.5,0.4-32.8c1.5-2.1,0.7-4.9-1.8-6.2
		c-2.5-1.3-5.7-0.6-7.2,1.5c-0.7,1-16.8,24.2,0.4,43C158.3,184.4,157.7,192,155.4,197.2"/>
	<path class="st1" d="M116.9,132.8c-0.7,1-16.8,24.2,0.4,43c7.9,8.6,7.2,16.2,5,21.4h11c2.2-7.6,1.3-17.1-7.6-26.9
		c-12.7-13.8,0.2-32.5,0.4-32.8c1.5-2.1,0.7-4.9-1.8-6.2C121.6,130,118.4,130.7,116.9,132.8"/>
	<g>
		<path class="st1" d="M95.1,49h6.8v3.7H90.4V49l7.1-19.4h-6.4v-3.7h11.1v3.7L95.1,49z"/>
		<path class="st1" d="M104.6,25.9h10.7v3.7h-6.2v7.7h4.5v3.6h-4.5V49h6.2v3.7h-10.7V25.9z"/>
		<path class="st1" d="M122.2,40.3v12.3h-4.5V25.9h6.6c4.5,0,6.2,2.3,6.2,6v3.4c0,2.9-1,4.6-3.6,5.2l4.3,12.2h-4.7L122.2,40.3z
			 M122.2,29.5v8.3h1.5c1.5,0,2.2-0.8,2.2-2.2v-3.9c0-1.5-0.7-2.2-2.2-2.2H122.2z"/>
		<path class="st1" d="M132.9,45.7V32.8c0-4.2,2.1-7.2,6.8-7.2c4.8,0,6.8,3,6.8,7.2v12.9c0,4.1-2.1,7.2-6.8,7.2
			C135,52.9,132.9,49.9,132.9,45.7z M142,46.4V32.1c0-1.6-0.7-2.8-2.3-2.8c-1.6,0-2.3,1.1-2.3,2.8v14.4c0,1.6,0.7,2.8,2.3,2.8
			C141.3,49.2,142,48,142,46.4z"/>
		<path class="st1" d="M99.5,78.3h-4.3v11.8h-4.5V63.4h4.5v11.3h4.3V63.4h4.5v26.8h-4.5V78.3z"/>
		<path class="st1" d="M119.7,63.4v20.3c0,4.1-1.8,6.8-6.4,6.8c-4.7,0-6.7-2.7-6.7-6.8V63.4h4.5V84c0,1.6,0.6,2.6,2.2,2.6
			c1.6,0,2.2-1.1,2.2-2.6V63.4H119.7z"/>
		<path class="st1" d="M126.1,73.3v16.8h-3.8V63.4h4.4l4.9,15.4V63.4h3.8v26.8h-3.9L126.1,73.3z"/>
		<path class="st1" d="M144.7,75.8h6.4v14.3h-3.2v-2.9c-0.6,2-1.9,3.2-4.3,3.2c-3.9,0-5.6-3.1-5.6-7.2V70.3c0-4.2,2-7.2,6.8-7.2
			c5,0,6.4,2.8,6.4,6.7v2.4H147v-2.7c0-1.7-0.6-2.6-2.3-2.6c-1.6,0-2.3,1.1-2.3,2.8v14.4c0,1.6,0.7,2.8,2.2,2.8
			c1.5,0,2.2-0.8,2.2-2.6v-4.7h-2.1V75.8z"/>
		<path class="st1" d="M153.6,63.4h10.7V67h-6.2v7.7h4.5v3.6h-4.5v8.1h6.2v3.7h-10.7V63.4z"/>
		<path class="st1" d="M171.3,77.8v12.3h-4.5V63.4h6.6c4.5,0,6.2,2.3,6.2,6v3.4c0,2.9-1,4.6-3.6,5.2l4.3,12.2h-4.7L171.3,77.8z
			 M171.3,67v8.3h1.5c1.5,0,2.2-0.8,2.2-2.2v-3.9c0-1.5-0.7-2.2-2.2-2.2H171.3z"/>
	</g>
</g>
</svg>
