<?xml version="1.0" encoding="utf-8"?>
<!-- Generator: Adobe Illustrator 21.0.2, SVG Export Plug-In . SVG Version: 6.00 Build 0)  -->
<svg version="1.1" id="Layer_1" xmlns="http://www.w3.org/2000/svg" xmlns:xlink="http://www.w3.org/1999/xlink" x="0px" y="0px"
	 viewBox="0 0 317.6 317.6" style="enable-background:new 0 0 317.6 317.6;" xml:space="preserve">
<style type="text/css">
	.st0{fill:#FBC500;}
	.st1{fill:#FFFFFF;}
	.st2{fill:#A6183B;}
	.st3{fill:#EB611E;}
	.st4{fill:#DA025F;}
	.st5{fill:#F59D10;}
	.st6{fill:#C48E13;}
	.st7{fill:none;stroke:#FFFFFF;stroke-width:0.73;stroke-miterlimit:10;}
	.st8{fill:#DE1730;}
	.st9{fill:none;stroke:#FFFFFF;stroke-width:1.3067;stroke-linecap:round;stroke-miterlimit:10;}
	.st10{fill:#E1AA29;}
	.st11{fill:#C41722;}
	.st12{fill:#E6331F;}
	.st13{fill:#3BBBE4;}
	.st14{fill:#4B9B34;}
	.st15{fill:#F7F7F8;}
	.st16{fill:#39ABE2;}
	.st17{fill:#3E8EDE;}
	.st18{fill:#62B231;}
	.st19{fill:#E7B81A;}
	.st20{fill:#C31723;}
	.st21{fill:#499A35;}
	.st22{fill:#407E3D;}
	.st23{fill:#F9C400;}
	.st24{fill:#E6351D;}
	.st25{fill:#F59E12;}
	.st26{fill:#2494D2;}
	.st27{fill:#A5193C;}
	.st28{fill:#3ABAE3;}
	.st29{fill:#EB621F;}
	.st30{fill:#E01630;}
	.st31{fill:#D9045F;}
	.st32{fill:#1C4468;}
	.st33{fill:#CB9914;}
	.st34{fill:#04649B;}
	.st35{fill:#5FB130;}
	.st36{fill:#407D3C;}
	.st37{fill:#2496D3;}
	.st38{fill:#1E4468;}
	.st39{fill:#05639B;}
</style>
<g>
	<rect x="0" y="-0.2" class="st35" width="317.6" height="317.6"/>
	<polygon class="st1" points="23.2,38 23.2,49.2 23.3,49.2 30.9,41.4 31,41.4 31,90.4 41.8,90.4 41.8,26.3 33.2,26.3 	"/>
	<path class="st1" d="M67.4,46.6c-4.2,0-7.4,1.5-9.1,4.4h-0.1v-16h18.5v-8.8H48.4v36.1h9.8V61c0-3.8,1.7-5.9,4.7-5.9
		c3.3,0,4.6,2.3,4.6,5.8v15.5c0,3.4-1.2,5.8-4.5,5.8c-3.7,0-5-2.5-5-6.2v-8h-9.8v7.3c0,9.7,3.9,16,14.8,16
		c10.9,0,15.3-5.8,15.3-14.6V60.8C78.3,50.7,73.1,46.6,67.4,46.6"/>
	<g>
		<path class="st1" d="M131.5,214.5c0.4,0,0.7,0.3,0.7,0.7v23.1c0,0.4-0.3,0.7-0.7,0.7h-9.4c-0.4,0-0.7-0.3-0.7-0.7v-23.1
			c0-0.4,0.3-0.7,0.7-0.7H131.5z"/>
		<path class="st1" d="M234.3,248.9H80.1c-0.4,0-0.7,0.3-0.7,0.7v9.4c0,0.4,0.3,0.7,0.7,0.7h154.2c0.4,0,0.7-0.3,0.7-0.7v-9.4
			C235,249.3,234.7,248.9,234.3,248.9"/>
		<path class="st1" d="M234.3,267.7H80.1c-0.4,0-0.7,0.3-0.7,0.7v9.5c0,0.4,0.3,0.7,0.7,0.7h154.2c0.4,0,0.7-0.3,0.7-0.7v-9.5
			C235,268,234.7,267.7,234.3,267.7"/>
		<path class="st1" d="M204.9,188.9c-1.9-1.5-7.1-5-13.3-5c-4.5,0-8.7,1.8-12.4,5.3c-0.3,0.3-0.4,0.6-0.4,1v0.8
			c0,0.4,0.1,0.8,0.4,1.1c0.3,0.3,0.7,0.3,1.1,0.3c0.1,0,0.2,0,0.3-0.1c0.3-0.1,0.6-0.3,0.8-0.5c0.8-0.5,3-1.3,6.2-1.3
			c3.3,0,9.7,0.9,15.9,6.7l0.1,0.1c0.3,0.4,0.8,0.6,1.3,0.6c0.5,0,1-0.2,1.3-0.5l0.1-0.1c6.2-5.8,12.6-6.7,15.9-6.7
			c3.2,0,5.4,0.7,6.2,1.3c0.2,0.2,0.5,0.4,0.9,0.5c0.1,0,0.5,0.1,0.9,0c0.6-0.2,1-0.7,1-1.3v-0.7c0-0.4-0.2-0.7-0.4-1
			c-3.8-3.6-8-5.4-12.5-5.4C212,183.9,206.9,187.3,204.9,188.9"/>
		<path class="st1" d="M195.4,127.4c-0.3,0.2-0.6,0.5-0.7,0.8l-0.2,0.5c-0.1,0.4,0,0.8,0.2,1.2c0.2,0.3,0.6,0.5,1,0.5
			c0.1,0,0.1,0,0.2,0c0.3,0,0.5-0.1,0.7-0.2c0.1,0,0.4-0.1,0.9-0.1c0.7,0,6.9,0.2,11,7.2l0.1,0.1c0.2,0.4,0.6,0.7,1,0.8
			c0.1,0,0.3,0.1,0.5,0.1c0.3,0,0.6-0.1,0.8-0.2l0.1,0c2.2-1.1,4.6-1.7,6.9-1.7c3.9,0,6.4,1.6,7,2.3c0.1,0.2,0.3,0.4,0.5,0.6
			c0.1,0.1,0.4,0.2,0.5,0.2c0.1,0,0.2,0,0.2,0c0,0,0.1,0,0.1,0c0.2,0,0.4-0.1,0.6-0.2c0.3-0.2,0.6-0.4,0.7-0.8l0.1-0.5
			c0-0.1,0.1-0.2,0.1-0.4c0-0.2-0.1-0.5-0.2-0.7c-3-5.2-7.3-6.3-10.5-6.3c-2.3,0-4.4,0.6-5.6,1c-1.4-1.9-5-5.8-10.4-5.8
			C199.2,126,197.3,126.4,195.4,127.4"/>
		<path class="st1" d="M162.8,151.1l0,0.7c0,0.4,0.2,0.8,0.6,1c0.3,0.2,0.7,0.3,1,0.2c0.1,0,0.2,0,0.2-0.1c0.3-0.1,0.5-0.3,0.7-0.5
			c0.7-0.5,2.8-1.3,5.9-1.3c3,0,7.6,0.8,12.2,4.6l0.1,0.1c0.3,0.3,0.8,0.4,1.2,0.4h0.1c0.5,0,0.9-0.3,1.2-0.6l0.1-0.1
			c5.1-5.4,10.7-6.2,13.5-6.2c2,0,3.5,0.4,4,0.7c0.2,0.2,0.5,0.3,0.8,0.4c0.1,0,0.3,0.1,0.6,0c0.1,0,0.2,0,0.3-0.1
			c0.6-0.2,0.9-0.7,0.9-1.3l0-0.6c0-0.4-0.2-0.7-0.5-0.9c-3.1-2.6-6.4-3.9-9.9-3.9c-5.4,0-9.8,3.2-11.5,4.8
			c-1.6-1.1-5.6-3.4-10.3-3.4c-4.1,0-7.8,1.7-10.9,5.1C162.9,150.4,162.8,150.8,162.8,151.1"/>
		<path class="st1" d="M84.7,163.5c0-9.2,7.5-16.7,16.7-16.7c0.4,0,0.7,0,1.1,0.1c0.9-11.7,10.6-20.9,22.5-20.9
			c12.5,0,22.6,10.1,22.6,22.6c0,3.5-0.8,6.9-2.3,9.9c11.3,2.5,19.8,12.6,19.8,24.7c0,14-11.3,25.3-25.3,25.3
			c-1,0-33.7-0.2-33.7-0.2l0,0c-9.9,0-17.9-8-17.9-17.9c0-4.7,1.9-9.1,4.9-12.3C88.1,175.1,84.7,169.7,84.7,163.5z"/>
	</g>
	<g>
		<path class="st1" d="M98.6,26.1h4.5v23.1h5.4v3.7h-9.9V26.1z"/>
		<path class="st1" d="M110.5,26.1h4.5v26.8h-4.5V26.1z"/>
		<path class="st1" d="M117.6,26.1h10.5v3.7h-6v7.7h4.5v3.6h-4.5v11.8h-4.5V26.1z"/>
		<path class="st1" d="M130.1,26.1h10.7v3.7h-6.2v7.7h4.5v3.6h-4.5v8.1h6.2v3.7h-10.7V26.1z"/>
		<path class="st1" d="M98.6,83.5V70.5c0-4.2,2.1-7.2,6.8-7.2c4.8,0,6.8,3,6.8,7.2v12.9c0,4.1-2.1,7.2-6.8,7.2
			C100.7,90.7,98.6,87.6,98.6,83.5z M107.7,84.2V69.8c0-1.6-0.7-2.8-2.3-2.8c-1.6,0-2.3,1.1-2.3,2.8v14.4c0,1.6,0.7,2.8,2.3,2.8
			C107,86.9,107.7,85.8,107.7,84.2z"/>
		<path class="st1" d="M118.6,73.6v16.8h-3.8V63.6h4.4l4.9,15.4V63.6h3.8v26.8h-3.9L118.6,73.6z"/>
		<path class="st1" d="M138.7,63.6h4.5v23.1h5.4v3.7h-9.9V63.6z"/>
		<path class="st1" d="M149.9,90.4l5.1-26.8h5.1l5.1,26.8h-4.6l-0.8-4.9h-4.8l-0.8,4.9H149.9z M155.5,81.9h3.6l-1.8-10.7h0
			L155.5,81.9z"/>
		<path class="st1" d="M170.8,73.6v16.8H167V63.6h4.4l4.9,15.4V63.6h3.8v26.8h-3.9L170.8,73.6z"/>
		<path class="st1" d="M196,70.8v12.4c0,4.1-1.7,7.2-6.5,7.2h-6.9V63.6h6.9C194.4,63.6,196,66.6,196,70.8z M189,86.7
			c1.9,0,2.6-1.1,2.6-2.7V70c0-1.6-0.7-2.7-2.6-2.7h-1.9v19.4H189z"/>
	</g>
</g>
</svg>
