<?xml version="1.0" encoding="utf-8"?>
<!-- Generator: Adobe Illustrator 21.0.2, SVG Export Plug-In . SVG Version: 6.00 Build 0)  -->
<svg version="1.1" id="Layer_1" xmlns="http://www.w3.org/2000/svg" xmlns:xlink="http://www.w3.org/1999/xlink" x="0px" y="0px"
	 viewBox="0 0 317.6 317.6" style="enable-background:new 0 0 317.6 317.6;" xml:space="preserve">
<style type="text/css">
	.st0{fill:#DD172F;}
	.st1{fill:#FFFFFF;}
	.st2{fill:none;stroke:#FFFFFF;stroke-width:1.3067;stroke-linecap:round;stroke-miterlimit:10;}
	.st3{fill:#E0A928;}
	.st4{fill:#499935;}
	.st5{fill:#C31922;}
	.st6{fill:#E53321;}
	.st7{fill:#38BAE3;}
	.st8{fill:#FAC400;}
	.st9{fill:#A5183B;}
	.st10{fill:#E9611D;}
	.st11{fill:#D9055F;}
	.st12{fill:#F59C12;}
	.st13{fill:#C38C12;}
	.st14{fill:none;stroke:#FFFFFF;stroke-width:0.73;stroke-miterlimit:10;}
	.st15{fill:#3F7C3C;}
	.st16{fill:#2593D2;}
	.st17{fill:#5EB032;}
	.st18{fill:#00639B;}
	.st19{fill:#1D4467;}
	.st20{fill:#EFEFEF;}
	.st21{fill:#010202;}
	.st22{fill:#61B032;}
	.st23{fill:#E6B719;}
	.st24{fill:#C21822;}
	.st25{fill:#489935;}
	.st26{fill:#3F7E3C;}
	.st27{fill:#F8C300;}
	.st28{fill:#E4351F;}
	.st29{fill:#F59C13;}
	.st30{fill:#2691D0;}
	.st31{fill:#A4193C;}
	.st32{fill:#37B9E2;}
	.st33{fill:#E9611F;}
	.st34{fill:#DF1531;}
	.st35{fill:#D80560;}
	.st36{fill:#1B4367;}
	.st37{fill:#CA9811;}
	.st38{fill:#00659A;}
</style>
<g>
	<rect x="-0.4" y="0" class="st9" width="317.6" height="317.6"/>
	<path class="st1" d="M55.9,75v-7c0-6.1-2.2-10.6-7.2-12.8c4.2-2.1,6.2-5.9,6.2-11.1v-2.6c0-10-5.2-15.4-15.1-15.4
		c-9.8,0-14.9,5.4-14.9,15.4V44c0,5.2,1.9,9.1,6,11.1c-5,2.3-7.1,6.7-7.1,12.8v7c0,9.7,4.6,16.5,16,16.5
		C51.2,91.5,55.9,84.7,55.9,75 M35,40.7c0-3.9,1.3-6.1,4.8-6.1c3.6,0,4.9,2.3,4.9,6.1V45c0,3.9-1.3,6.1-4.9,6.1
		c-3.5,0-4.8-2.3-4.8-6.1V40.7z M45.1,76.1c0,3.9-1.4,6.6-5.3,6.6c-3.8,0-5.2-2.7-5.2-6.6V65.7c0-3.9,1.4-6.6,5.2-6.6
		c3.9,0,5.3,2.7,5.3,6.6V76.1z"/>
	<path class="st1" d="M218.2,168.1L189,195.9c-1.1,1.1-1.7,1.9-1.7,4.2v77.8c0,0.9,0.7,1.7,1.7,1.7h30.1c0.9,0,1.7-0.7,1.7-1.7v-109
		C220.8,167.9,220.1,166.3,218.2,168.1"/>
	<path class="st1" d="M134.2,204.3L105,232c-1.1,1.1-1.7,1.9-1.7,4.2v41.6c0,0.9,0.7,1.7,1.7,1.7h30.1c0.9,0,1.7-0.7,1.7-1.7V205
		C136.8,204.1,136,202.4,134.2,204.3"/>
	<path class="st1" d="M231.4,134.5c0-0.2-0.1-0.5-0.2-0.6c-0.2-0.1-0.4-0.2-0.5-0.2l-0.2,0l-0.2,0l-22.3,5l-0.4,0
		c-0.2,0-0.3,0.1-0.4,0.2c-0.3,0.3-0.3,0.9,0,1.2l0.3,0.3l5.1,5.1l-50.6,50.6l-23.4-23.4c-0.3-0.3-0.7-0.3-1,0l-6.3,6.3l0,0
		l-37.5,37.5c-0.3,0.3-0.3,0.7,0,1l6.4,6.3c0.3,0.3,0.7,0.3,0.9,0l37-37l17,17c0,0,0,0.1,0.1,0.1l6.3,6.3c0.3,0.3,0.7,0.3,1,0
		l57.4-57.4l5.4,5.4c0.3,0.3,0.9,0.3,1.2,0c0.2-0.2,0.2-0.3,0.2-0.6l0-0.1l4.9-22.8L231.4,134.5z"/>
	<path class="st1" d="M176.3,209.2l-14.1,14.2c-0.3,0.2-0.7,0.2-0.9,0l-12.8-13c-2.3-2.3-2.8-0.4-2.8,0.5v67c0,0.9,0.7,1.7,1.7,1.7
		h30.1c0.9,0,1.7-0.7,1.7-1.7v-68.1C179.1,208.8,178.4,207.1,176.3,209.2"/>
	<g>
		<g>
			<path class="st1" d="M82.5,50.3l-1.1-3.4h-6.9l-1.2,3.4h-3.9l7-19.3h3l7,19.3H82.5z M78,36.7l-2.4,7h4.8L78,36.7z"/>
			<path class="st1" d="M95,50.5c-2.1,0-3.8-0.8-5.2-2.1c-1.9-2-1.9-4.4-1.9-7.7c0-3.3-0.1-5.7,1.9-7.7c1.4-1.4,3.1-2.1,5.2-2.1
				c3.6,0,6.4,2.1,7.1,6.1h-3.8c-0.4-1.5-1.4-2.7-3.3-2.7c-1,0-1.9,0.4-2.4,1c-0.7,0.8-0.9,1.7-0.9,5.4s0.2,4.6,0.9,5.4
				c0.5,0.6,1.4,1,2.4,1c1.9,0,2.9-1.2,3.3-2.7h3.8C101.5,48.4,98.6,50.5,95,50.5z"/>
			<path class="st1" d="M111.9,50.5c-2.1,0-3.8-0.8-5.2-2.1c-1.9-2-1.9-4.4-1.9-7.7c0-3.3-0.1-5.7,1.9-7.7c1.4-1.4,3.1-2.1,5.2-2.1
				c3.6,0,6.4,2.1,7.1,6.1h-3.8c-0.4-1.5-1.4-2.7-3.3-2.7c-1,0-1.9,0.4-2.4,1c-0.7,0.8-0.9,1.7-0.9,5.4s0.2,4.6,0.9,5.4
				c0.5,0.6,1.4,1,2.4,1c1.9,0,2.9-1.2,3.3-2.7h3.8C118.3,48.4,115.4,50.5,111.9,50.5z"/>
			<path class="st1" d="M122.2,50.3V31h12.7v3.4H126v4.5h7.6v3.4H126v4.7h8.9v3.4H122.2z M129.2,29.1h-2.4l1.7-4.6h3.7L129.2,29.1z"
				/>
			<path class="st1" d="M144,50.5c-2.9,0-5.2-0.6-7-2.5l2.4-2.4c1.2,1.2,2.9,1.6,4.7,1.6c2.2,0,3.4-0.8,3.4-2.4
				c0-0.7-0.2-1.2-0.6-1.6c-0.4-0.4-0.8-0.5-1.7-0.7l-2.3-0.3c-1.7-0.2-2.9-0.8-3.7-1.6c-0.9-0.9-1.4-2.2-1.4-3.8
				c0-3.4,2.5-5.9,6.7-5.9c2.7,0,4.6,0.7,6.2,2.2l-2.4,2.4c-1.2-1.2-2.7-1.3-4-1.3c-2,0-3,1.1-3,2.4c0,0.5,0.2,1,0.6,1.4
				c0.4,0.4,1,0.7,1.8,0.8l2.3,0.3c1.8,0.2,2.9,0.7,3.7,1.5c1,1,1.5,2.4,1.5,4.1C151.1,48.3,148,50.5,144,50.5z"/>
			<path class="st1" d="M172,50.3l-1.1-3.4H164l-1.2,3.4h-3.9l7-19.3h3l7,19.3H172z M169.1,28.8c-0.8,0-1.3-0.2-2.1-0.6
				c-0.5-0.3-1-0.5-1.5-0.5c-0.5,0-0.9,0.1-1.6,0.8l-1.5-1.5c1.2-1.2,2-1.6,3-1.6c0.8,0,1.3,0.2,2.1,0.6c0.5,0.3,1,0.5,1.5,0.5
				c0.5,0,0.9-0.1,1.6-0.8l1.6,1.5C171,28.4,170.2,28.8,169.1,28.8z M167.5,36.7l-2.4,7h4.8L167.5,36.7z"/>
			<path class="st1" d="M196.6,48.4c-1.3,1.3-3.1,1.8-5.1,1.8h-7V31h7c2,0,3.8,0.6,5.1,1.8c2.2,2.2,1.9,4.8,1.9,7.7
				C198.6,43.5,198.8,46.3,196.6,48.4z M194,35.5c-0.7-0.8-1.5-1.2-2.8-1.2h-2.8v12.6h2.8c1.3,0,2.2-0.4,2.8-1.2
				c0.7-0.9,0.8-2.3,0.8-5.2C194.8,37.6,194.7,36.4,194,35.5z"/>
			<path class="st1" d="M202.4,50.3V31h12.7v3.4h-8.9v4.5h7.6v3.4h-7.6v4.7h8.9v3.4H202.4z"/>
			<path class="st1" d="M224.2,50.5c-2.9,0-5.2-0.6-7-2.5l2.4-2.4c1.2,1.2,2.9,1.6,4.7,1.6c2.2,0,3.4-0.8,3.4-2.4
				c0-0.7-0.2-1.2-0.6-1.6c-0.4-0.4-0.8-0.5-1.7-0.7l-2.3-0.3c-1.7-0.2-2.9-0.8-3.7-1.6c-0.9-0.9-1.4-2.2-1.4-3.8
				c0-3.4,2.5-5.9,6.7-5.9c2.7,0,4.6,0.7,6.2,2.2l-2.4,2.4c-1.2-1.2-2.7-1.3-4-1.3c-2,0-3,1.1-3,2.4c0,0.5,0.2,1,0.6,1.4
				c0.4,0.4,1,0.7,1.8,0.8l2.3,0.3c1.8,0.2,2.9,0.7,3.7,1.5c1,1,1.5,2.4,1.5,4.1C231.3,48.3,228.2,50.5,224.2,50.5z"/>
			<path class="st1" d="M71.6,82.8V63.5h12.7v3.4h-8.9v4.5h7.6v3.4h-7.6v4.7h8.9v3.4H71.6z"/>
			<path class="st1" d="M101.7,82.8V71.6L98,78.9h-2.5l-3.7-7.3v11.3H88V63.5h3.7l5,10.4l5-10.4h3.7v19.3H101.7z"/>
			<path class="st1" d="M117.5,75.6h-3.7v7.3H110V63.5h7.5c4,0,6.4,2.7,6.4,6C123.8,72.8,121.4,75.6,117.5,75.6z M117.3,66.9h-3.5
				v5.3h3.5c1.7,0,2.8-1.1,2.8-2.6C120.1,68,119,66.9,117.3,66.9z"/>
			<path class="st1" d="M127,82.8V63.5h3.8v15.9h8.8v3.4H127z"/>
			<path class="st1" d="M153.6,80.9c-1.4,1.4-3,2.1-5.2,2.1c-2.2,0-3.9-0.8-5.2-2.1c-1.9-2-1.9-4.4-1.9-7.7s-0.1-5.7,1.9-7.7
				c1.4-1.4,3-2.1,5.2-2.1c2.2,0,3.8,0.8,5.2,2.1c2,2,1.9,4.4,1.9,7.7S155.5,78.9,153.6,80.9z M150.8,67.8c-0.5-0.6-1.4-1-2.4-1
				c-1,0-1.9,0.4-2.4,1c-0.7,0.8-0.9,1.7-0.9,5.4c0,3.7,0.2,4.6,0.9,5.4c0.5,0.6,1.4,1,2.4,1c1,0,1.9-0.4,2.4-1
				c0.7-0.8,0.9-1.7,0.9-5.4C151.7,69.5,151.5,68.6,150.8,67.8z"/>
			<path class="st1" d="M159.4,82.8V63.5h3.8v19.3H159.4z"/>
			<path class="st1" d="M173,83c-2.9,0-5.2-0.6-7-2.5l2.4-2.4c1.2,1.2,2.9,1.6,4.7,1.6c2.2,0,3.4-0.8,3.4-2.4c0-0.7-0.2-1.2-0.6-1.6
				c-0.4-0.4-0.8-0.5-1.7-0.7l-2.3-0.3c-1.7-0.2-2.9-0.8-3.7-1.6c-0.9-0.9-1.4-2.2-1.4-3.8c0-3.4,2.5-5.9,6.7-5.9
				c2.7,0,4.6,0.7,6.2,2.2l-2.4,2.4c-1.2-1.2-2.7-1.3-4-1.3c-2,0-3,1.1-3,2.4c0,0.5,0.2,1,0.6,1.4c0.4,0.4,1,0.7,1.8,0.8l2.3,0.3
				c1.8,0.2,2.9,0.7,3.7,1.5c1,1,1.5,2.4,1.5,4.1C180.1,80.9,177,83,173,83z"/>
			<path class="st1" d="M83.6,113.6c-1.3,1.3-3.1,1.8-5.1,1.8h-7V96.1h7c2,0,3.8,0.6,5.1,1.8c2.2,2.2,1.9,4.8,1.9,7.7
				S85.8,111.4,83.6,113.6z M81,100.6c-0.7-0.8-1.5-1.2-2.8-1.2h-2.8V112h2.8c1.3,0,2.2-0.4,2.8-1.2c0.7-0.9,0.8-2.3,0.8-5.2
				C81.8,102.7,81.7,101.5,81,100.6z"/>
			<path class="st1" d="M89.4,115.4V96.1h12.7v3.4h-8.9v4.5h7.6v3.4h-7.6v4.7h8.9v3.4H89.4z M96.4,94.2h-2.4l1.7-4.6h3.7L96.4,94.2z
				"/>
			<path class="st1" d="M112.3,115.6c-2.1,0-3.8-0.8-5.2-2.1c-2-2-1.9-4.4-1.9-7.7c0-3.3-0.1-5.7,1.9-7.7c1.4-1.4,3.1-2.1,5.2-2.1
				c3.6,0,6.4,2.1,7.1,6.1h-3.8c-0.4-1.5-1.4-2.7-3.3-2.7c-1,0-1.9,0.4-2.4,1c-0.7,0.8-0.9,1.7-0.9,5.4c0,3.7,0.2,4.6,0.9,5.4
				c0.5,0.6,1.4,1,2.4,1c1.9,0,2.9-1.2,3.3-2.7h3.8C118.7,113.5,115.9,115.6,112.3,115.6z"/>
			<path class="st1" d="M122.7,115.4V96.1h12.7v3.4h-8.9v4.5h7.6v3.4h-7.6v4.7h8.9v3.4H122.7z"/>
			<path class="st1" d="M150.5,115.4l-7.6-11.8v11.8h-3.8V96.1h3.4l7.6,11.8V96.1h3.8v19.3H150.5z"/>
			<path class="st1" d="M165.7,99.5v15.9H162V99.5h-5v-3.4h13.9v3.4H165.7z"/>
			<path class="st1" d="M179.2,115.6c-2.9,0-5.2-0.6-7-2.5l2.4-2.4c1.2,1.2,2.9,1.6,4.7,1.6c2.2,0,3.4-0.8,3.4-2.4
				c0-0.7-0.2-1.2-0.6-1.6c-0.4-0.4-0.8-0.5-1.7-0.7l-2.3-0.3c-1.7-0.2-2.9-0.8-3.7-1.6c-0.9-0.9-1.4-2.2-1.4-3.8
				c0-3.4,2.5-5.9,6.7-5.9c2.7,0,4.6,0.7,6.2,2.2l-2.4,2.4c-1.2-1.2-2.7-1.3-4-1.3c-2,0-3,1.1-3,2.4c0,0.5,0.2,1,0.6,1.4
				c0.4,0.4,1,0.7,1.8,0.8l2.3,0.3c1.8,0.2,2.9,0.7,3.7,1.5c1,1,1.5,2.4,1.5,4.1C186.3,113.4,183.2,115.6,179.2,115.6z"/>
		</g>
	</g>
</g>
</svg>
