<?xml version="1.0" encoding="utf-8"?>
<!-- Generator: Adobe Illustrator 21.0.2, SVG Export Plug-In . SVG Version: 6.00 Build 0)  -->
<svg version="1.1" id="Layer_1" xmlns="http://www.w3.org/2000/svg" xmlns:xlink="http://www.w3.org/1999/xlink" x="0px" y="0px"
	 viewBox="0 0 317.6 317.6" style="enable-background:new 0 0 317.6 317.6;" xml:space="preserve">
<style type="text/css">
	.st0{fill:#DD172F;}
	.st1{fill:#FFFFFF;}
	.st2{fill:none;stroke:#FFFFFF;stroke-width:1.3067;stroke-linecap:round;stroke-miterlimit:10;}
	.st3{fill:#E0A928;}
	.st4{fill:#499935;}
	.st5{fill:#C31922;}
	.st6{fill:#E53321;}
	.st7{fill:#38BAE3;}
	.st8{fill:#FAC400;}
	.st9{fill:#A5183B;}
	.st10{fill:#E9611D;}
	.st11{fill:#D9055F;}
	.st12{fill:#F59C12;}
	.st13{fill:#C38C12;}
	.st14{fill:none;stroke:#FFFFFF;stroke-width:0.73;stroke-miterlimit:10;}
	.st15{fill:#3F7C3C;}
	.st16{fill:#2593D2;}
	.st17{fill:#5EB032;}
	.st18{fill:#00639B;}
	.st19{fill:#1D4467;}
	.st20{fill:#EFEFEF;}
	.st21{fill:#010202;}
	.st22{fill:#61B032;}
	.st23{fill:#E6B719;}
	.st24{fill:#C21822;}
	.st25{fill:#489935;}
	.st26{fill:#3F7E3C;}
	.st27{fill:#F8C300;}
	.st28{fill:#E4351F;}
	.st29{fill:#F59C13;}
	.st30{fill:#2691D0;}
	.st31{fill:#A4193C;}
	.st32{fill:#37B9E2;}
	.st33{fill:#E9611F;}
	.st34{fill:#DF1531;}
	.st35{fill:#D80560;}
	.st36{fill:#1B4367;}
	.st37{fill:#CA9811;}
	.st38{fill:#00659A;}
</style>
<g>
	<rect class="st16" width="317.6" height="317.6"/>
	<polygon class="st1" points="41.4,26.7 41.4,90.7 30.6,90.7 30.6,41.7 30.5,41.7 23,49.6 22.9,49.6 22.9,38.3 32.8,26.7 	"/>
	<path class="st1" d="M76.9,90.7V80.4h4.3v-8.4h-4.3V26.7H66.3l-18.6,47v6.6h19v10.4H76.9z M57.1,71.9l9.6-26.4h0.1v26.4H57.1z"/>
	<g>
		<path class="st1" d="M222.2,243.9c-3.1-4.1-22.8-29.2-50.4-29.2c-24,0-49.7,21.8-49.7,21.8s-9.6-19.7-29.4-21.6
			c-0.1,0-0.2,0-0.4,0h-0.1c-0.4,0-0.8,0.4-0.8,0.8c0.1,0.3,0.3,0.7,0.3,0.7c2.5,4.2,9,16.2,9,28.2c0,12-6.5,24.1-9,28.3l-0.2,0.3
			c-0.1,0.1-0.1,0.3-0.1,0.4c0,0.4,0.3,0.7,0.7,0.8l0.2,0c0.1,0,0.1,0,0.2,0c19.8-1.8,29.5-21.6,29.5-21.6s25.7,21.8,49.7,21.8
			c27.6,0,47.3-25.1,50.4-29.2c0.1-0.1,0.2-0.2,0.2-0.3c0-0.1,0.1-0.2,0.1-0.3c0-0.1,0-0.2-0.1-0.3
			C222.3,244.1,222.3,244,222.2,243.9 M187.2,247.6c-4.5,0-8.1-3.6-8.1-8.1c0-4.5,3.6-8.1,8.1-8.1c4.5,0,8.1,3.6,8.1,8.1
			C195.2,244,191.6,247.6,187.2,247.6"/>
		<path class="st1" d="M92.2,167.4c-0.1,0-0.1,0-0.2,0c-0.4,0-0.8,0.4-0.8,0.8v5.5c0,0.2,0.1,0.4,0.2,0.6c13.3,11.6,26,0.7,28.9-2.1
			c0.1-0.1,0.1-0.2,0.2-0.2c0.1-0.1,0.3-0.1,0.4-0.1c0.2,0,0.4,0.1,0.5,0.2c0,0,0,0,0,0c15.1,14.4,30.9,2.7,34.1,0l0.3-0.3
			c0.1,0,0.2-0.1,0.3-0.1c0.1,0,0.2,0,0.3,0.1l0.3,0.3c3.3,2.7,19.1,14.4,34.1,0c0,0,0,0,0,0c0.1-0.1,0.3-0.2,0.5-0.2
			c0.2,0,0.3,0.1,0.4,0.1c0.1,0.1,0.2,0.1,0.2,0.2c2.9,2.9,15.5,13.7,28.9,2.1c0.1-0.1,0.2-0.3,0.2-0.6v-5.5c0-0.4-0.3-0.8-0.8-0.8
			c-0.1,0-0.1,0-0.2,0c-0.1,0.1-0.3,0.1-0.4,0.2c-4.1,2.1-16.8,6.9-28.4-4c-0.1-0.1-0.2-0.2-0.3-0.3c-0.1,0-0.2-0.1-0.3-0.1
			c-0.1,0-0.2,0-0.2,0c-0.2,0.1-0.3,0.2-0.4,0.3c-3.4,2.6-19.2,13.3-33.3,0.2l-0.2-0.2c-0.1-0.1-0.3-0.2-0.6-0.2
			c-0.2,0-0.4,0.1-0.6,0.2l-0.2,0.2c-14.1,13.1-29.9,2.4-33.3-0.2c-0.1-0.1-0.2-0.2-0.4-0.3c-0.1,0-0.2,0-0.3,0
			c-0.1,0-0.2,0-0.3,0.1c-0.1,0.1-0.2,0.2-0.3,0.3c-11.5,10.9-24.3,6-28.4,4C92.4,167.5,92.3,167.5,92.2,167.4"/>
		<path class="st1" d="M120.4,192.1c0.1-0.1,0.1-0.2,0.2-0.2c0.1-0.1,0.3-0.1,0.4-0.1c0.2,0,0.4,0.1,0.5,0.2c0,0,0,0,0,0
			c15.1,14.4,30.9,2.7,34.1,0l0.3-0.3c0.1,0,0.2-0.1,0.3-0.1c0.1,0,0.2,0,0.3,0.1l0.3,0.3c3.3,2.7,19.1,14.4,34.1,0c0,0,0,0,0,0
			c0.1-0.1,0.3-0.2,0.5-0.2c0.2,0,0.3,0.1,0.4,0.1c0.1,0.1,0.2,0.1,0.2,0.2c2.9,2.9,15.5,13.7,28.9,2.1c0.1-0.1,0.2-0.3,0.2-0.6
			v-5.5c0-0.4-0.4-0.8-0.8-0.8c-0.1,0-0.1,0-0.2,0c-0.1,0.1-0.3,0.1-0.4,0.2c-4.1,2.1-16.8,6.9-28.4-4c-0.1-0.1-0.2-0.2-0.3-0.3
			c-0.1-0.1-0.2-0.1-0.3-0.1c-0.1,0-0.2,0-0.2,0.1c-0.2,0-0.3,0.2-0.4,0.3c-3.4,2.6-19.2,13.3-33.3,0.2l-0.2-0.2
			c-0.1-0.1-0.3-0.2-0.6-0.2c-0.2,0-0.4,0.1-0.6,0.2l-0.2,0.2c-14.1,13.1-29.9,2.4-33.3-0.2c-0.1-0.1-0.2-0.3-0.4-0.3
			c-0.1,0-0.2-0.1-0.3-0.1c-0.1,0-0.2,0-0.3,0.1c-0.1,0.1-0.2,0.2-0.3,0.3c-11.5,10.9-24.3,6-28.4,4c-0.1-0.1-0.3-0.1-0.4-0.2
			c-0.1,0-0.1,0-0.2,0c-0.4,0-0.8,0.4-0.8,0.8v5.5c0,0.2,0.1,0.4,0.2,0.6C104.8,205.8,117.4,195,120.4,192.1"/>
	</g>
	<g>
		<path class="st1" d="M104.5,38.8h-3.7V46H97V26.7h7.5c4,0,6.4,2.7,6.4,6C110.9,36,108.5,38.8,104.5,38.8z M104.3,30.1h-3.5v5.3
			h3.5c1.7,0,2.8-1.1,2.8-2.6C107.1,31.2,106,30.1,104.3,30.1z"/>
		<path class="st1" d="M124.3,46l-3.8-7.7h-2.7V46h-3.8V26.7h7.6c3.9,0,6.3,2.7,6.3,5.9c0,2.7-1.7,4.4-3.5,5.1l4.3,8.3H124.3z
			 M121.4,30.1h-3.5v5.1h3.5c1.7,0,2.7-1.1,2.7-2.5C124.1,31.1,123,30.1,121.4,30.1z"/>
		<path class="st1" d="M143.5,44.1c-1.4,1.4-3,2.1-5.2,2.1c-2.2,0-3.9-0.8-5.2-2.1c-2-2-1.9-4.4-1.9-7.7s-0.1-5.7,1.9-7.7
			c1.4-1.4,3-2.1,5.2-2.1c2.2,0,3.8,0.8,5.2,2.1c2,2,1.9,4.4,1.9,7.7S145.4,42.1,143.5,44.1z M140.7,30.9c-0.5-0.6-1.4-1-2.4-1
			c-1,0-1.9,0.4-2.4,1c-0.7,0.8-0.9,1.7-0.9,5.4s0.2,4.6,0.9,5.4c0.5,0.6,1.4,1,2.4,1c1,0,1.9-0.4,2.4-1c0.7-0.8,0.9-1.7,0.9-5.4
			S141.4,31.8,140.7,30.9z"/>
		<path class="st1" d="M156.1,30.1V46h-3.8V30.1h-5v-3.4h13.9v3.4H156.1z"/>
		<path class="st1" d="M164.2,46V26.7h12.7v3.4H168v4.5h7.6V38H168v4.7h8.9V46H164.2z"/>
		<path class="st1" d="M187.1,46.2c-2.1,0-3.8-0.8-5.2-2.1c-1.9-2-1.9-4.4-1.9-7.7s-0.1-5.7,1.9-7.7c1.4-1.4,3.1-2.1,5.2-2.1
			c3.6,0,6.4,2.1,7.1,6.1h-3.8c-0.4-1.5-1.4-2.7-3.3-2.7c-1,0-1.9,0.4-2.4,1c-0.7,0.8-0.9,1.7-0.9,5.4s0.2,4.6,0.9,5.4
			c0.5,0.6,1.4,1,2.4,1c1.9,0,2.9-1.2,3.3-2.7h3.8C193.5,44.1,190.7,46.2,187.1,46.2z"/>
		<path class="st1" d="M204.3,30.1V46h-3.8V30.1h-5v-3.4h13.9v3.4H204.3z"/>
		<path class="st1" d="M212.4,46V26.7h3.8V46H212.4z"/>
		<path class="st1" d="M232.4,44.1c-1.4,1.4-3,2.1-5.2,2.1c-2.2,0-3.9-0.8-5.2-2.1c-1.9-2-1.9-4.4-1.9-7.7s-0.1-5.7,1.9-7.7
			c1.4-1.4,3-2.1,5.2-2.1c2.2,0,3.8,0.8,5.2,2.1c2,2,1.9,4.4,1.9,7.7S234.3,42.1,232.4,44.1z M229.6,30.9c-0.5-0.6-1.4-1-2.4-1
			c-1,0-1.9,0.4-2.4,1c-0.7,0.8-0.9,1.7-0.9,5.4s0.2,4.6,0.9,5.4c0.5,0.6,1.4,1,2.4,1c1,0,1.9-0.4,2.4-1c0.7-0.8,0.9-1.7,0.9-5.4
			S230.3,31.8,229.6,30.9z"/>
		<path class="st1" d="M249.6,46l-7.6-11.8V46h-3.8V26.7h3.4l7.6,11.8V26.7h3.8V46H249.6z"/>
		<path class="st1" d="M109.1,74c-1.3,1.3-3.1,1.8-5.1,1.8h-7V56.6h7c2,0,3.8,0.6,5.1,1.8c2.2,2.2,2,4.8,2,7.7
			C111,69,111.3,71.9,109.1,74z M106.5,61.1c-0.6-0.8-1.5-1.2-2.8-1.2h-2.8v12.6h2.8c1.3,0,2.2-0.4,2.8-1.2c0.7-0.9,0.8-2.3,0.8-5.2
			C107.3,63.2,107.2,62,106.5,61.1z"/>
		<path class="st1" d="M114.9,75.9V56.6h12.7v3.4h-8.9v4.5h7.6v3.4h-7.6v4.7h8.9v3.4H114.9z"/>
		<path class="st1" d="M137.6,75.9V56.6h3.8v15.9h8.8v3.4H137.6z"/>
		<path class="st1" d="M164.2,75.9l-1.1-3.4h-6.9l-1.2,3.4h-3.9l7-19.3h3l7,19.3H164.2z M159.7,62.3l-2.4,7h4.8L159.7,62.3z"/>
		<path class="st1" d="M180.6,59.9v4.7h7.6V68h-7.6v7.8h-3.8V56.6h12.7v3.4H180.6z"/>
		<path class="st1" d="M202.2,75.9l-1.1-3.4h-6.9l-1.2,3.4h-3.9l7-19.3h3l7,19.3H202.2z M197.7,62.3l-2.4,7h4.8L197.7,62.3z"/>
		<path class="st1" d="M215.3,76c-4,0-7.1-2.7-7.1-6.8V56.6h3.8v12.6c0,2.2,1.3,3.6,3.3,3.6s3.4-1.3,3.4-3.6V56.6h3.7v12.7
			C222.4,73.3,219.3,76,215.3,76z"/>
		<path class="st1" d="M238,75.9L230.4,64v11.8h-3.8V56.6h3.4l7.6,11.8V56.6h3.8v19.3H238z"/>
		<path class="st1" d="M245.9,75.9V56.6h12.7v3.4h-8.9v4.5h7.6v3.4h-7.6v4.7h8.9v3.4H245.9z"/>
		<path class="st1" d="M97,105.7V86.4h12.7v3.4h-8.9v4.5h7.6v3.4h-7.6v4.7h8.9v3.4H97z"/>
		<path class="st1" d="M120.8,89.8v15.9H117V89.8h-5v-3.4h13.9v3.4H120.8z"/>
		<path class="st1" d="M147.3,103.9c-1.3,1.3-3.1,1.8-5.1,1.8h-7V86.4h7c2,0,3.8,0.6,5.1,1.8c2.2,2.2,2,4.8,2,7.7
			C149.2,98.9,149.5,101.7,147.3,103.9z M144.7,91c-0.7-0.8-1.5-1.2-2.8-1.2H139v12.6h2.8c1.3,0,2.2-0.4,2.8-1.2
			c0.7-0.9,0.8-2.3,0.8-5.2S145.4,91.8,144.7,91z"/>
		<path class="st1" d="M153.1,105.7V86.4h12.7v3.4h-8.9v4.5h7.6v3.4h-7.6v4.7h8.9v3.4H153.1z"/>
		<path class="st1" d="M175.8,105.7V86.4h3.8v15.9h8.8v3.4H175.8z"/>
		<path class="st1" d="M202.4,105.7l-1.1-3.4h-6.9l-1.2,3.4h-3.9l7-19.3h3l7,19.3H202.4z M197.9,92.1l-2.4,7h4.8L197.9,92.1z"/>
		<path class="st1" d="M218.8,89.8v4.7h7.6v3.4h-7.6v7.8H215V86.4h12.7v3.4H218.8z"/>
		<path class="st1" d="M231,105.7V86.4h3.8v15.9h8.8v3.4H231z"/>
		<path class="st1" d="M257.6,103.8c-1.4,1.4-3,2.1-5.2,2.1s-3.9-0.8-5.2-2.1c-2-2-1.9-4.4-1.9-7.7s-0.1-5.7,1.9-7.7
			c1.4-1.4,3-2.1,5.2-2.1s3.8,0.8,5.2,2.1c2,2,1.9,4.4,1.9,7.7S259.5,101.8,257.6,103.8z M254.8,90.6c-0.5-0.6-1.4-1-2.4-1
			s-1.9,0.4-2.4,1c-0.7,0.8-0.9,1.7-0.9,5.4c0,3.7,0.2,4.6,0.9,5.4c0.5,0.6,1.4,1,2.4,1s1.9-0.4,2.4-1c0.7-0.8,0.9-1.7,0.9-5.4
			C255.7,92.3,255.5,91.4,254.8,90.6z"/>
		<path class="st1" d="M273.6,105.7l-3.8-7.7h-2.7v7.7h-3.8V86.4h7.6c3.9,0,6.3,2.7,6.3,5.9c0,2.7-1.7,4.4-3.5,5.1l4.3,8.3H273.6z
			 M270.7,89.8h-3.6v5.1h3.6c1.7,0,2.7-1.1,2.7-2.5C273.4,90.8,272.3,89.8,270.7,89.8z"/>
		<path class="st1" d="M281.1,105.7V86.4h12.7v3.4h-8.9v4.5h7.6v3.4h-7.6v4.7h8.9v3.4H281.1z"/>
		<path class="st1" d="M108,135.5l-1.1-3.4H100l-1.2,3.4h-3.9l7-19.3h3l7,19.3H108z M103.5,121.9l-2.4,7h4.8L103.5,121.9z"/>
		<path class="st1" d="M126.2,136.4l-1.7-1.7c-1.1,0.7-2.4,1.1-3.9,1.1c-2.2,0-3.9-0.8-5.2-2.1c-2-2-1.9-4.4-1.9-7.7
			s-0.1-5.7,1.9-7.7c1.4-1.4,3-2.1,5.2-2.1c2.2,0,3.8,0.8,5.2,2.1c2,2,1.9,4.4,1.9,7.7c0,2.9,0,5-1.2,6.8l1.7,1.7L126.2,136.4z
			 M123,120.5c-0.5-0.6-1.4-1-2.4-1c-1,0-1.9,0.4-2.4,1c-0.7,0.8-0.9,1.7-0.9,5.4c0,3.7,0.2,4.6,0.9,5.4c0.5,0.6,1.4,1,2.4,1
			c0.5,0,0.9-0.1,1.2-0.4l-1.7-1.7l2-2l1.4,1.4c0.3-0.8,0.4-2,0.4-3.9C123.9,122.2,123.7,121.3,123,120.5z"/>
		<path class="st1" d="M138.3,135.7c-4,0-7.1-2.7-7.1-6.8v-12.7h3.8v12.6c0,2.2,1.3,3.6,3.3,3.6c2,0,3.4-1.3,3.4-3.6v-12.6h3.7v12.7
			C145.4,133,142.3,135.7,138.3,135.7z"/>
		<path class="st1" d="M160.6,135.5l-1.1-3.4h-6.9l-1.2,3.4h-3.9l7-19.3h3l7,19.3H160.6z M156.1,121.9l-2.4,7h4.8L156.1,121.9z"/>
		<path class="st1" d="M172.7,119.6v15.9h-3.8v-15.9h-5v-3.4h13.9v3.4H172.7z"/>
		<path class="st1" d="M180.8,135.5v-19.3h3.8v19.3H180.8z"/>
		<path class="st1" d="M201.2,136.4l-1.7-1.7c-1.1,0.7-2.4,1.1-3.9,1.1c-2.2,0-3.9-0.8-5.2-2.1c-1.9-2-1.9-4.4-1.9-7.7
			s-0.1-5.7,1.9-7.7c1.4-1.4,3-2.1,5.2-2.1s3.8,0.8,5.2,2.1c2,2,1.9,4.4,1.9,7.7c0,2.9,0,5-1.2,6.8l1.7,1.7L201.2,136.4z M198,120.5
			c-0.5-0.6-1.4-1-2.4-1s-1.9,0.4-2.4,1c-0.7,0.8-0.9,1.7-0.9,5.4c0,3.7,0.2,4.6,0.9,5.4c0.5,0.6,1.4,1,2.4,1c0.5,0,0.9-0.1,1.2-0.4
			l-1.7-1.7l2-2l1.4,1.4c0.3-0.8,0.4-2,0.4-3.9C198.9,122.2,198.7,121.3,198,120.5z"/>
		<path class="st1" d="M213.3,135.7c-4,0-7.1-2.7-7.1-6.8v-12.7h3.8v12.6c0,2.2,1.3,3.6,3.3,3.6c2,0,3.4-1.3,3.4-3.6v-12.6h3.7v12.7
			C220.4,133,217.3,135.7,213.3,135.7z"/>
		<path class="st1" d="M224.6,135.5v-19.3h12.7v3.4h-8.9v4.5h7.6v3.4h-7.6v4.7h8.9v3.4H224.6z"/>
		<path class="st1" d="M246.4,135.7c-2.9,0-5.2-0.6-7-2.5l2.4-2.4c1.2,1.2,2.9,1.6,4.7,1.6c2.2,0,3.4-0.8,3.4-2.4
			c0-0.7-0.2-1.2-0.6-1.6c-0.4-0.4-0.8-0.5-1.7-0.7l-2.3-0.3c-1.7-0.2-2.9-0.8-3.7-1.6c-0.9-0.9-1.4-2.2-1.4-3.8
			c0-3.4,2.5-5.9,6.7-5.9c2.7,0,4.6,0.7,6.2,2.2l-2.4,2.4c-1.2-1.2-2.7-1.3-4-1.3c-2,0-3,1.1-3,2.4c0,0.5,0.2,1,0.6,1.4
			c0.4,0.4,1,0.7,1.8,0.8l2.3,0.3c1.8,0.2,2.9,0.7,3.7,1.5c1,1,1.5,2.4,1.5,4.1C253.5,133.6,250.4,135.7,246.4,135.7z"/>
	</g>
</g>
</svg>
