<?xml version="1.0" encoding="utf-8"?>
<!-- Generator: Adobe Illustrator 21.0.2, SVG Export Plug-In . SVG Version: 6.00 Build 0)  -->
<svg version="1.1" id="Layer_1" xmlns="http://www.w3.org/2000/svg" xmlns:xlink="http://www.w3.org/1999/xlink" x="0px" y="0px"
	 viewBox="0 0 317.6 317.6" style="enable-background:new 0 0 317.6 317.6;" xml:space="preserve">
<style type="text/css">
	.st0{fill:#FBC500;}
	.st1{fill:#FFFFFF;}
	.st2{fill:#A6183B;}
	.st3{fill:#EB611E;}
	.st4{fill:#DA025F;}
	.st5{fill:#F59D10;}
	.st6{fill:#C48E13;}
	.st7{fill:none;stroke:#FFFFFF;stroke-width:0.73;stroke-miterlimit:10;}
	.st8{fill:#DE1730;}
	.st9{fill:none;stroke:#FFFFFF;stroke-width:1.3067;stroke-linecap:round;stroke-miterlimit:10;}
	.st10{fill:#E1AA29;}
	.st11{fill:#C41722;}
	.st12{fill:#E6331F;}
	.st13{fill:#3BBBE4;}
	.st14{fill:#4B9B34;}
	.st15{fill:#F7F7F8;}
	.st16{fill:#39ABE2;}
	.st17{fill:#3E8EDE;}
	.st18{fill:#62B231;}
	.st19{fill:#E7B81A;}
	.st20{fill:#C31723;}
	.st21{fill:#499A35;}
	.st22{fill:#407E3D;}
	.st23{fill:#F9C400;}
	.st24{fill:#E6351D;}
	.st25{fill:#F59E12;}
	.st26{fill:#2494D2;}
	.st27{fill:#A5193C;}
	.st28{fill:#3ABAE3;}
	.st29{fill:#EB621F;}
	.st30{fill:#E01630;}
	.st31{fill:#D9045F;}
	.st32{fill:#1C4468;}
	.st33{fill:#CB9914;}
	.st34{fill:#04649B;}
	.st35{fill:#5FB130;}
	.st36{fill:#407D3C;}
	.st37{fill:#2496D3;}
	.st38{fill:#1E4468;}
	.st39{fill:#05639B;}
</style>
<g>
	<rect class="st8" width="317.6" height="317.6"/>
	<polygon class="st1" points="44.3,41.8 44.4,41.8 44.4,90.8 55.2,90.8 55.2,26.8 46.6,26.8 36.7,38.4 36.7,49.6 36.8,49.6 	"/>
	<g>
		<path class="st1" d="M244.6,151.5c0-4.9,3.9-8.8,8.8-8.8c4.8,0,8.8,3.9,8.8,8.8c0,4.9-3.9,8.8-8.8,8.8
			C248.5,160.3,244.6,156.4,244.6,151.5"/>
		<path class="st1" d="M263.6,163.7c6,0.5,10.6,5.6,10.6,11.7v2.9v1.3v20.2c0,1.9-1.5,3.4-3.4,3.4c-1.9,0-3.4-1.5-3.4-3.4v-20.9
			c0-0.8-0.2-1.8-1.7-1.8c-1,0-1.2,1.1-1.2,1.7v62.7c0,2.7-2.2,4.9-4.9,4.9c-2.7,0-4.9-2.2-4.9-4.9v-36.2c0-0.4-0.1-1.4-1.4-1.4h0
			c-1.2,0-1.4,1-1.4,1.4v36.2c0,2.7-2.2,4.9-4.9,4.9c-2.7,0-4.9-2.2-4.9-4.9v-62.7c0-0.7-0.2-1.7-1.2-1.7c-1.4,0-1.7,1.1-1.7,1.8
			v20.9c0,1.9-1.5,3.4-3.4,3.4c-1.9,0-3.4-1.5-3.4-3.4v-20.2v-1.3v-2.9c0-6.1,4.7-11.1,10.7-11.7c0.2,0,0.4-0.1,0.6-0.1h9.6h9.6
			C263.2,163.6,263.4,163.7,263.6,163.7"/>
	</g>
	<g>
		<path class="st1" d="M192.3,156.1c0-4.6-3.7-8.3-8.3-8.3c-4.6,0-8.3,3.7-8.3,8.3c0,4.6,3.7,8.3,8.3,8.3
			C188.6,164.5,192.3,160.7,192.3,156.1"/>
		<path class="st1" d="M167.2,175l-6.9,22.5c0,0-1.2,4.1,2.3,5.2c3.5,1,4.5-3,4.5-3l5.6-18.8c0,0,0.3-1.4,1.4-1.1
			c1.1,0.3,0.7,1.9,0.7,1.9l-9.7,35.2h9v25.2c0,2.4,1.9,4.3,4.3,4.3c2.4,0,4.3-1.9,4.3-4.3v-25.2h1.2h1.2v25.2
			c0,2.4,1.9,4.3,4.3,4.3c2.4,0,4.3-1.9,4.3-4.3v-25.2h9l-9.7-35.2c0,0-0.4-1.5,0.7-1.9c1.1-0.3,1.4,1.1,1.4,1.1l5.6,18.8
			c0,0,1.1,4,4.5,3c3.5-1,2.3-5.2,2.3-5.2l-6.9-22.5c0,0-2.5-6.5-7.9-6.5H184h-8.8C169.7,168.5,167.2,175,167.2,175"/>
	</g>
	<g>
		<path class="st1" d="M142.4,156.1c0-4.6-3.7-8.3-8.3-8.3c-4.6,0-8.3,3.7-8.3,8.3c0,4.6,3.7,8.3,8.3,8.3
			C138.7,164.5,142.4,160.7,142.4,156.1"/>
		<path class="st1" d="M117.3,175l-6.9,22.5c0,0-1.2,4.1,2.3,5.2c3.5,1,4.5-3,4.5-3l5.6-18.8c0,0,0.3-1.4,1.4-1.1
			c1.1,0.3,0.7,1.9,0.7,1.9l-9.7,35.2h9v25.2c0,2.4,2,4.3,4.3,4.3c2.4,0,4.3-1.9,4.3-4.3v-25.2h1.2h1.2v25.2c0,2.4,1.9,4.3,4.3,4.3
			c2.4,0,4.3-1.9,4.3-4.3v-25.2h9l-9.7-35.2c0,0-0.4-1.5,0.7-1.9c1.1-0.3,1.4,1.1,1.4,1.1l5.6,18.8c0,0,1.1,4,4.5,3
			c3.5-1,2.3-5.2,2.3-5.2l-6.9-22.5c0,0-2.5-6.5-7.9-6.5h-8.8h-8.8C119.8,168.5,117.3,175,117.3,175"/>
	</g>
	<g>
		<path class="st1" d="M220.3,202.7c3.8,0,6.9-3.1,6.9-6.9c0-3.8-3.1-6.9-6.9-6.9c-3.8,0-6.9,3.1-6.9,6.9
			C213.3,199.6,216.4,202.7,220.3,202.7"/>
		<path class="st1" d="M203.6,224.3c-0.3,0.8-0.6,2.5,1,3.3c1.9,0.9,3-1,3-1l3.8-12c0,0,0.7-0.8,0.7,0v28.3h0c0,2,1.6,3.6,3.6,3.6
			c2,0,3.6-1.6,3.6-3.6v-11.2c0,0-0.2-1.6,1.1-1.6c1.3,0,1.1,1.6,1.1,1.6v11.2c0,2,1.6,3.6,3.6,3.6c2,0,3.6-1.6,3.6-3.6v-28.3
			c0-0.8,0.4-0.2,0.4-0.2l3,8.2c0,0,1.3,3.7,1.7,3.8c1.3,0.6,2.9-0.1,3.4-1.4c0.4-0.9,0.2-1.8-0.3-2.5l0,0
			c-0.1-0.3-4.4-10.9-4.9-12.4c-1.6-4.6-4.4-4.5-7.1-4.6c-2.7-0.1-4.4,0-4.4,0s-1.7-0.1-5.4,0c-3.6,0.1-4.8,2-8.7,12.2
			C205.6,219.2,203.6,224,203.6,224.3L203.6,224.3z"/>
	</g>
	<g>
		<g>
			<path class="st1" d="M68.1,151.5c0-4.9-3.9-8.8-8.8-8.8c-4.9,0-8.8,3.9-8.8,8.8c0,4.9,3.9,8.8,8.8,8.8
				C64.1,160.3,68.1,156.4,68.1,151.5"/>
			<path class="st1" d="M49,163.7c-6,0.5-10.6,5.6-10.6,11.7v2.9v1.3v20.2c0,1.9,1.5,3.4,3.4,3.4c1.9,0,3.4-1.5,3.4-3.4v-20.9
				c0-0.8,0.2-1.8,1.7-1.8c1,0,1.2,1.1,1.2,1.7v62.7c0,2.7,2.2,4.9,4.9,4.9c2.7,0,4.9-2.2,4.9-4.9v-36.2c0-0.4,0.2-1.4,1.4-1.4h0
				c1.2,0,1.4,1,1.4,1.4v36.2c0,2.7,2.2,4.9,4.9,4.9c2.7,0,4.9-2.2,4.9-4.9v-62.7c0-0.7,0.3-1.7,1.2-1.7c1.4,0,1.7,1.1,1.7,1.8v20.9
				c0,1.9,1.5,3.4,3.4,3.4s3.4-1.5,3.4-3.4v-20.2v-1.3v-2.9c0-6.1-4.7-11.1-10.7-11.7c-0.2,0-0.4-0.1-0.6-0.1h-9.6h-9.6
				C49.4,163.6,49.2,163.7,49,163.7"/>
		</g>
		<line class="st9" x1="41.3" y1="203.3" x2="33.5" y2="244.7"/>
	</g>
	<g>
		<path class="st1" d="M84.4,199.1c-0.5-0.7-1.2-1.2-2.1-1.2c-1.4,0-2.5,1.1-2.5,2.5c0,0.4,0.2,1.1,0.2,1.1l7,12.6
			c0,0,0.4,0.9,0.4,1.7V243h0c0,1.9,1.5,3.4,3.4,3.4c1.9,0,3.4-1.5,3.4-3.4v-10.7c0,0-0.2-1.5,1-1.5c1.2,0,1,1.5,1,1.5V243
			c0,1.9,1.5,3.4,3.4,3.4c1.9,0,3.4-1.5,3.4-3.4v-27.1c0-0.8,0.4-1.7,0.4-1.7l6.5-11.7c0,0,0.8-1.7,0.8-2.1c0-1.4-1.1-2.5-2.5-2.5
			c-0.9,0-1.7,0.5-2.1,1.2l0,0c-0.2,0.2-3.4,5.9-4.5,7c-1.1,1.1-2.1,1-2.1,1h-4.2H91c0,0-1,0.1-2.1-1
			C87.8,205,84.6,199.3,84.4,199.1L84.4,199.1z"/>
		<path class="st1" d="M95.2,202.7c3.8,0,6.9-3.1,6.9-6.9c0-3.8-3.1-6.9-6.9-6.9c-3.8,0-6.9,3.1-6.9,6.9
			C88.3,199.6,91.4,202.7,95.2,202.7"/>
		<polygon class="st1" points="95.2,212.5 103.1,218.2 106.8,231.9 95.2,231.9 83.7,231.9 87.4,218.2 		"/>
	</g>
	<g>
		<path class="st1" d="M94.7,35.8v16.8h-3.8V25.9h4.4l4.9,15.4V25.9h3.8v26.8h-3.9L94.7,35.8z"/>
		<path class="st1" d="M106.5,45.7V32.8c0-4.2,2.1-7.2,6.8-7.2c4.8,0,6.8,3,6.8,7.2v12.9c0,4.1-2.1,7.2-6.8,7.2
			C108.5,52.9,106.5,49.9,106.5,45.7z M115.6,46.4V32.1c0-1.6-0.7-2.8-2.3-2.8c-1.6,0-2.3,1.1-2.3,2.8v14.4c0,1.6,0.7,2.8,2.3,2.8
			C114.9,49.2,115.6,48,115.6,46.4z"/>
		<path class="st1" d="M90.9,63.4h6.7c4.5,0,6.2,2.3,6.2,6V75c0,3.8-1.7,6-6.2,6h-2.2v9.1h-4.5V63.4z M95.4,67v10.5H97
			c1.5,0,2.2-0.7,2.2-2.2v-6.2c0-1.5-0.7-2.2-2.2-2.2H95.4z"/>
		<path class="st1" d="M106.1,83.2V70.3c0-4.2,2.1-7.2,6.8-7.2c4.8,0,6.8,3,6.8,7.2v12.9c0,4.1-2.1,7.2-6.8,7.2
			C108.1,90.4,106.1,87.4,106.1,83.2z M115.2,83.9V69.5c0-1.6-0.7-2.8-2.3-2.8c-1.6,0-2.3,1.1-2.3,2.8v14.4c0,1.6,0.7,2.8,2.3,2.8
			C114.5,86.7,115.2,85.5,115.2,83.9z"/>
		<path class="st1" d="M135.9,63.4l-5.1,26.8h-4.9l-5.1-26.8h4.6l3.1,18.7h0l3.2-18.7H135.9z"/>
		<path class="st1" d="M137.7,63.4h10.7V67h-6.2v7.7h4.5v3.6h-4.5v8.1h6.2v3.7h-10.7V63.4z"/>
		<path class="st1" d="M155.4,77.8v12.3h-4.5V63.4h6.6c4.5,0,6.2,2.3,6.2,6v3.4c0,2.9-1,4.6-3.6,5.2l4.3,12.2h-4.7L155.4,77.8z
			 M155.4,67v8.3h1.5c1.5,0,2.2-0.8,2.2-2.2v-3.9c0-1.5-0.7-2.2-2.2-2.2H155.4z"/>
		<path class="st1" d="M165.2,63.4h12V67h-3.7v23.1h-4.5V67h-3.7V63.4z"/>
		<path class="st1" d="M188,79.9v10.2h-4.5V79.9l-5-16.6h4.7l2.7,10.1h0l2.7-10.1h4.3L188,79.9z"/>
	</g>
</g>
</svg>
