<?xml version="1.0" encoding="utf-8"?>
<!-- Generator: Adobe Illustrator 21.0.2, SVG Export Plug-In . SVG Version: 6.00 Build 0)  -->
<svg version="1.1" id="Layer_1" xmlns="http://www.w3.org/2000/svg" xmlns:xlink="http://www.w3.org/1999/xlink" x="0px" y="0px"
	 viewBox="0 0 317.6 317.6" style="enable-background:new 0 0 317.6 317.6;" xml:space="preserve">
<style type="text/css">
	.st0{fill:#FBC500;}
	.st1{fill:#FFFFFF;}
	.st2{fill:#A6183B;}
	.st3{fill:#EB611E;}
	.st4{fill:#DA025F;}
	.st5{fill:#F59D10;}
	.st6{fill:#C48E13;}
	.st7{fill:none;stroke:#FFFFFF;stroke-width:0.73;stroke-miterlimit:10;}
	.st8{fill:#DE1730;}
	.st9{fill:none;stroke:#FFFFFF;stroke-width:1.3067;stroke-linecap:round;stroke-miterlimit:10;}
	.st10{fill:#E1AA29;}
	.st11{fill:#C41722;}
	.st12{fill:#E6331F;}
	.st13{fill:#3BBBE4;}
	.st14{fill:#4B9B34;}
	.st15{fill:#F7F7F8;}
	.st16{fill:#39ABE2;}
	.st17{fill:#3E8EDE;}
	.st18{fill:#62B231;}
	.st19{fill:#E7B81A;}
	.st20{fill:#C31723;}
	.st21{fill:#499A35;}
	.st22{fill:#407E3D;}
	.st23{fill:#F9C400;}
	.st24{fill:#E6351D;}
	.st25{fill:#F59E12;}
	.st26{fill:#2494D2;}
	.st27{fill:#A5193C;}
	.st28{fill:#3ABAE3;}
	.st29{fill:#EB621F;}
	.st30{fill:#E01630;}
	.st31{fill:#D9045F;}
	.st32{fill:#1C4468;}
	.st33{fill:#CB9914;}
	.st34{fill:#04649B;}
	.st35{fill:#5FB130;}
	.st36{fill:#407D3C;}
	.st37{fill:#2496D3;}
	.st38{fill:#1E4468;}
	.st39{fill:#05639B;}
</style>
<g>
	<rect y="0" class="st6" width="317.6" height="317.6"/>
	<polygon class="st1" points="31.7,41.7 31.8,41.7 31.8,90.8 42.6,90.8 42.6,26.7 34,26.7 24.1,38.3 24.1,49.6 24.1,49.6 	"/>
	<path class="st1" d="M49,39.9v7.7h9.8v-8c0-3.9,1.9-5,4.2-5c2.1,0,3.9,0.8,3.9,4.8v5.3c0,5.3-0.5,7.4-4,11.1l-6,6.4
		c-5.9,6.2-8,10.4-8,16.7v11.8h28V82H59.1v-3c0-5,1.8-6.9,4.5-9.8l6.9-7.3c5.6-5.9,6.8-9.7,6.8-16.2v-6.2c0-9.2-4.4-13.5-14.1-13.5
		C53.8,26,49,31,49,39.9"/>
	<path class="st1" d="M239.4,164.8c-14-11.1-32.6-11.3-39.4-9.7l-0.8,0.2c-7.9,1.9-20.3,4.9-35,23.1c-0.1,0.1-0.2,0.2-0.2,0.3
		l-0.2,0.2c-0.1,0.2-0.2,0.4-0.2,0.7c0,0.2,0.1,0.4,0.2,0.6l0.3,0.6c1.8,3.1,4.1,7,6.1,10.7c0,0,0,0.1,0.1,0.1
		c0.2,0.4,0.6,0.7,1.1,0.7c0.3,0,0.6-0.1,0.9-0.4c0.1-0.1,0.2-0.2,0.3-0.4c13-17.9,23.2-20.4,30.1-22l0.8-0.2c3.6-0.9,17.2-0.8,27,7
		c7.7,6.1,11.6,15.7,11.6,28.6c0,21.7-10.6,30.2-19.4,33.5c-13.7,5.1-26.9-1.7-27-1.8l-0.6-0.3c-7.5-3.3-18.8-10.1-29.4-31.4
		c-21.4-42.9-39.3-47-51.1-49.7l-0.6-0.1c-5.4-1.2-24.1-2.1-38.8,9.7c-7.7,6.1-16.8,18.1-16.8,40c0,13.4,2.7,22.2,9.8,31.5
		c1.5,2.1,17.4,22.5,48,16.6c4.9-0.9,11.5-3.3,18.8-8.7l6.7,6.1c0.4,0.4,1.1,0.4,1.5-0.1c0.2-0.2,0.3-0.5,0.3-0.7v-0.1l4.9-29.9
		l0-0.3c0-0.3-0.1-0.6-0.4-0.8c-0.2-0.2-0.5-0.3-0.7-0.3l-0.2,0l-0.3,0l-28.6,8l-0.5,0.1c-0.2,0-0.4,0.2-0.5,0.3
		c-0.4,0.5-0.4,1.1,0.1,1.6l0.3,0.3l6.4,5.8c-4.1,2.7-7.8,3.9-10.5,4.4c-22.1,4.2-33.1-10.3-33.5-10.9l-0.2-0.2
		c-5.1-6.8-6.9-12.5-6.9-22.8c0-13,3.8-22.6,11.4-28.6c9.6-7.6,22.8-7.7,26.5-6.8l0.6,0.1c9.7,2.2,23,5.2,41.3,42
		c9.5,19.1,21.4,31.6,36.4,38.1c1.9,1,11,5.3,22.8,5.3c4.9,0,10.3-0.8,15.9-2.8c8.7-3.2,28.9-14.3,28.9-47.2
		C256.5,182.9,247.2,170.9,239.4,164.8"/>
	<path class="st7" d="M239.4,164.8c-14-11.1-32.6-11.3-39.4-9.7l-0.8,0.2c-7.9,1.9-20.3,4.9-35,23.1c-0.1,0.1-0.2,0.2-0.2,0.3
		l-0.2,0.2c-0.1,0.2-0.2,0.4-0.2,0.7c0,0.2,0.1,0.4,0.2,0.6l0.3,0.6c1.8,3.1,4.1,7,6.1,10.7c0,0,0,0.1,0.1,0.1
		c0.2,0.4,0.6,0.7,1.1,0.7c0.3,0,0.6-0.1,0.9-0.4c0.1-0.1,0.2-0.2,0.3-0.4c13-17.9,23.2-20.4,30.1-22l0.8-0.2c3.6-0.9,17.2-0.8,27,7
		c7.7,6.1,11.6,15.7,11.6,28.6c0,21.7-10.6,30.2-19.4,33.5c-13.7,5.1-26.9-1.7-27-1.8l-0.6-0.3c-7.5-3.3-18.8-10.1-29.4-31.4
		c-21.4-42.9-39.3-47-51.1-49.7l-0.6-0.1c-5.4-1.2-24.1-2.1-38.8,9.7c-7.7,6.1-16.8,18.1-16.8,40c0,13.4,2.7,22.2,9.8,31.5
		c1.5,2.1,17.4,22.5,48,16.6c4.9-0.9,11.5-3.3,18.8-8.7l6.7,6.1c0.4,0.4,1.1,0.4,1.5-0.1c0.2-0.2,0.3-0.5,0.3-0.7v-0.1l4.9-29.9
		l0-0.3c0-0.3-0.1-0.6-0.4-0.8c-0.2-0.2-0.5-0.3-0.7-0.3l-0.2,0l-0.3,0l-28.6,8l-0.5,0.1c-0.2,0-0.4,0.2-0.5,0.3
		c-0.4,0.5-0.4,1.1,0.1,1.6l0.3,0.3l6.4,5.8c-4.1,2.7-7.8,3.9-10.5,4.4c-22.1,4.2-33.1-10.3-33.5-10.9l-0.2-0.2
		c-5.1-6.8-6.9-12.5-6.9-22.8c0-13,3.8-22.6,11.4-28.6c9.6-7.6,22.8-7.7,26.5-6.8l0.6,0.1c9.7,2.2,23,5.2,41.3,42
		c9.5,19.1,21.4,31.6,36.4,38.1c1.9,1,11,5.3,22.8,5.3c4.9,0,10.3-0.8,15.9-2.8c8.7-3.2,28.9-14.3,28.9-47.2
		C256.5,182.9,247.2,170.9,239.4,164.8"/>
	<g>
		<path class="st1" d="M106.5,41.2v12.3H102V26.7h6.6c4.5,0,6.2,2.3,6.2,6v3.4c0,2.9-1,4.6-3.6,5.2l4.3,12.2h-4.7L106.5,41.2z
			 M106.5,30.4v8.3h1.5c1.5,0,2.2-0.8,2.2-2.2v-3.9c0-1.5-0.7-2.2-2.2-2.2H106.5z"/>
		<path class="st1" d="M116.7,26.7h10.7v3.7h-6.2V38h4.5v3.6h-4.5v8.1h6.2v3.7h-10.7V26.7z"/>
		<path class="st1" d="M128.8,47.7v-3.6h4.2v3.7c0,1.5,0.7,2.4,2.2,2.4c1.4,0,2.1-0.9,2.1-2.4v-1c0-1.5-0.6-2.5-2-3.8l-2.6-2.6
			c-2.6-2.5-3.8-4.1-3.8-7.1v-0.9c0-3.3,1.9-5.9,6.3-5.9c4.5,0,6.3,2.2,6.3,6.1v2.2h-4.1v-2.3c0-1.5-0.7-2.3-2.1-2.3
			c-1.3,0-2.1,0.7-2.1,2.2v0.6c0,1.5,0.8,2.4,2.1,3.6l2.9,2.8c2.4,2.5,3.6,4,3.6,6.9v1.3c0,3.7-2,6.3-6.6,6.3
			C130.6,53.8,128.8,51.2,128.8,47.7z"/>
		<path class="st1" d="M143.5,26.7h6.7c4.5,0,6.2,2.3,6.2,6v5.6c0,3.8-1.7,6-6.2,6H148v9.1h-4.5V26.7z M148,30.4v10.5h1.7
			c1.5,0,2.2-0.7,2.2-2.2v-6.2c0-1.5-0.7-2.2-2.2-2.2H148z"/>
		<path class="st1" d="M158.2,46.5V33.6c0-4.2,2.1-7.2,6.8-7.2c4.8,0,6.8,3,6.8,7.2v12.9c0,4.1-2.1,7.2-6.8,7.2
			C160.2,53.8,158.2,50.7,158.2,46.5z M167.3,47.3V32.9c0-1.6-0.7-2.8-2.3-2.8c-1.6,0-2.3,1.1-2.3,2.8v14.4c0,1.6,0.7,2.8,2.3,2.8
			C166.6,50,167.3,48.9,167.3,47.3z"/>
		<path class="st1" d="M177.6,36.6v16.8h-3.8V26.7h4.4l4.9,15.4V26.7h3.8v26.8h-3.9L177.6,36.6z"/>
		<path class="st1" d="M188.6,47.7v-3.6h4.2v3.7c0,1.5,0.7,2.4,2.2,2.4c1.4,0,2.1-0.9,2.1-2.4v-1c0-1.5-0.6-2.5-2-3.8l-2.6-2.6
			c-2.6-2.5-3.8-4.1-3.8-7.1v-0.9c0-3.3,1.9-5.9,6.3-5.9c4.5,0,6.3,2.2,6.3,6.1v2.2h-4.1v-2.3c0-1.5-0.7-2.3-2.1-2.3
			c-1.3,0-2.1,0.7-2.1,2.2v0.6c0,1.5,0.8,2.4,2.1,3.6l2.9,2.8c2.4,2.5,3.6,4,3.6,6.9v1.3c0,3.7-2,6.3-6.6,6.3
			C190.4,53.8,188.6,51.2,188.6,47.7z"/>
		<path class="st1" d="M203.3,26.7h4.5v26.8h-4.5V26.7z"/>
		<path class="st1" d="M209.9,26.7h6.5c4.5,0,6,2.1,6,5.9v2.7c0,2.3-0.8,3.7-2.7,4.3c2.3,0.5,3.4,2,3.4,4.5v3.6
			c0,3.8-1.7,5.9-6.2,5.9h-7V26.7z M214.4,38h1.6c1.5,0,2.1-0.7,2.1-2.2v-3.3c0-1.5-0.7-2.2-2.2-2.2h-1.5V38z M214.4,41.4v8.4h2
			c1.5,0,2.2-0.8,2.2-2.2v-4c0-1.4-0.7-2.2-2.3-2.2H214.4z"/>
		<path class="st1" d="M224.8,26.7h4.5v23.1h5.4v3.7h-9.9V26.7z"/>
		<path class="st1" d="M236.1,26.7h10.7v3.7h-6.2V38h4.5v3.6h-4.5v8.1h6.2v3.7h-10.7V26.7z"/>
		<path class="st1" d="M102,84V71.1c0-4.2,2-7.2,6.7-7.2c5,0,6.4,2.8,6.4,6.7v3.2H111v-3.5c0-1.7-0.6-2.6-2.2-2.6
			c-1.6,0-2.3,1.1-2.3,2.8v14.4c0,1.6,0.7,2.8,2.3,2.8c1.6,0,2.2-1,2.2-2.6V80h4.1v4.6c0,3.8-1.6,6.7-6.4,6.7
			C104,91.3,102,88.2,102,84z"/>
		<path class="st1" d="M117,84V71.1c0-4.2,2.1-7.2,6.8-7.2c4.8,0,6.8,3,6.8,7.2V84c0,4.1-2.1,7.2-6.8,7.2C119,91.3,117,88.2,117,84z
			 M126.1,84.8V70.4c0-1.6-0.7-2.8-2.3-2.8c-1.6,0-2.3,1.1-2.3,2.8v14.4c0,1.6,0.7,2.8,2.3,2.8C125.4,87.5,126.1,86.4,126.1,84.8z"
			/>
		<path class="st1" d="M136.4,74.1v16.8h-3.8V64.2h4.4l4.9,15.4V64.2h3.8v26.8h-3.9L136.4,74.1z"/>
		<path class="st1" d="M147.4,85.2v-3.6h4.2v3.7c0,1.5,0.7,2.4,2.2,2.4c1.4,0,2.1-0.9,2.1-2.4v-1c0-1.5-0.6-2.5-2-3.8l-2.6-2.6
			c-2.6-2.5-3.8-4.1-3.8-7.1v-0.9c0-3.3,1.9-5.9,6.3-5.9c4.5,0,6.3,2.2,6.3,6.1v2.2h-4.1v-2.3c0-1.5-0.7-2.3-2.1-2.3
			c-1.3,0-2.1,0.7-2.1,2.2v0.6c0,1.5,0.8,2.4,2.1,3.6l2.9,2.8c2.4,2.5,3.6,4,3.6,6.9V85c0,3.7-2,6.3-6.6,6.3
			C149.2,91.3,147.4,88.7,147.4,85.2z"/>
		<path class="st1" d="M175.2,64.2v20.3c0,4.1-1.8,6.8-6.4,6.8c-4.7,0-6.7-2.7-6.7-6.8V64.2h4.5v20.7c0,1.6,0.6,2.6,2.2,2.6
			c1.6,0,2.2-1.1,2.2-2.6V64.2H175.2z"/>
		<path class="st1" d="M189.6,73.6h-0.1l-3,17.4h-2.1L181,73.6h-0.1v17.4h-3.7V64.2h5.3l2.9,15.1h0l2.6-15.1h5.7v26.8h-4.1V73.6z"/>
		<path class="st1" d="M195.7,64.2h6.7c4.5,0,6.2,2.3,6.2,6v5.6c0,3.8-1.7,6-6.2,6h-2.2v9.1h-4.5V64.2z M200.2,67.9v10.5h1.7
			c1.5,0,2.2-0.7,2.2-2.2V70c0-1.5-0.7-2.2-2.2-2.2H200.2z"/>
		<path class="st1" d="M209.7,64.2h12v3.7h-3.7v23.1h-4.5V67.9h-3.7V64.2z"/>
		<path class="st1" d="M223.2,64.2h4.5v26.8h-4.5V64.2z"/>
		<path class="st1" d="M229.7,84V71.1c0-4.2,2.1-7.2,6.8-7.2c4.8,0,6.8,3,6.8,7.2V84c0,4.1-2.1,7.2-6.8,7.2
			C231.8,91.3,229.7,88.2,229.7,84z M238.8,84.8V70.4c0-1.6-0.7-2.8-2.3-2.8c-1.6,0-2.3,1.1-2.3,2.8v14.4c0,1.6,0.7,2.8,2.3,2.8
			C238.1,87.5,238.8,86.4,238.8,84.8z"/>
		<path class="st1" d="M249.1,74.1v16.8h-3.8V64.2h4.4l4.9,15.4V64.2h3.8v26.8h-3.9L249.1,74.1z"/>
		<path class="st1" d="M101.3,128.4l5.1-26.8h5.1l5.1,26.8H112l-0.8-4.9h-4.8l-0.8,4.9H101.3z M107,120h3.6l-1.8-10.7h0L107,120z"/>
		<path class="st1" d="M121.7,111.6v16.8h-3.8v-26.8h4.4l4.9,15.4v-15.4h3.8v26.8H127L121.7,111.6z"/>
		<path class="st1" d="M146.4,108.9v12.4c0,4.1-1.7,7.2-6.5,7.2h-6.9v-26.8h6.9C144.7,101.7,146.4,104.7,146.4,108.9z M139.3,124.8
			c1.9,0,2.6-1.1,2.6-2.7v-14c0-1.6-0.7-2.7-2.6-2.7h-1.9v19.4H139.3z"/>
		<path class="st1" d="M152,101.7h6.7c4.5,0,6.2,2.3,6.2,6v5.6c0,3.8-1.7,6-6.2,6h-2.2v9.1H152V101.7z M156.5,105.4v10.5h1.7
			c1.5,0,2.2-0.7,2.2-2.2v-6.2c0-1.5-0.7-2.2-2.2-2.2H156.5z"/>
		<path class="st1" d="M171.1,116.2v12.3h-4.5v-26.8h6.6c4.5,0,6.2,2.3,6.2,6v3.4c0,2.9-1,4.6-3.6,5.2l4.3,12.2h-4.7L171.1,116.2z
			 M171.1,105.4v8.3h1.5c1.5,0,2.2-0.8,2.2-2.2v-3.9c0-1.5-0.7-2.2-2.2-2.2H171.1z"/>
		<path class="st1" d="M181.3,121.5v-12.9c0-4.2,2.1-7.2,6.8-7.2c4.8,0,6.8,3,6.8,7.2v12.9c0,4.1-2.1,7.2-6.8,7.2
			C183.3,128.8,181.3,125.7,181.3,121.5z M190.4,122.2v-14.4c0-1.6-0.7-2.8-2.3-2.8c-1.6,0-2.3,1.1-2.3,2.8v14.4
			c0,1.6,0.7,2.8,2.3,2.8C189.7,125,190.4,123.9,190.4,122.2z"/>
		<path class="st1" d="M210.4,108.9v12.4c0,4.1-1.7,7.2-6.5,7.2h-6.9v-26.8h6.9C208.7,101.7,210.4,104.7,210.4,108.9z M203.3,124.8
			c1.9,0,2.6-1.1,2.6-2.7v-14c0-1.6-0.7-2.7-2.6-2.7h-1.9v19.4H203.3z"/>
		<path class="st1" d="M225.4,101.7v20.3c0,4.1-1.8,6.8-6.4,6.8c-4.7,0-6.7-2.7-6.7-6.8v-20.3h4.5v20.7c0,1.6,0.6,2.6,2.2,2.6
			c1.6,0,2.2-1.1,2.2-2.6v-20.7H225.4z"/>
		<path class="st1" d="M227.5,121.5v-12.9c0-4.2,2-7.2,6.7-7.2c5,0,6.4,2.8,6.4,6.7v3.2h-4.1v-3.5c0-1.7-0.6-2.6-2.2-2.6
			s-2.3,1.1-2.3,2.8v14.4c0,1.6,0.7,2.8,2.3,2.8s2.2-1,2.2-2.6v-4.9h4.1v4.6c0,3.8-1.6,6.7-6.4,6.7
			C229.4,128.8,227.5,125.7,227.5,121.5z"/>
		<path class="st1" d="M241.5,101.7h12v3.7h-3.7v23.1h-4.5v-23.1h-3.7V101.7z"/>
		<path class="st1" d="M255,101.7h4.5v26.8H255V101.7z"/>
		<path class="st1" d="M261.6,121.5v-12.9c0-4.2,2.1-7.2,6.8-7.2c4.8,0,6.8,3,6.8,7.2v12.9c0,4.1-2.1,7.2-6.8,7.2
			C263.6,128.8,261.6,125.7,261.6,121.5z M270.7,122.2v-14.4c0-1.6-0.7-2.8-2.3-2.8c-1.6,0-2.3,1.1-2.3,2.8v14.4
			c0,1.6,0.7,2.8,2.3,2.8C270,125,270.7,123.9,270.7,122.2z"/>
		<path class="st1" d="M281,111.6v16.8h-3.8v-26.8h4.4l4.9,15.4v-15.4h3.8v26.8h-3.9L281,111.6z"/>
	</g>
</g>
</svg>
