<?xml version="1.0" encoding="utf-8"?>
<!-- Generator: Adobe Illustrator 21.0.2, SVG Export Plug-In . SVG Version: 6.00 Build 0)  -->
<svg version="1.1" id="Layer_1" xmlns="http://www.w3.org/2000/svg" xmlns:xlink="http://www.w3.org/1999/xlink" x="0px" y="0px"
	 viewBox="0 0 317.6 317.6" style="enable-background:new 0 0 317.6 317.6;" xml:space="preserve">
<style type="text/css">
	.st0{fill:#DD172F;}
	.st1{fill:#FFFFFF;}
	.st2{fill:none;stroke:#FFFFFF;stroke-width:1.3067;stroke-linecap:round;stroke-miterlimit:10;}
	.st3{fill:#E0A928;}
	.st4{fill:#499935;}
	.st5{fill:#C31922;}
	.st6{fill:#E53321;}
	.st7{fill:#38BAE3;}
	.st8{fill:#FAC400;}
	.st9{fill:#A5183B;}
	.st10{fill:#E9611D;}
	.st11{fill:#D9055F;}
	.st12{fill:#F59C12;}
	.st13{fill:#C38C12;}
	.st14{fill:none;stroke:#FFFFFF;stroke-width:0.73;stroke-miterlimit:10;}
	.st15{fill:#3F7C3C;}
	.st16{fill:#2593D2;}
	.st17{fill:#5EB032;}
	.st18{fill:#00639B;}
	.st19{fill:#1D4467;}
	.st20{fill:#EFEFEF;}
	.st21{fill:#010202;}
	.st22{fill:#61B032;}
	.st23{fill:#E6B719;}
	.st24{fill:#C21822;}
	.st25{fill:#489935;}
	.st26{fill:#3F7E3C;}
	.st27{fill:#F8C300;}
	.st28{fill:#E4351F;}
	.st29{fill:#F59C13;}
	.st30{fill:#2691D0;}
	.st31{fill:#A4193C;}
	.st32{fill:#37B9E2;}
	.st33{fill:#E9611F;}
	.st34{fill:#DF1531;}
	.st35{fill:#D80560;}
	.st36{fill:#1B4367;}
	.st37{fill:#CA9811;}
	.st38{fill:#00659A;}
</style>
<g>
	<rect y="0" class="st8" width="317.6" height="317.6"/>
	<polygon class="st1" points="24.4,35.4 41.1,35.4 26.7,90.6 37.4,90.6 51.4,36.5 51.4,26.6 24.4,26.6 	"/>
	<path class="st1" d="M162.4,165.3c-23.4,0-42.3,19-42.3,42.3c0,23.4,19,42.3,42.3,42.3s42.3-19,42.3-42.3
		C204.8,184.3,185.8,165.3,162.4,165.3 M159.3,182.1c0-1.4,1.4-3,3.2-3c1.7,0,3.1,1.6,3.1,3v14.5c0,1.4-1.4,2.9-3.1,2.9
		c-1.7,0-3.2-1.5-3.2-2.9V182.1z M162.5,229.4c-12.2,0-22-9.9-22-22c0-9.9,6.5-18.2,15.5-21v8.2c-4.7,2.4-7.9,7.2-7.9,12.8
		c0,8,6.5,14.4,14.4,14.4c8,0,14.4-6.5,14.4-14.4c0-5.6-3.2-10.5-7.9-12.9v-8.2c9,2.8,15.5,11.1,15.5,21
		C184.5,219.5,174.6,229.4,162.5,229.4"/>
	<path class="st1" d="M113.8,207.3c0-1.9-1.7-3.5-3.3-3.5H92c-1.6,0-3.3,1.6-3.3,3.5c0,1.9,1.7,3.5,3.3,3.5h18.5
		C112.1,210.8,113.8,209.2,113.8,207.3"/>
	<path class="st1" d="M236.2,207.3c0-1.9-1.7-3.5-3.3-3.5h-18.5c-1.6,0-3.3,1.6-3.3,3.5c0,1.9,1.7,3.5,3.3,3.5h18.5
		C234.5,210.8,236.2,209.2,236.2,207.3"/>
	<path class="st1" d="M162.5,158.7c1.9,0,3.5-1.7,3.5-3.3v-18.5c0-1.6-1.6-3.3-3.5-3.3c-1.9,0-3.5,1.7-3.5,3.3v18.5
		C159,157,160.5,158.7,162.5,158.7"/>
	<path class="st1" d="M162.5,281c1.9,0,3.5-1.7,3.5-3.3v-18.5c0-1.6-1.6-3.3-3.5-3.3c-1.9,0-3.5,1.7-3.5,3.3v18.5
		C159,279.3,160.5,281,162.5,281"/>
	<path class="st1" d="M120.3,183.2c1-1.7,0.3-3.9-1.1-4.6l-16.1-9.2c-1.4-0.8-3.6-0.3-4.6,1.4c-1,1.7-0.2,3.9,1.1,4.7l16.1,9.2
		C117.1,185.4,119.3,184.8,120.3,183.2"/>
	<path class="st1" d="M226.4,243.9c1-1.7,0.2-3.9-1.1-4.6l-16.1-9.2c-1.4-0.8-3.6-0.3-4.6,1.4c-1,1.7-0.2,3.9,1.1,4.7l16.1,9.2
		C223.2,246.1,225.5,245.6,226.4,243.9"/>
	<path class="st1" d="M186.6,165.1c1.7,1,3.9,0.2,4.6-1.1l9.2-16.1c0.8-1.4,0.3-3.6-1.4-4.6c-1.7-1-3.9-0.2-4.7,1.1l-9.2,16.1
		C184.4,161.9,184.9,164.2,186.6,165.1"/>
	<path class="st1" d="M125.9,271.3c1.7,1,3.9,0.2,4.6-1.1l9.2-16.1c0.8-1.4,0.3-3.6-1.4-4.6c-1.7-1-3.9-0.2-4.7,1.1l-9.2,16.1
		C123.7,268.1,124.2,270.3,125.9,271.3"/>
	<path class="st1" d="M138.2,165.2c1.7-1,2.2-3.2,1.4-4.6l-9.2-16.1c-0.8-1.4-3-2.1-4.6-1.1c-1.7,1-2.2,3.2-1.4,4.6l9.2,16.1
		C134.4,165.4,136.6,166.1,138.2,165.2"/>
	<path class="st1" d="M199.2,271.2c1.7-1,2.2-3.2,1.4-4.6l-9.2-16.1c-0.8-1.4-3-2.1-4.6-1.1c-1.7,1-2.2,3.2-1.4,4.6l9.2,16.1
		C195.3,271.5,197.5,272.2,199.2,271.2"/>
	<path class="st1" d="M204.6,183.1c1,1.7,3.2,2.2,4.6,1.4l16.1-9.2c1.4-0.8,2.1-3,1.1-4.6c-1-1.7-3.2-2.2-4.6-1.4l-16.1,9.2
		C204.3,179.2,203.6,181.4,204.6,183.1"/>
	<path class="st1" d="M98.6,244.1c1,1.7,3.2,2.2,4.6,1.4l16.1-9.2c1.4-0.8,2.1-3,1.1-4.6c-1-1.7-3.2-2.2-4.6-1.4l-16.1,9.2
		C98.3,240.2,97.6,242.4,98.6,244.1"/>
	<g>
		<path class="st1" d="M81.7,45.9l-3.8-7.7h-2.7v7.7h-3.8V26.6H79c3.9,0,6.3,2.7,6.3,5.9c0,2.7-1.7,4.4-3.5,5.1l4.3,8.3H81.7z
			 M78.8,30h-3.5v5.1h3.5c1.7,0,2.7-1.1,2.7-2.5C81.5,31,80.4,30,78.8,30z"/>
		<path class="st1" d="M89.2,45.9V26.6h12.7V30H93v4.5h7.6v3.4H93v4.7h8.9v3.4H89.2z"/>
		<path class="st1" d="M112,46.1c-2.1,0-3.8-0.8-5.2-2.1c-2-2-1.9-4.4-1.9-7.7s-0.1-5.7,1.9-7.7c1.4-1.4,3.1-2.1,5.2-2.1
			c3.6,0,6.4,2.1,7.1,6.1h-3.8c-0.4-1.5-1.4-2.7-3.3-2.7c-1,0-1.9,0.4-2.4,1c-0.7,0.8-0.9,1.7-0.9,5.4s0.2,4.6,0.9,5.4
			c0.5,0.6,1.4,1,2.4,1c1.9,0,2.9-1.2,3.3-2.7h3.8C118.5,44,115.6,46.1,112,46.1z"/>
		<path class="st1" d="M134.1,44c-1.4,1.4-3,2.1-5.2,2.1c-2.2,0-3.9-0.8-5.2-2.1c-1.9-2-1.9-4.4-1.9-7.7s-0.1-5.7,1.9-7.7
			c1.4-1.4,3-2.1,5.2-2.1c2.2,0,3.9,0.8,5.2,2.1c2,2,1.9,4.4,1.9,7.7S136.1,42,134.1,44z M131.3,30.9c-0.5-0.6-1.4-1-2.4-1
			c-1,0-1.9,0.4-2.4,1c-0.7,0.8-0.9,1.7-0.9,5.4s0.2,4.6,0.9,5.4c0.5,0.6,1.4,1,2.4,1c1,0,1.9-0.4,2.4-1c0.7-0.8,0.9-1.7,0.9-5.4
			S132,31.7,131.3,30.9z"/>
		<path class="st1" d="M146.7,46.1c-4,0-7.1-2.7-7.1-6.8V26.6h3.8v12.6c0,2.2,1.3,3.6,3.3,3.6c2,0,3.4-1.3,3.4-3.6V26.6h3.7v12.7
			C153.8,43.4,150.7,46.1,146.7,46.1z"/>
		<path class="st1" d="M168.3,45.9l-3.8-7.7h-2.7v7.7H158V26.6h7.6c3.9,0,6.3,2.7,6.3,5.9c0,2.7-1.7,4.4-3.5,5.1l4.3,8.3H168.3z
			 M165.3,30h-3.5v5.1h3.5c1.7,0,2.7-1.1,2.7-2.5C168.1,31,167,30,165.3,30z"/>
		<path class="st1" d="M181.1,46.1c-2.9,0-5.2-0.6-7-2.5l2.4-2.4c1.2,1.2,2.9,1.6,4.7,1.6c2.2,0,3.4-0.8,3.4-2.4
			c0-0.7-0.2-1.2-0.6-1.6c-0.4-0.4-0.8-0.5-1.7-0.7l-2.3-0.3c-1.7-0.2-2.9-0.8-3.7-1.6c-0.9-0.9-1.4-2.2-1.4-3.8
			c0-3.4,2.5-5.9,6.7-5.9c2.7,0,4.6,0.7,6.2,2.3l-2.4,2.4c-1.2-1.2-2.7-1.3-4-1.3c-2,0-3,1.1-3,2.4c0,0.5,0.2,1,0.6,1.4
			c0.4,0.4,1,0.7,1.8,0.8l2.3,0.3c1.8,0.2,2.9,0.7,3.7,1.5c1,1,1.5,2.4,1.5,4.1C188.2,44,185.1,46.1,181.1,46.1z"/>
		<path class="st1" d="M209.1,45.9l-1.1-3.4h-6.9l-1.2,3.4H196l7-19.3h3l7,19.3H209.1z M204.6,32.3l-2.4,7h4.8L204.6,32.3z"/>
		<path class="st1" d="M222.2,46.1c-4,0-7.1-2.7-7.1-6.8V26.6h3.8v12.6c0,2.2,1.3,3.6,3.3,3.6c2,0,3.4-1.3,3.4-3.6V26.6h3.7v12.7
			C229.3,43.4,226.1,46.1,222.2,46.1z"/>
		<path class="st1" d="M243.2,45.9l-3.7-6.7l-3.7,6.7h-4.3l6-9.9l-5.6-9.4h4.3l3.4,6.2l3.4-6.2h4.3l-5.6,9.4l6,9.9H243.2z"/>
		<path class="st1" d="M71.4,78.5V59.2h12.7v3.4h-8.9v4.5h7.6v3.4h-7.6v4.7h8.9v3.4H71.4z M78.4,57.3h-2.4l1.7-4.6h3.7L78.4,57.3z"
			/>
		<path class="st1" d="M99.3,78.5l-7.6-11.9v11.9h-3.8V59.2h3.4L98.9,71V59.2h3.8v19.3H99.3z"/>
		<path class="st1" d="M107.1,78.5V59.2h12.7v3.4h-8.9v4.5h7.6v3.4h-7.6v4.7h8.9v3.4H107.1z"/>
		<path class="st1" d="M133.8,78.5l-3.8-7.7h-2.7v7.7h-3.8V59.2h7.6c3.9,0,6.3,2.7,6.3,5.9c0,2.7-1.7,4.4-3.5,5.1l4.3,8.3H133.8z
			 M130.9,62.5h-3.5v5.1h3.5c1.7,0,2.7-1.1,2.7-2.5C133.6,63.6,132.5,62.5,130.9,62.5z"/>
		<path class="st1" d="M153.2,76.4c-1.5,1.6-3.4,2.2-5.5,2.2c-2.1,0-3.8-0.8-5.2-2.1c-2-2-1.9-4.4-1.9-7.7c0-3.3-0.1-5.7,1.9-7.7
			c1.4-1.4,3-2.1,5.2-2.1c4.5,0,6.8,2.9,7.3,6.2h-3.8c-0.4-1.8-1.5-2.8-3.5-2.8c-1,0-1.9,0.4-2.4,1c-0.7,0.8-0.9,1.7-0.9,5.4
			c0,3.7,0.2,4.6,0.9,5.4c0.5,0.6,1.4,1,2.4,1c1.1,0,2.1-0.4,2.7-1.1c0.6-0.7,0.9-1.6,0.9-2.6v-0.7h-3.6v-3.1h7.3v2.8
			C155,73.4,154.6,75,153.2,76.4z"/>
		<path class="st1" d="M158.9,78.5V59.2h3.8v19.3H158.9z"/>
		<path class="st1" d="M167.2,78.5V59.2h12.7v3.4h-8.9v4.5h7.6v3.4h-7.6v4.7h8.9v3.4H167.2z"/>
		<path class="st1" d="M188.9,78.6c-2.9,0-5.2-0.6-7-2.5l2.4-2.4c1.2,1.2,2.9,1.6,4.7,1.6c2.2,0,3.4-0.8,3.4-2.4
			c0-0.7-0.2-1.2-0.6-1.6c-0.4-0.4-0.8-0.5-1.7-0.7l-2.3-0.3c-1.7-0.2-2.9-0.8-3.7-1.6c-0.9-0.9-1.4-2.2-1.4-3.8
			c0-3.4,2.5-5.9,6.7-5.9c2.7,0,4.6,0.7,6.2,2.3l-2.4,2.4c-1.2-1.2-2.7-1.3-4-1.3c-2,0-3,1.1-3,2.4c0,0.5,0.2,1,0.6,1.4
			c0.4,0.4,1,0.7,1.8,0.8l2.3,0.3c1.8,0.2,2.9,0.7,3.7,1.5c1,1,1.5,2.4,1.5,4.1C196,76.5,192.9,78.6,188.9,78.6z"/>
		<path class="st1" d="M81.7,111l-3.8-7.7h-2.7v7.7h-3.8V91.7H79c3.9,0,6.3,2.7,6.3,5.9c0,2.7-1.7,4.4-3.5,5.1l4.3,8.3H81.7z
			 M78.8,95.1h-3.5v5.1h3.5c1.7,0,2.7-1.1,2.7-2.5C81.5,96.2,80.4,95.1,78.8,95.1z"/>
		<path class="st1" d="M89.2,111V91.7h12.7v3.4H93v4.5h7.6v3.4H93v4.7h8.9v3.4H89.2z"/>
		<path class="st1" d="M117,111l-7.6-11.9V111h-3.8V91.7h3.4l7.6,11.8V91.7h3.8V111H117z"/>
		<path class="st1" d="M136.6,109.1c-1.4,1.4-3,2.1-5.2,2.1c-2.2,0-3.9-0.8-5.2-2.1c-1.9-2-1.9-4.4-1.9-7.7s-0.1-5.7,1.9-7.7
			c1.4-1.4,3-2.1,5.2-2.1c2.2,0,3.8,0.8,5.2,2.1c2,2,1.9,4.4,1.9,7.7S138.5,107.1,136.6,109.1z M133.8,96c-0.5-0.6-1.4-1-2.4-1
			c-1,0-1.9,0.4-2.4,1c-0.7,0.8-0.9,1.7-0.9,5.4c0,3.7,0.2,4.6,0.9,5.4c0.5,0.6,1.4,1,2.4,1c1,0,1.9-0.4,2.4-1
			c0.7-0.8,0.9-1.7,0.9-5.4C134.7,97.7,134.5,96.8,133.8,96z"/>
		<path class="st1" d="M149.2,111.2c-4,0-7.1-2.7-7.1-6.8V91.7h3.8v12.6c0,2.2,1.3,3.6,3.3,3.6c2,0,3.4-1.3,3.4-3.6V91.7h3.7v12.7
			C156.3,108.5,153.1,111.2,149.2,111.2z"/>
		<path class="st1" d="M167.5,111h-2.8l-6.4-19.3h3.9l3.9,12.6l3.9-12.6h3.9L167.5,111z"/>
		<path class="st1" d="M176.2,111V91.7H189v3.4H180v4.5h7.6v3.4H180v4.7h8.9v3.4H176.2z"/>
		<path class="st1" d="M192.7,111V91.7h3.8v15.9h8.8v3.4H192.7z"/>
		<path class="st1" d="M219.2,111l-1.1-3.4h-6.9l-1.2,3.4h-3.9l7-19.3h3l7,19.3H219.2z M214.7,97.4l-2.4,7h4.8L214.7,97.4z"/>
		<path class="st1" d="M233.6,111h-8.1V91.7h7.8c3.8,0,6,2.1,6,5.4c0,2.1-1.4,3.5-2.4,4c1.2,0.5,2.7,1.8,2.7,4.3
			C239.5,109.1,237.1,111,233.6,111z M233,95.1h-3.7v4.4h3.7c1.6,0,2.5-0.9,2.5-2.2C235.5,96,234.6,95.1,233,95.1z M233.3,102.9
			h-3.9v4.7h3.9c1.7,0,2.5-1.1,2.5-2.4S235,102.9,233.3,102.9z"/>
		<path class="st1" d="M243.4,111V91.7h3.8v15.9h8.8v3.4H243.4z"/>
		<path class="st1" d="M259,111V91.7h12.7v3.4h-8.9v4.5h7.6v3.4h-7.6v4.7h8.9v3.4H259z"/>
		<path class="st1" d="M280.7,111.2c-2.9,0-5.2-0.6-7-2.5l2.4-2.4c1.2,1.2,2.9,1.6,4.7,1.6c2.2,0,3.4-0.8,3.4-2.4
			c0-0.7-0.2-1.2-0.6-1.6c-0.4-0.4-0.8-0.5-1.7-0.7l-2.3-0.3c-1.7-0.2-2.9-0.8-3.7-1.6c-0.9-0.9-1.4-2.2-1.4-3.8
			c0-3.4,2.5-5.9,6.7-5.9c2.7,0,4.6,0.7,6.2,2.3l-2.4,2.4c-1.2-1.2-2.7-1.3-4-1.3c-2,0-3,1.1-3,2.4c0,0.5,0.2,1,0.6,1.4
			c0.4,0.4,1,0.7,1.8,0.8l2.3,0.3c1.8,0.2,2.9,0.7,3.7,1.5c1,1,1.5,2.4,1.5,4.1C287.9,109.1,284.8,111.2,280.7,111.2z"/>
	</g>
</g>
</svg>
