<?xml version="1.0" encoding="utf-8"?>
<!-- Generator: Adobe Illustrator 21.0.2, SVG Export Plug-In . SVG Version: 6.00 Build 0)  -->
<svg version="1.1" id="Layer_1" xmlns="http://www.w3.org/2000/svg" xmlns:xlink="http://www.w3.org/1999/xlink" x="0px" y="0px"
	 viewBox="0 0 317.6 317.6" style="enable-background:new 0 0 317.6 317.6;" xml:space="preserve">
<style type="text/css">
	.st0{fill:#DD172F;}
	.st1{fill:#FFFFFF;}
	.st2{fill:none;stroke:#FFFFFF;stroke-width:1.3067;stroke-linecap:round;stroke-miterlimit:10;}
	.st3{fill:#E0A928;}
	.st4{fill:#499935;}
	.st5{fill:#C31922;}
	.st6{fill:#E53321;}
	.st7{fill:#38BAE3;}
	.st8{fill:#FAC400;}
	.st9{fill:#A5183B;}
	.st10{fill:#E9611D;}
	.st11{fill:#D9055F;}
	.st12{fill:#F59C12;}
	.st13{fill:#C38C12;}
	.st14{fill:none;stroke:#FFFFFF;stroke-width:0.73;stroke-miterlimit:10;}
	.st15{fill:#3F7C3C;}
	.st16{fill:#2593D2;}
	.st17{fill:#5EB032;}
	.st18{fill:#00639B;}
	.st19{fill:#1D4467;}
	.st20{fill:#EFEFEF;}
	.st21{fill:#010202;}
	.st22{fill:#61B032;}
	.st23{fill:#E6B719;}
	.st24{fill:#C21822;}
	.st25{fill:#489935;}
	.st26{fill:#3F7E3C;}
	.st27{fill:#F8C300;}
	.st28{fill:#E4351F;}
	.st29{fill:#F59C13;}
	.st30{fill:#2691D0;}
	.st31{fill:#A4193C;}
	.st32{fill:#37B9E2;}
	.st33{fill:#E9611F;}
	.st34{fill:#DF1531;}
	.st35{fill:#D80560;}
	.st36{fill:#1B4367;}
	.st37{fill:#CA9811;}
	.st38{fill:#00659A;}
</style>
<g>
	<rect class="st19" width="317.6" height="317.6"/>
	<polygon class="st1" points="42.1,26.6 42.1,90.6 31.3,90.6 31.3,41.6 31.2,41.6 23.7,49.5 23.6,49.5 23.6,38.2 33.5,26.6 	"/>
	<polygon class="st1" points="47,26.6 74,26.6 74,36.5 59.9,90.6 49.3,90.6 63.6,35.4 47,35.4 	"/>
	<path class="st1" d="M215.5,211.1c0-16.3-13-29.7-29.2-30.3c-4.2-11.8-15.4-20.2-28.6-20.2c-13.2,0-24.4,8.5-28.6,20.2
		c-16.2,0.6-29.2,13.9-29.2,30.3c0,9.7,4.6,18.3,11.7,23.9c-0.8,2.7-1.2,5.5-1.2,8.4c0,16.7,13.6,30.3,30.3,30.3
		c6.3,0,12.2-2,17.1-5.3c4.8,3.2,10.6,5.1,16.8,5.1c16.7,0,30.3-13.6,30.3-30.3c0-2.9-0.4-5.6-1.1-8.2
		C210.9,229.4,215.5,220.8,215.5,211.1 M181.9,190.9c0,12.1-9,22.2-20.6,23.9c-0.2-1.2-0.3-2.5-0.3-3.7c0-12.1,9-22.2,20.6-23.9
		C181.8,188.4,181.9,189.6,181.9,190.9 M157.8,260.6c-4.5-4.4-7.4-10.5-7.4-17.3c0-6.7,2.7-12.8,7.1-17.1c4.5,4.4,7.4,10.5,7.4,17.3
		C165,250.1,162.2,256.2,157.8,260.6 M133.8,187.2c11.7,1.7,20.6,11.8,20.6,23.9c0,1.3-0.1,2.5-0.3,3.7
		c-11.7-1.7-20.6-11.8-20.6-23.9C133.5,189.6,133.6,188.4,133.8,187.2 M151.9,221.9c-4,7.9-12.2,13.4-21.6,13.4c-4,0-7.8-1-11.1-2.7
		c4-7.9,12.2-13.4,21.6-13.4C144.8,219.2,148.5,220.2,151.9,221.9 M163.5,221.8c3.4-1.8,7.2-2.8,11.2-2.8c9.5,0,17.7,5.5,21.7,13.5
		c-3.4,1.8-7.2,2.8-11.2,2.8C175.7,235.3,167.4,229.8,163.5,221.8 M157.7,166.7c9.9,0,18.5,6,22.2,14.6c-9.8,1.7-18.1,8.2-22.2,17
		c-4.1-8.8-12.3-15.3-22.2-17C139.3,172.7,147.8,166.7,157.7,166.7 M106,211.1c0-12.5,9.5-22.8,21.6-24.1c-0.2,1.3-0.3,2.6-0.3,3.9
		c0,8.9,3.8,16.8,9.9,22.4c-10.1,1.1-18.6,7.2-23.2,15.8C109.1,224.6,106,218.2,106,211.1 M116.5,243.4c0-1.7,0.2-3.4,0.5-5
		c4,1.9,8.5,3,13.2,3c5.3,0,10.3-1.4,14.6-3.8c-0.3,1.8-0.5,3.7-0.5,5.6c0,8.2,3.3,15.6,8.6,21.1c-3.6,2.1-7.7,3.3-12.2,3.3
		C127.4,267.6,116.5,256.8,116.5,243.4 M198.9,243.2c0,13.3-10.9,24.2-24.2,24.2c-4.3,0-8.4-1.2-11.9-3.2c5.1-5.4,8.3-12.8,8.3-20.8
		c0-2-0.2-3.9-0.6-5.8c4.4,2.4,9.4,3.8,14.7,3.8c4.7,0,9.2-1.1,13.2-3C198.7,239.9,198.9,241.6,198.9,243.2 M178.3,213.1
		c6-5.5,9.7-13.4,9.7-22.2c0-1.3-0.1-2.6-0.3-3.9c12.1,1.3,21.6,11.6,21.6,24.1c0,7.1-3.1,13.5-8,17.9
		C196.9,220.4,188.3,214.3,178.3,213.1"/>
	<g>
		<path class="st1" d="M98.1,38.7h-3.7v7.3h-3.8V26.6h7.5c4,0,6.4,2.7,6.4,6S102.1,38.7,98.1,38.7z M97.9,30h-3.5v5.3h3.5
			c1.7,0,2.8-1.1,2.8-2.6S99.7,30,97.9,30z"/>
		<path class="st1" d="M117.3,45.9l-1.1-3.4h-6.9l-1.2,3.4h-3.9l7-19.3h3l7,19.3H117.3z M112.8,32.3l-2.4,7h4.8L112.8,32.3z"/>
		<path class="st1" d="M133.9,45.9l-3.8-7.7h-2.7v7.7h-3.8V26.6h7.6c3.9,0,6.3,2.7,6.3,5.9c0,2.7-1.7,4.4-3.5,5.1l4.3,8.3H133.9z
			 M131,30h-3.6v5.1h3.6c1.7,0,2.7-1.1,2.7-2.5C133.7,31,132.6,30,131,30z"/>
		<path class="st1" d="M148.8,30v15.9H145V30h-5v-3.4h13.9V30H148.8z"/>
		<path class="st1" d="M156.9,45.9V26.6h12.7V30h-8.9v4.5h7.6v3.4h-7.6v4.7h8.9v3.4H156.9z"/>
		<path class="st1" d="M184.7,45.9L177,34.1v11.9h-3.8V26.6h3.4l7.6,11.8V26.6h3.8v19.3H184.7z"/>
		<path class="st1" d="M203.6,45.9l-1.1-3.4h-6.9l-1.2,3.4h-3.9l7-19.3h3l7,19.3H203.6z M199,32.3l-2.4,7h4.8L199,32.3z"/>
		<path class="st1" d="M220.1,45.9l-3.8-7.7h-2.7v7.7h-3.8V26.6h7.6c3.9,0,6.3,2.7,6.3,5.9c0,2.7-1.7,4.4-3.5,5.1l4.3,8.3H220.1z
			 M217.2,30h-3.6v5.1h3.6c1.7,0,2.7-1.1,2.7-2.5C219.9,31,218.8,30,217.2,30z"/>
		<path class="st1" d="M227.6,45.9V26.6h3.8v19.3H227.6z"/>
		<path class="st1" d="M246.9,45.9l-1.1-3.4h-6.9l-1.2,3.4h-3.9l7-19.3h3l7,19.3H246.9z M242.4,32.3l-2.4,7h4.8L242.4,32.3z"/>
		<path class="st1" d="M258.9,30v15.9h-3.8V30h-5v-3.4H264V30H258.9z"/>
		<path class="st1" d="M267.1,45.9V26.6h12.7V30h-8.9v4.5h7.6v3.4h-7.6v4.7h8.9v3.4H267.1z"/>
		<path class="st1" d="M288.8,46.1c-2.9,0-5.2-0.6-7-2.5l2.4-2.4c1.2,1.2,2.9,1.6,4.7,1.6c2.2,0,3.4-0.8,3.4-2.4
			c0-0.7-0.2-1.2-0.6-1.6c-0.4-0.4-0.8-0.5-1.7-0.7l-2.3-0.3c-1.7-0.2-2.9-0.8-3.7-1.6c-0.9-0.9-1.4-2.2-1.4-3.8
			c0-3.4,2.5-5.9,6.7-5.9c2.7,0,4.6,0.7,6.2,2.3l-2.4,2.4c-1.2-1.2-2.7-1.3-4-1.3c-2,0-3,1.1-3,2.4c0,0.5,0.2,1,0.6,1.4
			c0.4,0.4,1,0.7,1.8,0.8l2.3,0.3c1.8,0.2,2.9,0.7,3.7,1.5c1,1,1.5,2.4,1.5,4.1C295.9,44,292.8,46.1,288.8,46.1z"/>
		<path class="st1" d="M98.1,68.5h-3.7v7.3h-3.8V56.5h7.5c4,0,6.4,2.7,6.4,6S102.1,68.5,98.1,68.5z M97.9,59.8h-3.5v5.3h3.5
			c1.7,0,2.8-1.1,2.8-2.6S99.7,59.8,97.9,59.8z"/>
		<path class="st1" d="M119.4,73.8c-1.4,1.4-3,2.1-5.2,2.1s-3.9-0.8-5.2-2.1c-1.9-2-1.9-4.4-1.9-7.7c0-3.3-0.1-5.7,1.9-7.7
			c1.4-1.4,3-2.1,5.2-2.1s3.8,0.8,5.2,2.1c2,2,1.9,4.4,1.9,7.7C121.3,69.5,121.3,71.9,119.4,73.8z M116.6,60.7c-0.5-0.6-1.4-1-2.4-1
			s-1.9,0.4-2.4,1c-0.7,0.8-0.9,1.7-0.9,5.4c0,3.7,0.2,4.6,0.9,5.4c0.5,0.6,1.4,1,2.4,1s1.9-0.4,2.4-1c0.7-0.8,0.9-1.7,0.9-5.4
			C117.5,62.4,117.3,61.5,116.6,60.7z"/>
		<path class="st1" d="M132,75.9c-4,0-7.1-2.7-7.1-6.8V56.5h3.8V69c0,2.2,1.3,3.6,3.3,3.6c2,0,3.4-1.3,3.4-3.6V56.5h3.7v12.7
			C139.1,73.3,135.9,75.9,132,75.9z"/>
		<path class="st1" d="M153.5,75.8l-3.8-7.7H147v7.7h-3.8V56.5h7.6c3.9,0,6.3,2.7,6.3,5.9c0,2.7-1.7,4.4-3.5,5.1l4.3,8.3H153.5z
			 M150.6,59.8H147v5.1h3.6c1.7,0,2.7-1.1,2.7-2.5S152.3,59.8,150.6,59.8z"/>
		<path class="st1" d="M167.3,75.8V56.5h3.8v15.9h8.8v3.4H167.3z"/>
		<path class="st1" d="M182.9,75.8V56.5h12.7v3.4h-8.9v4.5h7.6v3.4h-7.6v4.7h8.9v3.4H182.9z"/>
		<path class="st1" d="M204.6,75.9c-2.9,0-5.2-0.6-7-2.5l2.4-2.4c1.2,1.2,2.9,1.6,4.7,1.6c2.2,0,3.4-0.8,3.4-2.4
			c0-0.7-0.2-1.2-0.6-1.6c-0.4-0.4-0.8-0.5-1.7-0.7l-2.3-0.3c-1.7-0.2-2.9-0.8-3.7-1.6c-0.9-0.9-1.4-2.2-1.4-3.8
			c0-3.4,2.5-5.9,6.7-5.9c2.7,0,4.6,0.7,6.2,2.3l-2.4,2.4c-1.2-1.2-2.7-1.3-4-1.3c-2,0-3,1.1-3,2.4c0,0.5,0.2,1,0.6,1.4
			c0.4,0.4,1,0.7,1.8,0.8l2.3,0.3c1.8,0.2,2.9,0.7,3.7,1.5c1,1,1.5,2.4,1.5,4.1C211.8,73.8,208.7,75.9,204.6,75.9z"/>
		<path class="st1" d="M102.3,103.7c-1.4,1.4-3,2.1-5.2,2.1c-2.2,0-3.9-0.8-5.2-2.1c-1.9-2-1.9-4.4-1.9-7.7c0-3.3-0.1-5.7,1.9-7.7
			c1.4-1.4,3-2.1,5.2-2.1c2.2,0,3.8,0.8,5.2,2.1c2,2,1.9,4.4,1.9,7.7C104.3,99.3,104.3,101.7,102.3,103.7z M99.5,90.5
			c-0.5-0.6-1.4-1-2.4-1c-1,0-1.9,0.4-2.4,1c-0.7,0.8-0.9,1.7-0.9,5.4c0,3.7,0.2,4.6,0.9,5.4c0.5,0.6,1.4,1,2.4,1c1,0,1.9-0.4,2.4-1
			c0.7-0.8,0.9-1.7,0.9-5.4C100.5,92.2,100.3,91.4,99.5,90.5z"/>
		<path class="st1" d="M116.2,105.6h-8.1V86.3h7.8c3.8,0,6,2.1,6,5.4c0,2.1-1.4,3.5-2.4,4c1.2,0.5,2.7,1.8,2.7,4.3
			C122.1,103.7,119.6,105.6,116.2,105.6z M115.6,89.7h-3.7v4.4h3.7c1.6,0,2.5-0.9,2.5-2.2C118.1,90.6,117.2,89.7,115.6,89.7z
			 M115.8,97.5h-3.9v4.7h3.9c1.7,0,2.5-1.1,2.5-2.4C118.3,98.6,117.5,97.5,115.8,97.5z"/>
		<path class="st1" d="M128.2,105.8c-2.1,0-3.5-0.5-5-2l2.5-2.5c0.6,0.6,1.2,1.1,2.5,1.1c1.8,0,3-1.1,3-3.3V86.3h3.8v13
			C135.1,103.5,131.8,105.8,128.2,105.8z"/>
		<path class="st1" d="M139.3,105.6V86.3H152v3.4h-8.9v4.5h7.6v3.4h-7.6v4.7h8.9v3.4H139.3z"/>
		<path class="st1" d="M162.2,105.8c-2.1,0-3.8-0.8-5.2-2.1c-2-2-1.9-4.4-1.9-7.7c0-3.3-0.1-5.7,1.9-7.7c1.4-1.4,3.1-2.1,5.2-2.1
			c3.6,0,6.4,2.1,7.1,6.1h-3.8c-0.4-1.5-1.4-2.7-3.3-2.7c-1,0-1.9,0.4-2.4,1c-0.7,0.8-0.9,1.7-0.9,5.4c0,3.7,0.2,4.6,0.9,5.4
			c0.5,0.6,1.4,1,2.4,1c1.9,0,2.9-1.2,3.3-2.7h3.8C168.6,103.7,165.8,105.8,162.2,105.8z"/>
		<path class="st1" d="M179.4,89.7v15.9h-3.8V89.7h-5v-3.4h13.9v3.4H179.4z"/>
		<path class="st1" d="M187.5,105.6V86.3h3.8v19.3H187.5z"/>
		<path class="st1" d="M199.5,89.7v4.7h7.6v3.4h-7.6v7.8h-3.8V86.3h12.7v3.4H199.5z"/>
		<path class="st1" d="M216.8,105.8c-2.9,0-5.2-0.6-7.1-2.5l2.4-2.4c1.2,1.2,2.9,1.6,4.7,1.6c2.2,0,3.4-0.8,3.4-2.4
			c0-0.7-0.2-1.2-0.6-1.6c-0.4-0.4-0.8-0.5-1.7-0.7l-2.3-0.3c-1.7-0.2-2.9-0.8-3.7-1.6c-0.9-0.9-1.4-2.2-1.4-3.8
			c0-3.4,2.5-5.9,6.7-5.9c2.7,0,4.6,0.7,6.2,2.3l-2.4,2.4c-1.2-1.2-2.7-1.3-4-1.3c-2,0-3,1.1-3,2.4c0,0.5,0.2,1,0.6,1.4
			c0.4,0.4,1,0.7,1.8,0.8l2.3,0.3c1.8,0.2,2.9,0.7,3.7,1.5c1,1,1.5,2.4,1.5,4.1C224,103.7,220.9,105.8,216.8,105.8z"/>
		<path class="st1" d="M104.4,135.5v-11.3l-3.7,7.3h-2.5l-3.7-7.3v11.3h-3.8v-19.3h3.7l5,10.4l5-10.4h3.7v19.3H104.4z"/>
		<path class="st1" d="M124.3,133.5c-1.4,1.4-3,2.1-5.2,2.1s-3.9-0.8-5.2-2.1c-1.9-2-1.9-4.4-1.9-7.7s-0.1-5.7,1.9-7.7
			c1.4-1.4,3-2.1,5.2-2.1s3.8,0.8,5.2,2.1c2,2,1.9,4.4,1.9,7.7S126.3,131.6,124.3,133.5z M121.5,120.4c-0.5-0.6-1.4-1-2.4-1
			s-1.9,0.4-2.4,1c-0.7,0.8-0.9,1.7-0.9,5.4s0.2,4.6,0.9,5.4c0.5,0.6,1.4,1,2.4,1s1.9-0.4,2.4-1c0.7-0.8,0.9-1.7,0.9-5.4
			S122.3,121.2,121.5,120.4z"/>
		<path class="st1" d="M141.5,135.5l-7.6-11.9v11.9h-3.8v-19.3h3.4l7.6,11.8v-11.8h3.8v19.3H141.5z"/>
		<path class="st1" d="M161.5,133.6c-1.3,1.3-3.1,1.8-5.1,1.8h-7v-19.3h7c2,0,3.8,0.6,5.1,1.8c2.2,2.2,2,4.8,2,7.7
			C163.4,128.6,163.6,131.4,161.5,133.6z M158.8,120.7c-0.6-0.8-1.5-1.2-2.8-1.2h-2.8v12.6h2.8c1.3,0,2.2-0.4,2.8-1.2
			c0.7-0.9,0.8-2.2,0.8-5.2C159.7,122.8,159.5,121.6,158.8,120.7z"/>
		<path class="st1" d="M167.3,135.5v-19.3h3.8v19.3H167.3z"/>
		<path class="st1" d="M186.5,135.5l-1.1-3.4h-6.9l-1.2,3.4h-3.9l7-19.3h3l7,19.3H186.5z M182,121.8l-2.4,7h4.8L182,121.8z"/>
		<path class="st1" d="M199.7,135.6c-4,0-7.1-2.7-7.1-6.8v-12.7h3.8v12.6c0,2.2,1.3,3.6,3.3,3.6s3.4-1.3,3.4-3.6v-12.6h3.7v12.7
			C206.8,132.9,203.6,135.6,199.7,135.6z"/>
		<path class="st1" d="M220.6,135.5l-3.7-6.7l-3.7,6.7h-4.3l6-9.9l-5.6-9.4h4.3l3.4,6.2l3.4-6.2h4.3l-5.6,9.4l6,9.9H220.6z"/>
	</g>
</g>
</svg>
