<?xml version="1.0" encoding="utf-8"?>
<!-- Generator: Adobe Illustrator 21.0.2, SVG Export Plug-In . SVG Version: 6.00 Build 0)  -->
<svg version="1.1" id="Layer_1" xmlns="http://www.w3.org/2000/svg" xmlns:xlink="http://www.w3.org/1999/xlink" x="0px" y="0px"
	 viewBox="0 0 317.6 317.6" style="enable-background:new 0 0 317.6 317.6;" xml:space="preserve">
<style type="text/css">
	.st0{fill:#DD172F;}
	.st1{fill:#FFFFFF;}
	.st2{fill:none;stroke:#FFFFFF;stroke-width:1.3067;stroke-linecap:round;stroke-miterlimit:10;}
	.st3{fill:#E0A928;}
	.st4{fill:#499935;}
	.st5{fill:#C31922;}
	.st6{fill:#E53321;}
	.st7{fill:#38BAE3;}
	.st8{fill:#FAC400;}
	.st9{fill:#A5183B;}
	.st10{fill:#E9611D;}
	.st11{fill:#D9055F;}
	.st12{fill:#F59C12;}
	.st13{fill:#C38C12;}
	.st14{fill:none;stroke:#FFFFFF;stroke-width:0.73;stroke-miterlimit:10;}
	.st15{fill:#3F7C3C;}
	.st16{fill:#2593D2;}
	.st17{fill:#5EB032;}
	.st18{fill:#00639B;}
	.st19{fill:#1D4467;}
	.st20{fill:#EFEFEF;}
	.st21{fill:#010202;}
	.st22{fill:#61B032;}
	.st23{fill:#E6B719;}
	.st24{fill:#C21822;}
	.st25{fill:#489935;}
	.st26{fill:#3F7E3C;}
	.st27{fill:#F8C300;}
	.st28{fill:#E4351F;}
	.st29{fill:#F59C13;}
	.st30{fill:#2691D0;}
	.st31{fill:#A4193C;}
	.st32{fill:#37B9E2;}
	.st33{fill:#E9611F;}
	.st34{fill:#DF1531;}
	.st35{fill:#D80560;}
	.st36{fill:#1B4367;}
	.st37{fill:#CA9811;}
	.st38{fill:#00659A;}
</style>
<g>
	<rect class="st17" width="317.6" height="317.6"/>
	<polygon class="st1" points="23.3,38.2 23.3,49.4 23.3,49.4 30.9,41.6 31,41.6 31,90.6 41.8,90.6 41.8,26.6 33.2,26.6 	"/>
	<path class="st1" d="M67.4,46.9c-4.2,0-7.4,1.5-9.1,4.4h-0.1v-16h18.5v-8.8H48.4v36.1h9.8v-1.4c0-3.8,1.7-5.9,4.7-5.9
		c3.3,0,4.6,2.3,4.6,5.8v15.5c0,3.4-1.2,5.8-4.5,5.8c-3.7,0-5-2.5-5-6.2v-8h-9.8v7.3c0,9.7,3.9,16,14.8,16
		c10.9,0,15.3-5.8,15.3-14.6V61.1C78.3,51,73.1,46.9,67.4,46.9"/>
	<g>
		<path class="st1" d="M137.2,227.1c0.3,0,0.6,0.3,0.6,0.6v19.6c0,0.3-0.3,0.6-0.6,0.6h-7.9c-0.3,0-0.6-0.3-0.6-0.6v-19.6
			c0-0.3,0.3-0.6,0.6-0.6H137.2z"/>
		<path class="st1" d="M224.4,256.4H93.5c-0.3,0-0.6,0.3-0.6,0.6v8c0,0.3,0.3,0.6,0.6,0.6h130.9c0.3,0,0.6-0.3,0.6-0.6v-8
			C225,256.7,224.7,256.4,224.4,256.4"/>
		<path class="st1" d="M224.4,272.3H93.5c-0.3,0-0.6,0.3-0.6,0.6v8c0,0.3,0.3,0.6,0.6,0.6h130.9c0.3,0,0.6-0.3,0.6-0.6v-8
			C225,272.5,224.7,272.3,224.4,272.3"/>
		<path class="st1" d="M199.5,205.4c-1.6-1.3-6-4.3-11.3-4.3c-3.8,0-7.3,1.5-10.5,4.5c-0.2,0.2-0.3,0.5-0.3,0.8v0.7
			c0,0.4,0.1,0.7,0.4,0.9c0.3,0.2,0.6,0.3,0.9,0.2c0.1,0,0.2,0,0.2-0.1c0.2-0.1,0.5-0.2,0.7-0.4c0.7-0.5,2.6-1.1,5.2-1.1
			c2.8,0,8.2,0.7,13.5,5.7l0.1,0.1c0.3,0.3,0.7,0.5,1.1,0.5c0.4,0,0.8-0.2,1.1-0.5l0.1-0.1c5.3-4.9,10.7-5.7,13.5-5.7
			c2.7,0,4.6,0.6,5.3,1.1c0.2,0.2,0.4,0.3,0.7,0.4c0.1,0,0.4,0.1,0.8,0c0.5-0.1,0.8-0.6,0.8-1.1v-0.6c0-0.3-0.1-0.6-0.4-0.8
			c-3.2-3-6.8-4.6-10.6-4.6C205.5,201.1,201.2,204.1,199.5,205.4"/>
		<path class="st1" d="M191.4,153.3c-0.3,0.1-0.5,0.4-0.6,0.7l-0.1,0.4c-0.1,0.3,0,0.7,0.2,1c0.2,0.3,0.5,0.4,0.8,0.4
			c0.1,0,0.1,0,0.2,0c0.2,0,0.4-0.1,0.6-0.2c0.1,0,0.4-0.1,0.8-0.1c0.6,0,5.9,0.2,9.3,6.1l0,0.1c0.2,0.3,0.5,0.6,0.8,0.7
			c0.1,0,0.3,0.1,0.4,0.1c0.2,0,0.5-0.1,0.7-0.2l0.1,0c1.9-1,3.9-1.4,5.8-1.4c3.3,0,5.5,1.3,6,1.9c0.1,0.2,0.3,0.4,0.4,0.5
			c0.1,0.1,0.3,0.2,0.4,0.2c0.1,0,0.1,0,0.2,0c0,0,0.1,0,0.1,0c0.2,0,0.3,0,0.5-0.1c0.3-0.1,0.5-0.4,0.6-0.7l0.1-0.4
			c0-0.1,0-0.2,0-0.3c0-0.2-0.1-0.4-0.2-0.6c-2.5-4.4-6.2-5.3-8.9-5.3c-2,0-3.7,0.5-4.7,0.9c-1.2-1.6-4.2-4.9-8.8-4.9
			C194.6,152,193,152.4,191.4,153.3"/>
		<path class="st1" d="M163.7,173.4l0,0.6c0,0.4,0.2,0.7,0.5,0.9c0.3,0.2,0.6,0.2,0.9,0.1c0.1,0,0.1,0,0.2-0.1
			c0.2-0.1,0.4-0.2,0.6-0.4c0.6-0.4,2.3-1.1,5-1.1c2.5,0,6.4,0.7,10.3,3.9l0.1,0.1c0.3,0.2,0.6,0.4,1,0.4h0.1c0.4,0,0.8-0.2,1-0.5
			l0.1-0.1c4.4-4.6,9.1-5.3,11.5-5.3c1.7,0,2.9,0.4,3.4,0.6c0.2,0.2,0.4,0.3,0.7,0.4c0.1,0,0.3,0.1,0.5,0c0.1,0,0.2,0,0.3-0.1
			c0.5-0.2,0.8-0.6,0.7-1.1l0-0.5c0-0.3-0.2-0.6-0.4-0.8c-2.6-2.2-5.4-3.3-8.4-3.3c-4.6,0-8.3,2.7-9.8,4.1c-1.4-0.9-4.8-2.9-8.7-2.9
			c-3.5,0-6.6,1.4-9.3,4.3C163.8,172.8,163.7,173.1,163.7,173.4"/>
		<path class="st1" d="M97.5,183.9c0-7.8,6.4-14.2,14.2-14.2c0.3,0,0.6,0,0.9,0c0.7-9.9,9-17.7,19.1-17.7c10.6,0,19.2,8.6,19.2,19.2
			c0,3-0.7,5.8-1.9,8.4c9.6,2.1,16.8,10.7,16.8,20.9c0,11.8-9.6,21.5-21.5,21.5c-0.9,0-28.6-0.2-28.6-0.2l0,0
			c-8.4,0-15.2-6.8-15.2-15.2c0-4,1.6-7.7,4.1-10.4C100.4,193.8,97.5,189.2,97.5,183.9z"/>
	</g>
	<g>
		<path class="st1" d="M102.5,38.6h-3.7v7.3H95V26.6h7.5c4,0,6.4,2.7,6.4,6C108.8,35.9,106.4,38.6,102.5,38.6z M102.3,30h-3.5v5.3
			h3.5c1.7,0,2.8-1.1,2.8-2.6C105.1,31,104,30,102.3,30z"/>
		<path class="st1" d="M122.3,45.9l-3.8-7.7h-2.7v7.7H112V26.6h7.6c3.9,0,6.3,2.7,6.3,5.9c0,2.7-1.7,4.4-3.5,5.1l4.3,8.3H122.3z
			 M119.3,30h-3.6v5.1h3.6c1.7,0,2.7-1.1,2.7-2.5C122.1,31,121,30,119.3,30z"/>
		<path class="st1" d="M141.4,43.9c-1.4,1.4-3,2.1-5.2,2.1s-3.9-0.8-5.2-2.1c-1.9-2-1.9-4.4-1.9-7.7s-0.1-5.7,1.9-7.7
			c1.4-1.4,3-2.1,5.2-2.1s3.8,0.8,5.2,2.1c2,2,1.9,4.4,1.9,7.7S143.4,42,141.4,43.9z M138.7,30.8c-0.5-0.6-1.4-1-2.4-1
			c-1,0-1.9,0.4-2.4,1c-0.7,0.8-0.9,1.7-0.9,5.4s0.2,4.6,0.9,5.4c0.5,0.6,1.4,1,2.4,1c1,0,1.9-0.4,2.4-1c0.7-0.8,0.9-1.7,0.9-5.4
			S139.4,31.6,138.7,30.8z"/>
		<path class="st1" d="M154.1,30v15.9h-3.8V30h-5v-3.4h13.9V30H154.1z"/>
		<path class="st1" d="M162.2,45.9V26.6h12.7V30h-8.9v4.5h7.6v3.4h-7.6v4.7h8.9v3.4H162.2z"/>
		<path class="st1" d="M185,46.1c-2.1,0-3.8-0.8-5.2-2.1c-2-2-1.9-4.4-1.9-7.7s-0.1-5.7,1.9-7.7c1.4-1.4,3.1-2.1,5.2-2.1
			c3.6,0,6.4,2.1,7.1,6.1h-3.8c-0.4-1.5-1.4-2.7-3.3-2.7c-1,0-1.9,0.4-2.4,1c-0.7,0.8-0.9,1.7-0.9,5.4s0.2,4.6,0.9,5.4
			c0.5,0.6,1.4,1,2.4,1c1.9,0,2.9-1.2,3.3-2.7h3.8C191.5,44,188.6,46.1,185,46.1z"/>
		<path class="st1" d="M202.2,30v15.9h-3.8V30h-5v-3.4h13.9V30H202.2z"/>
		<path class="st1" d="M210.4,45.9V26.6h3.8v19.3H210.4z"/>
		<path class="st1" d="M230.3,43.9c-1.4,1.4-3,2.1-5.2,2.1s-3.9-0.8-5.2-2.1c-2-2-1.9-4.4-1.9-7.7s-0.1-5.7,1.9-7.7
			c1.4-1.4,3-2.1,5.2-2.1s3.9,0.8,5.2,2.1c2,2,1.9,4.4,1.9,7.7S232.3,42,230.3,43.9z M227.5,30.8c-0.5-0.6-1.4-1-2.4-1
			s-1.9,0.4-2.4,1c-0.7,0.8-0.9,1.7-0.9,5.4s0.2,4.6,0.9,5.4c0.5,0.6,1.4,1,2.4,1s1.9-0.4,2.4-1c0.7-0.8,0.9-1.7,0.9-5.4
			S228.3,31.6,227.5,30.8z"/>
		<path class="st1" d="M247.5,45.9l-7.6-11.8v11.8h-3.8V26.6h3.4l7.6,11.8V26.6h3.8v19.3H247.5z"/>
		<path class="st1" d="M107,73.9c-1.3,1.3-3.1,1.8-5.1,1.8h-7V56.4h7c2,0,3.8,0.6,5.1,1.8c2.2,2.2,1.9,4.8,1.9,7.7
			C109,68.9,109.2,71.7,107,73.9z M104.4,61c-0.7-0.8-1.5-1.2-2.8-1.2h-2.8v12.6h2.8c1.3,0,2.2-0.4,2.8-1.2c0.7-0.9,0.8-2.3,0.8-5.2
			S105.1,61.9,104.4,61z"/>
		<path class="st1" d="M112.9,75.7V56.4h12.7v3.4h-8.9v4.5h7.6v3.4h-7.6v4.7h8.9v3.4H112.9z"/>
		<path class="st1" d="M135.6,75.7V56.4h3.8v15.9h8.8v3.4H135.6z"/>
		<path class="st1" d="M162.1,75.7l-1.1-3.4h-6.9l-1.2,3.4H149l7-19.3h3l7,19.3H162.1z M157.6,62.1l-2.4,7h4.8L157.6,62.1z"/>
		<path class="st1" d="M178.5,59.8v4.7h7.6v3.4h-7.6v7.8h-3.8V56.4h12.7v3.4H178.5z"/>
		<path class="st1" d="M200.1,75.7l-1.1-3.4h-6.9l-1.2,3.4H187l7-19.3h3l7,19.3H200.1z M195.6,62.1l-2.4,7h4.8L195.6,62.1z"/>
		<path class="st1" d="M213.3,75.9c-4,0-7.1-2.7-7.1-6.8V56.4h3.8V69c0,2.2,1.3,3.6,3.3,3.6c2,0,3.4-1.3,3.4-3.6V56.4h3.7v12.7
			C220.4,73.2,217.2,75.9,213.3,75.9z"/>
		<path class="st1" d="M236,75.7l-7.6-11.8v11.8h-3.8V56.4h3.4l7.6,11.8V56.4h3.8v19.3H236z"/>
		<path class="st1" d="M243.9,75.7V56.4h12.7v3.4h-8.9v4.5h7.6v3.4h-7.6v4.7h8.9v3.4H243.9z"/>
		<path class="st1" d="M95,105.6V86.3h12.7v3.4h-8.9v4.5h7.6v3.4h-7.6v4.7h8.9v3.4H95z"/>
		<path class="st1" d="M118.8,89.6v15.9H115V89.6h-5v-3.4h13.9v3.4H118.8z"/>
		<path class="st1" d="M145.2,103.7c-1.3,1.3-3.1,1.8-5.1,1.8h-7V86.3h7c2,0,3.8,0.6,5.1,1.8c2.2,2.2,2,4.8,2,7.7
			C147.2,98.8,147.4,101.6,145.2,103.7z M142.6,90.8c-0.6-0.8-1.5-1.2-2.8-1.2h-2.8v12.6h2.8c1.3,0,2.2-0.4,2.8-1.2
			c0.7-0.9,0.8-2.3,0.8-5.2S143.3,91.7,142.6,90.8z"/>
		<path class="st1" d="M151.1,105.6V86.3h12.7v3.4h-8.9v4.5h7.6v3.4h-7.6v4.7h8.9v3.4H151.1z"/>
		<path class="st1" d="M173.8,105.6V86.3h3.8v15.9h8.8v3.4H173.8z"/>
		<path class="st1" d="M200.3,105.6l-1.1-3.4h-6.9l-1.2,3.4h-3.9l7-19.3h3l7,19.3H200.3z M195.8,92l-2.4,7h4.8L195.8,92z"/>
		<path class="st1" d="M216.7,89.6v4.7h7.6v3.4h-7.6v7.8H213V86.3h12.7v3.4H216.7z"/>
		<path class="st1" d="M229,105.6V86.3h3.8v15.9h8.8v3.4H229z"/>
		<path class="st1" d="M255.5,103.6c-1.4,1.4-3,2.1-5.2,2.1s-3.9-0.8-5.2-2.1c-1.9-2-1.9-4.4-1.9-7.7s-0.1-5.7,1.9-7.7
			c1.4-1.4,3-2.1,5.2-2.1s3.8,0.8,5.2,2.1c2,2,1.9,4.4,1.9,7.7S257.5,101.7,255.5,103.6z M252.7,90.5c-0.5-0.6-1.4-1-2.4-1
			s-1.9,0.4-2.4,1c-0.7,0.8-0.9,1.7-0.9,5.4c0,3.7,0.2,4.6,0.9,5.4c0.5,0.6,1.4,1,2.4,1s1.9-0.4,2.4-1c0.7-0.8,0.9-1.7,0.9-5.4
			C253.7,92.2,253.5,91.3,252.7,90.5z"/>
		<path class="st1" d="M271.6,105.6l-3.8-7.7h-2.7v7.7h-3.8V86.3h7.6c3.9,0,6.3,2.7,6.3,5.9c0,2.7-1.7,4.4-3.5,5.1l4.3,8.3H271.6z
			 M268.6,89.6h-3.5v5.1h3.5c1.7,0,2.7-1.1,2.7-2.5C271.4,90.7,270.3,89.6,268.6,89.6z"/>
		<path class="st1" d="M279.1,105.6V86.3h12.7v3.4h-8.9v4.5h7.6v3.4h-7.6v4.7h8.9v3.4H279.1z"/>
		<path class="st1" d="M102.4,119.5v15.9h-3.8v-15.9h-5v-3.4h13.9v3.4H102.4z"/>
		<path class="st1" d="M110.5,135.4v-19.3h12.7v3.4h-8.9v4.5h7.6v3.4h-7.6v4.7h8.9v3.4H110.5z"/>
		<path class="st1" d="M137.1,135.4l-3.8-7.7h-2.7v7.7h-3.8v-19.3h7.6c3.9,0,6.3,2.7,6.3,5.9c0,2.7-1.7,4.4-3.5,5.1l4.3,8.3H137.1z
			 M134.2,119.5h-3.5v5.1h3.5c1.7,0,2.7-1.1,2.7-2.5C136.9,120.5,135.9,119.5,134.2,119.5z"/>
		<path class="st1" d="M154.9,135.4l-3.8-7.7h-2.7v7.7h-3.8v-19.3h7.6c3.9,0,6.3,2.7,6.3,5.9c0,2.7-1.7,4.4-3.5,5.1l4.3,8.3H154.9z
			 M151.9,119.5h-3.5v5.1h3.5c1.7,0,2.7-1.1,2.7-2.5C154.7,120.5,153.6,119.5,151.9,119.5z"/>
		<path class="st1" d="M162.4,135.4v-19.3h12.7v3.4h-8.9v4.5h7.6v3.4h-7.6v4.7h8.9v3.4H162.4z"/>
		<path class="st1" d="M184.1,135.6c-2.9,0-5.2-0.6-7-2.5l2.4-2.4c1.2,1.2,2.9,1.6,4.7,1.6c2.2,0,3.4-0.8,3.4-2.4
			c0-0.7-0.2-1.2-0.6-1.6c-0.4-0.4-0.8-0.5-1.7-0.7l-2.3-0.3c-1.7-0.2-2.9-0.8-3.7-1.6c-0.9-0.9-1.4-2.2-1.4-3.8
			c0-3.4,2.5-5.9,6.7-5.9c2.7,0,4.6,0.7,6.2,2.2l-2.4,2.4c-1.2-1.2-2.7-1.3-4-1.3c-2,0-3,1.1-3,2.4c0,0.5,0.2,1,0.6,1.4
			c0.4,0.4,1,0.7,1.8,0.8l2.3,0.3c1.8,0.2,2.9,0.7,3.7,1.5c1,1,1.5,2.4,1.5,4.1C191.3,133.5,188.1,135.6,184.1,135.6z"/>
		<path class="st1" d="M202.2,119.5v15.9h-3.8v-15.9h-5v-3.4h13.9v3.4H202.2z"/>
		<path class="st1" d="M220.5,135.4l-3.8-7.7h-2.7v7.7h-3.8v-19.3h7.6c3.9,0,6.3,2.7,6.3,5.9c0,2.7-1.7,4.4-3.5,5.1l4.3,8.3H220.5z
			 M217.6,119.5h-3.6v5.1h3.6c1.7,0,2.7-1.1,2.7-2.5C220.4,120.5,219.3,119.5,217.6,119.5z"/>
		<path class="st1" d="M228,135.4v-19.3h12.7v3.4h-8.9v4.5h7.6v3.4h-7.6v4.7h8.9v3.4H228z"/>
		<path class="st1" d="M249.8,135.6c-2.9,0-5.2-0.6-7-2.5l2.4-2.4c1.2,1.2,2.9,1.6,4.7,1.6c2.2,0,3.4-0.8,3.4-2.4
			c0-0.7-0.2-1.2-0.6-1.6c-0.4-0.4-0.8-0.5-1.7-0.7l-2.3-0.3c-1.7-0.2-2.9-0.8-3.7-1.6c-0.9-0.9-1.4-2.2-1.4-3.8
			c0-3.4,2.5-5.9,6.7-5.9c2.7,0,4.6,0.7,6.2,2.2l-2.4,2.4c-1.2-1.2-2.7-1.3-4-1.3c-2,0-3,1.1-3,2.4c0,0.5,0.2,1,0.6,1.4
			c0.4,0.4,1,0.7,1.8,0.8l2.3,0.3c1.8,0.2,2.9,0.7,3.7,1.5c1,1,1.5,2.4,1.5,4.1C256.9,133.5,253.8,135.6,249.8,135.6z"/>
	</g>
</g>
</svg>
