<?xml version="1.0" encoding="utf-8"?>
<!-- Generator: Adobe Illustrator 21.0.2, SVG Export Plug-In . SVG Version: 6.00 Build 0)  -->
<svg version="1.1" id="Layer_1" xmlns="http://www.w3.org/2000/svg" xmlns:xlink="http://www.w3.org/1999/xlink" x="0px" y="0px"
	 viewBox="0 0 317.6 317.6" style="enable-background:new 0 0 317.6 317.6;" xml:space="preserve">
<style type="text/css">
	.st0{fill:#FBC500;}
	.st1{fill:#FFFFFF;}
	.st2{fill:#A6183B;}
	.st3{fill:#EB611E;}
	.st4{fill:#DA025F;}
	.st5{fill:#F59D10;}
	.st6{fill:#C48E13;}
	.st7{fill:none;stroke:#FFFFFF;stroke-width:0.73;stroke-miterlimit:10;}
	.st8{fill:#DE1730;}
	.st9{fill:none;stroke:#FFFFFF;stroke-width:1.3067;stroke-linecap:round;stroke-miterlimit:10;}
	.st10{fill:#E1AA29;}
	.st11{fill:#C41722;}
	.st12{fill:#E6331F;}
	.st13{fill:#3BBBE4;}
	.st14{fill:#4B9B34;}
	.st15{fill:#F7F7F8;}
	.st16{fill:#39ABE2;}
	.st17{fill:#3E8EDE;}
	.st18{fill:#62B231;}
	.st19{fill:#E7B81A;}
	.st20{fill:#C31723;}
	.st21{fill:#499A35;}
	.st22{fill:#407E3D;}
	.st23{fill:#F9C400;}
	.st24{fill:#E6351D;}
	.st25{fill:#F59E12;}
	.st26{fill:#2494D2;}
	.st27{fill:#A5193C;}
	.st28{fill:#3ABAE3;}
	.st29{fill:#EB621F;}
	.st30{fill:#E01630;}
	.st31{fill:#D9045F;}
	.st32{fill:#1C4468;}
	.st33{fill:#CB9914;}
	.st34{fill:#04649B;}
	.st35{fill:#5FB130;}
	.st36{fill:#407D3C;}
	.st37{fill:#2496D3;}
	.st38{fill:#1E4468;}
	.st39{fill:#05639B;}
</style>
<g>
	<rect class="st11" width="317.6" height="317.6"/>
	<path class="st1" d="M49.8,90.6h10.2V80.3h4.3v-8.4h-4.3V26.6H49.4l-18.6,47v6.6h19V90.6z M40.2,71.9l9.6-26.4h0.1v26.4H40.2z"/>
	<polygon class="st1" points="140.8,170.3 83.9,137.4 83.9,243.8 140.8,261 	"/>
	<polygon class="st1" points="147.1,170.5 147.1,261 204.4,243.8 204.4,137.4 	"/>
	<path class="st1" d="M249.1,134.7c0-3.7-3-6.7-6.7-6.7c-3.7,0-6.7,3-6.7,6.7v7.3h13.5V134.7z"/>
	<polygon class="st1" points="237.3,241.9 235.7,241.9 242.4,265.5 249.1,241.9 247.5,241.9 249.1,241.9 249.1,147.2 247.5,147.2 
		245.8,147.2 244,147.2 240.7,147.2 239,147.2 237.3,147.2 235.7,147.2 235.7,241.9 	"/>
	<polygon class="st1" points="216.7,142 210.5,137.1 210.5,246.7 147.3,267.1 144.3,267.1 143.8,267.1 140.8,267.1 77.8,249.5 
		77.8,137.1 71.7,142 71.7,253.8 140.5,272.9 143.8,272.9 144.3,272.9 147.5,272.9 211,252.7 216.7,251.1 	"/>
	<g>
		<path class="st1" d="M95.8,54.4v-1.8c-3.6-0.6-5.1-3.3-5.1-6.9V32.8c0-4.2,2.1-7.2,6.8-7.2c4.8,0,6.8,3,6.8,7.2v12.9
			c0,2.9-1,5.2-3.3,6.3l3.3,0.6V56L95.8,54.4z M99.8,46.7V32.1c0-1.6-0.7-2.8-2.3-2.8c-1.6,0-2.3,1.1-2.3,2.8v14.6
			c0,1.6,0.7,2.8,2.3,2.8C99.1,49.4,99.8,48.2,99.8,46.7z"/>
		<path class="st1" d="M120,25.9v20.3c0,4.1-1.8,6.8-6.4,6.8c-4.7,0-6.7-2.7-6.7-6.8V25.9h4.5v20.7c0,1.6,0.6,2.6,2.2,2.6
			c1.6,0,2.2-1.1,2.2-2.6V25.9H120z"/>
		<path class="st1" d="M121.2,52.6l5.1-26.8h5.1l5.1,26.8h-4.6l-0.8-4.9h-4.8l-0.8,4.9H121.2z M126.9,44.1h3.6l-1.8-10.7h0
			L126.9,44.1z"/>
		<path class="st1" d="M138.4,25.9h4.5v23.1h5.4v3.7h-9.9V25.9z"/>
		<path class="st1" d="M150.3,25.9h4.5v26.8h-4.5V25.9z"/>
		<path class="st1" d="M156.9,25.9h12v3.7h-3.7v23.1h-4.5V29.5h-3.7V25.9z"/>
		<path class="st1" d="M179.7,42.4v10.2h-4.5V42.4l-5-16.6h4.7l2.7,10.1h0l2.7-10.1h4.3L179.7,42.4z"/>
		<path class="st1" d="M90.7,63.4h10.7V67h-6.2v7.7h4.5v3.6h-4.5v8.1h6.2v3.7H90.7V63.4z"/>
		<path class="st1" d="M117.3,70.5v12.4c0,4.1-1.7,7.2-6.5,7.2h-6.9V63.4h6.9C115.6,63.4,117.3,66.4,117.3,70.5z M110.3,86.4
			c1.9,0,2.6-1.1,2.6-2.7v-14c0-1.6-0.7-2.7-2.6-2.7h-1.9v19.4H110.3z"/>
		<path class="st1" d="M132.9,63.4v20.3c0,4.1-1.8,6.8-6.4,6.8c-4.7,0-6.7-2.7-6.7-6.8V63.4h4.5V84c0,1.6,0.6,2.6,2.2,2.6
			c1.6,0,2.2-1.1,2.2-2.6V63.4H132.9z"/>
		<path class="st1" d="M135.5,83.2V70.3c0-4.2,2-7.2,6.7-7.2c5,0,6.4,2.8,6.4,6.7v3.2h-4.1v-3.5c0-1.7-0.6-2.6-2.2-2.6
			c-1.6,0-2.3,1.1-2.3,2.8v14.4c0,1.6,0.7,2.8,2.3,2.8c1.6,0,2.2-1,2.2-2.6v-4.9h4.1v4.6c0,3.8-1.6,6.7-6.4,6.7
			C137.5,90.4,135.5,87.4,135.5,83.2z"/>
		<path class="st1" d="M149.9,90.1l5.1-26.8h5.1l5.1,26.8h-4.6l-0.8-4.9H155l-0.8,4.9H149.9z M155.6,81.6h3.6l-1.8-10.7h0
			L155.6,81.6z"/>
		<path class="st1" d="M164.6,63.4h12V67h-3.7v23.1h-4.5V67h-3.7V63.4z"/>
		<path class="st1" d="M178.6,63.4h4.5v26.8h-4.5V63.4z"/>
		<path class="st1" d="M185.7,83.2V70.3c0-4.2,2.1-7.2,6.8-7.2c4.8,0,6.8,3,6.8,7.2v12.9c0,4.1-2.1,7.2-6.8,7.2
			C187.8,90.4,185.7,87.4,185.7,83.2z M194.8,83.9V69.5c0-1.6-0.7-2.8-2.3-2.8c-1.6,0-2.3,1.1-2.3,2.8v14.4c0,1.6,0.7,2.8,2.3,2.8
			C194.1,86.7,194.8,85.5,194.8,83.9z"/>
		<path class="st1" d="M205.7,73.3v16.8h-3.8V63.4h4.4l4.9,15.4V63.4h3.8v26.8H211L205.7,73.3z"/>
	</g>
</g>
</svg>
