<?xml version="1.0" encoding="utf-8"?>
<!-- Generator: Adobe Illustrator 21.0.2, SVG Export Plug-In . SVG Version: 6.00 Build 0)  -->
<svg version="1.1" id="Layer_1" xmlns="http://www.w3.org/2000/svg" xmlns:xlink="http://www.w3.org/1999/xlink" x="0px" y="0px"
	 viewBox="0 0 317.6 317.6" style="enable-background:new 0 0 317.6 317.6;" xml:space="preserve">
<style type="text/css">
	.st0{fill:#FBC500;}
	.st1{fill:#FFFFFF;}
	.st2{fill:#A6183B;}
	.st3{fill:#EB611E;}
	.st4{fill:#DA025F;}
	.st5{fill:#F59D10;}
	.st6{fill:#C48E13;}
	.st7{fill:none;stroke:#FFFFFF;stroke-width:0.73;stroke-miterlimit:10;}
	.st8{fill:#DE1730;}
	.st9{fill:none;stroke:#FFFFFF;stroke-width:1.3067;stroke-linecap:round;stroke-miterlimit:10;}
	.st10{fill:#E1AA29;}
	.st11{fill:#C41722;}
	.st12{fill:#E6331F;}
	.st13{fill:#3BBBE4;}
	.st14{fill:#4B9B34;}
	.st15{fill:#F7F7F8;}
	.st16{fill:#39ABE2;}
	.st17{fill:#3E8EDE;}
	.st18{fill:#62B231;}
	.st19{fill:#E7B81A;}
	.st20{fill:#C31723;}
	.st21{fill:#499A35;}
	.st22{fill:#407E3D;}
	.st23{fill:#F9C400;}
	.st24{fill:#E6351D;}
	.st25{fill:#F59E12;}
	.st26{fill:#2494D2;}
	.st27{fill:#A5193C;}
	.st28{fill:#3ABAE3;}
	.st29{fill:#EB621F;}
	.st30{fill:#E01630;}
	.st31{fill:#D9045F;}
	.st32{fill:#1C4468;}
	.st33{fill:#CB9914;}
	.st34{fill:#04649B;}
	.st35{fill:#5FB130;}
	.st36{fill:#407D3C;}
	.st37{fill:#2496D3;}
	.st38{fill:#1E4468;}
	.st39{fill:#05639B;}
</style>
<g>
	<rect y="0" class="st4" width="317.6" height="317.6"/>
	<polygon class="st1" points="30.6,41.6 30.6,90.7 41.4,90.7 41.4,26.6 32.8,26.6 22.9,38.2 22.9,49.5 23,49.5 30.5,41.6 	"/>
	<path class="st1" d="M80.7,74.1v-31c0-10-5-17.3-16-17.3c-10.9,0-15.9,7.3-15.9,17.3v31c0,9.9,5,17.3,15.9,17.3
		C75.7,91.4,80.7,84.1,80.7,74.1 M59.7,75.8V41.4c0-3.9,1.4-6.6,5.1-6.6c3.8,0,5.2,2.7,5.2,6.6v34.4c0,3.9-1.4,6.6-5.2,6.6
		C61.1,82.5,59.7,79.7,59.7,75.8"/>
	<path class="st1" d="M191.6,209.8h-63.5c-0.4,0-0.7,0.3-0.7,0.7v14.4c0,0.4,0.3,0.7,0.7,0.7h63.5c0.4,0,0.7-0.3,0.7-0.7v-14.4
		C192.3,210.1,192,209.8,191.6,209.8"/>
	<path class="st1" d="M192.3,183.4c0-0.4-0.3-0.7-0.7-0.7H139h-10.9c-0.4,0-0.7,0.3-0.7,0.7v5.7v8.7c0,0.4,0.3,0.7,0.7,0.7h63.5
		c0.4,0,0.7-0.3,0.7-0.7V183.4z"/>
	<path class="st1" d="M229,189.1c-2.6-10.5-7.3-19.8-13.6-27.8l-0.1,0.1c2,3,3.9,6.2,5.4,9.6c8.2,15.1,10.8,33.3,5.6,51.1
		c-10.4,35.8-47.9,56.3-83.6,45.9c-15-4.4-27.4-13.6-35.8-25.4c-5.3-6.8-9.3-14.8-11.5-23.7c-8.5-34.1,12.3-68.7,46.4-77.1
		c21.1-5.2,42.3,0.7,57.5,14.1c0.1,0.1,0.3,0.2,0.4,0.4c0.4,0.3,0.9,0.5,1.4,0.5c0.6,0,1.2-0.2,1.6-0.6l0.3-0.3l8.1-8l0.5-0.5
		c0.3-0.4,0.5-0.9,0.5-1.4c0-0.6-0.3-1.2-0.7-1.6c-0.1-0.1-0.2-0.2-0.3-0.2c-18.6-16.7-44.9-24.1-71-17.7
		c-41.9,10.4-67.4,52.9-57,94.8c4.4,17.6,14.4,32.2,27.6,42.6c13.2,10.8,29.9,16.9,47.5,16.7c5.7-0.1,11.4-0.8,17.1-2.2
		C214.8,268.6,238.8,228.6,229,189.1"/>
	<g>
		<path class="st1" d="M107.1,41.2v12.3h-4.5V26.7h6.6c4.5,0,6.2,2.3,6.2,6v3.4c0,2.9-1,4.6-3.6,5.2l4.3,12.2h-4.7L107.1,41.2z
			 M107.1,30.4v8.3h1.5c1.5,0,2.2-0.8,2.2-2.2v-3.9c0-1.5-0.7-2.2-2.2-2.2H107.1z"/>
		<path class="st1" d="M117.8,26.7h10.7v3.7h-6.2V38h4.5v3.6h-4.5v8.1h6.2v3.7h-10.7V26.7z"/>
		<path class="st1" d="M144.4,33.9v12.4c0,4.1-1.7,7.2-6.5,7.2h-6.9V26.7h6.9C142.7,26.7,144.4,29.7,144.4,33.9z M137.3,49.8
			c1.9,0,2.6-1.1,2.6-2.7V33c0-1.6-0.7-2.7-2.6-2.7h-1.9v19.4H137.3z"/>
		<path class="st1" d="M160,26.7v20.3c0,4.1-1.8,6.8-6.4,6.8c-4.7,0-6.7-2.7-6.7-6.8V26.7h4.5v20.7c0,1.6,0.6,2.6,2.2,2.6
			c1.6,0,2.2-1.1,2.2-2.6V26.7H160z"/>
		<path class="st1" d="M162.6,46.5V33.6c0-4.2,2-7.2,6.7-7.2c5,0,6.4,2.8,6.4,6.7v3.2h-4.1v-3.5c0-1.7-0.6-2.6-2.2-2.6
			c-1.6,0-2.3,1.1-2.3,2.8v14.4c0,1.6,0.7,2.8,2.3,2.8c1.6,0,2.2-1,2.2-2.6v-4.9h4.1v4.6c0,3.8-1.6,6.7-6.4,6.7
			C164.5,53.8,162.6,50.7,162.6,46.5z"/>
		<path class="st1" d="M178.1,26.7h10.7v3.7h-6.2V38h4.5v3.6h-4.5v8.1h6.2v3.7h-10.7V26.7z"/>
		<path class="st1" d="M204.7,33.9v12.4c0,4.1-1.7,7.2-6.5,7.2h-6.9V26.7h6.9C203,26.7,204.7,29.7,204.7,33.9z M197.6,49.8
			c1.9,0,2.6-1.1,2.6-2.7V33c0-1.6-0.7-2.7-2.6-2.7h-1.9v19.4H197.6z"/>
		<path class="st1" d="M102.6,64.2h4.5v26.8h-4.5V64.2z"/>
		<path class="st1" d="M113.5,74.1v16.8h-3.8V64.2h4.4l4.9,15.4V64.2h3.8v26.8h-3.9L113.5,74.1z"/>
		<path class="st1" d="M125.2,64.2H136v3.7h-6.2v7.7h4.5v3.6h-4.5v8.1h6.2v3.7h-10.7V64.2z"/>
		<path class="st1" d="M143.1,92.8v-1.8c-3.6-0.6-5.1-3.3-5.1-6.9V71.1c0-4.2,2.1-7.2,6.8-7.2c4.8,0,6.8,3,6.8,7.2V84
			c0,2.9-1,5.2-3.3,6.3l3.3,0.6v3.4L143.1,92.8z M147.1,85V70.4c0-1.6-0.7-2.8-2.3-2.8c-1.6,0-2.3,1.1-2.3,2.8V85
			c0,1.6,0.7,2.8,2.3,2.8C146.4,87.8,147.1,86.6,147.1,85z"/>
		<path class="st1" d="M167.2,64.2v20.3c0,4.1-1.8,6.8-6.4,6.8c-4.7,0-6.7-2.7-6.7-6.8V64.2h4.5v20.7c0,1.6,0.6,2.6,2.2,2.6
			c1.6,0,2.2-1.1,2.2-2.6V64.2H167.2z"/>
		<path class="st1" d="M168.5,90.9l5.1-26.8h5.1l5.1,26.8h-4.6l-0.8-4.9h-4.8l-0.8,4.9H168.5z M174.2,82.5h3.6L176,71.7h0
			L174.2,82.5z"/>
		<path class="st1" d="M185.6,64.2h4.5v23.1h5.4v3.7h-9.9V64.2z"/>
		<path class="st1" d="M197.6,64.2h4.5v26.8h-4.5V64.2z"/>
		<path class="st1" d="M204.2,64.2h12v3.7h-3.7v23.1h-4.5V67.9h-3.7V64.2z"/>
		<path class="st1" d="M218.2,64.2h4.5v26.8h-4.5V64.2z"/>
		<path class="st1" d="M225.3,64.2H236v3.7h-6.2v7.7h4.5v3.6h-4.5v8.1h6.2v3.7h-10.7V64.2z"/>
		<path class="st1" d="M238,85.2v-3.6h4.2v3.7c0,1.5,0.7,2.4,2.2,2.4c1.4,0,2.1-0.9,2.1-2.4v-1c0-1.5-0.6-2.5-2-3.8l-2.6-2.6
			c-2.6-2.5-3.8-4.1-3.8-7.1v-0.9c0-3.3,1.9-5.9,6.3-5.9c4.5,0,6.3,2.2,6.3,6.1v2.2h-4.1v-2.3c0-1.5-0.7-2.3-2.1-2.3
			c-1.3,0-2.1,0.7-2.1,2.2v0.6c0,1.5,0.8,2.4,2.1,3.6l2.9,2.8c2.4,2.5,3.6,4,3.6,6.9V85c0,3.7-2,6.3-6.6,6.3
			C239.8,91.3,238,88.7,238,85.2z"/>
	</g>
</g>
</svg>
