<?xml version="1.0" encoding="utf-8"?>
<!-- Generator: Adobe Illustrator 21.0.2, SVG Export Plug-In . SVG Version: 6.00 Build 0)  -->
<svg version="1.1" id="Layer_1" xmlns="http://www.w3.org/2000/svg" xmlns:xlink="http://www.w3.org/1999/xlink" x="0px" y="0px"
	 viewBox="0 0 317.6 317.6" style="enable-background:new 0 0 317.6 317.6;" xml:space="preserve">
<style type="text/css">
	.st0{fill:#FBC500;}
	.st1{fill:#FFFFFF;}
	.st2{fill:#A6183B;}
	.st3{fill:#EB611E;}
	.st4{fill:#DA025F;}
	.st5{fill:#F59D10;}
	.st6{fill:#C48E13;}
	.st7{fill:none;stroke:#FFFFFF;stroke-width:0.73;stroke-miterlimit:10;}
	.st8{fill:#DE1730;}
	.st9{fill:none;stroke:#FFFFFF;stroke-width:1.3067;stroke-linecap:round;stroke-miterlimit:10;}
	.st10{fill:#E1AA29;}
	.st11{fill:#C41722;}
	.st12{fill:#E6331F;}
	.st13{fill:#3BBBE4;}
	.st14{fill:#4B9B34;}
	.st15{fill:#F7F7F8;}
	.st16{fill:#39ABE2;}
	.st17{fill:#3E8EDE;}
	.st18{fill:#62B231;}
	.st19{fill:#E7B81A;}
	.st20{fill:#C31723;}
	.st21{fill:#499A35;}
	.st22{fill:#407E3D;}
	.st23{fill:#F9C400;}
	.st24{fill:#E6351D;}
	.st25{fill:#F59E12;}
	.st26{fill:#2494D2;}
	.st27{fill:#A5193C;}
	.st28{fill:#3ABAE3;}
	.st29{fill:#EB621F;}
	.st30{fill:#E01630;}
	.st31{fill:#D9045F;}
	.st32{fill:#1C4468;}
	.st33{fill:#CB9914;}
	.st34{fill:#04649B;}
	.st35{fill:#5FB130;}
	.st36{fill:#407D3C;}
	.st37{fill:#2496D3;}
	.st38{fill:#1E4468;}
	.st39{fill:#05639B;}
</style>
<g>
	<rect x="0" class="st38" width="317.6" height="317.6"/>
	<polygon class="st1" points="47.5,26.6 47.5,90.6 36.8,90.6 36.8,41.6 36.7,41.6 29.1,49.5 29,49.5 29,38.2 38.9,26.6 	"/>
	<polygon class="st1" points="52.4,26.6 79.4,26.6 79.4,36.5 65.4,90.6 54.7,90.6 69,35.4 52.4,35.4 	"/>
	<path class="st1" d="M239.5,192.6c0-22.3-17.7-40.5-39.8-41.3c-5.7-16.1-21-27.6-39-27.6c-18,0-33.3,11.5-39,27.6
		c-22.1,0.8-39.8,19-39.8,41.3c0,13.2,6.3,25,16,32.6c-1.1,3.6-1.6,7.5-1.6,11.5c0,22.8,18.6,41.4,41.4,41.4
		c8.7,0,16.7-2.7,23.3-7.2c6.6,4.4,14.5,7,22.9,7c22.8,0,41.4-18.6,41.4-41.4c0-3.9-0.6-7.7-1.6-11.3
		C233.3,217.6,239.5,205.8,239.5,192.6 M193.7,165.1c0,16.6-12.3,30.3-28.2,32.6c-0.3-1.7-0.4-3.3-0.4-5.1
		c0-16.6,12.3-30.3,28.2-32.6C193.5,161.6,193.7,163.3,193.7,165.1 M160.8,260.1c-6.2-6-10-14.4-10-23.7c0-9.1,3.7-17.4,9.7-23.4
		c6.2,6,10,14.4,10,23.7C170.5,245.8,166.8,254.1,160.8,260.1 M128.1,160c15.9,2.4,28.2,16.1,28.2,32.6c0,1.7-0.2,3.4-0.4,5.1
		c-15.9-2.4-28.2-16.1-28.2-32.6C127.6,163.3,127.8,161.6,128.1,160 M152.7,207.4c-5.4,10.8-16.6,18.3-29.5,18.3
		c-5.5,0-10.6-1.4-15.2-3.7c5.4-10.8,16.6-18.3,29.5-18.3C143,203.7,148.1,205,152.7,207.4 M168.5,207.2c4.6-2.4,9.8-3.8,15.3-3.8
		c13,0,24.2,7.6,29.6,18.5c-4.6,2.4-9.8,3.8-15.3,3.8C185.1,225.6,173.9,218.1,168.5,207.2 M160.7,132c13.5,0,25.2,8.2,30.3,19.9
		c-13.4,2.4-24.7,11.2-30.3,23.2c-5.6-12-16.8-20.9-30.3-23.2C135.5,140.2,147.1,132,160.7,132 M90.1,192.6
		c0-17,12.9-31.1,29.5-32.8c-0.2,1.7-0.3,3.5-0.3,5.3c0,12.1,5.2,23,13.5,30.6c-13.7,1.6-25.4,9.9-31.7,21.5
		C94.4,211.1,90.1,202.3,90.1,192.6 M104.5,236.7c0-2.3,0.3-4.6,0.7-6.8c5.4,2.6,11.5,4.1,18,4.1c7.2,0,14-1.9,20-5.2
		c-0.5,2.5-0.7,5-0.7,7.6c0,11.2,4.5,21.3,11.7,28.8c-4.9,2.9-10.6,4.5-16.6,4.5C119.3,269.7,104.5,254.9,104.5,236.7 M216.8,236.4
		c0,18.2-14.8,33-33,33c-5.9,0-11.5-1.6-16.3-4.3c7-7.4,11.4-17.4,11.4-28.4c0-2.7-0.3-5.4-0.8-7.9c5.9,3.3,12.8,5.2,20,5.2
		c6.5,0,12.6-1.5,18-4.2C216.6,232,216.8,234.2,216.8,236.4 M188.8,195.4c8.1-7.6,13.3-18.3,13.3-30.3c0-1.8-0.1-3.6-0.3-5.3
		c16.6,1.8,29.5,15.8,29.5,32.8c0,9.7-4.2,18.4-10.9,24.4C214.1,205.4,202.4,197,188.8,195.4"/>
	<g>
		<path class="st1" d="M100.3,26.4h6.7c4.5,0,6.2,2.3,6.2,6V38c0,3.8-1.7,6-6.2,6h-2.2v9.1h-4.5V26.4z M104.8,30v10.5h1.7
			c1.5,0,2.2-0.7,2.2-2.2v-6.2c0-1.5-0.7-2.2-2.2-2.2H104.8z"/>
		<path class="st1" d="M113.2,53.1l5.1-26.8h5.1l5.1,26.8h-4.6l-0.8-4.9h-4.8l-0.8,4.9H113.2z M118.9,44.6h3.6l-1.8-10.7h0
			L118.9,44.6z"/>
		<path class="st1" d="M134.9,40.8v12.3h-4.5V26.4h6.6c4.5,0,6.2,2.3,6.2,6v3.4c0,2.9-1,4.6-3.6,5.2l4.3,12.2h-4.7L134.9,40.8z
			 M134.9,30v8.3h1.5c1.5,0,2.2-0.8,2.2-2.2v-3.9c0-1.5-0.7-2.2-2.2-2.2H134.9z"/>
		<path class="st1" d="M144.6,26.4h12V30h-3.7v23.1h-4.5V30h-3.7V26.4z"/>
		<path class="st1" d="M162.5,36.3v16.8h-3.8V26.4h4.4l4.9,15.4V26.4h3.8v26.8h-3.9L162.5,36.3z"/>
		<path class="st1" d="M174.3,26.4H185V30h-6.2v7.7h4.5v3.6h-4.5v8.1h6.2v3.7h-10.7V26.4z"/>
		<path class="st1" d="M191.9,40.8v12.3h-4.5V26.4h6.6c4.5,0,6.2,2.3,6.2,6v3.4c0,2.9-1,4.6-3.6,5.2l4.3,12.2h-4.7L191.9,40.8z
			 M191.9,30v8.3h1.5c1.5,0,2.2-0.8,2.2-2.2v-3.9c0-1.5-0.7-2.2-2.2-2.2H191.9z"/>
		<path class="st1" d="M202.2,47.4v-3.6h4.2v3.7c0,1.5,0.7,2.4,2.2,2.4c1.4,0,2.1-0.9,2.1-2.4v-1c0-1.5-0.6-2.5-2-3.8L206,40
			c-2.6-2.5-3.8-4.1-3.8-7.1v-0.9c0-3.3,1.9-5.9,6.3-5.9c4.5,0,6.3,2.2,6.3,6.1v2.2h-4.1V32c0-1.5-0.7-2.3-2.1-2.3
			c-1.3,0-2.1,0.7-2.1,2.2v0.6c0,1.5,0.8,2.4,2.1,3.6l2.9,2.8c2.4,2.5,3.6,4,3.6,6.9v1.3c0,3.7-2,6.3-6.6,6.3
			C204,53.4,202.2,50.9,202.2,47.4z"/>
		<path class="st1" d="M226.3,41.3H222v11.8h-4.5V26.4h4.5v11.3h4.3V26.4h4.5v26.8h-4.5V41.3z"/>
		<path class="st1" d="M233.4,26.4h4.5v26.8h-4.5V26.4z"/>
		<path class="st1" d="M240.5,26.4h6.7c4.5,0,6.2,2.3,6.2,6V38c0,3.8-1.7,6-6.2,6H245v9.1h-4.5V26.4z M245,30v10.5h1.7
			c1.5,0,2.2-0.7,2.2-2.2v-6.2c0-1.5-0.7-2.2-2.2-2.2H245z"/>
		<path class="st1" d="M255.5,47.4v-3.6h4.2v3.7c0,1.5,0.7,2.4,2.2,2.4c1.4,0,2.1-0.9,2.1-2.4v-1c0-1.5-0.6-2.5-2-3.8l-2.6-2.6
			c-2.6-2.5-3.8-4.1-3.8-7.1v-0.9c0-3.3,1.9-5.9,6.3-5.9c4.5,0,6.3,2.2,6.3,6.1v2.2H264V32c0-1.5-0.7-2.3-2.1-2.3
			c-1.3,0-2.1,0.7-2.1,2.2v0.6c0,1.5,0.8,2.4,2.1,3.6l2.9,2.8c2.4,2.5,3.6,4,3.6,6.9v1.3c0,3.7-2,6.3-6.6,6.3
			C257.3,53.4,255.5,50.9,255.5,47.4z"/>
		<path class="st1" d="M100.3,63.9h10.5v3.7h-6v7.7h4.5v3.6h-4.5v11.8h-4.5V63.9z"/>
		<path class="st1" d="M112.4,83.7V70.8c0-4.2,2.1-7.2,6.8-7.2c4.8,0,6.8,3,6.8,7.2v12.9c0,4.1-2.1,7.2-6.8,7.2
			C114.5,90.9,112.4,87.9,112.4,83.7z M121.6,84.4V70.1c0-1.6-0.7-2.8-2.3-2.8c-1.6,0-2.3,1.1-2.3,2.8v14.4c0,1.6,0.7,2.8,2.3,2.8
			C120.8,87.2,121.6,86,121.6,84.4z"/>
		<path class="st1" d="M133.1,78.3v12.3h-4.5V63.9h6.6c4.5,0,6.2,2.3,6.2,6v3.4c0,2.9-1,4.6-3.6,5.2l4.3,12.2h-4.7L133.1,78.3z
			 M133.1,67.5v8.3h1.5c1.5,0,2.2-0.8,2.2-2.2v-3.9c0-1.5-0.7-2.2-2.2-2.2H133.1z"/>
		<path class="st1" d="M147.5,63.9h12v3.7h-3.7v23.1h-4.5V67.5h-3.7V63.9z"/>
		<path class="st1" d="M170.3,78.8H166v11.8h-4.5V63.9h4.5v11.3h4.3V63.9h4.5v26.8h-4.5V78.8z"/>
		<path class="st1" d="M177.4,63.9h10.7v3.7h-6.2v7.7h4.5v3.6h-4.5V87h6.2v3.7h-10.7V63.9z"/>
		<path class="st1" d="M201.5,76.3h6.4v14.3h-3.2v-2.9c-0.6,2-1.9,3.2-4.3,3.2c-3.9,0-5.6-3.1-5.6-7.2V70.8c0-4.2,2-7.2,6.8-7.2
			c5,0,6.4,2.8,6.4,6.7v2.4h-4.1v-2.7c0-1.7-0.6-2.6-2.3-2.6c-1.6,0-2.3,1.1-2.3,2.8v14.4c0,1.6,0.7,2.8,2.2,2.8
			c1.5,0,2.2-0.8,2.2-2.6v-4.7h-2.1V76.3z"/>
		<path class="st1" d="M210.5,83.7V70.8c0-4.2,2.1-7.2,6.8-7.2c4.8,0,6.8,3,6.8,7.2v12.9c0,4.1-2.1,7.2-6.8,7.2
			C212.5,90.9,210.5,87.9,210.5,83.7z M219.6,84.4V70.1c0-1.6-0.7-2.8-2.3-2.8c-1.6,0-2.3,1.1-2.3,2.8v14.4c0,1.6,0.7,2.8,2.3,2.8
			C218.9,87.2,219.6,86,219.6,84.4z"/>
		<path class="st1" d="M225.4,90.6l5.1-26.8h5.1l5.1,26.8H236l-0.8-4.9h-4.8l-0.8,4.9H225.4z M231,82.1h3.6l-1.8-10.7h0L231,82.1z"
			/>
		<path class="st1" d="M242.5,63.9h4.5V87h5.4v3.7h-9.9V63.9z"/>
		<path class="st1" d="M254,84.9v-3.6h4.2v3.7c0,1.5,0.7,2.4,2.2,2.4c1.4,0,2.1-0.9,2.1-2.4v-1c0-1.5-0.6-2.5-2-3.8l-2.6-2.6
			c-2.6-2.5-3.8-4.1-3.8-7.1v-0.9c0-3.3,1.9-5.9,6.3-5.9c4.5,0,6.3,2.2,6.3,6.1v2.2h-4.1v-2.3c0-1.5-0.7-2.3-2.1-2.3
			c-1.3,0-2.1,0.7-2.1,2.2v0.6c0,1.5,0.8,2.4,2.1,3.6l2.9,2.8c2.4,2.5,3.6,4,3.6,6.9v1.3c0,3.7-2,6.3-6.6,6.3
			C255.8,90.9,254,88.4,254,84.9z"/>
	</g>
</g>
</svg>
