<?xml version="1.0" encoding="utf-8"?>
<!-- Generator: Adobe Illustrator 21.0.2, SVG Export Plug-In . SVG Version: 6.00 Build 0)  -->
<svg version="1.1" id="Layer_1" xmlns="http://www.w3.org/2000/svg" xmlns:xlink="http://www.w3.org/1999/xlink" x="0px" y="0px"
	 viewBox="0 0 317.6 317.6" style="enable-background:new 0 0 317.6 317.6;" xml:space="preserve">
<style type="text/css">
	.st0{fill:#DD172F;}
	.st1{fill:#FFFFFF;}
	.st2{fill:none;stroke:#FFFFFF;stroke-width:1.3067;stroke-linecap:round;stroke-miterlimit:10;}
	.st3{fill:#E0A928;}
	.st4{fill:#499935;}
	.st5{fill:#C31922;}
	.st6{fill:#E53321;}
	.st7{fill:#38BAE3;}
	.st8{fill:#FAC400;}
	.st9{fill:#A5183B;}
	.st10{fill:#E9611D;}
	.st11{fill:#D9055F;}
	.st12{fill:#F59C12;}
	.st13{fill:#C38C12;}
	.st14{fill:none;stroke:#FFFFFF;stroke-width:0.73;stroke-miterlimit:10;}
	.st15{fill:#3F7C3C;}
	.st16{fill:#2593D2;}
	.st17{fill:#5EB032;}
	.st18{fill:#00639B;}
	.st19{fill:#1D4467;}
	.st20{fill:#EFEFEF;}
	.st21{fill:#010202;}
	.st22{fill:#61B032;}
	.st23{fill:#E6B719;}
	.st24{fill:#C21822;}
	.st25{fill:#489935;}
	.st26{fill:#3F7E3C;}
	.st27{fill:#F8C300;}
	.st28{fill:#E4351F;}
	.st29{fill:#F59C13;}
	.st30{fill:#2691D0;}
	.st31{fill:#A4193C;}
	.st32{fill:#37B9E2;}
	.st33{fill:#E9611F;}
	.st34{fill:#DF1531;}
	.st35{fill:#D80560;}
	.st36{fill:#1B4367;}
	.st37{fill:#CA9811;}
	.st38{fill:#00659A;}
</style>
<g>
	<rect class="st0" width="317.6" height="317.6"/>
	<polygon class="st1" points="36.2,41.8 36.3,41.8 36.3,90.8 47.1,90.8 47.1,26.8 38.5,26.8 28.6,38.4 28.6,49.6 28.6,49.6 	"/>
	<g>
		<path class="st1" d="M244.6,151.5c0-4.9,3.9-8.8,8.8-8.8c4.8,0,8.8,3.9,8.8,8.8c0,4.9-3.9,8.8-8.8,8.8
			C248.5,160.3,244.6,156.4,244.6,151.5"/>
		<path class="st1" d="M263.6,163.7c6,0.5,10.6,5.6,10.6,11.7v2.9v1.3v20.2c0,1.9-1.5,3.4-3.4,3.4c-1.9,0-3.4-1.5-3.4-3.4v-20.9
			c0-0.8-0.2-1.8-1.7-1.8c-1,0-1.2,1.1-1.2,1.7v62.7c0,2.7-2.2,4.9-4.9,4.9c-2.7,0-4.9-2.2-4.9-4.9v-36.2c0-0.4-0.1-1.4-1.4-1.4h0
			c-1.2,0-1.4,1-1.4,1.4v36.2c0,2.7-2.2,4.9-4.9,4.9c-2.7,0-4.9-2.2-4.9-4.9v-62.7c0-0.7-0.2-1.7-1.2-1.7c-1.4,0-1.7,1.1-1.7,1.8
			v20.9c0,1.9-1.5,3.4-3.4,3.4c-1.9,0-3.4-1.5-3.4-3.4v-20.2v-1.3v-2.9c0-6.1,4.7-11.1,10.7-11.7c0.2,0,0.4-0.1,0.6-0.1h9.6h9.6
			C263.2,163.6,263.4,163.7,263.6,163.7"/>
	</g>
	<g>
		<path class="st1" d="M192.3,156.1c0-4.6-3.7-8.3-8.3-8.3c-4.6,0-8.3,3.7-8.3,8.3c0,4.6,3.7,8.3,8.3,8.3
			C188.6,164.5,192.3,160.7,192.3,156.1"/>
		<path class="st1" d="M167.2,175l-6.9,22.5c0,0-1.2,4.1,2.3,5.2c3.5,1,4.5-3,4.5-3l5.6-18.8c0,0,0.3-1.4,1.4-1.1
			c1.1,0.3,0.7,1.9,0.7,1.9l-9.7,35.2h9v25.2c0,2.4,1.9,4.3,4.3,4.3c2.4,0,4.3-1.9,4.3-4.3v-25.2h1.2h1.2v25.2
			c0,2.4,1.9,4.3,4.3,4.3c2.4,0,4.3-1.9,4.3-4.3v-25.2h9l-9.7-35.2c0,0-0.4-1.5,0.7-1.9c1.1-0.3,1.4,1.1,1.4,1.1l5.6,18.8
			c0,0,1.1,4,4.5,3c3.5-1,2.3-5.2,2.3-5.2l-6.9-22.5c0,0-2.5-6.5-7.9-6.5H184h-8.8C169.7,168.5,167.2,175,167.2,175"/>
	</g>
	<g>
		<path class="st1" d="M142.4,156.1c0-4.6-3.7-8.3-8.3-8.3c-4.6,0-8.3,3.7-8.3,8.3c0,4.6,3.7,8.3,8.3,8.3
			C138.7,164.5,142.4,160.7,142.4,156.1"/>
		<path class="st1" d="M117.3,175l-6.9,22.5c0,0-1.2,4.1,2.3,5.2c3.5,1,4.5-3,4.5-3l5.6-18.8c0,0,0.3-1.4,1.4-1.1
			c1.1,0.3,0.7,1.9,0.7,1.9l-9.7,35.2h9v25.2c0,2.4,2,4.3,4.3,4.3c2.4,0,4.3-1.9,4.3-4.3v-25.2h1.2h1.2v25.2c0,2.4,1.9,4.3,4.3,4.3
			c2.4,0,4.3-1.9,4.3-4.3v-25.2h9l-9.7-35.2c0,0-0.4-1.5,0.7-1.9c1.1-0.3,1.4,1.1,1.4,1.1l5.6,18.8c0,0,1.1,4,4.5,3
			c3.5-1,2.3-5.2,2.3-5.2l-6.9-22.5c0,0-2.5-6.5-7.9-6.5h-8.8h-8.8C119.8,168.5,117.3,175,117.3,175"/>
	</g>
	<g>
		<path class="st1" d="M220.3,202.7c3.8,0,6.9-3.1,6.9-6.9c0-3.8-3.1-6.9-6.9-6.9c-3.8,0-6.9,3.1-6.9,6.9
			C213.3,199.6,216.4,202.7,220.3,202.7"/>
		<path class="st1" d="M203.6,224.3c-0.3,0.8-0.6,2.5,1,3.3c1.9,0.9,3-1,3-1l3.8-12c0,0,0.7-0.8,0.7,0v28.3h0c0,2,1.6,3.6,3.6,3.6
			c2,0,3.6-1.6,3.6-3.6v-11.2c0,0-0.2-1.6,1.1-1.6s1.1,1.6,1.1,1.6v11.2c0,2,1.6,3.6,3.6,3.6c2,0,3.6-1.6,3.6-3.6v-28.3
			c0-0.8,0.4-0.2,0.4-0.2l3,8.2c0,0,1.3,3.7,1.7,3.8c1.3,0.6,2.9-0.1,3.4-1.4c0.4-0.9,0.2-1.8-0.3-2.5l0,0
			c-0.1-0.3-4.4-10.9-4.9-12.4c-1.6-4.6-4.4-4.5-7.1-4.6c-2.7-0.1-4.4,0-4.4,0s-1.7-0.1-5.4,0c-3.6,0.1-4.8,2-8.7,12.2
			C205.6,219.2,203.6,224,203.6,224.3L203.6,224.3z"/>
	</g>
	<g>
		<g>
			<path class="st1" d="M68.1,151.5c0-4.9-3.9-8.8-8.8-8.8c-4.9,0-8.8,3.9-8.8,8.8c0,4.9,3.9,8.8,8.8,8.8
				C64.1,160.3,68.1,156.4,68.1,151.5"/>
			<path class="st1" d="M49,163.7c-6,0.5-10.6,5.6-10.6,11.7v2.9v1.3v20.2c0,1.9,1.5,3.4,3.4,3.4c1.9,0,3.4-1.5,3.4-3.4v-20.9
				c0-0.8,0.2-1.8,1.7-1.8c1,0,1.2,1.1,1.2,1.7v62.7c0,2.7,2.2,4.9,4.9,4.9c2.7,0,4.9-2.2,4.9-4.9v-36.2c0-0.4,0.2-1.4,1.4-1.4h0
				c1.2,0,1.4,1,1.4,1.4v36.2c0,2.7,2.2,4.9,4.9,4.9c2.7,0,4.9-2.2,4.9-4.9v-62.7c0-0.7,0.3-1.7,1.2-1.7c1.4,0,1.7,1.1,1.7,1.8v20.9
				c0,1.9,1.5,3.4,3.4,3.4c1.9,0,3.4-1.5,3.4-3.4v-20.2v-1.3v-2.9c0-6.1-4.7-11.1-10.7-11.7c-0.2,0-0.4-0.1-0.6-0.1h-9.6h-9.6
				C49.4,163.6,49.2,163.7,49,163.7"/>
		</g>
		<line class="st2" x1="41.3" y1="203.3" x2="33.5" y2="244.7"/>
	</g>
	<g>
		<path class="st1" d="M84.4,199.1c-0.5-0.7-1.2-1.2-2.1-1.2c-1.4,0-2.5,1.1-2.5,2.5c0,0.4,0.2,1.1,0.2,1.1l7,12.6
			c0,0,0.4,0.9,0.4,1.7V243h0c0,1.9,1.5,3.4,3.4,3.4c1.9,0,3.4-1.5,3.4-3.4v-10.7c0,0-0.2-1.5,1-1.5c1.2,0,1,1.5,1,1.5V243
			c0,1.9,1.5,3.4,3.4,3.4c1.9,0,3.4-1.5,3.4-3.4v-27.1c0-0.8,0.4-1.7,0.4-1.7l6.5-11.7c0,0,0.8-1.7,0.8-2.1c0-1.4-1.1-2.5-2.5-2.5
			c-0.9,0-1.7,0.5-2.1,1.2l0,0c-0.2,0.2-3.4,5.9-4.5,7c-1.1,1.1-2.1,1-2.1,1h-4.2H91c0,0-1,0.1-2.1-1
			C87.8,205,84.6,199.3,84.4,199.1L84.4,199.1z"/>
		<path class="st1" d="M95.2,202.7c3.8,0,6.9-3.1,6.9-6.9c0-3.8-3.1-6.9-6.9-6.9c-3.8,0-6.9,3.1-6.9,6.9
			C88.3,199.6,91.4,202.7,95.2,202.7"/>
		<polygon class="st1" points="95.2,212.5 103.1,218.2 106.8,231.9 95.2,231.9 83.7,231.9 87.4,218.2 		"/>
	</g>
	<g>
		<path class="st1" d="M64.7,46.1V26.8h12.7v3.4h-8.9v4.5h7.6V38h-7.6v4.7h8.9v3.4H64.7z M71.7,24.9h-2.4l1.7-4.6h3.7L71.7,24.9z"/>
		<path class="st1" d="M91.4,46.1l-3.8-7.7h-2.7v7.7h-3.8V26.8h7.6c3.9,0,6.3,2.7,6.3,5.9c0,2.7-1.7,4.4-3.5,5.1l4.3,8.3H91.4z
			 M88.5,30.1h-3.5v5.1h3.5c1.7,0,2.7-1.1,2.7-2.6C91.2,31.2,90.1,30.1,88.5,30.1z"/>
		<path class="st1" d="M109.9,46.1l-1.1-3.4h-6.9l-1.2,3.4h-3.9l7-19.3h3l7,19.3H109.9z M105.4,32.5l-2.4,7h4.8L105.4,32.5z"/>
		<path class="st1" d="M128.3,44.2c-1.3,1.3-3.1,1.8-5.1,1.8h-7V26.8h7c2,0,3.8,0.6,5.1,1.8c2.2,2.2,1.9,4.8,1.9,7.7
			S130.4,42.1,128.3,44.2z M125.6,31.3c-0.7-0.8-1.5-1.2-2.8-1.2H120v12.6h2.8c1.3,0,2.2-0.4,2.8-1.2c0.7-0.9,0.8-2.3,0.8-5.2
			S126.3,32.2,125.6,31.3z"/>
		<path class="st1" d="M134.1,46.1V26.8h3.8v19.3H134.1z"/>
		<path class="st1" d="M148.8,46.2c-2.1,0-3.8-0.8-5.2-2.1c-2-1.9-1.9-4.4-1.9-7.7s-0.1-5.7,1.9-7.7c1.4-1.4,3.1-2.1,5.2-2.1
			c3.6,0,6.4,2.1,7.1,6.1h-3.8c-0.4-1.5-1.4-2.7-3.3-2.7c-1,0-1.9,0.4-2.4,1c-0.7,0.8-0.9,1.7-0.9,5.4s0.2,4.6,0.9,5.4
			c0.5,0.6,1.4,1,2.4,1c1.9,0,2.9-1.2,3.3-2.7h3.8C155.2,44.2,152.4,46.2,148.8,46.2z"/>
		<path class="st1" d="M169.9,46.1l-1.1-3.4h-6.9l-1.2,3.4h-3.9l7-19.3h3l7,19.3H169.9z M165.4,32.5l-2.4,7h4.8L165.4,32.5z"/>
		<path class="st1" d="M181.9,30.1v15.9h-3.8V30.1h-5v-3.4H187v3.4H181.9z"/>
		<path class="st1" d="M190.1,46.1V26.8h3.8v19.3H190.1z"/>
		<path class="st1" d="M210,44.1c-1.4,1.4-3,2.1-5.2,2.1s-3.9-0.8-5.2-2.1c-1.9-1.9-1.9-4.4-1.9-7.7s-0.1-5.7,1.9-7.7
			c1.4-1.4,3-2.1,5.2-2.1s3.8,0.8,5.2,2.1c2,2,1.9,4.4,1.9,7.7S212,42.2,210,44.1z M207.2,31c-0.5-0.6-1.4-1-2.4-1s-1.9,0.4-2.4,1
			c-0.7,0.8-0.9,1.7-0.9,5.4s0.2,4.6,0.9,5.4c0.5,0.6,1.4,1,2.4,1s1.9-0.4,2.4-1c0.7-0.8,0.9-1.7,0.9-5.4S208,31.8,207.2,31z"/>
		<path class="st1" d="M227.2,46.1l-7.6-11.8v11.8h-3.8V26.8h3.4l7.6,11.8V26.8h3.8v19.3H227.2z"/>
		<path class="st1" d="M253.4,44.2c-1.3,1.3-3.1,1.8-5.1,1.8h-7V26.8h7c2,0,3.8,0.6,5.1,1.8c2.2,2.2,1.9,4.8,1.9,7.7
			S255.6,42.1,253.4,44.2z M250.8,31.3c-0.7-0.8-1.5-1.2-2.8-1.2h-2.8v12.6h2.8c1.3,0,2.2-0.4,2.8-1.2c0.7-0.9,0.8-2.3,0.8-5.2
			S251.5,32.2,250.8,31.3z"/>
		<path class="st1" d="M259.3,46.1V26.8H272v3.4H263v4.5h7.6V38H263v4.7h8.9v3.4H259.3z"/>
		<path class="st1" d="M64.7,78.6V59.3h3.8v15.9h8.8v3.4H64.7z"/>
		<path class="st1" d="M91.3,78.6l-1.1-3.4h-6.9l-1.2,3.4h-3.9l7-19.3h3l7,19.3H91.3z M86.8,65l-2.4,7h4.8L86.8,65z"/>
		<path class="st1" d="M111.4,71.4h-3.7v7.3h-3.8V59.3h7.5c4,0,6.4,2.7,6.4,6C117.8,68.6,115.4,71.4,111.4,71.4z M111.2,62.7h-3.5
			V68h3.5c1.7,0,2.8-1.1,2.8-2.6C114,63.8,112.9,62.7,111.2,62.7z"/>
		<path class="st1" d="M130.6,78.6l-1.1-3.4h-6.9l-1.2,3.4h-3.9l7-19.3h3l7,19.3H130.6z M126.1,65l-2.4,7h4.8L126.1,65z"/>
		<path class="st1" d="M143.7,78.8c-4,0-7.1-2.7-7.1-6.8V59.3h3.8v12.6c0,2.2,1.3,3.6,3.3,3.6c2,0,3.4-1.3,3.4-3.6V59.3h3.7V72
			C150.8,76.1,147.7,78.8,143.7,78.8z"/>
		<path class="st1" d="M162.1,78.6h-2.8l-6.4-19.3h3.9l3.9,12.6l3.9-12.6h3.9L162.1,78.6z"/>
		<path class="st1" d="M181,78.6l-3.8-7.7h-2.7v7.7h-3.8V59.3h7.6c3.9,0,6.3,2.7,6.3,5.9c0,2.7-1.7,4.4-3.5,5.1l4.3,8.3H181z
			 M178.1,62.7h-3.6v5.1h3.6c1.7,0,2.7-1.1,2.7-2.6C180.9,63.7,179.8,62.7,178.1,62.7z"/>
		<path class="st1" d="M188.5,78.6V59.3h12.7v3.4h-8.9v4.5h7.6v3.4h-7.6v4.7h8.9v3.4H188.5z"/>
		<path class="st1" d="M212.3,62.7v15.9h-3.8V62.7h-5v-3.4h13.9v3.4H212.3z"/>
		<path class="st1" d="M220.4,78.6V59.3h12.7v3.4h-8.9v4.5h7.6v3.4h-7.6v4.7h8.9v3.4H220.4z M227.4,57.4h-2.4l1.7-4.6h3.7
			L227.4,57.4z"/>
	</g>
</g>
</svg>
