<?xml version="1.0" encoding="utf-8"?>
<!-- Generator: Adobe Illustrator 21.0.2, SVG Export Plug-In . SVG Version: 6.00 Build 0)  -->
<svg version="1.1" id="Layer_1" xmlns="http://www.w3.org/2000/svg" xmlns:xlink="http://www.w3.org/1999/xlink" x="0px" y="0px"
	 viewBox="0 0 317.6 317.6" style="enable-background:new 0 0 317.6 317.6;" xml:space="preserve">
<style type="text/css">
	.st0{fill:#DD172F;}
	.st1{fill:#FFFFFF;}
	.st2{fill:none;stroke:#FFFFFF;stroke-width:1.3067;stroke-linecap:round;stroke-miterlimit:10;}
	.st3{fill:#E0A928;}
	.st4{fill:#499935;}
	.st5{fill:#C31922;}
	.st6{fill:#E53321;}
	.st7{fill:#38BAE3;}
	.st8{fill:#FAC400;}
	.st9{fill:#A5183B;}
	.st10{fill:#E9611D;}
	.st11{fill:#D9055F;}
	.st12{fill:#F59C12;}
	.st13{fill:#C38C12;}
	.st14{fill:none;stroke:#FFFFFF;stroke-width:0.73;stroke-miterlimit:10;}
	.st15{fill:#3F7C3C;}
	.st16{fill:#2593D2;}
	.st17{fill:#5EB032;}
	.st18{fill:#00639B;}
	.st19{fill:#1D4467;}
	.st20{fill:#EFEFEF;}
	.st21{fill:#010202;}
	.st22{fill:#61B032;}
	.st23{fill:#E6B719;}
	.st24{fill:#C21822;}
	.st25{fill:#489935;}
	.st26{fill:#3F7E3C;}
	.st27{fill:#F8C300;}
	.st28{fill:#E4351F;}
	.st29{fill:#F59C13;}
	.st30{fill:#2691D0;}
	.st31{fill:#A4193C;}
	.st32{fill:#37B9E2;}
	.st33{fill:#E9611F;}
	.st34{fill:#DF1531;}
	.st35{fill:#D80560;}
	.st36{fill:#1B4367;}
	.st37{fill:#CA9811;}
	.st38{fill:#00659A;}
</style>
<g>
	<rect class="st15" width="317.6" height="317.6"/>
	<path class="st1" d="M75.6,40.5v5.6c0,5.4-2.9,9-7.4,10.4c5.4,1.2,7.9,5,7.9,10.9v9.4c0,8.9-4.7,14.6-15.6,14.6
		c-11,0-14.8-6.2-14.8-16V67h9.8v9.2c0,3.8,1.3,6.2,5,6.2c3.3,0,4.8-2.4,4.8-5.8V66.1c0-3.4-1.5-5.2-5.3-5.2h-4.5v-8.2h4.1
		c3.5,0,5.8-1.8,5.8-5.2v-6.9c0-3.5-1.2-5.8-4.6-5.8c-3.4,0-4.6,2.3-4.6,6.2v6.5h-9.8v-5.7c0-9.4,3.9-16.1,15-16.1
		C71.2,25.9,75.6,31.5,75.6,40.5"/>
	<path class="st1" d="M277.7,201.5c-8.4-11.7-46.2-58.6-116.6-58.6c-70.4,0-108.2,46.9-116.6,58.6c-0.4,0.5-0.7,0.9-0.9,1.3
		c0.3,0.4,0.6,0.8,0.9,1.3c8.4,11.7,46.2,58.6,116.6,58.6c70.4,0,108.2-46.9,116.6-58.6c0.4-0.5,0.7-0.9,0.9-1.3
		C278.4,202.5,278.1,202,277.7,201.5 M121.9,172.6c0.6-0.9,2.7-3.6,3-3.9c0.5-0.7,1.6-0.8,2.4-1c0.7-0.1,1.7,0.3,1.9,0.8
		c0.1,0.6-0.3,2.7-0.7,3.1c-1,1.1-3.7,2.6-5.2,2.3C122.1,173.8,121.7,172.9,121.9,172.6 M119.4,177.6c0.1-0.1,0.2-0.2,0.3-0.3
		c0.9-1,2.6-1.2,3.9-1.4c1.2-0.2,2.8,0.4,3,1.2c0.2,0.8-3.1,2.3-3.7,2.8c-1.7,1.6-4.3,4.7-5.9,5.1c-0.5,0.1-0.9,0-1.3-0.1
		C116.8,182.3,118,179.9,119.4,177.6 M145.7,231.6c-1,3.7-2.1,5.1-3,6.3c-0.9,1.2-4.5,2.7-6.7,2.6c-2.2-0.2-2.5-6.1-2.5-9.2
		c0-1.1-1.5,2.1-2.3-4.3c-0.5-4.1-3.1,0.4-3.3-2.3c-0.2-2.7-1.5-2.2-2.9-3.9c-1.4-1.7-3.1,0.2-5,1c-1.9,0.8-1.1,1.3-3.8,0.4
		c-0.1,0-0.1,0-0.2-0.1c-2.5-5.9-3.9-12.3-3.9-19.1c0-1.7,0.1-3.3,0.2-4.9c0.1-0.2,0.2-0.3,0.3-0.5c2.6-3.1,2.5-3.8,2.5-3.8l2.9-1
		c0,0,4.6,0.7,8,2c2.8,1.1,7.3,3.5,9.9,2.4c1.9-0.8,3.4-1.8,3.2-3.4c-0.2-2-1.8-2.4-3.6-1.1c-0.7,0.5-2.2-3-3.3-2.8
		c-1.2,0.2,1.4,4.1,0.4,4.2c-1,0.2-3-4-3.3-4.7c-0.3-0.7-1.9-2.4-3.2-1.1c-2.9,2.7-7.6,2.6-8.5,3.3c-2.9,2.1-3.6-0.7-3.6-2.4
		c0.1-0.4,0.2-0.8,0.4-1.2c0.9-1,4.3-1.4,5.5-0.6c1.3,0.8,2.2-0.2,2.7-0.7c0.5-0.5,0.3-1.3,0-2c-0.3-0.7,0.6-1.2,1.3-1.4
		c0.7-0.2,2.8-1.7,3.7-2.2c0.9-0.5,5.4-1.1,7.4,0c2,1,3.9,0.2,4.9-1c1.3-1.5,2.8-2.6,3.6-3c0.7-0.3-1.7-2.6-3.8-0.1
		c-2,2.5-3.1,2.7-4,2.7c-1,0-6.6-1.4-7.3-3.2c-0.7-1.8,1.8-3.1,3.9-4.1c2.1-1,7.8-1,9.3-1.3c3-0.7,6.8-2.1,8.7-0.8
		c1.9,1.3-8,3.5-4.7,5.3c1.2,0.6,6.4-3,8.2-3.9c4.2-2.2-4.1-2.9-3-7.3c1.2-5-10.2-3.1-15.9-2.6c7.6-4.9,16.7-7.7,26.4-7.7
		c23.1,0,42.5,16,47.7,37.6c0,1.1-0.1,1.8-0.2,2.3c-0.4,1.8-3.8,3.3-5.7,0.4c-0.5-0.7-2.6-2.7-2.5,0.7c0.1,3.4,3.3,3.7,0.2,5.8
		c-3.1,2-3.7,1.5-5.2,2.1c-1.4,0.5-2.8,4-2.5,5.9c0.4,1.9,4.8,7,1.5,6.8c-0.8-0.1-6.6-4.1-7.6-6.6c-1-2.7-2.1-5.4-2.9-7.4
		c-0.8-2-2.9-2.6-4.6-1.4c-1.7,1.2,0.5,2.4-0.8,4.9c-1.2,2.5-2.1,4.8-4,2.7c-4.8-5.5-11.7-2.8-12.8-8.9c-0.6-3.3-3.4-3-5.8-4.9
		c-2.4-1.9-3.7-2.9-4.1-1.5c-0.4,1.2,7.5,7.4,8.1,9c0.8,2.4-2.3,4.5-4.7,5c-2.3,0.6-3.3-1.3-5.6-3.7c-2.3-2.4-3.3-4.1-3.4-2.2
		c-0.2,2.7,2.2,6.7,4.5,8.1c2,1.3,4.2,1.8,3.6,3.9c-0.6,2,0,0.9-2.2,3.1c-2.2,2.2-2.6,2.9-2.5,6c0.2,3.1-0.6,3.2-1.1,5.8
		C147.8,230.1,146.7,227.9,145.7,231.6 M198.3,212c1.6-0.1,4.1,2.1,3.2,3c-1,0.9-3.4,0.6-4.7-0.4C195.6,213.7,197.6,212.1,198.3,212
		 M196.2,210.5c-0.5-0.2-1-0.7-1.4-1.9c-0.4-1.2,0.6-1.9,1.6-1.4c1,0.5,2.3,2,2.3,2.8C198.7,210.9,196.8,210.8,196.2,210.5
		 M174.6,210.5c-1,0.9-3.4,0.5-4.7-0.4c-1.2-1,0.8-2.5,1.5-2.6C173.1,207.3,175.6,209.6,174.6,210.5 M154.6,220.2
		c-0.7,1.1-2.5,9.3-3.8,8.4c-1.2-1,0.5-9.6,0.9-10.2C153.6,214.8,157.8,215,154.6,220.2 M161.2,252.1c-4.8,0-9.4-0.7-13.8-2
		c-0.6-0.5-1-1.4-0.6-2.4c1.5-4,6-5.5,9.6-5.8c7.9-0.8,18.4,5.2,20.1,4.2c1.7-1,5-5.3,10-5.1c3.4,0.1,3.3,0.7,4.5,1.1
		C182.7,248.4,172.4,252.1,161.2,252.1 M195.8,237.9c-0.5-0.1-1-0.3-1.5-0.6c-2.7-1.4-2.4,0.8-3.7,0.3c-1.3-0.5,1.5-3.5-2.5-1
		c-3.9,2.6-2.9-0.4-4.6-4.8c-1.7-4.4,2-9.3,5.1-10.5c4.3-1.5,6.9-1.9,8.9-2.3c5.9-1.5,7.1-5,8.2-2.8c0.2,0.4,0.4,0.8,0.6,1.1
		c0.3,0.6,0.7,1.9,0.8,3.2C204.5,227.1,200.7,233,195.8,237.9 M209.2,213.1c-1.3-0.4-6.8-8-2.5-13c0.7-0.8-1.5-3.2-0.9-3.3
		c2.4-0.2,3.6,1.3,4.3,3.4c0,0.9,0.1,1.9,0.1,2.8C210.3,206.5,209.9,209.9,209.2,213.1"/>
	<polygon class="st1" points="20.4,37.5 20.4,48.7 20.5,48.7 28,40.9 28.1,40.9 28.1,89.9 38.9,89.9 38.9,25.9 30.3,25.9 	"/>
	<g>
		<path class="st1" d="M92.4,45.2V25.9h3.8v15.9h8.8v3.4H92.4z"/>
		<path class="st1" d="M114.5,45.4c-4,0-7.1-2.7-7.1-6.8V25.9h3.8v12.6c0,2.2,1.3,3.6,3.3,3.6c2,0,3.4-1.3,3.4-3.6V25.9h3.7v12.7
			C121.6,42.7,118.5,45.4,114.5,45.4z"/>
		<path class="st1" d="M133.2,29.3v15.9h-3.8V29.3h-5v-3.4h13.9v3.4H133.2z"/>
		<path class="st1" d="M148.7,29.3v15.9h-3.8V29.3h-5v-3.4h13.9v3.4H148.7z"/>
		<path class="st1" d="M156.8,45.2V25.9h12.7v3.4h-8.9v4.5h7.6v3.4h-7.6v4.7h8.9v3.4H156.8z"/>
		<path class="st1" d="M186,45.4c-2.1,0-3.8-0.8-5.2-2.1c-1.9-2-1.9-4.4-1.9-7.7s-0.1-5.7,1.9-7.7c1.4-1.4,3.1-2.1,5.2-2.1
			c3.6,0,6.4,2.1,7.1,6.1h-3.8c-0.4-1.5-1.4-2.7-3.3-2.7c-1,0-1.9,0.4-2.4,1c-0.7,0.8-0.9,1.7-0.9,5.4s0.2,4.6,0.9,5.4
			c0.5,0.6,1.4,1,2.4,1c1.9,0,2.9-1.2,3.3-2.7h3.8C192.4,43.3,189.5,45.4,186,45.4z"/>
		<path class="st1" d="M208,43.2c-1.4,1.4-3,2.1-5.2,2.1c-2.2,0-3.9-0.8-5.2-2.1c-1.9-2-1.9-4.4-1.9-7.7s-0.1-5.7,1.9-7.7
			c1.4-1.4,3-2.1,5.2-2.1c2.2,0,3.8,0.8,5.2,2.1c2,2,1.9,4.4,1.9,7.7S210,41.3,208,43.2z M205.2,30.1c-0.5-0.6-1.4-1-2.4-1
			c-1,0-1.9,0.4-2.4,1c-0.7,0.8-0.9,1.7-0.9,5.4s0.2,4.6,0.9,5.4c0.5,0.6,1.4,1,2.4,1c1,0,1.9-0.4,2.4-1c0.7-0.8,0.9-1.7,0.9-5.4
			S206,30.9,205.2,30.1z"/>
		<path class="st1" d="M225.2,45.2l-7.6-11.8v11.8h-3.8V25.9h3.4l7.6,11.8V25.9h3.8v19.3H225.2z"/>
		<path class="st1" d="M240.5,29.3v15.9h-3.8V29.3h-5v-3.4h13.9v3.4H240.5z"/>
		<path class="st1" d="M258.8,45.2l-3.8-7.7h-2.7v7.7h-3.8V25.9h7.6c3.9,0,6.3,2.7,6.3,5.9c0,2.7-1.7,4.4-3.5,5.1l4.3,8.3H258.8z
			 M255.9,29.3h-3.6v5.1h3.6c1.7,0,2.7-1.1,2.7-2.5C258.6,30.3,257.6,29.3,255.9,29.3z"/>
		<path class="st1" d="M266.3,45.2V25.9H279v3.4h-8.9v4.5h7.6v3.4h-7.6v4.7h8.9v3.4H266.3z"/>
		<path class="st1" d="M92.4,77.8V58.4h3.8v15.9h8.8v3.4H92.4z"/>
		<path class="st1" d="M108,77.8V58.4h12.7v3.4h-8.9v4.5h7.6v3.4h-7.6v4.7h8.9v3.4H108z"/>
		<path class="st1" d="M137.2,77.9c-2.1,0-3.8-0.8-5.2-2.1c-2-2-1.9-4.4-1.9-7.7c0-3.3-0.1-5.7,1.9-7.7c1.4-1.4,3.1-2.1,5.2-2.1
			c3.6,0,6.4,2.1,7.1,6.1h-3.8c-0.4-1.5-1.4-2.7-3.3-2.7c-1,0-1.9,0.4-2.4,1c-0.7,0.8-0.9,1.7-0.9,5.4s0.2,4.6,0.9,5.4
			c0.5,0.6,1.4,1,2.4,1c1.9,0,2.9-1.2,3.3-2.7h3.8C143.6,75.9,140.8,77.9,137.2,77.9z"/>
		<path class="st1" d="M157.9,77.8v-8.1h-6.5v8.1h-3.8V58.4h3.8v7.9h6.5v-7.9h3.8v19.3H157.9z"/>
		<path class="st1" d="M177.1,77.8l-1.1-3.4h-6.9l-1.2,3.4H164l7-19.3h3l7,19.3H177.1z M172.6,64.1l-2.4,7h4.8L172.6,64.1z"/>
		<path class="st1" d="M194.9,77.8l-7.6-11.8v11.8h-3.8V58.4h3.4l7.6,11.8V58.4h3.8v19.3H194.9z"/>
		<path class="st1" d="M214.6,75.7c-1.5,1.6-3.4,2.2-5.5,2.2c-2.1,0-3.8-0.8-5.2-2.1c-1.9-2-1.9-4.4-1.9-7.7c0-3.3-0.1-5.7,1.9-7.7
			c1.4-1.4,3-2.1,5.2-2.1c4.5,0,6.8,2.9,7.3,6.2h-3.8c-0.4-1.8-1.5-2.8-3.5-2.8c-1,0-1.9,0.4-2.4,1c-0.7,0.8-0.9,1.7-0.9,5.4
			s0.2,4.6,0.9,5.4c0.5,0.6,1.4,1,2.4,1c1.1,0,2.1-0.4,2.7-1.1c0.6-0.7,0.9-1.6,0.9-2.6v-0.7h-3.6V67h7.3v2.8
			C216.5,72.6,216,74.3,214.6,75.7z"/>
		<path class="st1" d="M220.3,77.8V58.4H233v3.4h-8.9v4.5h7.6v3.4h-7.6v4.7h8.9v3.4H220.3z"/>
		<path class="st1" d="M250.5,77.8V66.5l-3.7,7.3h-2.5l-3.7-7.3v11.3h-3.8V58.4h3.7l5,10.4l5-10.4h3.7v19.3H250.5z"/>
		<path class="st1" d="M258.7,77.8V58.4h12.7v3.4h-8.9v4.5h7.6v3.4h-7.6v4.7h8.9v3.4H258.7z"/>
		<path class="st1" d="M286.6,77.8l-7.6-11.8v11.8h-3.8V58.4h3.4l7.6,11.8V58.4h3.8v19.3H286.6z"/>
		<path class="st1" d="M301.8,61.8v15.9H298V61.8h-5v-3.4h13.9v3.4H301.8z"/>
		<path class="st1" d="M98.9,110.5c-2.1,0-3.8-0.8-5.2-2.1c-1.9-2-1.9-4.4-1.9-7.7c0-3.3-0.1-5.7,1.9-7.7c1.4-1.4,3.1-2.1,5.2-2.1
			c3.6,0,6.4,2.1,7.1,6.1h-3.8c-0.4-1.5-1.4-2.7-3.3-2.7c-1,0-1.9,0.4-2.4,1c-0.7,0.8-0.9,1.7-0.9,5.4c0,3.7,0.2,4.6,0.9,5.4
			c0.5,0.6,1.4,1,2.4,1c1.9,0,2.9-1.2,3.3-2.7h3.8C105.3,108.4,102.5,110.5,98.9,110.5z"/>
		<path class="st1" d="M109.3,110.3V91h3.8v15.9h8.8v3.4H109.3z"/>
		<path class="st1" d="M124.9,110.3V91h3.8v19.3H124.9z"/>
		<path class="st1" d="M146.9,110.3V99.1l-3.7,7.3h-2.5l-3.7-7.3v11.3h-3.8V91h3.7l5,10.4l5-10.4h3.7v19.3H146.9z"/>
		<path class="st1" d="M166.1,110.3l-1.1-3.4h-6.9l-1.2,3.4H153l7-19.3h3l7,19.3H166.1z M161.6,96.7l-2.4,7h4.8L161.6,96.7z"/>
		<path class="st1" d="M178.2,94.4v15.9h-3.8V94.4h-5V91h13.9v3.4H178.2z"/>
		<path class="st1" d="M186.3,110.3V91h3.8v19.3H186.3z"/>
		<path class="st1" d="M206.7,111.1l-1.7-1.7c-1.1,0.7-2.4,1.1-3.9,1.1c-2.2,0-3.9-0.8-5.2-2.1c-2-2-1.9-4.4-1.9-7.7
			c0-3.3-0.1-5.7,1.9-7.7c1.4-1.4,3-2.1,5.2-2.1s3.8,0.8,5.2,2.1c2,2,1.9,4.4,1.9,7.7c0,2.9,0,5-1.2,6.8l1.7,1.7L206.7,111.1z
			 M203.5,95.2c-0.5-0.6-1.4-1-2.4-1c-1,0-1.9,0.4-2.4,1c-0.7,0.8-0.9,1.7-0.9,5.4c0,3.7,0.2,4.6,0.9,5.4c0.5,0.6,1.4,1,2.4,1
			c0.5,0,0.9-0.1,1.2-0.4l-1.7-1.7l2-2l1.4,1.4c0.3-0.8,0.4-2,0.4-3.9C204.4,96.9,204.2,96,203.5,95.2z"/>
		<path class="st1" d="M218.8,110.5c-4,0-7.1-2.7-7.1-6.8V91h3.8v12.6c0,2.2,1.3,3.6,3.3,3.6c2,0,3.4-1.3,3.4-3.6V91h3.7v12.7
			C225.9,107.8,222.8,110.5,218.8,110.5z"/>
		<path class="st1" d="M230.1,110.3V91h12.7v3.4h-8.9v4.5h7.6v3.4h-7.6v4.7h8.9v3.4H230.1z"/>
	</g>
</g>
</svg>
