<?xml version="1.0" encoding="utf-8"?>
<!-- Generator: Adobe Illustrator 21.0.2, SVG Export Plug-In . SVG Version: 6.00 Build 0)  -->
<svg version="1.1" id="Layer_1" xmlns="http://www.w3.org/2000/svg" xmlns:xlink="http://www.w3.org/1999/xlink" x="0px" y="0px"
	 viewBox="0 0 317.6 317.6" style="enable-background:new 0 0 317.6 317.6;" xml:space="preserve">
<style type="text/css">
	.st0{fill:#DD172F;}
	.st1{fill:#FFFFFF;}
	.st2{fill:none;stroke:#FFFFFF;stroke-width:1.3067;stroke-linecap:round;stroke-miterlimit:10;}
	.st3{fill:#E0A928;}
	.st4{fill:#499935;}
	.st5{fill:#C31922;}
	.st6{fill:#E53321;}
	.st7{fill:#38BAE3;}
	.st8{fill:#FAC400;}
	.st9{fill:#A5183B;}
	.st10{fill:#E9611D;}
	.st11{fill:#D9055F;}
	.st12{fill:#F59C12;}
	.st13{fill:#C38C12;}
	.st14{fill:none;stroke:#FFFFFF;stroke-width:0.73;stroke-miterlimit:10;}
	.st15{fill:#3F7C3C;}
	.st16{fill:#2593D2;}
	.st17{fill:#5EB032;}
	.st18{fill:#00639B;}
	.st19{fill:#1D4467;}
	.st20{fill:#EFEFEF;}
	.st21{fill:#010202;}
	.st22{fill:#61B032;}
	.st23{fill:#E6B719;}
	.st24{fill:#C21822;}
	.st25{fill:#489935;}
	.st26{fill:#3F7E3C;}
	.st27{fill:#F8C300;}
	.st28{fill:#E4351F;}
	.st29{fill:#F59C13;}
	.st30{fill:#2691D0;}
	.st31{fill:#A4193C;}
	.st32{fill:#37B9E2;}
	.st33{fill:#E9611F;}
	.st34{fill:#DF1531;}
	.st35{fill:#D80560;}
	.st36{fill:#1B4367;}
	.st37{fill:#CA9811;}
	.st38{fill:#00659A;}
</style>
<g>
	<rect class="st5" width="317.6" height="317.6"/>
	<path class="st1" d="M41.6,90.6h10.2V80.3h4.3v-8.4h-4.3V26.6H41.2l-18.6,47v6.6h19V90.6z M32.1,71.9l9.6-26.4h0.1v26.4H32.1z"/>
	<polygon class="st1" points="140.8,170.3 83.9,137.4 83.9,243.8 140.8,261 	"/>
	<polygon class="st1" points="147.1,170.5 147.1,261 204.4,243.8 204.4,137.4 	"/>
	<path class="st1" d="M249.1,134.7c0-3.7-3-6.7-6.7-6.7c-3.7,0-6.7,3-6.7,6.7v7.3h13.5V134.7z"/>
	<polygon class="st1" points="237.3,241.9 235.6,241.9 242.4,265.5 249.1,241.9 247.4,241.9 249.1,241.9 249.1,147.2 247.4,147.2 
		245.8,147.2 244,147.2 240.6,147.2 239,147.2 237.3,147.2 235.6,147.2 235.6,241.9 	"/>
	<polygon class="st1" points="216.6,142 210.5,137.1 210.5,246.7 147.3,267.1 144.3,267.1 143.7,267.1 140.8,267.1 77.8,249.5 
		77.8,137.1 71.7,142 71.7,253.8 140.5,272.9 143.7,272.9 144.3,272.9 147.5,272.9 211,252.7 216.6,251 	"/>
	<g>
		<path class="st1" d="M87.9,45.3l-1.1-3.4h-6.9l-1.2,3.4h-3.9l7-19.3h3l7,19.3H87.9z M83.4,31.7l-2.4,7h4.8L83.4,31.7z"/>
		<path class="st1" d="M100.4,45.4c-2.1,0-3.8-0.8-5.2-2.1c-1.9-2-1.9-4.4-1.9-7.7s-0.1-5.7,1.9-7.7c1.4-1.4,3.1-2.1,5.2-2.1
			c3.6,0,6.4,2.1,7.1,6.1h-3.8c-0.4-1.5-1.4-2.7-3.3-2.7c-1,0-1.9,0.4-2.4,1C97.2,31,97,31.9,97,35.6s0.2,4.6,0.9,5.4
			c0.5,0.6,1.4,1,2.4,1c1.9,0,2.9-1.2,3.3-2.7h3.8C106.8,43.4,103.9,45.4,100.4,45.4z"/>
		<path class="st1" d="M117.2,45.4c-2.1,0-3.8-0.8-5.2-2.1c-2-2-1.9-4.4-1.9-7.7s-0.1-5.7,1.9-7.7c1.4-1.4,3.1-2.1,5.2-2.1
			c3.6,0,6.4,2.1,7.1,6.1h-3.8c-0.4-1.5-1.4-2.7-3.3-2.7c-1,0-1.9,0.4-2.4,1c-0.7,0.8-0.9,1.7-0.9,5.4s0.2,4.6,0.9,5.4
			c0.5,0.6,1.4,1,2.4,1c1.9,0,2.9-1.2,3.3-2.7h3.8C123.6,43.4,120.8,45.4,117.2,45.4z"/>
		<path class="st1" d="M127.5,45.3V26h12.7v3.4h-8.9v4.5h7.6v3.4h-7.6v4.7h8.9v3.4H127.5z M134.5,24.1h-2.4l1.7-4.6h3.7L134.5,24.1z
			"/>
		<path class="st1" d="M149.3,45.4c-2.9,0-5.2-0.6-7-2.5l2.4-2.4c1.2,1.2,2.9,1.6,4.7,1.6c2.2,0,3.4-0.8,3.4-2.4
			c0-0.7-0.2-1.2-0.6-1.6c-0.4-0.4-0.8-0.5-1.7-0.7l-2.3-0.3c-1.7-0.2-2.9-0.8-3.7-1.6c-0.9-0.9-1.4-2.2-1.4-3.8
			c0-3.4,2.5-5.9,6.7-5.9c2.7,0,4.6,0.7,6.2,2.3l-2.4,2.4c-1.2-1.2-2.7-1.3-4-1.3c-2,0-3,1.1-3,2.4c0,0.5,0.2,1,0.6,1.4
			c0.4,0.3,1,0.7,1.8,0.8l2.3,0.3c1.8,0.2,2.9,0.7,3.7,1.5c1,1,1.5,2.4,1.5,4.1C156.4,43.3,153.3,45.4,149.3,45.4z"/>
		<path class="st1" d="M177.3,45.3l-1.1-3.4h-6.9l-1.2,3.4h-3.9l7-19.3h3l7,19.3H177.3z M174.4,23.8c-0.8,0-1.3-0.2-2.1-0.6
			c-0.5-0.3-1-0.5-1.5-0.5c-0.5,0-0.9,0.1-1.6,0.8l-1.5-1.5c1.2-1.2,2-1.6,3-1.6c0.8,0,1.3,0.2,2.1,0.6c0.5,0.3,0.9,0.5,1.5,0.5
			c0.5,0,0.9-0.1,1.6-0.8l1.6,1.5C176.3,23.4,175.5,23.8,174.4,23.8z M172.8,31.7l-2.4,7h4.8L172.8,31.7z"/>
		<path class="st1" d="M196.7,45.4c-4,0-7.1-2.7-7.1-6.8V26h3.8v12.6c0,2.2,1.3,3.6,3.3,3.6c2,0,3.4-1.3,3.4-3.6V26h3.7v12.7
			C203.8,42.7,200.6,45.4,196.7,45.4z"/>
		<path class="st1" d="M219.4,45.3l-7.6-11.8v11.8H208V26h3.4l7.6,11.8V26h3.8v19.3H219.4z"/>
		<path class="st1" d="M227.3,45.3V26H240v3.4h-8.9v4.5h7.6v3.4h-7.6v4.7h8.9v3.4H227.3z"/>
		<path class="st1" d="M76.9,77.8V58.5h12.7v3.4h-8.9v4.5h7.6v3.4h-7.6v4.7h8.9v3.4H76.9z M83.9,56.7h-2.4l1.7-4.6H87L83.9,56.7z"/>
		<path class="st1" d="M105.3,76c-1.3,1.3-3.1,1.8-5.1,1.8h-7V58.5h7c2,0,3.8,0.6,5.1,1.8c2.2,2.2,2,4.8,2,7.7
			C107.3,71,107.5,73.8,105.3,76z M102.7,63.1c-0.7-0.8-1.5-1.2-2.8-1.2H97v12.6h2.8c1.3,0,2.2-0.4,2.8-1.2c0.7-0.9,0.8-2.2,0.8-5.2
			C103.5,65.2,103.4,63.9,102.7,63.1z"/>
		<path class="st1" d="M118,78c-4,0-7.1-2.7-7.1-6.8V58.5h3.8v12.6c0,2.2,1.3,3.6,3.3,3.6c2,0,3.4-1.3,3.4-3.6V58.5h3.7v12.7
			C125.1,75.3,121.9,78,118,78z"/>
		<path class="st1" d="M135.7,78c-2.1,0-3.8-0.8-5.2-2.1c-2-2-1.9-4.4-1.9-7.7s-0.1-5.7,1.9-7.7c1.4-1.4,3.1-2.1,5.2-2.1
			c3.6,0,6.4,2.1,7.1,6.1H139c-0.4-1.5-1.4-2.7-3.3-2.7c-1,0-1.9,0.4-2.4,1c-0.7,0.8-0.9,1.7-0.9,5.4c0,3.7,0.2,4.6,0.9,5.4
			c0.5,0.6,1.4,1,2.4,1c1.9,0,2.9-1.2,3.3-2.7h3.8C142.2,75.9,139.3,78,135.7,78z"/>
		<path class="st1" d="M156.8,77.8l-1.1-3.4h-6.9l-1.2,3.4h-3.9l7-19.3h3l7.1,19.3H156.8z M152.3,64.2l-2.4,7h4.8L152.3,64.2z"/>
		<path class="st1" d="M168.9,61.9v15.9h-3.8V61.9h-5v-3.4h13.9v3.4H168.9z"/>
		<path class="st1" d="M177,77.8V58.5h3.8v19.3H177z"/>
		<path class="st1" d="M197,75.9c-1.4,1.4-3,2.1-5.2,2.1c-2.2,0-3.9-0.8-5.2-2.1c-2-2-1.9-4.4-1.9-7.7s-0.1-5.7,1.9-7.7
			c1.4-1.4,3-2.1,5.2-2.1c2.2,0,3.9,0.8,5.2,2.1c1.9,2,1.9,4.4,1.9,7.7S198.9,73.9,197,75.9z M194.2,62.7c-0.5-0.6-1.4-1-2.4-1
			c-1,0-1.9,0.4-2.4,1c-0.7,0.8-0.9,1.7-0.9,5.4c0,3.7,0.2,4.6,0.9,5.4c0.5,0.6,1.4,1,2.4,1c1,0,1.9-0.4,2.4-1
			c0.7-0.8,0.9-1.7,0.9-5.4C195.1,64.5,194.9,63.6,194.2,62.7z"/>
		<path class="st1" d="M214.2,77.8L206.5,66v11.8h-3.8V58.5h3.4l7.6,11.8V58.5h3.8v19.3H214.2z"/>
		<path class="st1" d="M88.9,108.5c-1.3,1.3-3.1,1.8-5.1,1.8h-7V91.1h7c2,0,3.8,0.6,5.1,1.8c2.2,2.2,1.9,4.8,1.9,7.7
			C90.9,103.5,91.1,106.4,88.9,108.5z M86.3,95.6c-0.6-0.8-1.5-1.2-2.8-1.2h-2.8V107h2.8c1.3,0,2.2-0.4,2.8-1.2
			c0.7-0.9,0.8-2.2,0.8-5.2C87.1,97.7,87,96.5,86.3,95.6z"/>
		<path class="st1" d="M94.7,110.4V91.1h12.7v3.4h-8.9V99h7.6v3.4h-7.6v4.7h8.9v3.4H94.7z"/>
		<path class="st1" d="M129.5,111.2l-1.7-1.7c-1.1,0.7-2.4,1.1-3.9,1.1c-2.2,0-3.9-0.8-5.2-2.1c-1.9-2-1.9-4.4-1.9-7.7
			s-0.1-5.7,1.9-7.7c1.4-1.4,3-2.1,5.2-2.1c2.2,0,3.8,0.8,5.2,2.1c2,2,1.9,4.4,1.9,7.7c0,2.9,0,5-1.2,6.8l1.7,1.7L129.5,111.2z
			 M126.3,95.3c-0.5-0.6-1.4-1-2.4-1c-1,0-1.9,0.4-2.4,1c-0.7,0.8-0.9,1.7-0.9,5.4c0,3.7,0.2,4.6,0.9,5.4c0.5,0.6,1.4,1,2.4,1
			c0.5,0,0.9-0.1,1.2-0.4l-1.7-1.7l2-2l1.4,1.4c0.3-0.8,0.3-2,0.3-3.9C127.3,97,127.1,96.1,126.3,95.3z"/>
		<path class="st1" d="M141.7,110.5c-4,0-7.1-2.7-7.1-6.8V91.1h3.8v12.6c0,2.2,1.3,3.6,3.3,3.6s3.4-1.3,3.4-3.6V91.1h3.7v12.7
			C148.8,107.9,145.7,110.5,141.7,110.5z"/>
		<path class="st1" d="M164,110.4l-1.1-3.4H156l-1.2,3.4h-3.9l7-19.3h3l7,19.3H164z M159.5,96.8l-2.4,7h4.8L159.5,96.8z"/>
		<path class="st1" d="M170.3,110.4V91.1h3.8V107h8.8v3.4H170.3z"/>
		<path class="st1" d="M185.9,110.4V91.1h3.8v19.3H185.9z"/>
		<path class="st1" d="M201.6,94.4v15.9h-3.8V94.4h-5v-3.4h13.9v3.4H201.6z"/>
		<path class="st1" d="M209.7,110.4V91.1h12.7v3.4h-8.9V99h7.6v3.4h-7.6v4.7h8.9v3.4H209.7z M216.7,89.2h-2.4l1.7-4.6h3.7
			L216.7,89.2z"/>
	</g>
</g>
</svg>
