<?xml version="1.0" encoding="utf-8"?>
<!-- Generator: Adobe Illustrator 21.0.2, SVG Export Plug-In . SVG Version: 6.00 Build 0)  -->
<svg version="1.1" id="Layer_1" xmlns="http://www.w3.org/2000/svg" xmlns:xlink="http://www.w3.org/1999/xlink" x="0px" y="0px"
	 viewBox="0 0 317.6 317.6" style="enable-background:new 0 0 317.6 317.6;" xml:space="preserve">
<style type="text/css">
	.st0{fill:#DD172F;}
	.st1{fill:#FFFFFF;}
	.st2{fill:none;stroke:#FFFFFF;stroke-width:1.3067;stroke-linecap:round;stroke-miterlimit:10;}
	.st3{fill:#E0A928;}
	.st4{fill:#499935;}
	.st5{fill:#C31922;}
	.st6{fill:#E53321;}
	.st7{fill:#38BAE3;}
	.st8{fill:#FAC400;}
	.st9{fill:#A5183B;}
	.st10{fill:#E9611D;}
	.st11{fill:#D9055F;}
	.st12{fill:#F59C12;}
	.st13{fill:#C38C12;}
	.st14{fill:none;stroke:#FFFFFF;stroke-width:0.73;stroke-miterlimit:10;}
	.st15{fill:#3F7C3C;}
	.st16{fill:#2593D2;}
	.st17{fill:#5EB032;}
	.st18{fill:#00639B;}
	.st19{fill:#1D4467;}
	.st20{fill:#EFEFEF;}
	.st21{fill:#010202;}
	.st22{fill:#61B032;}
	.st23{fill:#E6B719;}
	.st24{fill:#C21822;}
	.st25{fill:#489935;}
	.st26{fill:#3F7E3C;}
	.st27{fill:#F8C300;}
	.st28{fill:#E4351F;}
	.st29{fill:#F59C13;}
	.st30{fill:#2691D0;}
	.st31{fill:#A4193C;}
	.st32{fill:#37B9E2;}
	.st33{fill:#E9611F;}
	.st34{fill:#DF1531;}
	.st35{fill:#D80560;}
	.st36{fill:#1B4367;}
	.st37{fill:#CA9811;}
	.st38{fill:#00659A;}
</style>
<g>
	<rect class="st10" width="317.6" height="317.6"/>
	<path class="st1" d="M236.1,210.5l-36.9-21.3v-42.5c0-0.9-0.5-1.7-1.3-2.2l-38.1-22c-0.8-0.4-1.7-0.4-2.5,0l-38.1,22
		c-0.8,0.4-1.3,1.3-1.3,2.2v42.5l-36.8,21.3c-0.8,0.4-1.3,1.3-1.3,2.2v44c0,0.9,0.5,1.7,1.3,2.2l38.1,22c0.4,0.2,0.8,0.3,1.3,0.3
		c0.4,0,0.9-0.1,1.3-0.3l36.8-21.3l36.8,21.3c0.4,0.2,0.8,0.3,1.3,0.3c0.4,0,0.9-0.1,1.3-0.3l38.1-22c0.8-0.4,1.3-1.3,1.3-2.2v-44
		C237.4,211.8,236.9,211,236.1,210.5z M156.1,252.3l-30.6-17.6l30.6-17.6V252.3z M191.7,190.7l-30.6,17.6v-35.3L191.7,190.7z
		 M156.1,208.3l-30.6-17.6l30.6-17.6V208.3z M163.7,212.7l33.1-19.1l33.1,19.1l-33.1,19.1L163.7,212.7z M194.2,186.3l-30.6-17.6
		l30.6-17.6V186.3z M153.6,168.7L123,186.3v-35.3L153.6,168.7z M118,274.3l-33.1-19.1V217l33.1,19.1V274.3z M123,274.3V239
		l30.6,17.6L123,274.3z M232.3,255.2l-33.1,19.1v-38.2l33.1-19.1V255.2z"/>
	<path class="st1" d="M50,42.7c0-9.9-4.3-17.1-15.7-17.1c-11.4,0-15.9,6.2-15.9,16.1v9.4c0,10.5,4.1,15.8,11.9,15.8
		c4.5,0,7.3-2.1,8.9-5.2h0.1v13.8c0,3.9-1.5,6.6-5.4,6.6c-3.9,0-5.3-2.3-5.3-6.2v-4.2h-9.8v3.4c0,9.4,3.4,16,15.3,16
		c11.3,0,15.9-7.3,15.9-17.3V42.7z M39.4,52.5c-0.2,3.6-1.7,5.8-5.1,5.8c-3.7,0-5.1-2.3-5.1-6.4V40.8c0-4.1,1.5-6.4,5.2-6.4
		c3.6,0,5,2.5,5,6.4V52.5z"/>
	<g>
		<path class="st1" d="M63.5,45V25.7h3.8V45H63.5z"/>
		<path class="st1" d="M82.9,45l-7.6-11.9V45h-3.8V25.7h3.4l7.6,11.8V25.7h3.8V45H82.9z"/>
		<path class="st1" d="M101.9,45l-7.6-11.9V45h-3.8V25.7h3.4l7.6,11.8V25.7h3.8V45H101.9z"/>
		<path class="st1" d="M121.2,43c-1.4,1.4-3,2.1-5.2,2.1c-2.2,0-3.9-0.8-5.2-2.1c-2-2-1.9-4.4-1.9-7.7c0-3.3-0.1-5.7,1.9-7.7
			c1.4-1.4,3-2.1,5.2-2.1c2.2,0,3.9,0.8,5.2,2.1c1.9,2,1.9,4.4,1.9,7.7C123.1,38.6,123.1,41.1,121.2,43z M118.4,29.9
			c-0.5-0.6-1.4-1-2.4-1c-1,0-1.9,0.4-2.4,1c-0.7,0.8-0.9,1.7-0.9,5.4c0,3.7,0.2,4.6,0.9,5.4c0.5,0.6,1.4,1,2.4,1c1,0,1.9-0.4,2.4-1
			c0.7-0.8,0.9-1.7,0.9-5.4C119.4,31.6,119.1,30.7,118.4,29.9z"/>
		<path class="st1" d="M133.5,45h-2.8l-6.4-19.3h3.9l3.9,12.6l3.9-12.6h3.9L133.5,45z"/>
		<path class="st1" d="M152,45l-1.1-3.4H144l-1.2,3.4h-3.9l7-19.3h3l7,19.3H152z M147.5,31.3l-2.4,7h4.8L147.5,31.3z"/>
		<path class="st1" d="M163.8,29V45H160V29h-5v-3.4h13.9V29H163.8z"/>
		<path class="st1" d="M171.6,45V25.7h3.8V45H171.6z"/>
		<path class="st1" d="M191.3,43c-1.4,1.4-3,2.1-5.2,2.1c-2.2,0-3.9-0.8-5.2-2.1c-1.9-2-1.9-4.4-1.9-7.7c0-3.3-0.1-5.7,1.9-7.7
			c1.4-1.4,3-2.1,5.2-2.1c2.2,0,3.9,0.8,5.2,2.1c2,2,1.9,4.4,1.9,7.7C193.2,38.6,193.2,41.1,191.3,43z M188.5,29.9
			c-0.5-0.6-1.4-1-2.4-1c-1,0-1.9,0.4-2.4,1c-0.7,0.8-0.9,1.7-0.9,5.4c0,3.7,0.2,4.6,0.9,5.4c0.5,0.6,1.4,1,2.4,1c1,0,1.9-0.4,2.4-1
			c0.7-0.8,0.9-1.7,0.9-5.4C189.4,31.6,189.2,30.7,188.5,29.9z"/>
		<path class="st1" d="M208.2,45l-7.6-11.9V45h-3.8V25.7h3.4l7.6,11.8V25.7h3.8V45H208.2z"/>
		<path class="st1" d="M221.8,45V25.7h12.7V29h-8.9v4.5h7.6v3.4h-7.6v4.7h8.9V45H221.8z"/>
		<path class="st1" d="M245.4,29V45h-3.8V29h-5v-3.4h13.9V29H245.4z"/>
		<path class="st1" d="M63.5,77.5V58.2h3.8v19.3H63.5z"/>
		<path class="st1" d="M82.9,77.5l-7.6-11.9v11.9h-3.8V58.2h3.4L82.5,70V58.2h3.8v19.3H82.9z"/>
		<path class="st1" d="M94.2,61.6v4.7h7.6v3.4h-7.6v7.8h-3.8V58.2h12.7v3.4H94.2z"/>
		<path class="st1" d="M116.4,77.5l-3.8-7.7h-2.7v7.7h-3.8V58.2h7.6c3.9,0,6.3,2.7,6.3,5.9c0,2.7-1.7,4.4-3.5,5.1l4.3,8.3H116.4z
			 M113.5,61.6h-3.6v5.1h3.6c1.7,0,2.7-1.1,2.7-2.5C116.2,62.6,115.1,61.6,113.5,61.6z"/>
		<path class="st1" d="M134.6,77.5l-1.1-3.4h-6.9l-1.2,3.4h-3.9l7-19.3h3l7,19.3H134.6z M130.1,63.9l-2.4,7h4.8L130.1,63.9z"/>
		<path class="st1" d="M145.9,77.7c-2.9,0-5.2-0.6-7.1-2.5l2.4-2.4c1.2,1.2,2.9,1.6,4.7,1.6c2.2,0,3.4-0.8,3.4-2.4
			c0-0.7-0.2-1.2-0.6-1.6c-0.4-0.4-0.8-0.5-1.7-0.7l-2.3-0.3c-1.7-0.2-2.9-0.8-3.7-1.6c-0.9-0.9-1.4-2.2-1.4-3.8
			c0-3.4,2.5-5.9,6.7-5.9c2.7,0,4.6,0.7,6.2,2.3l-2.4,2.4c-1.2-1.2-2.7-1.3-4-1.3c-2,0-3,1.1-3,2.4c0,0.5,0.2,1,0.6,1.4
			c0.4,0.4,1,0.7,1.8,0.8l2.3,0.3c1.8,0.2,2.9,0.7,3.7,1.5c1,1,1.5,2.4,1.5,4.1C153.1,75.6,149.9,77.7,145.9,77.7z"/>
		<path class="st1" d="M163.7,61.6v15.9h-3.8V61.6h-5v-3.4h13.9v3.4H163.7z"/>
		<path class="st1" d="M181.8,77.5l-3.8-7.7h-2.7v7.7h-3.8V58.2h7.6c3.9,0,6.3,2.7,6.3,5.9c0,2.7-1.7,4.4-3.5,5.1l4.3,8.3H181.8z
			 M178.8,61.6h-3.6v5.1h3.6c1.7,0,2.7-1.1,2.7-2.5C181.6,62.6,180.5,61.6,178.8,61.6z"/>
		<path class="st1" d="M195.8,77.7c-4,0-7.1-2.7-7.1-6.8V58.2h3.8v12.6c0,2.2,1.3,3.6,3.3,3.6c2,0,3.4-1.3,3.4-3.6V58.2h3.7v12.7
			C202.9,75,199.7,77.7,195.8,77.7z"/>
		<path class="st1" d="M213.2,77.7c-2.1,0-3.8-0.8-5.2-2.1c-2-2-1.9-4.4-1.9-7.7c0-3.3-0.1-5.7,1.9-7.7c1.4-1.4,3.1-2.1,5.2-2.1
			c3.6,0,6.4,2.1,7.1,6.1h-3.8c-0.4-1.5-1.4-2.7-3.3-2.7c-1,0-1.9,0.4-2.4,1c-0.7,0.8-0.9,1.7-0.9,5.4s0.2,4.6,0.9,5.4
			c0.5,0.6,1.4,1,2.4,1c1.9,0,2.9-1.2,3.3-2.7h3.8C219.7,75.6,216.8,77.7,213.2,77.7z"/>
		<path class="st1" d="M230.1,61.6v15.9h-3.8V61.6h-5v-3.4h13.9v3.4H230.1z"/>
		<path class="st1" d="M244.8,77.7c-4,0-7.1-2.7-7.1-6.8V58.2h3.8v12.6c0,2.2,1.3,3.6,3.3,3.6c2,0,3.4-1.3,3.4-3.6V58.2h3.7v12.7
			C251.9,75,248.7,77.7,244.8,77.7z"/>
		<path class="st1" d="M266,77.5l-3.8-7.7h-2.7v7.7h-3.8V58.2h7.6c3.9,0,6.3,2.7,6.3,5.9c0,2.7-1.7,4.4-3.5,5.1l4.3,8.3H266z
			 M263.1,61.6h-3.6v5.1h3.6c1.7,0,2.7-1.1,2.7-2.5C265.8,62.6,264.8,61.6,263.1,61.6z"/>
		<path class="st1" d="M273.2,77.5V58.2h12.7v3.4H277v4.5h7.6v3.4H277v4.7h8.9v3.4H273.2z"/>
		<path class="st1" d="M294.7,77.7c-2.9,0-5.2-0.6-7-2.5l2.4-2.4c1.2,1.2,2.9,1.6,4.7,1.6c2.2,0,3.4-0.8,3.4-2.4
			c0-0.7-0.2-1.2-0.6-1.6c-0.4-0.4-0.8-0.5-1.7-0.7l-2.3-0.3c-1.7-0.2-2.9-0.8-3.7-1.6c-0.9-0.9-1.4-2.2-1.4-3.8
			c0-3.4,2.5-5.9,6.7-5.9c2.7,0,4.6,0.7,6.2,2.3l-2.4,2.4c-1.2-1.2-2.7-1.3-4-1.3c-2,0-3,1.1-3,2.4c0,0.5,0.2,1,0.6,1.4
			c0.4,0.4,1,0.7,1.8,0.8l2.3,0.3c1.8,0.2,2.9,0.7,3.7,1.5c1,1,1.5,2.4,1.5,4.1C301.8,75.6,298.7,77.7,294.7,77.7z"/>
	</g>
</g>
</svg>
