<?xml version="1.0" encoding="utf-8"?>
<!-- Generator: Adobe Illustrator 21.0.2, SVG Export Plug-In . SVG Version: 6.00 Build 0)  -->
<svg version="1.1" id="Layer_1" xmlns="http://www.w3.org/2000/svg" xmlns:xlink="http://www.w3.org/1999/xlink" x="0px" y="0px"
	 viewBox="0 0 317.6 317.6" style="enable-background:new 0 0 317.6 317.6;" xml:space="preserve">
<style type="text/css">
	.st0{fill:#DD172F;}
	.st1{fill:#FFFFFF;}
	.st2{fill:none;stroke:#FFFFFF;stroke-width:1.3067;stroke-linecap:round;stroke-miterlimit:10;}
	.st3{fill:#E0A928;}
	.st4{fill:#499935;}
	.st5{fill:#C31922;}
	.st6{fill:#E53321;}
	.st7{fill:#38BAE3;}
	.st8{fill:#FAC400;}
	.st9{fill:#A5183B;}
	.st10{fill:#E9611D;}
	.st11{fill:#D9055F;}
	.st12{fill:#F59C12;}
	.st13{fill:#C38C12;}
	.st14{fill:none;stroke:#FFFFFF;stroke-width:0.73;stroke-miterlimit:10;}
	.st15{fill:#3F7C3C;}
	.st16{fill:#2593D2;}
	.st17{fill:#5EB032;}
	.st18{fill:#00639B;}
	.st19{fill:#1D4467;}
	.st20{fill:#EFEFEF;}
	.st21{fill:#010202;}
	.st22{fill:#61B032;}
	.st23{fill:#E6B719;}
	.st24{fill:#C21822;}
	.st25{fill:#489935;}
	.st26{fill:#3F7E3C;}
	.st27{fill:#F8C300;}
	.st28{fill:#E4351F;}
	.st29{fill:#F59C13;}
	.st30{fill:#2691D0;}
	.st31{fill:#A4193C;}
	.st32{fill:#37B9E2;}
	.st33{fill:#E9611F;}
	.st34{fill:#DF1531;}
	.st35{fill:#D80560;}
	.st36{fill:#1B4367;}
	.st37{fill:#CA9811;}
	.st38{fill:#00659A;}
</style>
<g>
	<rect class="st4" width="317.6" height="317.6"/>
	<path class="st1" d="M36.7,91.5c10.9,0,15.6-5.8,15.6-14.6v-9.4c0-5.9-2.5-9.6-7.9-10.9c4.4-1.4,7.4-5,7.4-10.4v-5.6
		c0-9.1-4.3-14.6-14.3-14.6c-11.1,0-15,6.6-15,16.1v5.7h9.8v-6.5c0-4,1.2-6.2,4.6-6.2c3.4,0,4.6,2.3,4.6,5.8v6.9
		c0,3.4-2.3,5.2-5.8,5.2h-4.1V61h4.5c3.8,0,5.3,1.8,5.3,5.2v10.6c0,3.4-1.5,5.8-4.8,5.8c-3.7,0-5-2.5-5-6.2v-9.2h-9.8v8.4
		C21.9,85.3,25.7,91.5,36.7,91.5"/>
	<g>
		<path class="st1" d="M265.5,198.5c0-8.9-5.7-16.2-14.4-16.2c-4.3,0-9.6,4.8-12.4,7.7c-2.8-2.9-7.7-7.7-12.1-7.7
			c-8.7,0-14.8,7.2-14.8,16.2c0,4.5,1.8,8.5,4.6,11.4l0,0l22.3,22.3l22.2-22.3l0,0C263.7,207,265.5,203,265.5,198.5z"/>
		<g>
			<path class="st1" d="M170.7,268.6c-0.1,0-0.2,0-0.2,0c-1.7-0.1-3.1-1.4-3.4-3l-11.3-65.9l-17.1,31.8c-0.7,1.4-2.3,2.1-3.9,1.9
				c-1.6-0.3-2.8-1.5-3-3.1l-7.3-50.8l-13.3,29.9c-0.6,1.3-1.9,2.2-3.3,2.2H56.2c-2,0-3.7-1.6-3.7-3.7c0-2,1.6-3.7,3.7-3.7h49.3
				l17.5-39.3c0.7-1.5,2.2-2.4,3.8-2.1c1.6,0.2,2.9,1.5,3.1,3.1l7.5,52.4l16.9-31.3c0.7-1.4,2.3-2.1,3.8-1.9c1.5,0.3,2.7,1.5,3,3
				l10.5,61l38.2-126.8c0.4-1.4,1.7-2.5,3.2-2.6c1.5-0.1,2.9,0.7,3.6,2.1l20.1,41.6c0.9,1.8,0.1,4-1.7,4.9c-1.8,0.9-4,0.1-4.9-1.7
				l-16-33.2L174.2,266C173.7,267.6,172.3,268.6,170.7,268.6z"/>
		</g>
	</g>
	<g>
		<path class="st1" d="M82.7,45.3l-1.1-3.4h-6.9l-1.2,3.4h-3.9l7-19.3h3l7,19.3H82.7z M78.2,31.7l-2.4,7h4.8L78.2,31.7z"/>
		<path class="st1" d="M95.2,45.4c-2.1,0-3.8-0.8-5.2-2.1c-1.9-2-1.9-4.4-1.9-7.7s-0.1-5.7,1.9-7.7c1.4-1.4,3.1-2.1,5.2-2.1
			c3.6,0,6.4,2.1,7.1,6.1h-3.8c-0.4-1.5-1.4-2.7-3.3-2.7c-1,0-1.9,0.4-2.4,1c-0.7,0.8-0.9,1.7-0.9,5.4s0.2,4.6,0.9,5.4
			c0.5,0.6,1.4,1,2.4,1c1.9,0,2.9-1.2,3.3-2.7h3.8C101.7,43.4,98.8,45.4,95.2,45.4z"/>
		<path class="st1" d="M112.1,45.4c-2.1,0-3.8-0.8-5.2-2.1c-1.9-2-1.9-4.4-1.9-7.7s-0.1-5.7,1.9-7.7c1.4-1.4,3.1-2.1,5.2-2.1
			c3.6,0,6.4,2.1,7.1,6.1h-3.8c-0.4-1.5-1.4-2.7-3.3-2.7c-1,0-1.9,0.4-2.4,1c-0.7,0.8-0.9,1.7-0.9,5.4s0.2,4.6,0.9,5.4
			c0.5,0.6,1.4,1,2.4,1c1.9,0,2.9-1.2,3.3-2.7h3.8C118.5,43.4,115.6,45.4,112.1,45.4z"/>
		<path class="st1" d="M122.4,45.3V26h12.7v3.4h-8.9v4.5h7.6v3.4h-7.6v4.7h8.9v3.4H122.4z M129.4,24.1h-2.4l1.7-4.6h3.7L129.4,24.1z
			"/>
		<path class="st1" d="M144.2,45.4c-2.9,0-5.2-0.6-7-2.5l2.4-2.4c1.2,1.2,2.9,1.6,4.7,1.6c2.2,0,3.4-0.8,3.4-2.4
			c0-0.7-0.2-1.2-0.6-1.6c-0.4-0.4-0.8-0.5-1.7-0.7l-2.3-0.3c-1.7-0.2-2.9-0.8-3.7-1.6c-0.9-0.9-1.4-2.2-1.4-3.8
			c0-3.4,2.5-5.9,6.7-5.9c2.7,0,4.6,0.7,6.2,2.3l-2.4,2.4c-1.2-1.2-2.7-1.3-4-1.3c-2,0-3,1.1-3,2.4c0,0.5,0.2,1,0.6,1.4
			c0.4,0.4,1,0.7,1.8,0.8l2.3,0.3c1.8,0.2,2.9,0.7,3.7,1.5c1,1,1.5,2.4,1.5,4.1C151.3,43.3,148.2,45.4,144.2,45.4z"/>
		<path class="st1" d="M172.2,45.3l-1.1-3.4h-6.9l-1.2,3.4h-3.9l7-19.3h3l7,19.3H172.2z M169.3,23.8c-0.8,0-1.3-0.2-2.1-0.6
			c-0.5-0.3-1-0.5-1.5-0.5c-0.5,0-0.9,0.1-1.6,0.8l-1.5-1.5c1.2-1.2,2-1.6,3-1.6c0.8,0,1.3,0.2,2.1,0.6c0.5,0.3,1,0.5,1.5,0.5
			c0.5,0,0.9-0.1,1.6-0.8l1.6,1.5C171.2,23.4,170.4,23.8,169.3,23.8z M167.7,31.7l-2.4,7h4.8L167.7,31.7z"/>
		<path class="st1" d="M71.8,77.8V58.5h3.8v15.9h8.8v3.4H71.8z"/>
		<path class="st1" d="M98.3,77.8l-1.1-3.4h-6.9l-1.2,3.4h-3.9l7-19.3h3l7,19.3H98.3z M93.8,64.2l-2.4,7h4.8L93.8,64.2z"/>
		<path class="st1" d="M116.3,78c-2.9,0-5.2-0.6-7-2.5l2.4-2.4c1.2,1.2,2.9,1.6,4.7,1.6c2.2,0,3.4-0.8,3.4-2.4
			c0-0.7-0.2-1.2-0.6-1.6c-0.4-0.4-0.8-0.5-1.7-0.7l-2.3-0.3c-1.7-0.2-2.9-0.8-3.7-1.6c-0.9-0.9-1.4-2.2-1.4-3.8
			c0-3.4,2.5-5.9,6.7-5.9c2.7,0,4.6,0.7,6.2,2.3l-2.4,2.4c-1.2-1.2-2.7-1.3-4-1.3c-2,0-3,1.1-3,2.4c0,0.5,0.2,1,0.6,1.4
			c0.4,0.4,1,0.7,1.8,0.8l2.3,0.3c1.8,0.2,2.9,0.7,3.7,1.5c1,1,1.5,2.4,1.5,4.1C123.4,75.9,120.3,78,116.3,78z"/>
		<path class="st1" d="M138,77.8l-1.1-3.4H130l-1.2,3.4h-3.9l7-19.3h3l7,19.3H138z M133.5,64.2l-2.4,7h4.8L133.5,64.2z"/>
		<path class="st1" d="M155.7,77.8L148.1,66v11.9h-3.8V58.5h3.4l7.6,11.8V58.5h3.8v19.3H155.7z"/>
		<path class="st1" d="M171,61.9v15.9h-3.8V61.9h-5v-3.4H176v3.4H171z"/>
		<path class="st1" d="M179.1,77.8V58.5h12.7v3.4h-8.9v4.5h7.6v3.4h-7.6v4.7h8.9v3.4H179.1z M186.1,56.7h-2.4l1.7-4.6h3.7
			L186.1,56.7z"/>
	</g>
</g>
</svg>
