<?xml version="1.0" encoding="utf-8"?>
<!-- Generator: Adobe Illustrator 21.0.2, SVG Export Plug-In . SVG Version: 6.00 Build 0)  -->
<svg version="1.1" id="Layer_1" xmlns="http://www.w3.org/2000/svg" xmlns:xlink="http://www.w3.org/1999/xlink" x="0px" y="0px"
	 viewBox="0 0 317.6 317.6" style="enable-background:new 0 0 317.6 317.6;" xml:space="preserve">
<style type="text/css">
	.st0{fill:#DD172F;}
	.st1{fill:#FFFFFF;}
	.st2{fill:none;stroke:#FFFFFF;stroke-width:1.3067;stroke-linecap:round;stroke-miterlimit:10;}
	.st3{fill:#E0A928;}
	.st4{fill:#499935;}
	.st5{fill:#C31922;}
	.st6{fill:#E53321;}
	.st7{fill:#38BAE3;}
	.st8{fill:#FAC400;}
	.st9{fill:#A5183B;}
	.st10{fill:#E9611D;}
	.st11{fill:#D9055F;}
	.st12{fill:#F59C12;}
	.st13{fill:#C38C12;}
	.st14{fill:none;stroke:#FFFFFF;stroke-width:0.73;stroke-miterlimit:10;}
	.st15{fill:#3F7C3C;}
	.st16{fill:#2593D2;}
	.st17{fill:#5EB032;}
	.st18{fill:#00639B;}
	.st19{fill:#1D4467;}
	.st20{fill:#EFEFEF;}
	.st21{fill:#010202;}
	.st22{fill:#61B032;}
	.st23{fill:#E6B719;}
	.st24{fill:#C21822;}
	.st25{fill:#489935;}
	.st26{fill:#3F7E3C;}
	.st27{fill:#F8C300;}
	.st28{fill:#E4351F;}
	.st29{fill:#F59C13;}
	.st30{fill:#2691D0;}
	.st31{fill:#A4193C;}
	.st32{fill:#37B9E2;}
	.st33{fill:#E9611F;}
	.st34{fill:#DF1531;}
	.st35{fill:#D80560;}
	.st36{fill:#1B4367;}
	.st37{fill:#CA9811;}
	.st38{fill:#00659A;}
</style>
<g>
	<rect class="st6" width="317.6" height="317.6"/>
	<path class="st1" d="M45.2,46.9c-4.2,0-7.4,1.5-9.1,4.4H36v-16h18.5v-8.8H26.2v36.1H36v-1.4c0-3.8,1.7-5.9,4.7-5.9
		c3.3,0,4.6,2.3,4.6,5.8v15.5c0,3.4-1.2,5.8-4.5,5.8c-3.7,0-5-2.5-5-6.2v-8H26v7.3c0,9.7,3.9,16,14.8,16c10.9,0,15.3-5.8,15.3-14.6
		V61.1C56.2,50.9,51,46.9,45.2,46.9"/>
	<g>
		<path class="st1" d="M225.9,120.2h-39.5c-0.3,0-0.5,0.2-0.5,0.5v13.1c0,0.3,0.2,0.5,0.5,0.5h15.7l-17.5,17.5
			c-8.8-6.9-19.9-11-31.9-11c-28.5,0-51.7,23.2-51.7,51.7c0,26.2,19.7,48,45,51.3v15.1h-15.6c-0.3,0-0.5,0.2-0.5,0.5v14.1
			c0,0.3,0.2,0.5,0.5,0.5h15.6v14.9c0,0.3,0.2,0.5,0.5,0.5h14.1c0.3,0,0.5-0.2,0.5-0.5v-14.9h15.6c0.3,0,0.5-0.2,0.5-0.5v-14.1
			c0-0.3-0.2-0.5-0.5-0.5h-15.6v-15.4c24.5-4,43.3-25.4,43.3-51c0-11.1-3.5-21.3-9.4-29.7l17.2-17.2v14.7c0,0.3,0.2,0.5,0.5,0.5
			h13.1c0.3,0,0.5-0.2,0.5-0.5v-39.5C226.4,120.4,226.2,120.2,225.9,120.2 M152.8,230.5c-21,0-38-17.1-38-38.1
			c0-21,17.1-38.1,38-38.1c21,0,38.1,17.1,38.1,38.1C190.9,213.4,173.8,230.5,152.8,230.5"/>
		<path class="st1" d="M176.1,176.8h-46.2c-0.3,0-0.5,0.2-0.5,0.4v11.2c0,0.3,0.2,0.5,0.5,0.5h46.2c0.3,0,0.5-0.2,0.5-0.5v-11.2
			C176.6,177,176.3,176.8,176.1,176.8"/>
		<path class="st1" d="M176.1,196.7h-46.2c-0.3,0-0.5,0.2-0.5,0.5v11.2c0,0.3,0.2,0.5,0.5,0.5h46.2c0.3,0,0.5-0.2,0.5-0.5v-11.2
			C176.6,196.9,176.3,196.7,176.1,196.7"/>
	</g>
	<g>
		<path class="st1" d="M74.7,45.9V26.6h12.7V30h-8.9v4.5h7.6v3.4h-7.6v4.7h8.9v3.4H74.7z M81.7,24.7h-2.4l1.7-4.6h3.7L81.7,24.7z"/>
		<path class="st1" d="M103.1,43.9c-1.5,1.6-3.4,2.2-5.4,2.2c-2.1,0-3.8-0.8-5.2-2.1c-1.9-2-1.9-4.4-1.9-7.7s-0.1-5.7,1.9-7.7
			c1.4-1.4,3-2.1,5.2-2.1c4.5,0,6.8,2.9,7.3,6.2h-3.8c-0.4-1.8-1.5-2.8-3.5-2.8c-1,0-1.9,0.4-2.4,1c-0.7,0.8-0.9,1.7-0.9,5.4
			s0.2,4.6,0.9,5.4c0.5,0.6,1.4,1,2.4,1c1.1,0,2.1-0.4,2.7-1.1c0.6-0.7,0.9-1.6,0.9-2.6v-0.7h-3.6v-3.1h7.3V38
			C104.9,40.8,104.4,42.5,103.1,43.9z"/>
		<path class="st1" d="M119.5,45.9l-1.1-3.4h-6.9l-1.2,3.4h-3.9l7-19.3h3l7.1,19.3H119.5z M114.9,32.3l-2.4,7h4.8L114.9,32.3z"/>
		<path class="st1" d="M125.8,45.9V26.6h3.8v15.9h8.8v3.4H125.8z"/>
		<path class="st1" d="M141.4,45.9V26.6h3.8v19.3H141.4z"/>
		<path class="st1" d="M157,30v15.9h-3.8V30h-5v-3.4h13.9V30H157z"/>
		<path class="st1" d="M165.1,45.9V26.6h12.7V30h-8.9v4.5h7.6v3.4h-7.6v4.7h8.9v3.4H165.1z M172.1,24.7h-2.4l1.7-4.6h3.7L172.1,24.7
			z"/>
		<path class="st1" d="M187.8,45.9V26.6h12.7V30h-8.9v4.5h7.6v3.4h-7.6v4.7h8.9v3.4H187.8z"/>
		<path class="st1" d="M215.7,45.9L208,34.1v11.8h-3.8V26.6h3.4l7.6,11.8V26.6h3.8v19.3H215.7z"/>
		<path class="st1" d="M230.9,30v15.9h-3.8V30h-5v-3.4H236V30H230.9z"/>
		<path class="st1" d="M249.3,45.9l-3.8-7.7h-2.7v7.7H239V26.6h7.6c3.9,0,6.3,2.7,6.3,5.9c0,2.7-1.7,4.4-3.5,5.1l4.3,8.3H249.3z
			 M246.4,30h-3.6v5.1h3.6c1.7,0,2.7-1.1,2.7-2.5C249.1,31,248,30,246.4,30z"/>
		<path class="st1" d="M256.8,45.9V26.6h12.7V30h-8.9v4.5h7.6v3.4h-7.6v4.7h8.9v3.4H256.8z"/>
		<path class="st1" d="M74.7,78.5V59.1h3.8v15.9h8.8v3.4H74.7z"/>
		<path class="st1" d="M90.3,78.5V59.1h12.7v3.4h-8.9V67h7.6v3.4h-7.6v4.7h8.9v3.4H90.3z"/>
		<path class="st1" d="M112.1,78.6c-2.9,0-5.2-0.6-7.1-2.5l2.4-2.4c1.2,1.2,2.9,1.6,4.7,1.6c2.2,0,3.4-0.8,3.4-2.4
			c0-0.7-0.2-1.2-0.6-1.6c-0.4-0.4-0.8-0.5-1.7-0.7l-2.3-0.3c-1.7-0.2-2.9-0.8-3.7-1.6c-0.9-0.9-1.4-2.2-1.4-3.8
			c0-3.4,2.5-5.9,6.7-5.9c2.7,0,4.6,0.7,6.2,2.2l-2.4,2.4c-1.2-1.2-2.7-1.3-4-1.3c-2,0-3,1.1-3,2.4c0,0.5,0.2,1,0.6,1.4
			c0.4,0.4,1,0.7,1.8,0.8l2.3,0.3c1.8,0.2,2.9,0.7,3.7,1.5c1,1,1.5,2.4,1.5,4.1C119.2,76.5,116.1,78.6,112.1,78.6z"/>
		<path class="st1" d="M134.4,78.6c-2.9,0-5.2-0.6-7-2.5l2.4-2.4c1.2,1.2,2.9,1.6,4.7,1.6c2.2,0,3.4-0.8,3.4-2.4
			c0-0.7-0.2-1.2-0.6-1.6c-0.4-0.4-0.8-0.5-1.7-0.7l-2.3-0.3c-1.7-0.2-2.9-0.8-3.7-1.6c-0.9-0.9-1.4-2.2-1.4-3.8
			c0-3.4,2.5-5.9,6.7-5.9c2.7,0,4.6,0.7,6.2,2.2l-2.4,2.4c-1.2-1.2-2.7-1.3-4-1.3c-2,0-3,1.1-3,2.4c0,0.5,0.2,1,0.6,1.4
			c0.4,0.4,1,0.7,1.8,0.8l2.3,0.3c1.8,0.2,2.9,0.7,3.7,1.5c1,1,1.5,2.4,1.5,4.1C141.6,76.5,138.4,78.6,134.4,78.6z"/>
		<path class="st1" d="M145.1,78.5V59.1h12.7v3.4h-8.9V67h7.6v3.4h-7.6v4.7h8.9v3.4H145.1z"/>
		<path class="st1" d="M171.2,78.5l-3.7-6.7l-3.7,6.7h-4.3l6-9.9l-5.6-9.4h4.3l3.4,6.2l3.4-6.2h4.3l-5.6,9.4l6,9.9H171.2z"/>
		<path class="st1" d="M177.9,78.5V59.1h12.7v3.4h-8.9V67h7.6v3.4h-7.6v4.7h8.9v3.4H177.9z"/>
		<path class="st1" d="M199.6,78.6c-2.9,0-5.2-0.6-7-2.5l2.4-2.4c1.2,1.2,2.9,1.6,4.7,1.6c2.2,0,3.4-0.8,3.4-2.4
			c0-0.7-0.2-1.2-0.6-1.6c-0.4-0.4-0.8-0.5-1.7-0.7l-2.3-0.3c-1.7-0.2-2.9-0.8-3.7-1.6c-0.9-0.9-1.4-2.2-1.4-3.8
			c0-3.4,2.5-5.9,6.7-5.9c2.7,0,4.6,0.7,6.2,2.2l-2.4,2.4c-1.2-1.2-2.7-1.3-4-1.3c-2,0-3,1.1-3,2.4c0,0.5,0.2,1,0.6,1.4
			c0.4,0.4,1,0.7,1.8,0.8l2.3,0.3c1.8,0.2,2.9,0.7,3.7,1.5c1,1,1.5,2.4,1.5,4.1C206.8,76.5,203.7,78.6,199.6,78.6z"/>
	</g>
</g>
</svg>
