<?xml version="1.0" encoding="utf-8"?>
<!-- Generator: Adobe Illustrator 21.0.2, SVG Export Plug-In . SVG Version: 6.00 Build 0)  -->
<svg version="1.1" id="Layer_1" xmlns="http://www.w3.org/2000/svg" xmlns:xlink="http://www.w3.org/1999/xlink" x="0px" y="0px"
	 viewBox="0 0 317.6 317.6" style="enable-background:new 0 0 317.6 317.6;" xml:space="preserve">
<style type="text/css">
	.st0{fill:#FBC500;}
	.st1{fill:#FFFFFF;}
	.st2{fill:#A6183B;}
	.st3{fill:#EB611E;}
	.st4{fill:#DA025F;}
	.st5{fill:#F59D10;}
	.st6{fill:#C48E13;}
	.st7{fill:none;stroke:#FFFFFF;stroke-width:0.73;stroke-miterlimit:10;}
	.st8{fill:#DE1730;}
	.st9{fill:none;stroke:#FFFFFF;stroke-width:1.3067;stroke-linecap:round;stroke-miterlimit:10;}
	.st10{fill:#E1AA29;}
	.st11{fill:#C41722;}
	.st12{fill:#E6331F;}
	.st13{fill:#3BBBE4;}
	.st14{fill:#4B9B34;}
	.st15{fill:#F7F7F8;}
	.st16{fill:#39ABE2;}
	.st17{fill:#3E8EDE;}
	.st18{fill:#62B231;}
	.st19{fill:#E7B81A;}
	.st20{fill:#C31723;}
	.st21{fill:#499A35;}
	.st22{fill:#407E3D;}
	.st23{fill:#F9C400;}
	.st24{fill:#E6351D;}
	.st25{fill:#F59E12;}
	.st26{fill:#2494D2;}
	.st27{fill:#A5193C;}
	.st28{fill:#3ABAE3;}
	.st29{fill:#EB621F;}
	.st30{fill:#E01630;}
	.st31{fill:#D9045F;}
	.st32{fill:#1C4468;}
	.st33{fill:#CB9914;}
	.st34{fill:#04649B;}
	.st35{fill:#5FB130;}
	.st36{fill:#407D3C;}
	.st37{fill:#2496D3;}
	.st38{fill:#1E4468;}
	.st39{fill:#05639B;}
</style>
<g>
	<rect x="0" y="0" class="st3" width="317.6" height="317.6"/>
	<path class="st1" d="M239.9,208.8L202.2,187v-43.6c0-0.9-0.5-1.8-1.3-2.2l-39-22.5c-0.8-0.5-1.8-0.5-2.6,0l-39,22.5
		c-0.8,0.5-1.3,1.3-1.3,2.2V187l-37.7,21.8c-0.8,0.5-1.3,1.3-1.3,2.2v45.1c0,0.9,0.5,1.8,1.3,2.2l39,22.5c0.4,0.2,0.8,0.3,1.3,0.3
		c0.4,0,0.9-0.1,1.3-0.3l37.7-21.8l37.7,21.8c0.4,0.2,0.8,0.3,1.3,0.3c0.4,0,0.9-0.1,1.3-0.3l39-22.5c0.8-0.5,1.3-1.3,1.3-2.2V211
		C241.2,210.1,240.7,209.3,239.9,208.8z M158,251.6l-31.3-18.1l31.3-18.1V251.6z M194.4,188.5l-31.3,18.1v-36.1L194.4,188.5z
		 M158,206.6l-31.3-18.1l31.3-18.1V206.6z M165.7,211l33.9-19.6l33.9,19.6l-33.9,19.6L165.7,211z M197,184L165.7,166l31.3-18.1V184z
		 M155.4,166L124.1,184v-36.2L155.4,166z M118.9,274.2l-33.9-19.6v-39.1l33.9,19.6V274.2z M124.1,274.2V238l31.3,18.1L124.1,274.2z
		 M236.1,254.6l-33.9,19.6v-39.1l33.9-19.6V254.6z"/>
	<path class="st1" d="M58.2,42.7c0-9.9-4.3-17.1-15.7-17.1c-11.4,0-15.9,6.2-15.9,16.1v9.4c0,10.5,4.1,15.8,11.9,15.8
		c4.5,0,7.3-2.1,8.9-5.2h0.1v13.8c0,3.9-1.5,6.6-5.4,6.6c-3.9,0-5.3-2.3-5.3-6.2v-4.2H27v3.4c0,9.4,3.4,16,15.3,16
		c11.3,0,15.9-7.3,15.9-17.3V42.7z M47.5,52.6c-0.2,3.6-1.7,5.9-5.1,5.9c-3.7,0-5.1-2.3-5.1-6.4V40.8c0-4.1,1.5-6.4,5.2-6.4
		c3.6,0,5,2.5,5,6.4V52.6z"/>
	<g>
		<path class="st1" d="M76.6,26.7h4.5v26.8h-4.5V26.7z"/>
		<path class="st1" d="M86.3,36.6v16.8h-3.8V26.7h4.4L91.8,42V26.7h3.8v26.8h-3.9L86.3,36.6z"/>
		<path class="st1" d="M110.4,33.9v12.4c0,4.1-1.7,7.2-6.5,7.2H97V26.7h6.9C108.7,26.7,110.4,29.7,110.4,33.9z M103.4,49.8
			c1.9,0,2.6-1.1,2.6-2.7V33c0-1.6-0.7-2.7-2.6-2.7h-1.9v19.4H103.4z"/>
		<path class="st1" d="M124.9,26.7v20.3c0,4.1-1.8,6.8-6.4,6.8c-4.7,0-6.7-2.7-6.7-6.8V26.7h4.5v20.7c0,1.6,0.6,2.6,2.2,2.6
			c1.6,0,2.2-1.1,2.2-2.6V26.7H124.9z"/>
		<path class="st1" d="M126.1,47.7v-3.6h4.2v3.7c0,1.5,0.7,2.4,2.2,2.4c1.4,0,2.1-0.9,2.1-2.4v-1c0-1.5-0.6-2.5-2-3.8l-2.6-2.6
			c-2.6-2.5-3.8-4.1-3.8-7.1v-0.9c0-3.3,1.9-5.9,6.3-5.9c4.5,0,6.3,2.2,6.3,6.1v2.2h-4.1v-2.3c0-1.5-0.7-2.3-2.1-2.3
			c-1.3,0-2.1,0.7-2.1,2.2v0.6c0,1.5,0.8,2.4,2.1,3.6l2.9,2.8c2.4,2.5,3.6,4,3.6,6.9v1.3c0,3.7-2,6.3-6.6,6.3
			C127.9,53.8,126.1,51.2,126.1,47.7z"/>
		<path class="st1" d="M139.1,26.7h12v3.7h-3.7v23.1h-4.5V30.4h-3.7V26.7z"/>
		<path class="st1" d="M156.5,41.2v12.3H152V26.7h6.6c4.5,0,6.2,2.3,6.2,6v3.4c0,2.9-1,4.6-3.6,5.2l4.3,12.2h-4.7L156.5,41.2z
			 M156.5,30.4v8.3h1.5c1.5,0,2.2-0.8,2.2-2.2v-3.9c0-1.5-0.7-2.2-2.2-2.2H156.5z"/>
		<path class="st1" d="M174.3,43.3v10.2h-4.5V43.3l-5-16.6h4.7l2.7,10.1h0l2.7-10.1h4.3L174.3,43.3z"/>
		<path class="st1" d="M181.9,49.5l-2.3,6h-2.5l0.6-6.4h4.3V49.5z"/>
		<path class="st1" d="M186.4,26.7h4.5v26.8h-4.5V26.7z"/>
		<path class="st1" d="M196.1,36.6v16.8h-3.8V26.7h4.4l4.9,15.4V26.7h3.8v26.8h-3.9L196.1,36.6z"/>
		<path class="st1" d="M210.6,36.6v16.8h-3.8V26.7h4.4L216,42V26.7h3.8v26.8h-3.9L210.6,36.6z"/>
		<path class="st1" d="M221.2,46.5V33.6c0-4.2,2.1-7.2,6.8-7.2c4.8,0,6.8,3,6.8,7.2v12.9c0,4.1-2.1,7.2-6.8,7.2
			C223.3,53.8,221.2,50.7,221.2,46.5z M230.3,47.3V32.9c0-1.6-0.7-2.8-2.3-2.8c-1.6,0-2.3,1.1-2.3,2.8v14.4c0,1.6,0.7,2.8,2.3,2.8
			C229.6,50,230.3,48.9,230.3,47.3z"/>
		<path class="st1" d="M249.9,26.7l-5.1,26.8h-4.9l-5.1-26.8h4.6l3.1,18.7h0l3.2-18.7H249.9z"/>
		<path class="st1" d="M247.5,53.5l5.1-26.8h5.1l5.1,26.8h-4.6l-0.8-4.9h-4.8l-0.8,4.9H247.5z M253.1,45h3.6L255,34.2h0L253.1,45z"
			/>
		<path class="st1" d="M261,26.7h12v3.7h-3.7v23.1h-4.5V30.4H261V26.7z"/>
		<path class="st1" d="M273.9,26.7h4.5v26.8h-4.5V26.7z"/>
		<path class="st1" d="M279.9,46.5V33.6c0-4.2,2.1-7.2,6.8-7.2c4.8,0,6.8,3,6.8,7.2v12.9c0,4.1-2.1,7.2-6.8,7.2
			C281.9,53.8,279.9,50.7,279.9,46.5z M289,47.3V32.9c0-1.6-0.7-2.8-2.3-2.8c-1.6,0-2.3,1.1-2.3,2.8v14.4c0,1.6,0.7,2.8,2.3,2.8
			C288.3,50,289,48.9,289,47.3z"/>
		<path class="st1" d="M298.7,36.6v16.8h-3.8V26.7h4.4l4.9,15.4V26.7h3.8v26.8H304L298.7,36.6z"/>
		<path class="st1" d="M75.8,91l5.1-26.8H86L91.1,91h-4.6l-0.8-4.9h-4.8L80.1,91H75.8z M81.5,82.5h3.6l-1.8-10.7h0L81.5,82.5z"/>
		<path class="st1" d="M95.6,74.1V91h-3.8V64.2h4.4l4.9,15.4V64.2h3.8V91h-3.9L95.6,74.1z"/>
		<path class="st1" d="M119.7,71.4v12.4c0,4.1-1.7,7.2-6.5,7.2h-6.9V64.2h6.9C118,64.2,119.7,67.2,119.7,71.4z M112.7,87.3
			c1.9,0,2.6-1.1,2.6-2.7v-14c0-1.6-0.7-2.7-2.6-2.7h-1.9v19.4H112.7z"/>
		<path class="st1" d="M124.2,64.2h4.5V91h-4.5V64.2z"/>
		<path class="st1" d="M133.9,74.1V91h-3.8V64.2h4.4l4.9,15.4V64.2h3.8V91h-3.9L133.9,74.1z"/>
		<path class="st1" d="M144.6,64.2h10.5v3.7h-6v7.7h4.5v3.6h-4.5V91h-4.5V64.2z"/>
		<path class="st1" d="M160.4,78.7V91h-4.5V64.2h6.6c4.5,0,6.2,2.3,6.2,6v3.4c0,2.9-1,4.6-3.6,5.2l4.3,12.2h-4.7L160.4,78.7z
			 M160.4,67.9v8.3h1.5c1.5,0,2.2-0.8,2.2-2.2V70c0-1.5-0.7-2.2-2.2-2.2H160.4z"/>
		<path class="st1" d="M169.3,91l5.1-26.8h5.1l5.1,26.8h-4.6l-0.8-4.9h-4.8l-0.8,4.9H169.3z M174.9,82.5h3.6l-1.8-10.7h0L174.9,82.5
			z"/>
		<path class="st1" d="M184.6,85.2v-3.6h4.2v3.7c0,1.5,0.7,2.4,2.2,2.4c1.4,0,2.1-0.9,2.1-2.4v-1c0-1.5-0.6-2.5-2-3.8l-2.6-2.6
			c-2.6-2.5-3.8-4.1-3.8-7.1v-0.9c0-3.3,1.9-5.9,6.3-5.9c4.5,0,6.3,2.2,6.3,6.1v2.2h-4.1v-2.3c0-1.5-0.7-2.3-2.1-2.3
			c-1.3,0-2.1,0.7-2.1,2.2v0.6c0,1.5,0.8,2.4,2.1,3.6l2.9,2.8c2.4,2.5,3.6,4,3.6,6.9V85c0,3.7-2,6.3-6.6,6.3
			C186.4,91.3,184.6,88.7,184.6,85.2z"/>
		<path class="st1" d="M197.7,64.2h12v3.7h-3.7V91h-4.5V67.9h-3.7V64.2z"/>
		<path class="st1" d="M215.1,78.7V91h-4.5V64.2h6.6c4.5,0,6.2,2.3,6.2,6v3.4c0,2.9-1,4.6-3.6,5.2L224,91h-4.7L215.1,78.7z
			 M215.1,67.9v8.3h1.5c1.5,0,2.2-0.8,2.2-2.2V70c0-1.5-0.7-2.2-2.2-2.2H215.1z"/>
		<path class="st1" d="M237.7,64.2v20.3c0,4.1-1.8,6.8-6.4,6.8c-4.7,0-6.7-2.7-6.7-6.8V64.2h4.5v20.7c0,1.6,0.6,2.6,2.2,2.6
			c1.6,0,2.2-1.1,2.2-2.6V64.2H237.7z"/>
		<path class="st1" d="M239.1,84V71.1c0-4.2,2-7.2,6.7-7.2c5,0,6.4,2.8,6.4,6.7v3.2h-4.1v-3.5c0-1.7-0.6-2.6-2.2-2.6
			c-1.6,0-2.3,1.1-2.3,2.8v14.4c0,1.6,0.7,2.8,2.3,2.8c1.6,0,2.2-1,2.2-2.6V80h4.1v4.6c0,3.8-1.6,6.7-6.4,6.7
			C241.1,91.3,239.1,88.2,239.1,84z"/>
		<path class="st1" d="M252.6,64.2h12v3.7h-3.7V91h-4.5V67.9h-3.7V64.2z"/>
		<path class="st1" d="M278.5,64.2v20.3c0,4.1-1.8,6.8-6.4,6.8c-4.7,0-6.7-2.7-6.7-6.8V64.2h4.5v20.7c0,1.6,0.6,2.6,2.2,2.6
			c1.6,0,2.2-1.1,2.2-2.6V64.2H278.5z"/>
		<path class="st1" d="M284.4,78.7V91h-4.5V64.2h6.6c4.5,0,6.2,2.3,6.2,6v3.4c0,2.9-1,4.6-3.6,5.2l4.3,12.2h-4.7L284.4,78.7z
			 M284.4,67.9v8.3h1.5c1.5,0,2.2-0.8,2.2-2.2V70c0-1.5-0.7-2.2-2.2-2.2H284.4z"/>
		<path class="st1" d="M294,64.2h10.7v3.7h-6.2v7.7h4.5v3.6h-4.5v8.1h6.2V91H294V64.2z"/>
	</g>
</g>
</svg>
