<?xml version="1.0" encoding="utf-8"?>
<!-- Generator: Adobe Illustrator 21.0.2, SVG Export Plug-In . SVG Version: 6.00 Build 0)  -->
<svg version="1.1" id="Layer_1" xmlns="http://www.w3.org/2000/svg" xmlns:xlink="http://www.w3.org/1999/xlink" x="0px" y="0px"
	 viewBox="0 0 317.6 317.6" style="enable-background:new 0 0 317.6 317.6;" xml:space="preserve">
<style type="text/css">
	.st0{fill:#FBC500;}
	.st1{fill:#FFFFFF;}
	.st2{fill:#A6183B;}
	.st3{fill:#EB611E;}
	.st4{fill:#DA025F;}
	.st5{fill:#F59D10;}
	.st6{fill:#C48E13;}
	.st7{fill:none;stroke:#FFFFFF;stroke-width:0.73;stroke-miterlimit:10;}
	.st8{fill:#DE1730;}
	.st9{fill:none;stroke:#FFFFFF;stroke-width:1.3067;stroke-linecap:round;stroke-miterlimit:10;}
	.st10{fill:#E1AA29;}
	.st11{fill:#C41722;}
	.st12{fill:#E6331F;}
	.st13{fill:#3BBBE4;}
	.st14{fill:#4B9B34;}
	.st15{fill:#F7F7F8;}
	.st16{fill:#39ABE2;}
	.st17{fill:#3E8EDE;}
	.st18{fill:#62B231;}
	.st19{fill:#E7B81A;}
	.st20{fill:#C31723;}
	.st21{fill:#499A35;}
	.st22{fill:#407E3D;}
	.st23{fill:#F9C400;}
	.st24{fill:#E6351D;}
	.st25{fill:#F59E12;}
	.st26{fill:#2494D2;}
	.st27{fill:#A5193C;}
	.st28{fill:#3ABAE3;}
	.st29{fill:#EB621F;}
	.st30{fill:#E01630;}
	.st31{fill:#D9045F;}
	.st32{fill:#1C4468;}
	.st33{fill:#CB9914;}
	.st34{fill:#04649B;}
	.st35{fill:#5FB130;}
	.st36{fill:#407D3C;}
	.st37{fill:#2496D3;}
	.st38{fill:#1E4468;}
	.st39{fill:#05639B;}
</style>
<g>
	<rect class="st5" width="317.6" height="317.6"/>
	<polygon class="st1" points="22.8,38.2 22.8,49.5 22.8,49.5 30.4,41.6 30.5,41.6 30.5,90.6 41.3,90.6 41.3,26.6 32.7,26.6 	"/>
	<polygon class="st1" points="47.3,38.2 47.3,49.5 47.4,49.5 55,41.6 55.1,41.6 55.1,90.6 65.8,90.6 65.8,26.6 57.2,26.6 	"/>
	<g>
		<g>
			<path class="st1" d="M54.6,241.8h0.5h47.3c0.6,0,1.2-0.5,1.2-1.2c0-0.3-0.1-0.6-0.3-0.8l-0.1-0.1L79.4,209l-0.2-0.3
				c-0.2-0.2-0.5-0.4-0.9-0.4c-0.3,0-0.6,0.1-0.8,0.3l-0.1,0.2l-0.2,0.3L54,239.5l-0.4,0.4c-0.1,0.2-0.2,0.4-0.2,0.7
				C53.5,241.3,54,241.8,54.6,241.8z"/>
			<path class="st1" d="M102.3,246.1H54.4c-0.6,0-1.2,0.5-1.2,1.2v37.5c0,0.6,0.5,1.2,1.2,1.2h15.4v-23.6c0-0.7,0.5-1.2,1.2-1.2
				h14.3c0.6,0,1.2,0.5,1.2,1.2v23.6h15.8c0.6,0,1.2-0.5,1.2-1.2v-37.5C103.4,246.6,102.9,246.1,102.3,246.1z"/>
		</g>
		<path class="st1" d="M267.7,236.3h-47.4c-0.6,0-1.2,0.5-1.2,1.1v47.8c0,0.6,0.5,1.1,1.2,1.1h47.4c0.6,0,1.2-0.5,1.2-1.1v-47.8
			C268.9,236.8,268.3,236.3,267.7,236.3 M241.8,267.5c0,0.6-0.5,1.1-1.2,1.1h-14.2c-0.6,0-1.2-0.5-1.2-1.1v-8.6
			c0-0.6,0.5-1.1,1.2-1.1h14.2c0.6,0,1.2,0.5,1.2,1.1V267.5z M241.8,251.6c0,0.6-0.5,1.1-1.2,1.1h-14.2c-0.6,0-1.2-0.5-1.2-1.1V243
			c0-0.6,0.5-1.1,1.2-1.1h14.2c0.6,0,1.2,0.5,1.2,1.1V251.6z M263.4,267.5c0,0.6-0.5,1.1-1.2,1.1h-14.1c-0.6,0-1.2-0.5-1.2-1.1v-8.6
			c0-0.6,0.5-1.1,1.2-1.1h14.1c0.6,0,1.2,0.5,1.2,1.1V267.5z M263.4,251.6c0,0.6-0.5,1.1-1.2,1.1h-14.1c-0.6,0-1.2-0.5-1.2-1.1V243
			c0-0.6,0.5-1.1,1.2-1.1h14.1c0.6,0,1.2,0.5,1.2,1.1V251.6z"/>
		<path class="st1" d="M157.6,125.3h-46.4c-0.6,0-1.1,0.5-1.1,1.1v158.4c0,0.6,0.5,1.1,1.1,1.1h46.4c0.6,0,1.1-0.5,1.1-1.1V126.4
			C158.7,125.8,158.2,125.3,157.6,125.3 M130,267.9c0,0.3-0.3,0.6-0.6,0.6h-10.6c-0.3,0-0.6-0.3-0.6-0.6v-11.8
			c0-0.3,0.3-0.6,0.6-0.6h10.6c0.3,0,0.6,0.3,0.6,0.6V267.9z M130,240.8c0,0.3-0.3,0.6-0.6,0.6h-10.6c-0.3,0-0.6-0.3-0.6-0.6v-11.8
			c0-0.3,0.3-0.6,0.6-0.6h10.6c0.3,0,0.6,0.3,0.6,0.6V240.8z M130,213.6c0,0.3-0.3,0.6-0.6,0.6h-10.6c-0.3,0-0.6-0.3-0.6-0.6v-11.8
			c0-0.3,0.3-0.6,0.6-0.6h10.6c0.3,0,0.6,0.3,0.6,0.6V213.6z M130,186.4c0,0.3-0.3,0.6-0.6,0.6h-10.6c-0.3,0-0.6-0.3-0.6-0.6v-11.8
			c0-0.3,0.3-0.6,0.6-0.6h10.6c0.3,0,0.6,0.3,0.6,0.6V186.4z M130,159.3c0,0.3-0.3,0.6-0.6,0.6h-10.6c-0.3,0-0.6-0.3-0.6-0.6v-11.8
			c0-0.3,0.3-0.6,0.6-0.6h10.6c0.3,0,0.6,0.3,0.6,0.6V159.3z M150.8,267.9c0,0.3-0.3,0.6-0.6,0.6h-10.6c-0.3,0-0.6-0.3-0.6-0.6
			v-11.8c0-0.3,0.3-0.6,0.6-0.6h10.6c0.3,0,0.6,0.3,0.6,0.6V267.9z M150.8,240.8c0,0.3-0.3,0.6-0.6,0.6h-10.6
			c-0.3,0-0.6-0.3-0.6-0.6v-11.8c0-0.3,0.3-0.6,0.6-0.6h10.6c0.3,0,0.6,0.3,0.6,0.6V240.8z M150.8,213.6c0,0.3-0.3,0.6-0.6,0.6
			h-10.6c-0.3,0-0.6-0.3-0.6-0.6v-11.8c0-0.3,0.3-0.6,0.6-0.6h10.6c0.3,0,0.6,0.3,0.6,0.6V213.6z M150.8,186.4
			c0,0.3-0.3,0.6-0.6,0.6h-10.6c-0.3,0-0.6-0.3-0.6-0.6v-11.8c0-0.3,0.3-0.6,0.6-0.6h10.6c0.3,0,0.6,0.3,0.6,0.6V186.4z
			 M150.8,159.3c0,0.3-0.3,0.6-0.6,0.6h-10.6c-0.3,0-0.6-0.3-0.6-0.6v-11.8c0-0.3,0.3-0.6,0.6-0.6h10.6c0.3,0,0.6,0.3,0.6,0.6V159.3
			z"/>
		<path class="st1" d="M268.8,231.5c0,0.5-0.4,1-1,1h-47.7c-0.5,0-1-0.4-1-1V222c0-0.5,0.4-1,1-1h47.7c0.5,0,1,0.4,1,1V231.5z"/>
		<path class="st1" d="M213.6,155.2c-0.2-0.5-0.6-0.9-1.2-0.9c-0.3,0-0.5,0.1-0.7,0.2c0,0-0.1,0-0.1,0.1l-0.4,0.5l-45.6,57.8
			l-0.2,0.3c-0.2,0.2-0.4,0.5-0.4,0.9v0.1v71c0,0.6,0.5,1.1,1.1,1.1h46.3c0.6,0,1.1-0.5,1.1-1.1V155.7
			C213.7,155.5,213.6,155.3,213.6,155.2z M194.4,186.6l0.3-0.4c3.1-4,8.4-10.5,10.9-13.6l0.3-0.4c0.2-0.3,0.6-0.5,1-0.5
			c0.6,0,1.1,0.5,1.3,1.1v0.5v0.4v13.7c0,0.7-0.6,1.3-1.3,1.3c0,0,0,0-0.1,0c0,0,0,0-0.1,0h-10.8h-0.6c0,0,0,0-0.1,0c0,0,0,0-0.1,0
			c-0.7,0-1.3-0.6-1.3-1.3C194.1,187.1,194.2,186.8,194.4,186.6z M187.2,267.5c0,0.6-0.5,1.1-1.1,1.1h-13.8c-0.6,0-1.1-0.5-1.1-1.1
			v-8.6c0-0.6,0.5-1.1,1.1-1.1H186c0.6,0,1.1,0.5,1.1,1.1V267.5z M187.2,251.6c0,0.6-0.5,1.1-1.1,1.1h-13.8c-0.6,0-1.1-0.5-1.1-1.1
			v-8.6c0-0.6,0.5-1.1,1.1-1.1H186c0.6,0,1.1,0.5,1.1,1.1V251.6z M187.2,235.6c0,0.6-0.5,1.1-1.1,1.1h-13.8c-0.6,0-1.1-0.5-1.1-1.1
			v-8.7c0-0.6,0.5-1.1,1.1-1.1H186c0.6,0,1.1,0.5,1.1,1.1V235.6z M187.2,200.6v0.4v18.6c0,0.6-0.5,1.1-1.1,1.1h-13.8
			c-0.6,0-1.1-0.5-1.1-1.1v-2.3v-0.1c0-0.2,0-0.3,0.1-0.4c0,0,0-0.1,0.1-0.1c0-0.1,0.1-0.1,0.1-0.2c0-0.1,0.1-0.1,0.1-0.2
			c1.8-2.5,9.7-12.3,13.1-16.5l0.3-0.4c0.2-0.3,0.6-0.5,1-0.5c0.6,0,1.1,0.5,1.3,1.1V200.6z M208.3,267.5c0,0.6-0.5,1.1-1.1,1.1
			h-13.8c-0.6,0-1.1-0.5-1.1-1.1v-8.6c0-0.6,0.5-1.1,1.1-1.1h13.8c0.6,0,1.1,0.5,1.1,1.1V267.5z M208.3,251.6c0,0.6-0.5,1.1-1.1,1.1
			h-13.8c-0.6,0-1.1-0.5-1.1-1.1v-8.6c0-0.6,0.5-1.1,1.1-1.1h13.8c0.6,0,1.1,0.5,1.1,1.1V251.6z M208.3,235.6c0,0.6-0.5,1.1-1.1,1.1
			h-13.8c-0.6,0-1.1-0.5-1.1-1.1v-8.7c0-0.6,0.5-1.1,1.1-1.1h13.8c0.6,0,1.1,0.5,1.1,1.1V235.6z M208.3,219.6c0,0.6-0.5,1.1-1.1,1.1
			h-13.8c-0.6,0-1.1-0.5-1.1-1.1v-8.6c0-0.6,0.5-1.1,1.1-1.1h13.8c0.6,0,1.1,0.5,1.1,1.1V219.6z M208.3,203.6c0,0.6-0.5,1.1-1.1,1.1
			h-13.8c-0.6,0-1.1-0.5-1.1-1.1V195c0-0.6,0.5-1.1,1.1-1.1h13.8c0.6,0,1.1,0.5,1.1,1.1V203.6z"/>
	</g>
	<g>
		<path class="st1" d="M88,47.7v-3.6h4.2v3.7c0,1.5,0.7,2.4,2.2,2.4c1.4,0,2.1-0.9,2.1-2.4v-1c0-1.5-0.6-2.5-2-3.8l-2.6-2.6
			c-2.6-2.5-3.8-4.1-3.8-7.1v-0.9c0-3.3,1.9-5.9,6.3-5.9c4.5,0,6.3,2.2,6.3,6.1v2.2h-4.1v-2.3c0-1.5-0.7-2.3-2.1-2.3
			c-1.3,0-2.1,0.7-2.1,2.2v0.6c0,1.5,0.8,2.4,2.1,3.6l2.9,2.8c2.4,2.5,3.6,4,3.6,6.9v1.3c0,3.7-2,6.3-6.6,6.3
			C89.8,53.8,88,51.2,88,47.7z"/>
		<path class="st1" d="M115.9,26.7v20.3c0,4.1-1.8,6.8-6.4,6.8c-4.7,0-6.7-2.7-6.7-6.8V26.7h4.5v20.7c0,1.6,0.6,2.6,2.2,2.6
			c1.6,0,2.2-1.1,2.2-2.6V26.7H115.9z"/>
		<path class="st1" d="M117.8,47.7v-3.6h4.2v3.7c0,1.5,0.7,2.4,2.2,2.4c1.4,0,2.1-0.9,2.1-2.4v-1c0-1.5-0.6-2.5-2-3.8l-2.6-2.6
			c-2.6-2.5-3.8-4.1-3.8-7.1v-0.9c0-3.3,1.9-5.9,6.3-5.9c4.5,0,6.3,2.2,6.3,6.1v2.2h-4.1v-2.3c0-1.5-0.7-2.3-2.1-2.3
			c-1.3,0-2.1,0.7-2.1,2.2v0.6c0,1.5,0.8,2.4,2.1,3.6l2.9,2.8c2.4,2.5,3.6,4,3.6,6.9v1.3c0,3.7-2,6.3-6.6,6.3S117.8,51.2,117.8,47.7
			z"/>
		<path class="st1" d="M131.6,26.7h12v3.7h-3.7v23.1h-4.5V30.3h-3.7V26.7z"/>
		<path class="st1" d="M142.5,53.4l5.1-26.8h5.1l5.1,26.8h-4.6l-0.8-4.9h-4.8l-0.8,4.9H142.5z M148.1,45h3.6L150,34.2h0L148.1,45z"
			/>
		<path class="st1" d="M159.2,26.7h4.5v26.8h-4.5V26.7z"/>
		<path class="st1" d="M169.7,36.6v16.8h-3.8V26.7h4.4l4.9,15.4V26.7h3.8v26.8h-3.9L169.7,36.6z"/>
		<path class="st1" d="M180.3,53.4l5.1-26.8h5.1l5.1,26.8H191l-0.8-4.9h-4.8l-0.8,4.9H180.3z M186,45h3.6l-1.8-10.7h0L186,45z"/>
		<path class="st1" d="M197,26.7h6.5c4.5,0,6,2.1,6,5.9v2.7c0,2.3-0.8,3.7-2.7,4.3c2.2,0.5,3.4,2,3.4,4.5v3.6c0,3.8-1.7,5.9-6.2,5.9
			h-7V26.7z M201.5,38h1.6c1.5,0,2.1-0.7,2.1-2.2v-3.3c0-1.5-0.7-2.2-2.2-2.2h-1.5V38z M201.5,41.4v8.4h2c1.5,0,2.2-0.8,2.2-2.2v-4
			c0-1.4-0.7-2.2-2.3-2.2H201.5z"/>
		<path class="st1" d="M212,26.7h4.5v23.1h5.4v3.7H212V26.7z"/>
		<path class="st1" d="M223.5,26.7h10.7v3.7H228V38h4.5v3.6H228v8.1h6.2v3.7h-10.7V26.7z"/>
		<path class="st1" d="M239.9,46.5V33.6c0-4.2,2-7.2,6.7-7.2c5,0,6.4,2.8,6.4,6.7v3.2h-4.1v-3.5c0-1.7-0.6-2.6-2.2-2.6
			c-1.6,0-2.3,1.1-2.3,2.8v14.4c0,1.6,0.7,2.8,2.3,2.8c1.6,0,2.2-1,2.2-2.6v-4.9h4.1v4.6c0,3.8-1.6,6.7-6.4,6.7
			C241.9,53.8,239.9,50.7,239.9,46.5z"/>
		<path class="st1" d="M255,26.7h4.5v26.8H255V26.7z"/>
		<path class="st1" d="M261.1,26.7h12v3.7h-3.7v23.1h-4.5V30.3h-3.7V26.7z"/>
		<path class="st1" d="M274.8,26.7h4.5v26.8h-4.5V26.7z"/>
		<path class="st1" d="M281.4,26.7h10.7v3.7h-6.2V38h4.5v3.6h-4.5v8.1h6.2v3.7h-10.7V26.7z"/>
		<path class="st1" d="M293.7,47.7v-3.6h4.2v3.7c0,1.5,0.7,2.4,2.2,2.4c1.4,0,2.1-0.9,2.1-2.4v-1c0-1.5-0.6-2.5-2-3.8l-2.6-2.6
			c-2.6-2.5-3.8-4.1-3.8-7.1v-0.9c0-3.3,1.9-5.9,6.3-5.9c4.5,0,6.3,2.2,6.3,6.1v2.2h-4.1v-2.3c0-1.5-0.7-2.3-2.1-2.3
			c-1.3,0-2.1,0.7-2.1,2.2v0.6c0,1.5,0.8,2.4,2.1,3.6l2.9,2.8c2.4,2.5,3.6,4,3.6,6.9v1.3c0,3.7-2,6.3-6.6,6.3
			C295.5,53.8,293.7,51.2,293.7,47.7z"/>
		<path class="st1" d="M87.5,90.9l5.1-26.8h5.1l5.1,26.8h-4.6L97.4,86h-4.8l-0.8,4.9H87.5z M93.2,82.5h3.6L95,71.7h0L93.2,82.5z"/>
		<path class="st1" d="M108,74.1v16.8h-3.8V64.2h4.4l4.9,15.4V64.2h3.8v26.8h-3.9L108,74.1z"/>
		<path class="st1" d="M132.9,71.4v12.4c0,4.1-1.7,7.2-6.5,7.2h-6.9V64.2h6.9C131.2,64.2,132.9,67.2,132.9,71.4z M125.8,87.3
			c1.9,0,2.6-1.1,2.6-2.7v-14c0-1.6-0.7-2.7-2.6-2.7h-1.9v19.4H125.8z"/>
		<path class="st1" d="M138.7,84V71.1c0-4.2,2-7.2,6.7-7.2c5,0,6.4,2.8,6.4,6.7v3.2h-4.1v-3.5c0-1.7-0.6-2.6-2.2-2.6
			c-1.6,0-2.3,1.1-2.3,2.8v14.4c0,1.6,0.7,2.8,2.3,2.8c1.6,0,2.2-1,2.2-2.6V80h4.1v4.6c0,3.8-1.6,6.7-6.4,6.7
			C140.7,91.3,138.7,88.2,138.7,84z"/>
		<path class="st1" d="M153.8,84V71.1c0-4.2,2.1-7.2,6.8-7.2c4.8,0,6.8,3,6.8,7.2V84c0,4.1-2.1,7.2-6.8,7.2
			C155.8,91.3,153.8,88.2,153.8,84z M162.9,84.7V70.4c0-1.6-0.7-2.8-2.3-2.8c-1.6,0-2.3,1.1-2.3,2.8v14.4c0,1.6,0.7,2.8,2.3,2.8
			C162.2,87.5,162.9,86.4,162.9,84.7z"/>
		<path class="st1" d="M181.9,73.6h-0.1l-3,17.4h-2.1l-3.4-17.4h-0.1v17.4h-3.7V64.2h5.3l2.9,15.1h0l2.6-15.1h5.7v26.8h-4.1V73.6z"
			/>
		<path class="st1" d="M200.6,73.6h-0.1l-3,17.4h-2.1l-3.4-17.4h-0.1v17.4h-3.7V64.2h5.3l2.9,15.1h0l2.6-15.1h5.7v26.8h-4.1V73.6z"
			/>
		<path class="st1" d="M219.9,64.2v20.3c0,4.1-1.8,6.8-6.4,6.8c-4.7,0-6.7-2.7-6.7-6.8V64.2h4.5v20.7c0,1.6,0.6,2.6,2.2,2.6
			c1.6,0,2.2-1.1,2.2-2.6V64.2H219.9z"/>
		<path class="st1" d="M225.8,74.1v16.8H222V64.2h4.4l4.9,15.4V64.2h3.8v26.8h-3.9L225.8,74.1z"/>
		<path class="st1" d="M237.1,64.2h4.5v26.8h-4.5V64.2z"/>
		<path class="st1" d="M243.3,64.2h12v3.7h-3.7v23.1H247V67.8h-3.7V64.2z"/>
		<path class="st1" d="M256.9,64.2h4.5v26.8h-4.5V64.2z"/>
		<path class="st1" d="M263.6,64.2h10.7v3.7h-6.2v7.7h4.5v3.6h-4.5v8.1h6.2v3.7h-10.7V64.2z"/>
		<path class="st1" d="M275.9,85.2v-3.6h4.2v3.7c0,1.5,0.7,2.4,2.2,2.4c1.4,0,2.1-0.9,2.1-2.4v-1c0-1.5-0.6-2.5-2-3.8l-2.6-2.6
			c-2.6-2.5-3.8-4.1-3.8-7.1v-0.9c0-3.3,1.9-5.9,6.3-5.9c4.5,0,6.3,2.2,6.3,6.1v2.2h-4.1v-2.3c0-1.5-0.7-2.3-2.1-2.3
			c-1.3,0-2.1,0.7-2.1,2.2v0.6c0,1.5,0.8,2.4,2.1,3.6l2.9,2.8c2.4,2.5,3.6,4,3.6,6.9V85c0,3.7-2,6.3-6.6,6.3S275.9,88.7,275.9,85.2z
			"/>
	</g>
</g>
</svg>
