<?xml version="1.0" encoding="utf-8"?>
<!-- Generator: Adobe Illustrator 21.0.2, SVG Export Plug-In . SVG Version: 6.00 Build 0)  -->
<svg version="1.1" id="Layer_1" xmlns="http://www.w3.org/2000/svg" xmlns:xlink="http://www.w3.org/1999/xlink" x="0px" y="0px"
	 viewBox="0 0 317.6 317.6" style="enable-background:new 0 0 317.6 317.6;" xml:space="preserve">
<style type="text/css">
	.st0{fill:#DD172F;}
	.st1{fill:#FFFFFF;}
	.st2{fill:none;stroke:#FFFFFF;stroke-width:1.3067;stroke-linecap:round;stroke-miterlimit:10;}
	.st3{fill:#E0A928;}
	.st4{fill:#499935;}
	.st5{fill:#C31922;}
	.st6{fill:#E53321;}
	.st7{fill:#38BAE3;}
	.st8{fill:#FAC400;}
	.st9{fill:#A5183B;}
	.st10{fill:#E9611D;}
	.st11{fill:#D9055F;}
	.st12{fill:#F59C12;}
	.st13{fill:#C38C12;}
	.st14{fill:none;stroke:#FFFFFF;stroke-width:0.73;stroke-miterlimit:10;}
	.st15{fill:#3F7C3C;}
	.st16{fill:#2593D2;}
	.st17{fill:#5EB032;}
	.st18{fill:#00639B;}
	.st19{fill:#1D4467;}
	.st20{fill:#EFEFEF;}
	.st21{fill:#010202;}
	.st22{fill:#61B032;}
	.st23{fill:#E6B719;}
	.st24{fill:#C21822;}
	.st25{fill:#489935;}
	.st26{fill:#3F7E3C;}
	.st27{fill:#F8C300;}
	.st28{fill:#E4351F;}
	.st29{fill:#F59C13;}
	.st30{fill:#2691D0;}
	.st31{fill:#A4193C;}
	.st32{fill:#37B9E2;}
	.st33{fill:#E9611F;}
	.st34{fill:#DF1531;}
	.st35{fill:#D80560;}
	.st36{fill:#1B4367;}
	.st37{fill:#CA9811;}
	.st38{fill:#00659A;}
</style>
<g>
	<rect class="st7" width="317.6" height="317.6"/>
	<path class="st1" d="M37.2,91.5c11.4,0,15.9-6.2,15.9-16.2v-9.4c0-10.5-4.2-15.8-11.9-15.8c-4.5,0-7.3,2.1-8.9,5.2h-0.1V41.5
		c0-3.9,1.2-6.6,5.1-6.6c3.9,0,5,2.3,5,6.2v4.2h9.8V42c0-9.4-3.1-16.1-15-16.1c-11.3,0-15.6,7.3-15.6,17.3v31.2
		C21.5,84.3,25.9,91.5,37.2,91.5 M32.2,64.6c0.2-3.6,1.7-5.9,5.1-5.9c3.7,0,5.1,2.3,5.1,6.4v11.1c0,4.1-1.5,6.4-5.2,6.4
		c-3.6,0-5-2.5-5-6.4V64.6z"/>
	<path class="st1" d="M215,135.3c-0.3-0.3-0.6-0.4-1-0.4H103.7c-0.4,0-0.7,0.2-1,0.4c-0.2,0.3-0.3,0.7-0.3,1l18.5,112.1
		c0.1,0.6,0.6,1.1,1.3,1.1H145l1.6,18.3l-9.6,0l22.3,22.3l22.3-22.3l-9.6,0l1.6-18.2h23.1c0.6,0,1.2-0.5,1.3-1.1l17.3-112.1
		C215.3,136,215.2,135.6,215,135.3z M172.3,225.1c0,0-5,5.1-13.2,4.6c-8.2,0.6-13.2-4.6-13.2-4.6c-8.3-8.3-5.3-18.5-2.4-23.8
		c1.8-3.3,14.5-22.4,15.6-24v-0.1c0,0,0,0,0,0.1l0-0.1v0.1c1.1,1.6,13.8,20.7,15.6,24C177.7,206.5,180.6,216.8,172.3,225.1z
		 M207.3,158.9c-3-1.3-6.8-0.8-10.4,0.6c-13.7,5.5-23,7.5-37.4,3c-9.1-2.8-17.5-8.8-27.6-5.2c-6.7,2.4-12.9,4.7-20.4,4.6l-4.3-22.3
		h103.2L207.3,158.9z"/>
	<g>
		<path class="st1" d="M82.4,45.3l-1.1-3.4h-6.9l-1.2,3.4h-3.9l7-19.3h3l7,19.3H82.4z M77.9,31.7l-2.4,7h4.8L77.9,31.7z"/>
		<path class="st1" d="M94.9,45.4c-2.1,0-3.8-0.8-5.2-2.1c-1.9-2-1.9-4.4-1.9-7.7s-0.1-5.7,1.9-7.7c1.4-1.4,3.1-2.1,5.2-2.1
			c3.6,0,6.4,2.1,7.1,6.1h-3.8c-0.4-1.5-1.4-2.7-3.3-2.7c-1,0-1.9,0.4-2.4,1c-0.7,0.8-0.9,1.7-0.9,5.4s0.2,4.6,0.9,5.4
			c0.5,0.6,1.4,1,2.4,1c1.9,0,2.9-1.2,3.3-2.7h3.8C101.3,43.4,98.5,45.4,94.9,45.4z"/>
		<path class="st1" d="M111.7,45.4c-2.1,0-3.8-0.8-5.2-2.1c-1.9-2-1.9-4.4-1.9-7.7s-0.1-5.7,1.9-7.7c1.4-1.4,3.1-2.1,5.2-2.1
			c3.6,0,6.4,2.1,7.1,6.1H115c-0.4-1.5-1.4-2.7-3.3-2.7c-1,0-1.9,0.4-2.4,1c-0.7,0.8-0.9,1.7-0.9,5.4s0.2,4.6,0.9,5.4
			c0.5,0.6,1.4,1,2.4,1c1.9,0,2.9-1.2,3.3-2.7h3.8C118.1,43.4,115.3,45.4,111.7,45.4z"/>
		<path class="st1" d="M122.1,45.3V26h12.7v3.4h-8.9v4.5h7.6v3.4h-7.6v4.7h8.9v3.4H122.1z M129.1,24.1h-2.4l1.7-4.6h3.7L129.1,24.1z
			"/>
		<path class="st1" d="M143.8,45.4c-2.9,0-5.2-0.6-7-2.5l2.4-2.4c1.2,1.2,2.9,1.6,4.7,1.6c2.2,0,3.4-0.8,3.4-2.4
			c0-0.7-0.2-1.2-0.6-1.6c-0.4-0.4-0.8-0.5-1.7-0.7l-2.3-0.3c-1.7-0.2-2.9-0.8-3.7-1.6c-0.9-0.9-1.4-2.2-1.4-3.8
			c0-3.4,2.5-5.9,6.7-5.9c2.7,0,4.6,0.7,6.2,2.3l-2.4,2.4c-1.2-1.2-2.7-1.3-4-1.3c-2,0-3,1.1-3,2.4c0,0.5,0.2,1,0.6,1.4
			c0.4,0.4,1,0.7,1.8,0.8l2.3,0.3c1.8,0.2,2.9,0.7,3.7,1.5c1,1,1.5,2.4,1.5,4.1C151,43.3,147.9,45.4,143.8,45.4z"/>
		<path class="st1" d="M171.8,45.3l-1.1-3.4h-6.9l-1.2,3.4h-3.9l7-19.3h3l7,19.3H171.8z M169,23.8c-0.8,0-1.3-0.2-2.1-0.6
			c-0.5-0.3-1-0.5-1.5-0.5c-0.5,0-0.9,0.1-1.6,0.8l-1.5-1.5c1.2-1.2,2-1.6,3-1.6c0.8,0,1.3,0.2,2.1,0.6c0.5,0.3,1,0.5,1.5,0.5
			c0.5,0,0.9-0.1,1.6-0.8l1.6,1.5C170.9,23.4,170,23.8,169,23.8z M167.3,31.7l-2.4,7h4.8L167.3,31.7z"/>
		<path class="st1" d="M184.4,45.3V26h3.8v15.9h8.8v3.4H184.4z"/>
		<path class="st1" d="M195.5,32.1V26h3.7v3.4L195.5,32.1z"/>
		<path class="st1" d="M203.4,45.3V26h12.7v3.4h-8.9v4.5h7.6v3.4h-7.6v4.7h8.9v3.4H203.4z"/>
		<path class="st1" d="M230.7,45.3l-1.1-3.4h-6.9l-1.2,3.4h-3.9l7-19.3h3l7,19.3H230.7z M226.2,31.7l-2.4,7h4.8L226.2,31.7z"/>
		<path class="st1" d="M243.9,45.4c-4,0-7.1-2.7-7.1-6.8V26h3.8v12.6c0,2.2,1.3,3.6,3.3,3.6c2,0,3.4-1.3,3.4-3.6V26h3.7v12.7
			C251,42.7,247.8,45.4,243.9,45.4z"/>
		<path class="st1" d="M76.7,78c-2.9,0-5.2-0.6-7-2.5l2.4-2.4c1.2,1.2,2.9,1.6,4.7,1.6c2.2,0,3.4-0.8,3.4-2.4c0-0.7-0.2-1.2-0.6-1.6
			c-0.4-0.4-0.8-0.5-1.7-0.7l-2.3-0.3c-1.7-0.2-2.9-0.8-3.7-1.6c-0.9-0.9-1.4-2.2-1.4-3.8c0-3.4,2.5-5.9,6.7-5.9
			c2.7,0,4.6,0.7,6.2,2.3L81,63c-1.2-1.2-2.7-1.3-4-1.3c-2,0-3,1.1-3,2.4c0,0.5,0.2,1,0.6,1.4c0.4,0.4,1,0.7,1.8,0.8l2.3,0.3
			c1.8,0.2,2.9,0.7,3.7,1.5c1,1,1.5,2.4,1.5,4.1C83.9,75.9,80.8,78,76.7,78z"/>
		<path class="st1" d="M98.4,77.8l-1.1-3.4h-6.9l-1.2,3.4h-3.9l7-19.3h3l7,19.3H98.4z M93.9,64.2l-2.4,7h4.8L93.9,64.2z"/>
		<path class="st1" d="M104.7,77.8V58.5h3.8v15.9h8.8v3.4H104.7z"/>
		<path class="st1" d="M126.8,78c-4,0-7.1-2.7-7.1-6.8V58.5h3.8v12.6c0,2.2,1.3,3.6,3.3,3.6c2,0,3.4-1.3,3.4-3.6V58.5h3.7v12.7
			C133.9,75.3,130.8,78,126.8,78z"/>
		<path class="st1" d="M146.2,77.8h-8.1V58.5h7.8c3.8,0,6,2.1,6,5.4c0,2.1-1.4,3.5-2.4,4c1.2,0.5,2.7,1.8,2.7,4.3
			C152.1,75.9,149.7,77.8,146.2,77.8z M145.6,61.9h-3.7v4.4h3.7c1.6,0,2.5-0.9,2.5-2.2C148.1,62.8,147.2,61.9,145.6,61.9z
			 M145.8,69.7h-3.9v4.7h3.9c1.7,0,2.5-1.1,2.5-2.4S147.5,69.7,145.8,69.7z"/>
		<path class="st1" d="M166.2,77.8l-3.8-7.7h-2.7v7.7H156V58.5h7.6c3.9,0,6.3,2.7,6.3,5.9c0,2.7-1.7,4.4-3.5,5.1l4.3,8.3H166.2z
			 M163.3,61.9h-3.6V67h3.6c1.7,0,2.7-1.1,2.7-2.5S165,61.9,163.3,61.9z"/>
		<path class="st1" d="M173.7,77.8V58.5h12.7v3.4h-8.9v4.5h7.6v3.4h-7.6v4.7h8.9v3.4H173.7z"/>
		<path class="st1" d="M196.4,77.8V58.5h12.7v3.4h-8.9v4.5h7.6v3.4h-7.6v4.7h8.9v3.4H196.4z"/>
		<path class="st1" d="M220.2,61.9v15.9h-3.8V61.9h-5v-3.4h13.9v3.4H220.2z"/>
		<path class="st1" d="M245.6,77.8l-1.1-3.4h-6.9l-1.2,3.4h-3.9l7-19.3h3l7,19.3H245.6z M242.8,56.3c-0.8,0-1.3-0.2-2.1-0.6
			c-0.5-0.3-1-0.5-1.5-0.5c-0.5,0-0.9,0.1-1.6,0.8l-1.5-1.5c1.2-1.2,2-1.6,3-1.6c0.8,0,1.3,0.2,2.1,0.6c0.5,0.3,0.9,0.5,1.5,0.5
			c0.5,0,0.9-0.1,1.6-0.8l1.6,1.5C244.7,55.9,243.8,56.3,242.8,56.3z M241.1,64.2l-2.4,7h4.8L241.1,64.2z"/>
		<path class="st1" d="M71.4,110.4V91.1h3.8V107h8.8v3.4H71.4z"/>
		<path class="st1" d="M82.3,97.2v-6.2h3.7v3.4L82.3,97.2z"/>
		<path class="st1" d="M98.6,110.4l-1.1-3.4h-6.9l-1.2,3.4h-3.9l7-19.3h3l7,19.3H98.6z M94.1,96.8l-2.4,7h4.8L94.1,96.8z"/>
		<path class="st1" d="M110,110.5c-2.9,0-5.2-0.6-7-2.5l2.4-2.4c1.2,1.2,2.9,1.6,4.7,1.6c2.2,0,3.4-0.8,3.4-2.4
			c0-0.7-0.2-1.2-0.6-1.6c-0.4-0.4-0.8-0.5-1.7-0.7l-2.3-0.3c-1.7-0.2-2.9-0.8-3.7-1.6c-0.9-0.9-1.4-2.2-1.4-3.8
			c0-3.4,2.5-5.9,6.7-5.9c2.7,0,4.6,0.7,6.2,2.3l-2.4,2.4c-1.2-1.2-2.7-1.3-4-1.3c-2,0-3,1.1-3,2.4c0,0.5,0.2,1,0.6,1.4
			c0.4,0.4,1,0.7,1.8,0.8l2.3,0.3c1.8,0.2,2.9,0.7,3.7,1.5c1,1,1.5,2.4,1.5,4.1C117.1,108.4,114,110.5,110,110.5z"/>
		<path class="st1" d="M125.6,110.5c-2.9,0-5.2-0.6-7-2.5l2.4-2.4c1.2,1.2,2.9,1.6,4.7,1.6c2.2,0,3.4-0.8,3.4-2.4
			c0-0.7-0.2-1.2-0.6-1.6c-0.4-0.4-0.8-0.5-1.7-0.7l-2.3-0.3c-1.7-0.2-2.9-0.8-3.7-1.6c-0.9-0.9-1.4-2.2-1.4-3.8
			c0-3.4,2.5-5.9,6.7-5.9c2.7,0,4.6,0.7,6.2,2.3l-2.4,2.4c-1.2-1.2-2.7-1.3-4-1.3c-2,0-3,1.1-3,2.4c0,0.5,0.2,1,0.6,1.4
			c0.4,0.4,1,0.7,1.8,0.8l2.3,0.3c1.8,0.2,2.9,0.7,3.7,1.5c1,1,1.5,2.4,1.5,4.1C132.7,108.4,129.6,110.5,125.6,110.5z"/>
		<path class="st1" d="M147,110.4l-1.1-3.4H139l-1.2,3.4h-3.9l7-19.3h3l7,19.3H147z M142.5,96.8l-2.4,7h4.8L142.5,96.8z"/>
		<path class="st1" d="M153.1,110.4V91.1h3.8v19.3H153.1z"/>
		<path class="st1" d="M172.5,110.4l-7.6-11.9v11.9h-3.8V91.1h3.4l7.6,11.8V91.1h3.8v19.3H172.5z"/>
		<path class="st1" d="M180.1,110.4V91.1h3.8v19.3H180.1z"/>
		<path class="st1" d="M193.4,110.5c-2.9,0-5.2-0.6-7-2.5l2.4-2.4c1.2,1.2,2.9,1.6,4.7,1.6c2.2,0,3.4-0.8,3.4-2.4
			c0-0.7-0.2-1.2-0.6-1.6c-0.4-0.4-0.8-0.5-1.7-0.7l-2.3-0.3c-1.7-0.2-2.9-0.8-3.7-1.6c-0.9-0.9-1.4-2.2-1.4-3.8
			c0-3.4,2.5-5.9,6.7-5.9c2.7,0,4.6,0.7,6.2,2.3l-2.4,2.4c-1.2-1.2-2.7-1.3-4-1.3c-2,0-3,1.1-3,2.4c0,0.5,0.2,1,0.6,1.4
			c0.4,0.4,1,0.7,1.8,0.8l2.3,0.3c1.8,0.2,2.9,0.7,3.7,1.5c1,1,1.5,2.4,1.5,4.1C200.5,108.4,197.4,110.5,193.4,110.5z"/>
		<path class="st1" d="M209,110.5c-2.9,0-5.2-0.6-7-2.5l2.4-2.4c1.2,1.2,2.9,1.6,4.7,1.6c2.2,0,3.4-0.8,3.4-2.4
			c0-0.7-0.2-1.2-0.6-1.6c-0.4-0.4-0.8-0.5-1.7-0.7l-2.3-0.3c-1.7-0.2-2.9-0.8-3.7-1.6c-0.9-0.9-1.4-2.2-1.4-3.8
			c0-3.4,2.5-5.9,6.7-5.9c2.7,0,4.6,0.7,6.2,2.3l-2.4,2.4c-1.2-1.2-2.7-1.3-4-1.3c-2,0-3,1.1-3,2.4c0,0.5,0.2,1,0.6,1.4
			c0.4,0.4,1,0.7,1.8,0.8l2.3,0.3c1.8,0.2,2.9,0.7,3.7,1.5c1,1,1.5,2.4,1.5,4.1C216.1,108.4,213,110.5,209,110.5z"/>
		<path class="st1" d="M219.4,110.4V91.1h12.7v3.4h-8.9V99h7.6v3.4h-7.6v4.7h8.9v3.4H219.4z"/>
		<path class="st1" d="M249.3,110.4V99.1l-3.7,7.3h-2.5l-3.7-7.3v11.3h-3.8V91.1h3.7l5,10.4l5-10.4h3.7v19.3H249.3z"/>
		<path class="st1" d="M257.3,110.4V91.1H270v3.4h-8.9V99h7.6v3.4h-7.6v4.7h8.9v3.4H257.3z"/>
		<path class="st1" d="M284.9,110.4l-7.6-11.9v11.9h-3.8V91.1h3.4l7.6,11.8V91.1h3.8v19.3H284.9z"/>
		<path class="st1" d="M299.8,94.4v15.9h-3.8V94.4h-5v-3.4h13.9v3.4H299.8z"/>
	</g>
</g>
</svg>
