<?xml version="1.0" encoding="utf-8"?>
<!-- Generator: Adobe Illustrator 21.0.2, SVG Export Plug-In . SVG Version: 6.00 Build 0)  -->
<svg version="1.1" id="Layer_1" xmlns="http://www.w3.org/2000/svg" xmlns:xlink="http://www.w3.org/1999/xlink" x="0px" y="0px"
	 viewBox="0 0 317.6 317.6" style="enable-background:new 0 0 317.6 317.6;" xml:space="preserve">
<style type="text/css">
	.st0{fill:#FBC500;}
	.st1{fill:#FFFFFF;}
	.st2{fill:#A6183B;}
	.st3{fill:#EB611E;}
	.st4{fill:#DA025F;}
	.st5{fill:#F59D10;}
	.st6{fill:#C48E13;}
	.st7{fill:none;stroke:#FFFFFF;stroke-width:0.73;stroke-miterlimit:10;}
	.st8{fill:#DE1730;}
	.st9{fill:none;stroke:#FFFFFF;stroke-width:1.3067;stroke-linecap:round;stroke-miterlimit:10;}
	.st10{fill:#E1AA29;}
	.st11{fill:#C41722;}
	.st12{fill:#E6331F;}
	.st13{fill:#3BBBE4;}
	.st14{fill:#4B9B34;}
	.st15{fill:#F7F7F8;}
	.st16{fill:#39ABE2;}
	.st17{fill:#3E8EDE;}
	.st18{fill:#62B231;}
	.st19{fill:#E7B81A;}
	.st20{fill:#C31723;}
	.st21{fill:#499A35;}
	.st22{fill:#407E3D;}
	.st23{fill:#F9C400;}
	.st24{fill:#E6351D;}
	.st25{fill:#F59E12;}
	.st26{fill:#2494D2;}
	.st27{fill:#A5193C;}
	.st28{fill:#3ABAE3;}
	.st29{fill:#EB621F;}
	.st30{fill:#E01630;}
	.st31{fill:#D9045F;}
	.st32{fill:#1C4468;}
	.st33{fill:#CB9914;}
	.st34{fill:#04649B;}
	.st35{fill:#5FB130;}
	.st36{fill:#407D3C;}
	.st37{fill:#2496D3;}
	.st38{fill:#1E4468;}
	.st39{fill:#05639B;}
</style>
<g>
	<rect x="0.3" y="0.4" class="st37" width="317.6" height="317.6"/>
	<polygon class="st1" points="41.6,27.1 41.6,91.1 30.9,91.1 30.9,42.1 30.8,42.1 23.2,50 23.1,50 23.1,38.7 33,27.1 	"/>
	<path class="st1" d="M74.4,91.1V80.7h4.3v-8.4h-4.3V27.1H63.8l-18.6,47v6.6h19v10.4H74.4z M54.7,72.3L64.3,46h0.1v26.4H54.7z"/>
	<path class="st1" d="M244.1,232.1c-4-5.4-29.8-38.3-66-38.3c-31.4,0-65.1,28.5-65.1,28.5s-12.6-25.9-38.5-28.3c-0.2,0-0.3,0-0.5,0
		h-0.2c-0.5,0-1,0.6-1,1c0.1,0.5,0.4,0.9,0.4,0.9c3.3,5.5,11.8,21.3,11.8,37c0,15.8-8.5,31.5-11.8,37l-0.2,0.4
		c-0.1,0.2-0.2,0.3-0.2,0.5c0,0.5,0.4,1,1,1l0.3,0c0.1,0,0.2,0,0.3,0c25.9-2.4,38.6-28.3,38.6-28.3s33.6,28.5,65.1,28.5
		c36.2,0,62-32.9,66-38.3c0.1-0.1,0.2-0.3,0.3-0.4c0-0.1,0.1-0.2,0.1-0.4c0-0.1,0-0.3-0.1-0.4C244.3,232.4,244.2,232.3,244.1,232.1
		 M198.2,237c-5.8,0-10.6-4.7-10.6-10.6c0-5.8,4.7-10.6,10.6-10.6c5.8,0,10.6,4.7,10.6,10.6C208.8,232.3,204.1,237,198.2,237"/>
	<path class="st1" d="M73.7,131.9c-0.1,0-0.1,0-0.2,0c-0.6,0-1,0.5-1,1v7.2c0,0.3,0.1,0.6,0.3,0.7c17.5,15.2,34,1,37.8-2.8
		c0.1-0.1,0.2-0.2,0.3-0.3c0.2-0.1,0.4-0.2,0.6-0.2c0.3,0,0.5,0.1,0.7,0.3c0,0,0,0,0.1,0c19.7,18.8,40.4,3.6,44.7,0l0.4-0.4
		c0.1-0.1,0.3-0.1,0.4-0.1c0.1,0,0.3,0,0.4,0.1l0.4,0.4c4.3,3.6,25,18.8,44.7,0c0,0,0,0,0,0c0.2-0.2,0.4-0.3,0.7-0.3
		c0.2,0,0.4,0.1,0.6,0.2c0.1,0.1,0.2,0.2,0.3,0.3c3.8,3.8,20.4,18,37.8,2.8c0.2-0.2,0.3-0.4,0.3-0.7v-7.2c0-0.6-0.5-1-1-1
		c-0.1,0-0.1,0-0.2,0c-0.2,0.1-0.3,0.2-0.5,0.3c-5.4,2.7-22,9.1-37.2-5.2c-0.1-0.1-0.3-0.3-0.4-0.4c-0.1-0.1-0.3-0.1-0.4-0.1
		c-0.1,0-0.2,0-0.3,0c-0.2,0.1-0.4,0.2-0.5,0.4c-4.5,3.4-25.2,17.4-43.6,0.3l-0.3-0.3c-0.2-0.2-0.5-0.3-0.7-0.3
		c-0.3,0-0.5,0.1-0.7,0.3l-0.3,0.3c-18.4,17.2-39.1,3.2-43.6-0.3c-0.1-0.2-0.3-0.3-0.5-0.4c-0.1,0-0.2,0-0.3,0c-0.1,0-0.3,0-0.4,0.1
		c-0.1,0.2-0.3,0.3-0.4,0.4c-15.1,14.3-31.8,7.9-37.2,5.2C74.1,132.1,73.9,132,73.7,131.9"/>
	<path class="st1" d="M110.7,164.3c0.1-0.1,0.2-0.2,0.3-0.3c0.2-0.1,0.4-0.2,0.6-0.2c0.3,0,0.5,0.1,0.7,0.3c0,0,0,0,0,0
		c19.7,18.8,40.4,3.6,44.7,0l0.4-0.4c0.1,0,0.3-0.1,0.4-0.1c0.2,0,0.3,0,0.4,0.1l0.4,0.4c4.3,3.6,25,18.8,44.7,0c0,0,0,0,0,0
		c0.2-0.2,0.4-0.3,0.7-0.3c0.2,0,0.4,0.1,0.6,0.2c0.1,0.1,0.2,0.2,0.3,0.3c3.8,3.8,20.3,18,37.8,2.8c0.2-0.2,0.3-0.4,0.3-0.7v-7.2
		c0-0.6-0.5-1-1-1c-0.1,0-0.1,0-0.2,0c-0.2,0.1-0.3,0.2-0.5,0.3c-5.4,2.7-22,9.1-37.2-5.2c-0.1-0.1-0.3-0.3-0.4-0.4
		c-0.1-0.1-0.3-0.1-0.4-0.1c-0.1,0-0.2,0-0.3,0.1c-0.2,0.1-0.4,0.2-0.5,0.4c-4.5,3.4-25.2,17.4-43.6,0.3l-0.3-0.3
		c-0.2-0.2-0.5-0.3-0.7-0.3c-0.3,0-0.5,0.1-0.7,0.3l-0.3,0.3c-18.4,17.2-39.1,3.2-43.6-0.3c-0.1-0.2-0.3-0.3-0.5-0.4
		c-0.1-0.1-0.2-0.1-0.3-0.1c-0.1,0-0.3,0-0.4,0.1c-0.1,0.1-0.3,0.3-0.4,0.4c-15.1,14.3-31.8,7.9-37.2,5.2c-0.2-0.1-0.4-0.2-0.5-0.3
		c-0.1,0-0.1,0-0.2,0c-0.6,0-1,0.5-1,1v7.2c0,0.3,0.1,0.5,0.3,0.7C90.3,182.3,106.8,168.1,110.7,164.3"/>
	<g>
		<path class="st1" d="M104,26.8h4.5v23.1h5.4v3.7H104V26.8z"/>
		<path class="st1" d="M115.9,26.8h4.5v26.8h-4.5V26.8z"/>
		<path class="st1" d="M123,26.8h10.5v3.7h-6v7.7h4.5v3.6h-4.5v11.8H123V26.8z"/>
		<path class="st1" d="M135.5,26.8h10.7v3.7H140v7.7h4.5v3.6H140v8.1h6.2v3.7h-10.7V26.8z"/>
		<path class="st1" d="M104,64.2h6.5c4.5,0,6,2.1,6,5.9v2.7c0,2.3-0.8,3.7-2.7,4.3c2.2,0.5,3.4,2,3.4,4.5v3.6c0,3.8-1.7,5.9-6.2,5.9
			h-7V64.2z M108.5,75.5h1.6c1.5,0,2.1-0.7,2.1-2.2v-3.3c0-1.5-0.7-2.2-2.2-2.2h-1.5V75.5z M108.5,79v8.4h2c1.5,0,2.2-0.8,2.2-2.2
			v-4c0-1.4-0.7-2.2-2.3-2.2H108.5z"/>
		<path class="st1" d="M119.4,64.2h10.7v3.7h-6.2v7.7h4.5v3.6h-4.5v8.1h6.2V91h-10.7V64.2z"/>
		<path class="st1" d="M132.6,64.2h4.5v23.1h5.4V91h-9.9V64.2z"/>
		<path class="st1" d="M144.3,84.1V71.2c0-4.2,2.1-7.2,6.8-7.2c4.8,0,6.8,3,6.8,7.2v12.9c0,4.1-2.1,7.2-6.8,7.2
			C146.3,91.3,144.3,88.3,144.3,84.1z M153.4,84.8V70.4c0-1.6-0.7-2.8-2.3-2.8c-1.6,0-2.3,1.1-2.3,2.8v14.4c0,1.6,0.7,2.8,2.3,2.8
			C152.7,87.6,153.4,86.4,153.4,84.8z"/>
		<path class="st1" d="M169.8,74.5L167.3,91H163l-3.6-26.8h4.3l2.1,17h0l2.2-17h3.7l2.5,17h0l2.1-17h3.8L176.7,91h-4.3L169.8,74.5
			L169.8,74.5z"/>
		<path class="st1" d="M196,74.5L193.5,91h-4.2l-3.6-26.8h4.3l2.1,17h0l2.2-17h3.7l2.5,17h0l2.1-17h3.8L202.9,91h-4.3L196,74.5
			L196,74.5z"/>
		<path class="st1" d="M206.1,91l5.1-26.8h5.1l5.1,26.8h-4.6l-0.8-4.9h-4.8l-0.8,4.9H206.1z M211.7,82.5h3.6l-1.8-10.7h0L211.7,82.5
			z"/>
		<path class="st1" d="M220.7,64.2h12v3.7H229V91h-4.5V67.9h-3.7V64.2z"/>
		<path class="st1" d="M234.8,64.2h10.7v3.7h-6.2v7.7h4.5v3.6h-4.5v8.1h6.2V91h-10.7V64.2z"/>
		<path class="st1" d="M252.4,78.7V91h-4.5V64.2h6.6c4.5,0,6.2,2.3,6.2,6v3.4c0,2.9-1,4.6-3.6,5.2l4.3,12.2h-4.7L252.4,78.7z
			 M252.4,67.9v8.3h1.5c1.5,0,2.2-0.8,2.2-2.2v-3.9c0-1.5-0.7-2.2-2.2-2.2H252.4z"/>
	</g>
</g>
</svg>
