<?xml version="1.0" encoding="utf-8"?>
<!-- Generator: Adobe Illustrator 21.0.2, SVG Export Plug-In . SVG Version: 6.00 Build 0)  -->
<svg version="1.1" id="Layer_1" xmlns="http://www.w3.org/2000/svg" xmlns:xlink="http://www.w3.org/1999/xlink" x="0px" y="0px"
	 viewBox="0 0 317.6 317.6" style="enable-background:new 0 0 317.6 317.6;" xml:space="preserve">
<style type="text/css">
	.st0{fill:#FBC500;}
	.st1{fill:#FFFFFF;}
	.st2{fill:#A6183B;}
	.st3{fill:#EB611E;}
	.st4{fill:#DA025F;}
	.st5{fill:#F59D10;}
	.st6{fill:#C48E13;}
	.st7{fill:none;stroke:#FFFFFF;stroke-width:0.73;stroke-miterlimit:10;}
	.st8{fill:#DE1730;}
	.st9{fill:none;stroke:#FFFFFF;stroke-width:1.3067;stroke-linecap:round;stroke-miterlimit:10;}
	.st10{fill:#E1AA29;}
	.st11{fill:#C41722;}
	.st12{fill:#E6331F;}
	.st13{fill:#3BBBE4;}
	.st14{fill:#4B9B34;}
	.st15{fill:#F7F7F8;}
	.st16{fill:#39ABE2;}
	.st17{fill:#3E8EDE;}
	.st18{fill:#62B231;}
	.st19{fill:#E7B81A;}
	.st20{fill:#C31723;}
	.st21{fill:#499A35;}
	.st22{fill:#407E3D;}
	.st23{fill:#F9C400;}
	.st24{fill:#E6351D;}
	.st25{fill:#F59E12;}
	.st26{fill:#2494D2;}
	.st27{fill:#A5193C;}
	.st28{fill:#3ABAE3;}
	.st29{fill:#EB621F;}
	.st30{fill:#E01630;}
	.st31{fill:#D9045F;}
	.st32{fill:#1C4468;}
	.st33{fill:#CB9914;}
	.st34{fill:#04649B;}
	.st35{fill:#5FB130;}
	.st36{fill:#407D3C;}
	.st37{fill:#2496D3;}
	.st38{fill:#1E4468;}
	.st39{fill:#05639B;}
</style>
<g>
	<rect x="0" class="st13" width="317.6" height="317.6"/>
	<path class="st1" d="M48.1,91.5c11.4,0,15.9-6.2,15.9-16.2v-9.4c0-10.5-4.2-15.8-11.9-15.8c-4.5,0-7.3,2.1-8.9,5.2H43V41.5
		c0-3.9,1.2-6.6,5.1-6.6c3.9,0,5,2.3,5,6.2v4.2H63V42c0-9.4-3.1-16.1-15-16.1c-11.3,0-15.6,7.3-15.6,17.3v31.2
		C32.4,84.3,36.7,91.5,48.1,91.5 M43,64.6c0.2-3.6,1.7-5.9,5.1-5.9c3.7,0,5.1,2.3,5.1,6.4v11.1c0,4.1-1.5,6.4-5.2,6.4
		c-3.6,0-5-2.5-5-6.4V64.6z"/>
	<path class="st1" d="M217.3,128.4c-0.3-0.3-0.6-0.5-1-0.5H101c-0.4,0-0.8,0.2-1,0.5c-0.3,0.3-0.4,0.7-0.3,1.1l19.4,117.1
		c0.1,0.6,0.7,1.1,1.3,1.1h23.8l1.6,19.1l-10,0l23.3,23.3l23.3-23.3l-10,0l1.6-19h24.2c0.7,0,1.2-0.5,1.3-1.1l18.1-117.1
		C217.6,129.1,217.5,128.7,217.3,128.4z M172.7,222.1c0,0-5.2,5.4-13.7,4.8c-8.5,0.6-13.8-4.8-13.8-4.8c-8.6-8.6-5.6-19.4-2.5-24.9
		c1.9-3.5,15.1-23.4,16.3-25.1V172c0,0,0,0,0.1,0.1l0-0.1v0.1c1.1,1.7,14.4,21.6,16.2,25.1C178.3,202.8,181.4,213.5,172.7,222.1z
		 M209.3,153.1c-3.1-1.4-7.1-0.9-10.9,0.7c-14.3,5.8-24,7.9-39.1,3.2c-9.5-3-18.3-9.2-28.8-5.4c-6.9,2.5-13.4,4.9-21.3,4.8
		l-4.5-23.3h107.8L209.3,153.1z"/>
	<g>
		<path class="st1" d="M92.2,45.7V32.8c0-4.2,2-7.2,6.7-7.2c5,0,6.4,2.8,6.4,6.7v3.2h-4.1v-3.5c0-1.7-0.6-2.6-2.2-2.6
			c-1.6,0-2.3,1.1-2.3,2.8v14.4c0,1.6,0.7,2.8,2.3,2.8c1.6,0,2.2-1,2.2-2.6v-4.9h4.1v4.6c0,3.8-1.6,6.7-6.4,6.7
			C94.1,52.9,92.2,49.9,92.2,45.7z"/>
		<path class="st1" d="M107.7,25.9h4.5v23.1h5.4v3.7h-9.9V25.9z"/>
		<path class="st1" d="M119.6,25.9h10.7v3.7h-6.2v7.7h4.5v3.6h-4.5v8.1h6.2v3.7h-10.7V25.9z"/>
		<path class="st1" d="M132,52.6l5.1-26.8h5.1l5.1,26.8h-4.6l-0.8-4.9h-4.8l-0.8,4.9H132z M137.7,44.1h3.6l-1.8-10.7h0L137.7,44.1z"
			/>
		<path class="st1" d="M152.9,35.8v16.8h-3.8V25.9h4.4l4.9,15.4V25.9h3.8v26.8h-3.9L152.9,35.8z"/>
		<path class="st1" d="M178.6,36.1l-2.5,16.5h-4.2l-3.6-26.8h4.3l2.1,17h0l2.2-17h3.7l2.5,17h0l2.1-17h3.8l-3.5,26.8h-4.3
			L178.6,36.1L178.6,36.1z"/>
		<path class="st1" d="M188.7,52.6l5.1-26.8h5.1l5.1,26.8h-4.6l-0.8-4.9h-4.8l-0.8,4.9H188.7z M194.3,44.1h3.6l-1.8-10.7h0
			L194.3,44.1z"/>
		<path class="st1" d="M203.3,25.9h12v3.7h-3.7v23.1H207V29.5h-3.7V25.9z"/>
		<path class="st1" d="M217.3,25.9h10.7v3.7h-6.2v7.7h4.5v3.6h-4.5v8.1h6.2v3.7h-10.7V25.9z"/>
		<path class="st1" d="M235,40.3v12.3h-4.5V25.9h6.6c4.5,0,6.2,2.3,6.2,6v3.4c0,2.9-1,4.6-3.6,5.2l4.3,12.2h-4.7L235,40.3z
			 M235,29.5v8.3h1.5c1.5,0,2.2-0.8,2.2-2.2v-3.9c0-1.5-0.7-2.2-2.2-2.2H235z"/>
		<path class="st1" d="M91.4,90.1l5.1-26.8h5.1l5.1,26.8h-4.6l-0.8-4.9h-4.8l-0.8,4.9H91.4z M97.1,81.6h3.6l-1.8-10.7h0L97.1,81.6z"
			/>
		<path class="st1" d="M112.4,73.3v16.8h-3.8V63.4h4.4l4.9,15.4V63.4h3.8v26.8h-3.9L112.4,73.3z"/>
		<path class="st1" d="M137.6,70.5v12.4c0,4.1-1.7,7.2-6.5,7.2h-6.9V63.4h6.9C135.9,63.4,137.6,66.4,137.6,70.5z M130.6,86.4
			c1.9,0,2.6-1.1,2.6-2.7v-14c0-1.6-0.7-2.7-2.6-2.7h-1.9v19.4H130.6z"/>
		<path class="st1" d="M144.1,84.4v-3.6h4.2v3.7c0,1.5,0.7,2.4,2.2,2.4c1.4,0,2.1-0.9,2.1-2.4v-1c0-1.5-0.6-2.5-2-3.8l-2.6-2.6
			c-2.6-2.5-3.8-4.1-3.8-7.1v-0.9c0-3.3,1.9-5.9,6.3-5.9c4.5,0,6.3,2.2,6.3,6.1v2.2h-4.1V69c0-1.5-0.7-2.3-2.1-2.3
			c-1.3,0-2.1,0.7-2.1,2.2v0.6c0,1.5,0.8,2.4,2.1,3.6l2.9,2.8c2.4,2.5,3.6,4,3.6,6.9v1.3c0,3.7-2,6.3-6.6,6.3
			C145.9,90.4,144.1,87.9,144.1,84.4z"/>
		<path class="st1" d="M158.3,90.1l5.1-26.8h5.1l5.1,26.8h-4.6l-0.8-4.9h-4.8l-0.8,4.9H158.3z M163.9,81.6h3.6l-1.8-10.7h0
			L163.9,81.6z"/>
		<path class="st1" d="M179.2,73.3v16.8h-3.8V63.4h4.4l4.9,15.4V63.4h3.8v26.8h-3.9L179.2,73.3z"/>
		<path class="st1" d="M191,63.4h4.5v26.8H191V63.4z"/>
		<path class="st1" d="M197.6,63.4h12V67h-3.7v23.1h-4.5V67h-3.7V63.4z"/>
		<path class="st1" d="M208.9,90.1l5.1-26.8h5.1l5.1,26.8h-4.6l-0.8-4.9H214l-0.8,4.9H208.9z M214.6,81.6h3.6l-1.8-10.7h0
			L214.6,81.6z"/>
		<path class="st1" d="M223.6,63.4h12V67h-3.7v23.1h-4.5V67h-3.7V63.4z"/>
		<path class="st1" d="M237.6,63.4h4.5v26.8h-4.5V63.4z"/>
		<path class="st1" d="M244.7,83.2V70.3c0-4.2,2.1-7.2,6.8-7.2c4.8,0,6.8,3,6.8,7.2v12.9c0,4.1-2.1,7.2-6.8,7.2
			C246.8,90.4,244.7,87.4,244.7,83.2z M253.9,83.9V69.5c0-1.6-0.7-2.8-2.3-2.8c-1.6,0-2.3,1.1-2.3,2.8v14.4c0,1.6,0.7,2.8,2.3,2.8
			C253.2,86.7,253.9,85.5,253.9,83.9z"/>
		<path class="st1" d="M264.7,73.3v16.8h-3.8V63.4h4.4l4.9,15.4V63.4h3.8v26.8H270L264.7,73.3z"/>
	</g>
</g>
</svg>
