<?xml version="1.0" encoding="utf-8"?>
<!-- Generator: Adobe Illustrator 21.0.2, SVG Export Plug-In . SVG Version: 6.00 Build 0)  -->
<svg version="1.1" id="Layer_1" xmlns="http://www.w3.org/2000/svg" xmlns:xlink="http://www.w3.org/1999/xlink" x="0px" y="0px"
	 viewBox="0 0 317.6 317.6" style="enable-background:new 0 0 317.6 317.6;" xml:space="preserve">
<style type="text/css">
	.st0{fill:#DD172F;}
	.st1{fill:#FFFFFF;}
	.st2{fill:none;stroke:#FFFFFF;stroke-width:1.3067;stroke-linecap:round;stroke-miterlimit:10;}
	.st3{fill:#E0A928;}
	.st4{fill:#499935;}
	.st5{fill:#C31922;}
	.st6{fill:#E53321;}
	.st7{fill:#38BAE3;}
	.st8{fill:#FAC400;}
	.st9{fill:#A5183B;}
	.st10{fill:#E9611D;}
	.st11{fill:#D9055F;}
	.st12{fill:#F59C12;}
	.st13{fill:#C38C12;}
	.st14{fill:none;stroke:#FFFFFF;stroke-width:0.73;stroke-miterlimit:10;}
	.st15{fill:#3F7C3C;}
	.st16{fill:#2593D2;}
	.st17{fill:#5EB032;}
	.st18{fill:#00639B;}
	.st19{fill:#1D4467;}
	.st20{fill:#EFEFEF;}
	.st21{fill:#010202;}
	.st22{fill:#61B032;}
	.st23{fill:#E6B719;}
	.st24{fill:#C21822;}
	.st25{fill:#489935;}
	.st26{fill:#3F7E3C;}
	.st27{fill:#F8C300;}
	.st28{fill:#E4351F;}
	.st29{fill:#F59C13;}
	.st30{fill:#2691D0;}
	.st31{fill:#A4193C;}
	.st32{fill:#37B9E2;}
	.st33{fill:#E9611F;}
	.st34{fill:#DF1531;}
	.st35{fill:#D80560;}
	.st36{fill:#1B4367;}
	.st37{fill:#CA9811;}
	.st38{fill:#00659A;}
</style>
<g>
	<rect class="st3" width="317.6" height="317.6"/>
	<path class="st1" d="M51.2,81.9H33.5v-3c0-5,1.8-6.9,4.5-9.8l6.9-7.3c5.6-5.9,6.8-9.7,6.8-16.2v-6.2c0-9.2-4.4-13.5-14.1-13.5
		c-9.4,0-14.3,5-14.3,14v7.7h9.8v-8c0-3.9,1.9-5,4.2-5c2.1,0,3.9,0.9,3.9,4.8v5.3c0,5.3-0.5,7.4-4,11.1l-6,6.4
		c-5.9,6.2-8,10.4-8,16.7v11.8h28V81.9z"/>
	<path class="st1" d="M126.7,269.9v4.5c0,0,0,0.1,0,0.1c0,0,0,0.1,0,0.1c0,1.1,0.9,2,2.1,2c0,0,0,0,0,0c0,0,0.1,0,0.1,0h52.4
		c0,0,0,0,0,0c0,0,0,0,0,0c1.1,0,2.1-1,2.1-2.1c0,0,0,0,0,0c0,0,0,0,0,0v-5.1c29.5-9.7,51.6-33.6,56.4-62.7c0-0.1,0-0.1,0-0.2
		c0-0.1,0-0.2,0-0.3c0-1.2-0.9-2.1-2.1-2.1h-166h-1c-1.2,0-2.1,0.9-2.1,2.1l0.1,1C73.9,236.5,96.6,260.6,126.7,269.9"/>
	<path class="st1" d="M183.3,132.8c-0.7,1-16.8,24.2,0.4,43c7.9,8.6,7.2,16.2,4.9,21.4h11c2.2-7.6,1.3-17.1-7.6-26.9
		c-12.7-13.8,0.2-32.5,0.4-32.8c1.5-2.1,0.7-4.9-1.8-6.2C188.1,130,184.8,130.7,183.3,132.8"/>
	<path class="st1" d="M155.4,197.2h11c2.2-7.6,1.3-17.1-7.6-26.9c-12.7-13.8,0.1-32.5,0.4-32.8c1.5-2.1,0.7-4.9-1.8-6.2
		c-2.5-1.3-5.7-0.6-7.2,1.5c-0.7,1-16.8,24.2,0.4,43C158.3,184.4,157.7,192,155.4,197.2"/>
	<path class="st1" d="M116.9,132.8c-0.7,1-16.8,24.2,0.4,43c7.9,8.6,7.2,16.2,5,21.4h11c2.2-7.6,1.3-17.1-7.6-26.9
		c-12.7-13.8,0.2-32.5,0.4-32.8c1.5-2.1,0.7-4.9-1.8-6.2C121.6,130,118.4,130.7,116.9,132.8"/>
	<g>
		<path class="st1" d="M66.9,45.2V25.9h3.8v15.9h8.8v3.4H66.9z"/>
		<path class="st1" d="M89,45.3c-4,0-7.1-2.7-7.1-6.8V25.9h3.8v12.6c0,2.2,1.3,3.6,3.3,3.6s3.4-1.3,3.4-3.6V25.9h3.7v12.7
			C96.1,42.7,93,45.3,89,45.3z"/>
		<path class="st1" d="M107.7,29.2v15.9h-3.8V29.2h-5v-3.4h13.9v3.4H107.7z"/>
		<path class="st1" d="M123.2,29.2v15.9h-3.8V29.2h-5v-3.4h13.9v3.4H123.2z"/>
		<path class="st1" d="M131.3,45.2V25.9H144v3.4h-8.9v4.5h7.6v3.4h-7.6v4.7h8.9v3.4H131.3z"/>
		<path class="st1" d="M160.5,45.3c-2.1,0-3.8-0.8-5.2-2.1c-2-2-1.9-4.4-1.9-7.7s-0.1-5.7,1.9-7.7c1.4-1.4,3.1-2.1,5.2-2.1
			c3.6,0,6.4,2.1,7.1,6.1h-3.8c-0.4-1.5-1.4-2.7-3.3-2.7c-1,0-1.9,0.4-2.4,1c-0.7,0.8-0.9,1.7-0.9,5.4s0.2,4.6,0.9,5.4
			c0.5,0.6,1.4,1,2.4,1c1.9,0,2.9-1.2,3.3-2.7h3.8C166.9,43.3,164,45.3,160.5,45.3z"/>
		<path class="st1" d="M182.5,43.2c-1.4,1.4-3,2.1-5.2,2.1c-2.2,0-3.9-0.8-5.2-2.1c-2-2-1.9-4.4-1.9-7.7s-0.1-5.7,1.9-7.7
			c1.4-1.4,3-2.1,5.2-2.1c2.2,0,3.9,0.8,5.2,2.1c2,2,1.9,4.4,1.9,7.7S184.5,41.3,182.5,43.2z M179.7,30.1c-0.5-0.6-1.4-1-2.4-1
			c-1,0-1.9,0.4-2.4,1c-0.7,0.8-0.9,1.7-0.9,5.4s0.2,4.6,0.9,5.4c0.5,0.6,1.4,1,2.4,1c1,0,1.9-0.4,2.4-1c0.7-0.8,0.9-1.7,0.9-5.4
			S180.5,30.9,179.7,30.1z"/>
		<path class="st1" d="M199.7,45.2l-7.6-11.9v11.9h-3.8V25.9h3.4l7.6,11.8V25.9h3.8v19.3H199.7z"/>
		<path class="st1" d="M215,29.2v15.9h-3.8V29.2h-5v-3.4H220v3.4H215z"/>
		<path class="st1" d="M233.3,45.2l-3.8-7.7h-2.7v7.7h-3.8V25.9h7.6c3.9,0,6.3,2.7,6.3,5.9c0,2.7-1.7,4.4-3.5,5.1l4.3,8.3H233.3z
			 M230.4,29.2h-3.5v5.1h3.5c1.7,0,2.7-1.1,2.7-2.5S232.1,29.2,230.4,29.2z"/>
		<path class="st1" d="M240.8,45.2V25.9h12.7v3.4h-8.9v4.5h7.6v3.4h-7.6v4.7h8.9v3.4H240.8z"/>
		<path class="st1" d="M66.9,77.7V58.4h3.8v15.9h8.8v3.4H66.9z"/>
		<path class="st1" d="M93.5,77.7l-1.1-3.4h-6.9l-1.2,3.4h-3.9l7-19.3h3l7,19.3H93.5z M89,64.1l-2.4,7h4.8L89,64.1z"/>
		<path class="st1" d="M109.9,61.8v4.7h7.6v3.4h-7.6v7.8h-3.8V58.4h12.7v3.4H109.9z"/>
		<path class="st1" d="M131.5,77.7l-1.1-3.4h-6.9l-1.2,3.4h-3.9l7-19.3h3l7,19.3H131.5z M127,64.1l-2.4,7h4.8L127,64.1z"/>
		<path class="st1" d="M137.8,77.7V58.4h3.8v19.3H137.8z"/>
		<path class="st1" d="M159.8,77.7V66.5l-3.7,7.3h-2.5l-3.7-7.3v11.3h-3.8V58.4h3.7l5,10.4l5-10.4h3.7v19.3H159.8z"/>
	</g>
</g>
</svg>
