<?xml version="1.0" encoding="utf-8"?>
<!-- Generator: Adobe Illustrator 21.0.2, SVG Export Plug-In . SVG Version: 6.00 Build 0)  -->
<svg version="1.1" id="Layer_1" xmlns="http://www.w3.org/2000/svg" xmlns:xlink="http://www.w3.org/1999/xlink" x="0px" y="0px"
	 viewBox="0 0 317.6 317.6" style="enable-background:new 0 0 317.6 317.6;" xml:space="preserve">
<style type="text/css">
	.st0{fill:#DD172F;}
	.st1{fill:#FFFFFF;}
	.st2{fill:none;stroke:#FFFFFF;stroke-width:1.3067;stroke-linecap:round;stroke-miterlimit:10;}
	.st3{fill:#E0A928;}
	.st4{fill:#499935;}
	.st5{fill:#C31922;}
	.st6{fill:#E53321;}
	.st7{fill:#38BAE3;}
	.st8{fill:#FAC400;}
	.st9{fill:#A5183B;}
	.st10{fill:#E9611D;}
	.st11{fill:#D9055F;}
	.st12{fill:#F59C12;}
	.st13{fill:#C38C12;}
	.st14{fill:none;stroke:#FFFFFF;stroke-width:0.73;stroke-miterlimit:10;}
	.st15{fill:#3F7C3C;}
	.st16{fill:#2593D2;}
	.st17{fill:#5EB032;}
	.st18{fill:#00639B;}
	.st19{fill:#1D4467;}
	.st20{fill:#EFEFEF;}
	.st21{fill:#010202;}
	.st22{fill:#61B032;}
	.st23{fill:#E6B719;}
	.st24{fill:#C21822;}
	.st25{fill:#489935;}
	.st26{fill:#3F7E3C;}
	.st27{fill:#F8C300;}
	.st28{fill:#E4351F;}
	.st29{fill:#F59C13;}
	.st30{fill:#2691D0;}
	.st31{fill:#A4193C;}
	.st32{fill:#37B9E2;}
	.st33{fill:#E9611F;}
	.st34{fill:#DF1531;}
	.st35{fill:#D80560;}
	.st36{fill:#1B4367;}
	.st37{fill:#CA9811;}
	.st38{fill:#00659A;}
</style>
<g>
	<rect class="st11" width="317.6" height="317.6"/>
	<polygon class="st1" points="25.2,41.6 25.2,90.7 36,90.7 36,26.6 27.4,26.6 17.5,38.2 17.5,49.5 17.6,49.5 25.1,41.6 	"/>
	<path class="st1" d="M75.3,74.1v-31c0-10-5-17.3-16-17.3c-10.9,0-15.9,7.3-15.9,17.3v31c0,9.9,5,17.3,15.9,17.3
		C70.3,91.4,75.3,84.1,75.3,74.1 M54.2,75.8V41.4c0-3.9,1.4-6.6,5.1-6.6c3.8,0,5.2,2.7,5.2,6.6v34.4c0,3.9-1.4,6.6-5.2,6.6
		C55.7,82.5,54.2,79.7,54.2,75.8"/>
	<path class="st1" d="M188.7,213.4h-60.3c-0.4,0-0.7,0.3-0.7,0.7v13.7c0,0.4,0.3,0.7,0.7,0.7h60.3c0.4,0,0.7-0.3,0.7-0.7V214
		C189.4,213.7,189.1,213.4,188.7,213.4"/>
	<path class="st1" d="M189.4,188.3c0-0.4-0.3-0.7-0.7-0.7h-50h-10.3c-0.4,0-0.7,0.3-0.7,0.7v5.4v8.3c0,0.4,0.3,0.7,0.7,0.7h60.3
		c0.4,0,0.7-0.3,0.7-0.7V188.3z"/>
	<path class="st1" d="M224.2,193.7c-2.5-9.9-7-18.8-12.9-26.4l-0.1,0.1c1.9,2.9,3.7,5.9,5.1,9.1c7.8,14.3,10.2,31.6,5.3,48.6
		c-9.9,33.9-45.4,53.4-79.4,43.5c-14.3-4.2-26-12.9-34-24.1c-5-6.5-8.8-14.1-10.9-22.5c-8.1-32.4,11.7-65.2,44.1-73.2
		c20-5,40.2,0.7,54.6,13.4c0.1,0.1,0.3,0.2,0.4,0.3c0.4,0.3,0.8,0.5,1.4,0.5c0.6,0,1.1-0.2,1.5-0.6l0.2-0.2l7.7-7.6l0.5-0.5
		c0.3-0.4,0.5-0.8,0.5-1.4c0-0.6-0.2-1.1-0.6-1.6c-0.1-0.1-0.2-0.1-0.2-0.2c-17.7-15.8-42.6-22.9-67.4-16.8
		c-39.8,9.9-64,50.2-54.1,90c4.2,16.7,13.6,30.6,26.2,40.4c12.5,10.2,28.4,16.1,45.1,15.9c5.4-0.1,10.8-0.7,16.2-2.1
		C210.7,269.2,233.6,231.2,224.2,193.7"/>
	<g>
		<path class="st1" d="M102.7,48.1l-3.8-7.7h-2.7v7.7h-3.8V28.8h7.6c3.9,0,6.3,2.7,6.3,5.9c0,2.7-1.7,4.4-3.5,5.1l4.3,8.3H102.7z
			 M99.8,32.2h-3.6v5.1h3.6c1.7,0,2.7-1.1,2.7-2.5C102.5,33.2,101.4,32.2,99.8,32.2z"/>
		<path class="st1" d="M110,48.1V28.8h12.7v3.4h-8.9v4.5h7.6V40h-7.6v4.7h8.9v3.4H110z M117,26.9h-2.4l1.7-4.6h3.7L117,26.9z"/>
		<path class="st1" d="M138.4,46.3c-1.3,1.3-3.1,1.8-5.1,1.8h-7V28.8h7c2,0,3.8,0.6,5.1,1.8c2.2,2.2,2,4.8,2,7.7
			S140.6,44.1,138.4,46.3z M135.8,33.3c-0.7-0.8-1.5-1.2-2.8-1.2h-2.8v12.6h2.8c1.3,0,2.2-0.4,2.8-1.2c0.7-0.9,0.8-2.2,0.8-5.2
			C136.6,35.4,136.5,34.2,135.8,33.3z"/>
		<path class="st1" d="M150.9,48.3c-4,0-7.1-2.7-7.1-6.8V28.8h3.8v12.6c0,2.2,1.3,3.5,3.3,3.5c2,0,3.4-1.3,3.4-3.5V28.8h3.7v12.7
			C158,45.6,154.8,48.3,150.9,48.3z"/>
		<path class="st1" d="M168.5,48.3c-2.1,0-3.8-0.8-5.2-2.1c-2-2-1.9-4.4-1.9-7.7c0-3.3-0.1-5.7,1.9-7.7c1.4-1.4,3.1-2.1,5.2-2.1
			c3.6,0,6.4,2.1,7.1,6.1h-3.8c-0.4-1.5-1.4-2.7-3.3-2.7c-1,0-1.9,0.4-2.4,1c-0.7,0.8-0.9,1.7-0.9,5.4s0.2,4.6,0.9,5.5
			c0.5,0.6,1.4,1,2.4,1c1.9,0,2.9-1.2,3.3-2.7h3.8C174.9,46.2,172.1,48.3,168.5,48.3z"/>
		<path class="st1" d="M185.6,32.2v15.9h-3.8V32.2h-5v-3.4h13.9v3.4H185.6z"/>
		<path class="st1" d="M193.5,48.1V28.8h3.8v19.3H193.5z"/>
		<path class="st1" d="M213.4,46.1c-1.4,1.4-3,2.1-5.2,2.1s-3.9-0.8-5.2-2.1c-2-2-1.9-4.4-1.9-7.7c0-3.3-0.1-5.7,1.9-7.7
			c1.4-1.4,3-2.1,5.2-2.1s3.8,0.8,5.2,2.1c2,2,1.9,4.4,1.9,7.7C215.3,41.8,215.3,44.2,213.4,46.1z M210.6,33c-0.5-0.6-1.4-1-2.4-1
			s-1.9,0.4-2.4,1c-0.7,0.8-0.9,1.7-0.9,5.4s0.2,4.6,0.9,5.4c0.5,0.6,1.4,1,2.4,1s1.9-0.4,2.4-1c0.7-0.8,0.9-1.7,0.9-5.4
			S211.3,33.8,210.6,33z"/>
		<path class="st1" d="M230.4,48.1l-7.6-11.8v11.8H219V28.8h3.4l7.6,11.8V28.8h3.8v19.3H230.4z"/>
		<path class="st1" d="M256.4,46.3c-1.3,1.3-3.1,1.8-5.1,1.8h-7V28.8h7c2,0,3.8,0.6,5.1,1.8c2.2,2.2,2,4.8,2,7.7
			S258.6,44.1,256.4,46.3z M253.8,33.3c-0.7-0.8-1.5-1.2-2.8-1.2h-2.8v12.6h2.8c1.3,0,2.2-0.4,2.8-1.2c0.7-0.9,0.8-2.2,0.8-5.2
			C254.6,35.4,254.5,34.2,253.8,33.3z"/>
		<path class="st1" d="M262.1,48.1V28.8h12.7v3.4h-8.9v4.5h7.6V40h-7.6v4.7h8.9v3.4H262.1z"/>
		<path class="st1" d="M283.7,48.3c-2.9,0-5.2-0.6-7-2.5l2.4-2.4c1.2,1.2,2.9,1.6,4.7,1.6c2.2,0,3.4-0.8,3.4-2.4
			c0-0.7-0.2-1.2-0.6-1.6c-0.4-0.4-0.8-0.5-1.7-0.7l-2.3-0.3c-1.7-0.2-2.9-0.8-3.7-1.6c-0.9-0.9-1.4-2.2-1.4-3.8
			c0-3.4,2.5-5.9,6.7-5.9c2.7,0,4.6,0.7,6.2,2.2l-2.4,2.4c-1.2-1.2-2.7-1.3-4-1.3c-2,0-3,1.1-3,2.4c0,0.5,0.2,1,0.6,1.4
			c0.4,0.4,1,0.7,1.8,0.8l2.3,0.3c1.8,0.2,2.9,0.7,3.7,1.5c1,1,1.5,2.4,1.5,4.1C290.8,46.1,287.7,48.3,283.7,48.3z"/>
		<path class="st1" d="M92.4,80.7V61.3h3.8v19.3H92.4z"/>
		<path class="st1" d="M112,80.7l-7.6-11.8v11.8h-3.8V61.3h3.4l7.6,11.8V61.3h3.8v19.3H112z"/>
		<path class="st1" d="M119.7,80.7V61.3h12.7v3.4h-8.9v4.5h7.6v3.4h-7.6v4.7h8.9v3.4H119.7z M126.7,59.5h-2.4l1.7-4.6h3.7
			L126.7,59.5z"/>
		<path class="st1" d="M147.9,78.6c-1.5,1.6-3.4,2.2-5.5,2.2c-2.1,0-3.8-0.8-5.2-2.1c-1.9-2-1.9-4.4-1.9-7.7c0-3.3-0.1-5.7,1.9-7.7
			c1.4-1.4,3-2.1,5.2-2.1c4.5,0,6.8,2.9,7.3,6.2h-3.8c-0.4-1.8-1.5-2.8-3.5-2.8c-1,0-1.9,0.4-2.4,1c-0.7,0.8-0.9,1.7-0.9,5.4
			c0,3.7,0.2,4.6,0.9,5.5c0.5,0.6,1.4,1,2.4,1c1.1,0,2.1-0.4,2.7-1.1c0.6-0.7,0.9-1.6,0.9-2.6v-0.7h-3.6v-3.1h7.3v2.8
			C149.8,75.5,149.3,77.2,147.9,78.6z"/>
		<path class="st1" d="M164.2,80.7l-1.1-3.4h-6.9l-1.2,3.4h-3.9l7-19.3h3l7,19.3H164.2z M159.7,67l-2.4,7h4.8L159.7,67z"/>
		<path class="st1" d="M170.3,80.7V61.3h3.8v15.9h8.8v3.4H170.3z"/>
		<path class="st1" d="M185.8,80.7V61.3h3.8v19.3H185.8z"/>
		<path class="st1" d="M201.3,64.7v15.9h-3.8V64.7h-5v-3.4h13.9v3.4H201.3z"/>
		<path class="st1" d="M209.3,80.7V61.3H222v3.4h-8.9v4.5h7.6v3.4h-7.6v4.7h8.9v3.4H209.3z M216.3,59.5h-2.4l1.7-4.6h3.7L216.3,59.5
			z"/>
		<path class="st1" d="M230.9,80.8c-2.9,0-5.2-0.6-7-2.5l2.4-2.4c1.2,1.2,2.9,1.6,4.7,1.6c2.2,0,3.4-0.8,3.4-2.4
			c0-0.7-0.2-1.2-0.6-1.6c-0.4-0.4-0.8-0.5-1.7-0.7l-2.3-0.3c-1.7-0.2-2.9-0.8-3.7-1.6c-0.9-0.9-1.4-2.2-1.4-3.8
			c0-3.4,2.5-5.9,6.7-5.9c2.7,0,4.6,0.7,6.2,2.2l-2.4,2.4c-1.2-1.2-2.7-1.3-4-1.3c-2,0-3,1.1-3,2.4c0,0.5,0.2,1,0.6,1.4
			c0.4,0.4,1,0.7,1.8,0.8l2.3,0.3c1.8,0.2,2.9,0.7,3.7,1.5c1,1,1.5,2.4,1.5,4.1C238,78.7,234.9,80.8,230.9,80.8z"/>
	</g>
</g>
</svg>
