<?xml version="1.0" encoding="utf-8"?>
<!-- Generator: Adobe Illustrator 21.0.2, SVG Export Plug-In . SVG Version: 6.00 Build 0)  -->
<svg version="1.1" id="Layer_1" xmlns="http://www.w3.org/2000/svg" xmlns:xlink="http://www.w3.org/1999/xlink" x="0px" y="0px"
	 viewBox="0 0 317.6 317.6" style="enable-background:new 0 0 317.6 317.6;" xml:space="preserve">
<style type="text/css">
	.st0{fill:#FBC500;}
	.st1{fill:#FFFFFF;}
	.st2{fill:#A6183B;}
	.st3{fill:#EB611E;}
	.st4{fill:#DA025F;}
	.st5{fill:#F59D10;}
	.st6{fill:#C48E13;}
	.st7{fill:none;stroke:#FFFFFF;stroke-width:0.73;stroke-miterlimit:10;}
	.st8{fill:#DE1730;}
	.st9{fill:none;stroke:#FFFFFF;stroke-width:1.3067;stroke-linecap:round;stroke-miterlimit:10;}
	.st10{fill:#E1AA29;}
	.st11{fill:#C41722;}
	.st12{fill:#E6331F;}
	.st13{fill:#3BBBE4;}
	.st14{fill:#4B9B34;}
	.st15{fill:#F7F7F8;}
	.st16{fill:#39ABE2;}
	.st17{fill:#3E8EDE;}
	.st18{fill:#62B231;}
	.st19{fill:#E7B81A;}
	.st20{fill:#C31723;}
	.st21{fill:#499A35;}
	.st22{fill:#407E3D;}
	.st23{fill:#F9C400;}
	.st24{fill:#E6351D;}
	.st25{fill:#F59E12;}
	.st26{fill:#2494D2;}
	.st27{fill:#A5193C;}
	.st28{fill:#3ABAE3;}
	.st29{fill:#EB621F;}
	.st30{fill:#E01630;}
	.st31{fill:#D9045F;}
	.st32{fill:#1C4468;}
	.st33{fill:#CB9914;}
	.st34{fill:#04649B;}
	.st35{fill:#5FB130;}
	.st36{fill:#407D3C;}
	.st37{fill:#2496D3;}
	.st38{fill:#1E4468;}
	.st39{fill:#05639B;}
</style>
<g>
	<rect x="0" y="0" class="st39" width="317.6" height="317.6"/>
	<polygon class="st1" points="24.4,38.3 24.4,49.5 24.5,49.5 32.1,41.7 32.2,41.7 32.2,90.7 42.9,90.7 42.9,26.6 34.3,26.6 	"/>
	<path class="st1" d="M80.6,75.3v-9.4c0-10.5-4.2-15.8-11.9-15.8c-4.5,0-7.3,2.1-8.9,5.2h-0.1V41.5c0-3.9,1.2-6.6,5.1-6.6
		c3.9,0,5,2.3,5,6.2v4.3h9.8v-3.4c0-9.4-3.1-16.1-15-16.1c-11.3,0-15.6,7.3-15.6,17.3v31.2c0,9.9,4.3,17.1,15.7,17.1
		C76.2,91.4,80.6,85.2,80.6,75.3 M70,76.2c0,4.1-1.5,6.4-5.2,6.4c-3.6,0-5-2.5-5-6.4V64.5c0.2-3.6,1.7-5.9,5.1-5.9
		c3.7,0,5.1,2.3,5.1,6.4V76.2z"/>
	<g>
		<path class="st1" d="M214.2,140.3c0,0-3,4-2.1,7.9c0.9,3.9,5.3,6.2,5.3,6.2s3-4,2.1-7.9C218.6,142.6,214.2,140.3,214.2,140.3"/>
		<path class="st1" d="M209.3,163.1c0,0,3-4,2.1-7.9c-0.9-3.9-5.3-6.2-5.3-6.2s-3,4-2.1,7.9C204.9,160.8,209.3,163.1,209.3,163.1"/>
		<path class="st1" d="M221.7,158.8c0,0,3.2,3.2,6.8,2.9c3.6-0.3,6.3-4,6.3-4s-3.2-3.2-6.8-2.9C224.3,155.1,221.7,158.8,221.7,158.8
			"/>
		<path class="st1" d="M226.9,141.7c-2.9,3-2.5,8.3-2.5,8.3s5.2,0.4,8.1-2.5c2.9-3,2.5-8.3,2.5-8.3S229.8,138.8,226.9,141.7"/>
		<path class="st1" d="M220.4,170.7c3.6,0.4,7-2.7,7-2.7s-2.5-3.8-6-4.2c-3.6-0.4-7,2.7-7,2.7S216.8,170.3,220.4,170.7"/>
		<path class="st1" d="M223.6,228.6h-26.9c-2.1,0-3.8,1.7-3.8,3.8c0,2.1,1.7,3.8,3.8,3.8h26.9c2.1,0,3.8-1.7,3.8-3.8
			C227.4,230.3,225.7,228.6,223.6,228.6"/>
		<path class="st1" d="M223.6,270.5h-26.9c-2.1,0-3.8,1.7-3.8,3.8c0,2.1,1.7,3.8,3.8,3.8h26.9c2.1,0,3.8-1.7,3.8-3.8
			C227.4,272.2,225.7,270.5,223.6,270.5"/>
		<path class="st1" d="M102.6,219.3c-0.6-0.2-1.3-0.4-1.9-0.5C100.7,218.8,101.4,219.1,102.6,219.3"/>
		<path class="st1" d="M222.6,238.8h-24.9c-1.2,0-2.2,1-2.2,2.2v7.6l-16.3,1.8l-23.8-0.5v-14.5c3.2-0.4,6.3-1,9.5-1.9
			c22.9-6.5,27.9-20.7,27.4-33.8c-0.5-13.3,3.8-18.5,9.9-20.8c1.8-0.7,3.5-1.1,5.1-1.3c0.1,3.3,0.7,7.1,2.2,11.6
			c0.5,0,1.1-0.1,1.6-0.1c-1.5-4.6-2.2-8.5-2.2-11.7c3.2-0.4,5.4-0.2,5.4-0.2s-2.1-1.1-5.2-3.7c1-6.3,4.8-10.2,8.7-14.2
			c2.1-2.2,4.3-4.4,6.1-7.1l-1.4-0.9c-1.6,2.6-3.8,4.7-5.9,6.9c-3.8,3.9-7.6,7.8-8.9,14.1c-1.2-1.1-2.6-2.4-3.9-3.9
			c-5.6-6.3-12.9-1.7-23.3,8c-10.4,9.6-23.4,10-36.1-3.1C127.6,155.9,113,156,102.9,157c6.9,2.9,9.3,9.4,12.8,25.7
			c3.6,17.1,12.8,24.9,25.4,25.9c-5.8,0.9-7.3,1.8-16.7,8.2c-7.3,5.1-17.6,3.5-21.8,2.5c7.7,2.4,16.7,10.4,24.9,13.2
			c4.7,1.6,9.7,2.6,14.8,3v13.9l-45.1-1v9.7l82.1-1.8l16.3,1.8v7.5c0,1.2,1,2.2,2.2,2.2h24.9c1.2,0,2.2-1,2.2-2.2V241
			C224.8,239.8,223.8,238.8,222.6,238.8z M146.2,235.8c1.8,0,3.6,0,5.3-0.1v14.1l-5.3-0.1V235.8z"/>
		<path class="st1" d="M94.8,256.6c0,2-1.4,3.7-3.2,3.7h-1.9c-1.8,0-3.2-1.7-3.2-3.7v-6.7c0-2,1.4-3.7,3.2-3.7h1.9
			c1.8,0,3.2,1.7,3.2,3.7V256.6z"/>
	</g>
	<g>
		<path class="st1" d="M100.4,26.4h6.7c4.5,0,6.2,2.3,6.2,6V38c0,3.8-1.7,6-6.2,6h-2.2v9.1h-4.5V26.4z M104.9,30v10.5h1.7
			c1.5,0,2.2-0.7,2.2-2.2v-6.2c0-1.5-0.7-2.2-2.2-2.2H104.9z"/>
		<path class="st1" d="M115.6,26.4h10.7V30h-6.2v7.7h4.5v3.6h-4.5v8.1h6.2v3.7h-10.7V26.4z"/>
		<path class="st1" d="M128,53.1l5.1-26.8h5.1l5.1,26.8h-4.6l-0.8-4.9H133l-0.8,4.9H128z M133.6,44.6h3.6l-1.8-10.7h0L133.6,44.6z"
			/>
		<path class="st1" d="M144.5,46.2V33.3c0-4.2,2-7.2,6.7-7.2c5,0,6.4,2.8,6.4,6.7v3.2h-4.1v-3.5c0-1.7-0.6-2.6-2.2-2.6
			c-1.6,0-2.3,1.1-2.3,2.8v14.4c0,1.6,0.7,2.8,2.3,2.8c1.6,0,2.2-1,2.2-2.6v-4.9h4.1v4.6c0,3.8-1.6,6.7-6.4,6.7
			C146.5,53.4,144.5,50.4,144.5,46.2z"/>
		<path class="st1" d="M160,26.4h10.7V30h-6.2v7.7h4.5v3.6h-4.5v8.1h6.2v3.7H160V26.4z"/>
		<path class="st1" d="M177.8,49.2l-2.3,6H173l0.6-6.4h4.3V49.2z"/>
		<path class="st1" d="M196.5,26.4v20.7c0,3.9-1.7,6.4-6.2,6.4c-4.7,0-5.9-2.6-5.9-6v-5.3h4.3v5.4c0,1.3,0.5,2.1,1.7,2.1
			c1.2,0,1.7-0.8,1.7-2.2V26.4H196.5z"/>
		<path class="st1" d="M212.1,26.4v20.3c0,4.1-1.8,6.8-6.4,6.8c-4.7,0-6.7-2.7-6.7-6.8V26.4h4.5v20.7c0,1.6,0.6,2.6,2.2,2.6
			c1.6,0,2.2-1.1,2.2-2.6V26.4H212.1z"/>
		<path class="st1" d="M214.4,47.4v-3.6h4.2v3.7c0,1.5,0.7,2.4,2.2,2.4c1.4,0,2.1-0.9,2.1-2.4v-1c0-1.5-0.6-2.5-2-3.8l-2.6-2.6
			c-2.6-2.5-3.8-4.1-3.8-7.1v-0.9c0-3.3,1.9-5.9,6.3-5.9c4.5,0,6.3,2.2,6.3,6.1v2.2h-4.1V32c0-1.5-0.7-2.3-2.1-2.3
			c-1.3,0-2.1,0.7-2.1,2.2v0.6c0,1.5,0.8,2.4,2.1,3.6l2.9,2.8c2.4,2.5,3.6,4,3.6,6.9v1.3c0,3.7-2,6.3-6.6,6.3
			C216.2,53.4,214.4,50.9,214.4,47.4z"/>
		<path class="st1" d="M228.6,26.4h12V30h-3.7v23.1h-4.5V30h-3.7V26.4z"/>
		<path class="st1" d="M242.6,26.4h4.5v26.8h-4.5V26.4z"/>
		<path class="st1" d="M249.7,46.2V33.3c0-4.2,2-7.2,6.7-7.2c5,0,6.4,2.8,6.4,6.7v3.2h-4.1v-3.5c0-1.7-0.6-2.6-2.2-2.6
			c-1.6,0-2.3,1.1-2.3,2.8v14.4c0,1.6,0.7,2.8,2.3,2.8c1.6,0,2.2-1,2.2-2.6v-4.9h4.1v4.6c0,3.8-1.6,6.7-6.4,6.7
			C251.7,53.4,249.7,50.4,249.7,46.2z"/>
		<path class="st1" d="M265.2,26.4H276V30h-6.2v7.7h4.5v3.6h-4.5v8.1h6.2v3.7h-10.7V26.4z"/>
		<path class="st1" d="M99.7,90.6l5.1-26.8h5.1l5.1,26.8h-4.6l-0.8-4.9h-4.8l-0.8,4.9H99.7z M105.3,82.1h3.6l-1.8-10.7h0L105.3,82.1
			z"/>
		<path class="st1" d="M120.6,73.8v16.8h-3.8V63.9h4.4l4.9,15.4V63.9h3.8v26.8h-3.9L120.6,73.8z"/>
		<path class="st1" d="M145.8,71v12.4c0,4.1-1.7,7.2-6.5,7.2h-6.9V63.9h6.9C144.1,63.9,145.8,66.9,145.8,71z M138.8,87
			c1.9,0,2.6-1.1,2.6-2.7v-14c0-1.6-0.7-2.7-2.6-2.7h-1.9V87H138.8z"/>
		<path class="st1" d="M152.3,84.9v-3.6h4.2v3.7c0,1.5,0.7,2.4,2.2,2.4c1.4,0,2.1-0.9,2.1-2.4v-1c0-1.5-0.6-2.5-2-3.8l-2.6-2.6
			c-2.6-2.5-3.8-4.1-3.8-7.1v-0.9c0-3.3,1.9-5.9,6.3-5.9c4.5,0,6.3,2.2,6.3,6.1v2.2h-4.1v-2.3c0-1.5-0.7-2.3-2.1-2.3
			c-1.3,0-2.1,0.7-2.1,2.2v0.6c0,1.5,0.8,2.4,2.1,3.6l2.9,2.8c2.4,2.5,3.6,4,3.6,6.9v1.3c0,3.7-2,6.3-6.6,6.3
			C154.1,90.9,152.3,88.4,152.3,84.9z"/>
		<path class="st1" d="M166.5,63.9h12v3.7h-3.7v23.1h-4.5V67.5h-3.7V63.9z"/>
		<path class="st1" d="M185,78.3v12.3h-4.5V63.9h6.6c4.5,0,6.2,2.3,6.2,6v3.4c0,2.9-1,4.6-3.6,5.2l4.3,12.2h-4.7L185,78.3z
			 M185,67.5v8.3h1.5c1.5,0,2.2-0.8,2.2-2.2v-3.9c0-1.5-0.7-2.2-2.2-2.2H185z"/>
		<path class="st1" d="M195.7,83.7V70.8c0-4.2,2.1-7.2,6.8-7.2c4.8,0,6.8,3,6.8,7.2v12.9c0,4.1-2.1,7.2-6.8,7.2
			C197.8,90.9,195.7,87.9,195.7,83.7z M204.8,84.4V70.1c0-1.6-0.7-2.8-2.3-2.8c-1.6,0-2.3,1.1-2.3,2.8v14.4c0,1.6,0.7,2.8,2.3,2.8
			C204.1,87.2,204.8,86,204.8,84.4z"/>
		<path class="st1" d="M215.7,73.8v16.8h-3.8V63.9h4.4l4.9,15.4V63.9h3.8v26.8H221L215.7,73.8z"/>
		<path class="st1" d="M234.3,76.3h6.4v14.3h-3.2v-2.9c-0.6,2-1.9,3.2-4.3,3.2c-3.9,0-5.6-3.1-5.6-7.2V70.8c0-4.2,2-7.2,6.8-7.2
			c5,0,6.4,2.8,6.4,6.7v2.4h-4.1v-2.7c0-1.7-0.6-2.6-2.3-2.6s-2.3,1.1-2.3,2.8v14.4c0,1.6,0.7,2.8,2.2,2.8c1.5,0,2.2-0.8,2.2-2.6
			v-4.7h-2.1V76.3z"/>
		<path class="st1" d="M100.4,101.4h4.5v26.8h-4.5V101.4z"/>
		<path class="st1" d="M111.3,111.3v16.8h-3.8v-26.8h4.4l4.9,15.4v-15.4h3.8v26.8h-3.9L111.3,111.3z"/>
		<path class="st1" d="M122.8,122.4v-3.6h4.2v3.7c0,1.5,0.7,2.4,2.2,2.4c1.4,0,2.1-0.9,2.1-2.4v-1c0-1.5-0.6-2.5-2-3.8l-2.6-2.6
			c-2.6-2.5-3.8-4.1-3.8-7.1v-0.9c0-3.3,1.9-5.9,6.3-5.9c4.5,0,6.3,2.2,6.3,6.1v2.2h-4.1V107c0-1.5-0.7-2.3-2.1-2.3
			c-1.3,0-2.1,0.7-2.1,2.2v0.6c0,1.5,0.8,2.4,2.1,3.6l2.9,2.8c2.4,2.5,3.6,4,3.6,6.9v1.3c0,3.7-2,6.3-6.6,6.3
			C124.6,128.4,122.8,125.9,122.8,122.4z"/>
		<path class="st1" d="M137,101.4h12v3.7h-3.7v23.1h-4.5V105H137V101.4z"/>
		<path class="st1" d="M151,101.4h4.5v26.8H151V101.4z"/>
		<path class="st1" d="M157.6,101.4h12v3.7h-3.7v23.1h-4.5V105h-3.7V101.4z"/>
		<path class="st1" d="M184.8,101.4v20.3c0,4.1-1.8,6.8-6.4,6.8c-4.7,0-6.7-2.7-6.7-6.8v-20.3h4.5V122c0,1.6,0.6,2.6,2.2,2.6
			c1.6,0,2.2-1.1,2.2-2.6v-20.7H184.8z"/>
		<path class="st1" d="M186.8,101.4h12v3.7h-3.7v23.1h-4.5V105h-3.7V101.4z"/>
		<path class="st1" d="M200.9,101.4h4.5v26.8h-4.5V101.4z"/>
		<path class="st1" d="M208,121.2v-12.9c0-4.2,2.1-7.2,6.8-7.2c4.8,0,6.8,3,6.8,7.2v12.9c0,4.1-2.1,7.2-6.8,7.2
			C210,128.4,208,125.4,208,121.2z M217.1,121.9v-14.4c0-1.6-0.7-2.8-2.3-2.8c-1.6,0-2.3,1.1-2.3,2.8v14.4c0,1.6,0.7,2.8,2.3,2.8
			C216.4,124.7,217.1,123.5,217.1,121.9z"/>
		<path class="st1" d="M227.9,111.3v16.8h-3.8v-26.8h4.4l4.9,15.4v-15.4h3.8v26.8h-3.9L227.9,111.3z"/>
		<path class="st1" d="M239.5,122.4v-3.6h4.2v3.7c0,1.5,0.7,2.4,2.2,2.4c1.4,0,2.1-0.9,2.1-2.4v-1c0-1.5-0.6-2.5-2-3.8l-2.6-2.6
			c-2.6-2.5-3.8-4.1-3.8-7.1v-0.9c0-3.3,1.9-5.9,6.3-5.9c4.5,0,6.3,2.2,6.3,6.1v2.2H248V107c0-1.5-0.7-2.3-2.1-2.3
			c-1.3,0-2.1,0.7-2.1,2.2v0.6c0,1.5,0.8,2.4,2.1,3.6l2.9,2.8c2.4,2.5,3.6,4,3.6,6.9v1.3c0,3.7-2,6.3-6.6,6.3
			S239.5,125.9,239.5,122.4z"/>
	</g>
</g>
</svg>
