<?xml version="1.0" encoding="utf-8"?>
<!-- Generator: Adobe Illustrator 21.0.2, SVG Export Plug-In . SVG Version: 6.00 Build 0)  -->
<svg version="1.1" id="Layer_1" xmlns="http://www.w3.org/2000/svg" xmlns:xlink="http://www.w3.org/1999/xlink" x="0px" y="0px"
	 viewBox="0 0 317.6 317.6" style="enable-background:new 0 0 317.6 317.6;" xml:space="preserve">
<style type="text/css">
	.st0{fill:#FBC500;}
	.st1{fill:#FFFFFF;}
	.st2{fill:#A6183B;}
	.st3{fill:#EB611E;}
	.st4{fill:#DA025F;}
	.st5{fill:#F59D10;}
	.st6{fill:#C48E13;}
	.st7{fill:none;stroke:#FFFFFF;stroke-width:0.73;stroke-miterlimit:10;}
	.st8{fill:#DE1730;}
	.st9{fill:none;stroke:#FFFFFF;stroke-width:1.3067;stroke-linecap:round;stroke-miterlimit:10;}
	.st10{fill:#E1AA29;}
	.st11{fill:#C41722;}
	.st12{fill:#E6331F;}
	.st13{fill:#3BBBE4;}
	.st14{fill:#4B9B34;}
	.st15{fill:#F7F7F8;}
	.st16{fill:#39ABE2;}
	.st17{fill:#3E8EDE;}
	.st18{fill:#62B231;}
	.st19{fill:#E7B81A;}
	.st20{fill:#C31723;}
	.st21{fill:#499A35;}
	.st22{fill:#407E3D;}
	.st23{fill:#F9C400;}
	.st24{fill:#E6351D;}
	.st25{fill:#F59E12;}
	.st26{fill:#2494D2;}
	.st27{fill:#A5193C;}
	.st28{fill:#3ABAE3;}
	.st29{fill:#EB621F;}
	.st30{fill:#E01630;}
	.st31{fill:#D9045F;}
	.st32{fill:#1C4468;}
	.st33{fill:#CB9914;}
	.st34{fill:#04649B;}
	.st35{fill:#5FB130;}
	.st36{fill:#407D3C;}
	.st37{fill:#2496D3;}
	.st38{fill:#1E4468;}
	.st39{fill:#05639B;}
</style>
<g>
	<rect x="0" class="st12" width="317.6" height="317.6"/>
	<path class="st1" d="M50.6,46.9c-4.2,0-7.4,1.5-9.1,4.4h-0.1v-16H60v-8.8H31.7v36.1h9.8v-1.4c0-3.8,1.7-5.9,4.7-5.9
		c3.3,0,4.6,2.3,4.6,5.8v15.5c0,3.4-1.2,5.8-4.5,5.8c-3.7,0-5-2.5-5-6.2v-8h-9.8v7.3c0,9.7,3.9,16,14.8,16
		c10.9,0,15.3-5.8,15.3-14.6V61.1C61.6,51,56.4,46.9,50.6,46.9"/>
	<g>
		<path class="st1" d="M231.3,120.2h-39.5c-0.3,0-0.5,0.2-0.5,0.5v13.1c0,0.3,0.2,0.5,0.5,0.5h15.7l-17.5,17.5
			c-8.8-6.9-19.9-11-31.9-11c-28.5,0-51.7,23.2-51.7,51.7c0,26.2,19.7,48,45,51.3v15.1H136c-0.3,0-0.5,0.2-0.5,0.5v14.1
			c0,0.3,0.2,0.5,0.5,0.5h15.6v14.9c0,0.3,0.2,0.5,0.5,0.5h14.1c0.3,0,0.5-0.2,0.5-0.5v-14.9h15.6c0.3,0,0.5-0.2,0.5-0.5v-14.1
			c0-0.3-0.2-0.5-0.5-0.5h-15.6v-15.4c24.5-4,43.3-25.4,43.3-51c0-11.1-3.5-21.3-9.4-29.7l17.2-17.2v14.7c0,0.3,0.2,0.5,0.5,0.5
			h13.1c0.3,0,0.5-0.2,0.5-0.5v-39.5C231.8,120.4,231.6,120.2,231.3,120.2 M158.2,230.5c-21,0-38-17.1-38-38.1
			c0-21,17.1-38.1,38-38.1c21,0,38.1,17.1,38.1,38.1C196.3,213.4,179.2,230.5,158.2,230.5"/>
		<path class="st1" d="M181.5,176.8h-46.2c-0.3,0-0.5,0.2-0.5,0.4v11.2c0,0.3,0.2,0.5,0.5,0.5h46.2c0.3,0,0.5-0.2,0.5-0.5v-11.2
			C182,177,181.8,176.8,181.5,176.8"/>
		<path class="st1" d="M181.5,196.7h-46.2c-0.3,0-0.5,0.2-0.5,0.5v11.2c0,0.3,0.2,0.5,0.5,0.5h46.2c0.3,0,0.5-0.2,0.5-0.5v-11.2
			C182,197,181.8,196.7,181.5,196.7"/>
	</g>
	<g>
		<path class="st1" d="M99,38.3h6.4v14.3h-3.2v-2.9c-0.6,2-1.9,3.2-4.3,3.2c-3.9,0-5.6-3.1-5.6-7.2V32.8c0-4.2,2-7.2,6.8-7.2
			c5,0,6.4,2.8,6.4,6.7v2.4h-4.1v-2.7c0-1.7-0.6-2.6-2.3-2.6c-1.6,0-2.3,1.1-2.3,2.8v14.4c0,1.6,0.7,2.8,2.2,2.8
			c1.5,0,2.2-0.8,2.2-2.6v-4.7H99V38.3z"/>
		<path class="st1" d="M107.9,25.9h10.7v3.7h-6.2v7.7h4.5v3.6h-4.5v8.1h6.2v3.7h-10.7V25.9z"/>
		<path class="st1" d="M124.9,35.8v16.8h-3.8V25.9h4.4l4.9,15.4V25.9h3.8v26.8h-3.9L124.9,35.8z"/>
		<path class="st1" d="M150.1,33v12.4c0,4.1-1.7,7.2-6.5,7.2h-6.9V25.9h6.9C148.4,25.9,150.1,28.9,150.1,33z M143.1,48.9
			c1.9,0,2.6-1.1,2.6-2.7v-14c0-1.6-0.7-2.7-2.6-2.7h-1.9v19.4H143.1z"/>
		<path class="st1" d="M152.7,25.9h10.7v3.7h-6.2v7.7h4.5v3.6h-4.5v8.1h6.2v3.7h-10.7V25.9z"/>
		<path class="st1" d="M170.3,40.3v12.3h-4.5V25.9h6.6c4.5,0,6.2,2.3,6.2,6v3.4c0,2.9-1,4.6-3.6,5.2l4.3,12.2h-4.7L170.3,40.3z
			 M170.3,29.5v8.3h1.5c1.5,0,2.2-0.8,2.2-2.2v-3.9c0-1.5-0.7-2.2-2.2-2.2H170.3z"/>
		<path class="st1" d="M92.2,63.4h10.7V67h-6.2v7.7h4.5v3.6h-4.5v8.1h6.2v3.7H92.2V63.4z"/>
		<path class="st1" d="M110.1,91.9v-1.8c-3.6-0.6-5.1-3.3-5.1-6.9V70.3c0-4.2,2.1-7.2,6.8-7.2c4.8,0,6.8,3,6.8,7.2v12.9
			c0,2.9-1,5.2-3.3,6.3l3.3,0.6v3.4L110.1,91.9z M114.1,84.2V69.5c0-1.6-0.7-2.8-2.3-2.8c-1.6,0-2.3,1.1-2.3,2.8v14.6
			c0,1.6,0.7,2.8,2.3,2.8C113.4,86.9,114.1,85.7,114.1,84.2z"/>
		<path class="st1" d="M134.2,63.4v20.3c0,4.1-1.8,6.8-6.4,6.8c-4.7,0-6.7-2.7-6.7-6.8V63.4h4.5V84c0,1.6,0.6,2.6,2.2,2.6
			c1.6,0,2.2-1.1,2.2-2.6V63.4H134.2z"/>
		<path class="st1" d="M135.5,90.1l5.1-26.8h5.1l5.1,26.8h-4.6l-0.8-4.9h-4.8l-0.8,4.9H135.5z M141.1,81.6h3.6l-1.8-10.7h0
			L141.1,81.6z"/>
		<path class="st1" d="M152.6,63.4h4.5v23.1h5.4v3.7h-9.9V63.4z"/>
		<path class="st1" d="M164.5,63.4h4.5v26.8h-4.5V63.4z"/>
		<path class="st1" d="M171.1,63.4h12V67h-3.7v23.1h-4.5V67h-3.7V63.4z"/>
		<path class="st1" d="M193.9,79.9v10.2h-4.5V79.9l-5-16.6h4.7l2.7,10.1h0l2.7-10.1h4.3L193.9,79.9z"/>
	</g>
</g>
</svg>
