<?xml version="1.0" encoding="utf-8"?>
<!-- Generator: Adobe Illustrator 21.0.2, SVG Export Plug-In . SVG Version: 6.00 Build 0)  -->
<svg version="1.1" id="Layer_1" xmlns="http://www.w3.org/2000/svg" xmlns:xlink="http://www.w3.org/1999/xlink" x="0px" y="0px"
	 viewBox="0 0 317.6 317.6" style="enable-background:new 0 0 317.6 317.6;" xml:space="preserve">
<style type="text/css">
	.st0{fill:#DD172F;}
	.st1{fill:#FFFFFF;}
	.st2{fill:none;stroke:#FFFFFF;stroke-width:1.3067;stroke-linecap:round;stroke-miterlimit:10;}
	.st3{fill:#E0A928;}
	.st4{fill:#499935;}
	.st5{fill:#C31922;}
	.st6{fill:#E53321;}
	.st7{fill:#38BAE3;}
	.st8{fill:#FAC400;}
	.st9{fill:#A5183B;}
	.st10{fill:#E9611D;}
	.st11{fill:#D9055F;}
	.st12{fill:#F59C12;}
	.st13{fill:#C38C12;}
	.st14{fill:none;stroke:#FFFFFF;stroke-width:0.73;stroke-miterlimit:10;}
	.st15{fill:#3F7C3C;}
	.st16{fill:#2593D2;}
	.st17{fill:#5EB032;}
	.st18{fill:#00639B;}
	.st19{fill:#1D4467;}
	.st20{fill:#EFEFEF;}
	.st21{fill:#010202;}
	.st22{fill:#61B032;}
	.st23{fill:#E6B719;}
	.st24{fill:#C21822;}
	.st25{fill:#489935;}
	.st26{fill:#3F7E3C;}
	.st27{fill:#F8C300;}
	.st28{fill:#E4351F;}
	.st29{fill:#F59C13;}
	.st30{fill:#2691D0;}
	.st31{fill:#A4193C;}
	.st32{fill:#37B9E2;}
	.st33{fill:#E9611F;}
	.st34{fill:#DF1531;}
	.st35{fill:#D80560;}
	.st36{fill:#1B4367;}
	.st37{fill:#CA9811;}
	.st38{fill:#00659A;}
</style>
<g>
	<rect class="st18" width="317.6" height="317.6"/>
	<polygon class="st1" points="20.4,38.2 20.4,49.5 20.5,49.5 28,41.6 28.1,41.6 28.1,90.6 38.9,90.6 38.9,26.6 30.3,26.6 	"/>
	<path class="st1" d="M76.8,75.3v-9.4c0-10.5-4.2-15.8-11.9-15.8c-4.5,0-7.3,2.1-8.9,5.2h-0.1V41.4c0-3.9,1.2-6.6,5.1-6.6
		c3.9,0,5,2.3,5,6.2v4.3h9.8v-3.4c0-9.4-3.1-16.1-15-16.1c-11.3,0-15.6,7.3-15.6,17.3v31.2c0,9.9,4.3,17.1,15.7,17.1
		C72.3,91.4,76.8,85.2,76.8,75.3 M66.1,76.2c0,4.1-1.5,6.4-5.2,6.4c-3.6,0-5-2.5-5-6.4V64.5c0.2-3.6,1.7-5.9,5.1-5.9
		c3.7,0,5.1,2.3,5.1,6.4V76.2z"/>
	<g>
		<path class="st1" d="M214.2,140.3c0,0-3,4-2.1,7.9c0.9,3.9,5.3,6.2,5.3,6.2s3-4,2.1-7.9C218.6,142.6,214.2,140.3,214.2,140.3"/>
		<path class="st1" d="M209.3,163.1c0,0,3-4,2.1-7.9c-0.9-3.9-5.3-6.2-5.3-6.2s-3,4-2.1,7.9C204.9,160.8,209.3,163.1,209.3,163.1"/>
		<path class="st1" d="M221.7,158.8c0,0,3.2,3.2,6.8,2.9c3.6-0.3,6.3-4,6.3-4s-3.2-3.2-6.8-2.9C224.3,155.1,221.7,158.8,221.7,158.8
			"/>
		<path class="st1" d="M226.9,141.7c-2.9,3-2.5,8.3-2.5,8.3s5.2,0.4,8.1-2.5c2.9-3,2.5-8.3,2.5-8.3S229.8,138.8,226.9,141.7"/>
		<path class="st1" d="M220.4,170.7c3.6,0.4,7-2.7,7-2.7s-2.5-3.8-6-4.2c-3.6-0.4-7,2.7-7,2.7S216.8,170.3,220.4,170.7"/>
		<path class="st1" d="M223.6,228.6h-26.9c-2.1,0-3.8,1.7-3.8,3.8c0,2.1,1.7,3.8,3.8,3.8h26.9c2.1,0,3.8-1.7,3.8-3.8
			C227.4,230.3,225.7,228.6,223.6,228.6"/>
		<path class="st1" d="M223.6,270.5h-26.9c-2.1,0-3.8,1.7-3.8,3.8c0,2.1,1.7,3.8,3.8,3.8h26.9c2.1,0,3.8-1.7,3.8-3.8
			C227.4,272.2,225.7,270.5,223.6,270.5"/>
		<path class="st1" d="M102.6,219.3c-0.6-0.2-1.3-0.4-1.9-0.5C100.7,218.8,101.4,219,102.6,219.3"/>
		<path class="st1" d="M222.6,238.8h-24.9c-1.2,0-2.2,1-2.2,2.2v7.6l-16.3,1.8l-23.8-0.5v-14.5c3.2-0.4,6.3-1,9.5-1.9
			c22.9-6.5,27.9-20.7,27.4-33.8c-0.5-13.3,3.8-18.5,9.9-20.8c1.8-0.7,3.5-1.1,5.1-1.3c0.1,3.3,0.7,7.1,2.2,11.6
			c0.5,0,1.1-0.1,1.6-0.1c-1.5-4.6-2.2-8.5-2.2-11.7c3.2-0.4,5.4-0.2,5.4-0.2s-2.1-1.1-5.2-3.7c1-6.3,4.8-10.2,8.7-14.2
			c2.1-2.2,4.3-4.4,6.1-7.1l-1.4-0.9c-1.6,2.6-3.8,4.7-5.9,6.9c-3.8,3.9-7.6,7.8-8.9,14.1c-1.2-1.1-2.6-2.4-3.9-3.9
			c-5.6-6.3-12.9-1.7-23.3,8c-10.4,9.6-23.4,10-36.1-3.1C127.6,155.9,113,156,102.9,157c6.9,2.9,9.3,9.4,12.8,25.7
			c3.6,17.1,12.8,24.9,25.4,25.9c-5.8,0.9-7.3,1.8-16.7,8.2c-7.3,5.1-17.6,3.5-21.8,2.5c7.7,2.4,16.7,10.4,24.9,13.2
			c4.7,1.6,9.7,2.6,14.8,3v13.9l-45.1-1v9.7l82.1-1.8l16.3,1.8v7.5c0,1.2,1,2.2,2.2,2.2h24.9c1.2,0,2.2-1,2.2-2.2V241
			C224.8,239.8,223.8,238.8,222.6,238.8z M146.2,235.8c1.8,0,3.6,0,5.3-0.1v14.1l-5.3-0.1V235.8z"/>
		<path class="st1" d="M94.8,256.6c0,2-1.4,3.7-3.2,3.7h-1.9c-1.8,0-3.2-1.7-3.2-3.7v-6.7c0-2,1.4-3.7,3.2-3.7h1.9
			c1.8,0,3.2,1.7,3.2,3.7V256.6z"/>
	</g>
	<g>
		<path class="st1" d="M97.2,47.7c-2.1,0-3.5-0.5-5-2l2.5-2.5c0.6,0.6,1.2,1.1,2.5,1.1c1.8,0,3-1.1,3-3.3V28.2h3.8v13
			C104,45.5,100.7,47.7,97.2,47.7z"/>
		<path class="st1" d="M115,47.7c-4,0-7.1-2.7-7.1-6.8V28.2h3.8v12.6c0,2.2,1.3,3.5,3.3,3.5c2,0,3.4-1.3,3.4-3.5V28.2h3.7v12.7
			C122.1,45,119,47.7,115,47.7z"/>
		<path class="st1" d="M131.7,47.7c-2.9,0-5.2-0.6-7-2.5l2.4-2.4c1.2,1.2,2.9,1.6,4.7,1.6c2.2,0,3.4-0.8,3.4-2.4
			c0-0.7-0.2-1.2-0.6-1.6c-0.4-0.4-0.8-0.5-1.7-0.7l-2.3-0.3c-1.7-0.2-2.9-0.8-3.7-1.6c-0.9-0.9-1.4-2.2-1.4-3.8
			c0-3.4,2.5-5.9,6.7-5.9c2.7,0,4.6,0.7,6.2,2.2l-2.4,2.4c-1.2-1.2-2.7-1.3-4-1.3c-2,0-3,1.1-3,2.4c0,0.5,0.2,1,0.6,1.4
			c0.4,0.4,1,0.6,1.8,0.8l2.3,0.3c1.8,0.2,2.9,0.7,3.7,1.5c1,1,1.5,2.4,1.5,4.1C138.8,45.6,135.7,47.7,131.7,47.7z"/>
		<path class="st1" d="M149.8,31.6v15.9H146V31.6h-5v-3.4h13.9v3.4H149.8z"/>
		<path class="st1" d="M157.9,47.6V28.2h3.8v19.3H157.9z"/>
		<path class="st1" d="M172.6,47.7c-2.1,0-3.9-0.8-5.2-2.1c-1.9-2-1.9-4.4-1.9-7.7c0-3.3-0.1-5.7,1.9-7.7c1.4-1.4,3.1-2.1,5.2-2.1
			c3.6,0,6.4,2.1,7.1,6.1h-3.8c-0.4-1.5-1.4-2.7-3.3-2.7c-1,0-1.9,0.4-2.4,1c-0.7,0.8-0.9,1.7-0.9,5.4s0.2,4.6,0.9,5.5
			c0.5,0.6,1.4,1,2.4,1c1.9,0,2.9-1.2,3.3-2.7h3.8C179,45.7,176.2,47.7,172.6,47.7z"/>
		<path class="st1" d="M183,47.6V28.2h12.7v3.4h-8.9v4.5h7.6v3.4h-7.6v4.7h8.9v3.4H183z"/>
		<path class="st1" d="M94.4,80.1V60.8h12.7v3.4h-8.9v4.5h7.6v3.4h-7.6v4.7h8.9v3.4H94.4z"/>
		<path class="st1" d="M118.2,64.2v15.9h-3.8V64.2h-5v-3.4h13.9v3.4H118.2z"/>
		<path class="st1" d="M140.1,72.8h-3.7v7.3h-3.8V60.8h7.5c4,0,6.4,2.7,6.4,6C146.4,70.1,144,72.8,140.1,72.8z M139.9,64.2h-3.5v5.3
			h3.5c1.7,0,2.8-1.1,2.8-2.6C142.7,65.3,141.6,64.2,139.9,64.2z"/>
		<path class="st1" d="M159.2,80.1l-1.1-3.4h-6.9l-1.2,3.4h-3.9l7-19.3h3l7,19.3H159.2z M154.7,66.5l-2.4,7h4.8L154.7,66.5z"/>
		<path class="st1" d="M165.6,80.1V60.8h3.8v19.3H165.6z"/>
		<path class="st1" d="M183.5,80.1l-3.7-6.7l-3.7,6.7h-4.3l6-9.9l-5.6-9.4h4.3l3.4,6.2l3.4-6.2h4.3l-5.6,9.4l6,9.9H183.5z"/>
	</g>
</g>
</svg>
