<?xml version="1.0" encoding="utf-8"?>
<!-- Generator: Adobe Illustrator 21.0.2, SVG Export Plug-In . SVG Version: 6.00 Build 0)  -->
<svg version="1.1" id="Layer_1" xmlns="http://www.w3.org/2000/svg" xmlns:xlink="http://www.w3.org/1999/xlink" x="0px" y="0px"
	 viewBox="0 0 317.6 317.6" style="enable-background:new 0 0 317.6 317.6;" xml:space="preserve">
<style type="text/css">
	.st0{fill:#DD172F;}
	.st1{fill:#FFFFFF;}
	.st2{fill:none;stroke:#FFFFFF;stroke-width:1.3067;stroke-linecap:round;stroke-miterlimit:10;}
	.st3{fill:#E0A928;}
	.st4{fill:#499935;}
	.st5{fill:#C31922;}
	.st6{fill:#E53321;}
	.st7{fill:#38BAE3;}
	.st8{fill:#FAC400;}
	.st9{fill:#A5183B;}
	.st10{fill:#E9611D;}
	.st11{fill:#D9055F;}
	.st12{fill:#F59C12;}
	.st13{fill:#C38C12;}
	.st14{fill:none;stroke:#FFFFFF;stroke-width:0.73;stroke-miterlimit:10;}
	.st15{fill:#3F7C3C;}
	.st16{fill:#2593D2;}
	.st17{fill:#5EB032;}
	.st18{fill:#00639B;}
	.st19{fill:#1D4467;}
	.st20{fill:#EFEFEF;}
	.st21{fill:#010202;}
	.st22{fill:#61B032;}
	.st23{fill:#E6B719;}
	.st24{fill:#C21822;}
	.st25{fill:#489935;}
	.st26{fill:#3F7E3C;}
	.st27{fill:#F8C300;}
	.st28{fill:#E4351F;}
	.st29{fill:#F59C13;}
	.st30{fill:#2691D0;}
	.st31{fill:#A4193C;}
	.st32{fill:#37B9E2;}
	.st33{fill:#E9611F;}
	.st34{fill:#DF1531;}
	.st35{fill:#D80560;}
	.st36{fill:#1B4367;}
	.st37{fill:#CA9811;}
	.st38{fill:#00659A;}
</style>
<g>
	<rect class="st20" width="317.6" height="317.6"/>
	<g>
		<path class="st21" d="M68.1,225.6c-1.2,1.2-2.7,1.8-4.4,1.8c-1.7,0-3.3-0.6-4.4-1.8c-1.6-1.6-1.6-3.3-1.6-7c0-3.7,0-5.4,1.6-7
			c1.2-1.2,2.7-1.8,4.4-1.8c1.7,0,3.3,0.6,4.4,1.8c1.6,1.6,1.6,3.3,1.6,7C69.7,222.3,69.7,224,68.1,225.6z M66.6,212.6
			c-0.8-0.8-1.9-1.2-3-1.2c-1.1,0-2.2,0.5-3,1.2c-1.1,1.1-1.2,2.3-1.2,5.9c0,3.6,0.1,4.8,1.2,5.9c0.8,0.8,1.9,1.2,3,1.2
			c1.1,0,2.2-0.5,3-1.2c1.1-1.1,1.2-2.3,1.2-5.9C67.8,214.9,67.7,213.8,66.6,212.6z"/>
		<path class="st21" d="M81.8,226.4c-0.6,0.6-1.7,1.1-2.9,1.1c-1.3,0-2.4-0.3-3.4-1.6v1.4h-1.8v-17.4h1.8v6.8c1-1.2,2.1-1.5,3.4-1.5
			c1.2,0,2.3,0.4,2.9,1.1c1.2,1.2,1.5,3.2,1.5,5.1C83.3,223.1,83,225.1,81.8,226.4z M78.5,216.7c-2.6,0-3,2.2-3,4.6s0.4,4.6,3,4.6
			c2.6,0,3-2.2,3-4.6S81.1,216.7,78.5,216.7z"/>
		<path class="st21" d="M85.7,232.7h-1.3v-1.5h1c1.2,0,1.6-0.6,1.6-1.8v-14h1.8v14.1C88.8,231.3,87.9,232.7,85.7,232.7z M86.9,211.8
			v-2h2v2H86.9z"/>
		<path class="st21" d="M94.3,221.7c0,2.6,1.2,4.2,3.5,4.2c1.4,0,2.2-0.4,3.2-1.4l1.2,1c-1.2,1.2-2.3,1.9-4.4,1.9
			c-3.2,0-5.3-1.9-5.3-6.2c0-3.9,1.9-6.2,4.9-6.2c3.1,0,4.9,2.2,4.9,5.8v0.8H94.3z M100.3,218.4c-0.5-1.1-1.5-1.8-2.8-1.8
			c-1.3,0-2.3,0.7-2.8,1.8c-0.3,0.7-0.3,1-0.4,2h6.3C100.6,219.4,100.6,219.1,100.3,218.4z"/>
		<path class="st21" d="M110.8,227.4c-3,0-5.3-2.1-5.3-6.2c0-4.1,2.3-6.2,5.3-6.2c1.7,0,2.7,0.4,4,1.8l-1.2,1.1
			c-0.9-1-1.6-1.3-2.8-1.3c-1.2,0-2.2,0.5-2.8,1.4c-0.6,0.8-0.8,1.7-0.8,3.2c0,1.5,0.2,2.4,0.8,3.2c0.6,0.9,1.6,1.4,2.8,1.4
			c1.1,0,1.9-0.4,2.8-1.4l1.2,1.1C113.5,227,112.5,227.4,110.8,227.4z"/>
		<path class="st21" d="M121.5,227.3c-2.1,0-3.1-1.4-3.1-3.2v-7.4h-1.5v-1.3h1.5v-3.8h1.8v3.8h2.6v1.3h-2.6v7.3
			c0,1.1,0.5,1.8,1.6,1.8h0.9v1.5H121.5z"/>
		<path class="st21" d="M126.1,211.8v-2h2v2H126.1z M126.2,227.3v-12h1.8v12H126.2z"/>
		<path class="st21" d="M134.6,216.7v10.6h-1.8v-10.6h-1.5v-1.3h1.5V213c0-1.8,1-3.2,3.1-3.2h1.3v1.5h-1c-1.1,0-1.6,0.7-1.6,1.8v2.2
			h2.6v1.3H134.6z"/>
		<path class="st21" d="M143.9,227.4c-2,0-3.6-0.5-4.9-1.7l1.2-1.2c1,1,2.2,1.4,3.7,1.4c2,0,3.2-0.7,3.2-2.1c0-1-0.6-1.6-2-1.8
			l-2-0.2c-2.3-0.2-3.6-1.2-3.6-3.2c0-2.2,1.9-3.5,4.4-3.5c1.7,0,3.2,0.4,4.3,1.3l-1.1,1.1c-0.9-0.7-1.9-1-3.2-1
			c-1.8,0-2.7,0.8-2.7,2c0,1,0.6,1.6,2.1,1.8l1.9,0.2c2.1,0.2,3.5,1,3.5,3.2C148.7,226.1,146.8,227.4,143.9,227.4z"/>
		<path class="st21" d="M173.7,227.3v-7.4c0-2.1-1.1-3.2-3-3.2c-1.8,0-3,1.1-3,3v7.6H166v-7.4c0-2.1-1.1-3.2-3-3.2
			c-1.8,0-3,1.1-3,3.2v7.4h-1.8v-12h1.8v1.3c0.9-1,2.1-1.5,3.4-1.5c1.7,0,3,0.7,3.7,2c0.9-1.3,2.3-2,4-2c1.3,0,2.4,0.4,3.1,1.1
			c0.9,0.8,1.3,2,1.3,3.3v7.7H173.7z"/>
		<path class="st21" d="M187.4,226c-0.8,0.8-2,1.4-3.4,1.4s-2.6-0.5-3.4-1.4c-1.2-1.2-1.5-2.9-1.5-4.8c0-1.9,0.2-3.5,1.5-4.8
			c0.8-0.8,2-1.4,3.4-1.4s2.6,0.5,3.4,1.4c1.2,1.2,1.5,2.9,1.5,4.8C188.9,223.1,188.7,224.8,187.4,226z M186.2,217.5
			c-0.6-0.6-1.3-0.9-2.2-0.9s-1.6,0.3-2.2,0.9c-0.9,0.9-1,2.4-1,3.7c0,1.3,0.1,2.8,1,3.7c0.6,0.6,1.3,0.9,2.2,0.9s1.6-0.3,2.2-0.9
			c0.9-0.9,1-2.4,1-3.7C187.1,219.9,187.1,218.4,186.2,217.5z"/>
		<path class="st21" d="M200.4,227.3v-7.4c0-2.1-1.1-3.2-3-3.2s-3,1.1-3,3.2v7.4h-1.8v-12h1.8v1.3c0.9-1,2-1.5,3.4-1.5
			c1.3,0,2.3,0.4,3.1,1.1c0.9,0.8,1.2,2,1.2,3.3v7.7H200.4z"/>
		<path class="st21" d="M213.6,227.3v-1.4c-1,1.3-2.1,1.6-3.4,1.6c-1.2,0-2.3-0.4-2.9-1.1c-1.2-1.2-1.5-3.2-1.5-5.1
			c0-1.9,0.2-3.9,1.5-5.1c0.6-0.6,1.7-1.1,2.9-1.1c1.3,0,2.4,0.3,3.4,1.5v-6.8h1.8v17.4H213.6z M210.5,216.7c-2.6,0-3,2.2-3,4.6
			s0.4,4.6,3,4.6c2.6,0,3-2.2,3-4.6S213.2,216.7,210.5,216.7z"/>
		<path class="st21" d="M219.6,211.8v-2h2v2H219.6z M219.7,227.3v-12h1.8v12H219.7z"/>
		<path class="st21" d="M232.7,227.3v-1.1c-1,1-1.9,1.3-3.5,1.3c-1.7,0-2.6-0.3-3.4-1.1c-0.6-0.6-0.9-1.5-0.9-2.4
			c0-2.1,1.5-3.5,4.2-3.5h3.6v-1.1c0-1.8-0.9-2.6-3.1-2.6c-1.5,0-2.3,0.4-3,1.4l-1.2-1.1c1.1-1.4,2.3-1.8,4.2-1.8
			c3.2,0,4.8,1.4,4.8,4v8.2H232.7z M232.7,221.7h-3.4c-1.8,0-2.7,0.7-2.7,2.1c0,1.4,0.9,2.1,2.8,2.1c1,0,1.9-0.1,2.7-0.8
			c0.4-0.4,0.6-1.1,0.6-2.1V221.7z"/>
		<path class="st21" d="M246.3,227.3v-1.3c-0.9,1-2.1,1.5-3.4,1.5c-1.3,0-2.4-0.4-3.1-1.1c-0.9-0.8-1.2-2-1.2-3.4v-7.7h1.8v7.4
			c0,2.1,1.1,3.2,2.9,3.2s3-1.1,3-3.2v-7.4h1.8v12H246.3z"/>
		<path class="st21" d="M259,227.3l-2.9-4.7l-2.9,4.7H251l4.1-6.1l-3.9-5.9h2.1l2.8,4.4l2.7-4.4h2.1l-3.9,5.9l4.1,6.1H259z"/>
		<path class="st21" d="M69,257.1v-1.4c-1,1.3-2.1,1.6-3.4,1.6c-1.2,0-2.3-0.4-2.9-1.1c-1.2-1.2-1.5-3.2-1.5-5.1
			c0-1.9,0.2-3.9,1.5-5.1c0.6-0.6,1.7-1.1,2.9-1.1c1.3,0,2.4,0.3,3.4,1.5v-6.8h1.8v17.4H69z M65.9,246.5c-2.6,0-3,2.2-3,4.6
			s0.4,4.6,3,4.6c2.6,0,3-2.2,3-4.6S68.6,246.5,65.9,246.5z"/>
		<path class="st21" d="M76.2,251.6c0,2.6,1.2,4.2,3.5,4.2c1.4,0,2.2-0.4,3.1-1.4l1.2,1c-1.2,1.2-2.3,1.9-4.4,1.9
			c-3.2,0-5.3-1.9-5.3-6.2c0-3.9,1.9-6.2,4.9-6.2c3.1,0,4.9,2.2,4.9,5.8v0.8H76.2z M82.2,248.2c-0.5-1.1-1.5-1.8-2.8-1.8
			c-1.3,0-2.3,0.7-2.8,1.8c-0.3,0.7-0.3,1-0.4,2h6.4C82.5,249.3,82.4,248.9,82.2,248.2z"/>
		<path class="st21" d="M101.3,257.1v-1.4c-1,1.3-2.1,1.6-3.4,1.6c-1.2,0-2.3-0.4-2.9-1.1c-1.2-1.2-1.5-3.2-1.5-5.1
			c0-1.9,0.2-3.9,1.5-5.1c0.6-0.6,1.7-1.1,2.9-1.1c1.3,0,2.4,0.3,3.4,1.5v-6.8h1.8v17.4H101.3z M98.3,246.5c-2.6,0-3,2.2-3,4.6
			s0.4,4.6,3,4.6c2.6,0,3-2.2,3-4.6S100.9,246.5,98.3,246.5z"/>
		<path class="st21" d="M108.5,251.6c0,2.6,1.2,4.2,3.5,4.2c1.4,0,2.2-0.4,3.2-1.4l1.2,1c-1.2,1.2-2.3,1.9-4.4,1.9
			c-3.2,0-5.3-1.9-5.3-6.2c0-3.9,1.9-6.2,4.9-6.2c3.1,0,4.9,2.2,4.9,5.8v0.8H108.5z M114.5,248.2c-0.5-1.1-1.5-1.8-2.8-1.8
			c-1.3,0-2.3,0.7-2.8,1.8c-0.3,0.7-0.3,1-0.4,2h6.4C114.8,249.3,114.8,248.9,114.5,248.2z M112.2,242.6h-1.6l2.2-3.7h2.1
			L112.2,242.6z"/>
		<path class="st21" d="M124.4,257.1h-1.6l-4.4-12h1.9l3.3,9.6l3.3-9.6h1.9L124.4,257.1z"/>
		<path class="st21" d="M132.4,251.6c0,2.6,1.2,4.2,3.5,4.2c1.4,0,2.2-0.4,3.2-1.4l1.2,1c-1.2,1.2-2.3,1.9-4.4,1.9
			c-3.2,0-5.3-1.9-5.3-6.2c0-3.9,1.9-6.2,4.9-6.2c3.1,0,4.9,2.2,4.9,5.8v0.8H132.4z M138.4,248.2c-0.5-1.1-1.5-1.8-2.8-1.8
			c-1.3,0-2.3,0.7-2.8,1.8c-0.3,0.7-0.3,1-0.4,2h6.4C138.7,249.3,138.6,248.9,138.4,248.2z"/>
		<path class="st21" d="M147.2,257.1c-2.1,0-3.1-1.4-3.1-3.2v-14.2h1.8v14.1c0,1.2,0.4,1.8,1.6,1.8h1v1.5H147.2z"/>
		<path class="st21" d="M159.2,255.9c-0.8,0.8-2,1.4-3.4,1.4s-2.6-0.5-3.4-1.4c-1.2-1.2-1.5-2.9-1.5-4.8c0-1.9,0.2-3.5,1.5-4.8
			c0.8-0.8,2-1.4,3.4-1.4s2.6,0.5,3.4,1.4c1.2,1.2,1.5,2.9,1.5,4.8C160.6,253,160.4,254.6,159.2,255.9z M157.9,247.4
			c-0.6-0.6-1.3-0.9-2.2-0.9s-1.6,0.3-2.2,0.9c-0.9,0.9-1,2.4-1,3.7c0,1.3,0.1,2.8,1,3.7c0.6,0.6,1.3,0.9,2.2,0.9s1.6-0.3,2.2-0.9
			c0.9-0.9,1-2.4,1-3.7C158.9,249.8,158.8,248.3,157.9,247.4z"/>
		<path class="st21" d="M172.5,256.2c-0.6,0.6-1.7,1.1-2.9,1.1c-1.3,0-2.4-0.3-3.4-1.6v6.8h-1.8v-17.4h1.8v1.4
			c1-1.3,2.1-1.6,3.4-1.6c1.2,0,2.3,0.4,2.9,1.1c1.2,1.2,1.5,3.2,1.5,5.1C174,253,173.7,255,172.5,256.2z M169.2,246.5
			c-2.6,0-3,2.2-3,4.6s0.4,4.6,3,4.6s3-2.2,3-4.6S171.8,246.5,169.2,246.5z"/>
		<path class="st21" d="M185.8,256.2c-0.6,0.6-1.7,1.1-2.9,1.1c-1.3,0-2.4-0.3-3.4-1.6v6.8h-1.8v-17.4h1.8v1.4
			c1-1.3,2.1-1.6,3.4-1.6c1.2,0,2.3,0.4,2.9,1.1c1.2,1.2,1.5,3.2,1.5,5.1C187.3,253,187,255,185.8,256.2z M182.5,246.5
			c-2.6,0-3,2.2-3,4.6s0.4,4.6,3,4.6c2.6,0,3-2.2,3-4.6S185.1,246.5,182.5,246.5z"/>
		<path class="st21" d="M192.1,251.6c0,2.6,1.2,4.2,3.5,4.2c1.4,0,2.2-0.4,3.1-1.4l1.2,1c-1.2,1.2-2.3,1.9-4.4,1.9
			c-3.2,0-5.3-1.9-5.3-6.2c0-3.9,1.9-6.2,4.9-6.2c3.1,0,4.9,2.2,4.9,5.8v0.8H192.1z M198.1,248.2c-0.5-1.1-1.5-1.8-2.8-1.8
			c-1.3,0-2.3,0.7-2.8,1.8c-0.3,0.7-0.3,1-0.4,2h6.4C198.4,249.3,198.4,248.9,198.1,248.2z"/>
		<path class="st21" d="M219.4,257.1v-7.4c0-2.1-1.1-3.2-3-3.2c-1.8,0-3,1.1-3,3v7.6h-1.8v-7.4c0-2.1-1.1-3.2-3-3.2s-3,1.1-3,3.2
			v7.4H204v-12h1.8v1.3c0.9-1,2.1-1.5,3.4-1.5c1.7,0,3,0.7,3.7,2c0.9-1.3,2.3-2,4-2c1.3,0,2.4,0.4,3.1,1.1c0.9,0.8,1.3,2,1.3,3.3
			v7.7H219.4z"/>
		<path class="st21" d="M226.5,251.6c0,2.6,1.2,4.2,3.5,4.2c1.4,0,2.2-0.4,3.1-1.4l1.2,1c-1.2,1.2-2.3,1.9-4.4,1.9
			c-3.2,0-5.3-1.9-5.3-6.2c0-3.9,1.9-6.2,4.9-6.2c3.1,0,4.9,2.2,4.9,5.8v0.8H226.5z M232.5,248.2c-0.5-1.1-1.5-1.8-2.8-1.8
			s-2.3,0.7-2.8,1.8c-0.3,0.7-0.3,1-0.4,2h6.4C232.8,249.3,232.8,248.9,232.5,248.2z"/>
		<path class="st21" d="M246,257.1v-7.4c0-2.1-1.1-3.2-3-3.2c-1.8,0-3,1.1-3,3.2v7.4h-1.8v-12h1.8v1.3c0.9-1,2-1.5,3.4-1.5
			c1.3,0,2.3,0.4,3.1,1.1c0.9,0.8,1.2,2,1.2,3.3v7.7H246z"/>
		<path class="st21" d="M255.4,257.1c-2.1,0-3.1-1.4-3.1-3.2v-7.4h-1.5v-1.3h1.5v-3.8h1.8v3.8h2.6v1.3h-2.6v7.3
			c0,1.1,0.5,1.8,1.6,1.8h0.9v1.5H255.4z"/>
		<path class="st21" d="M126.3,286.9v-1.4c-1,1.3-2.1,1.6-3.4,1.6c-1.2,0-2.3-0.4-2.9-1.1c-1.2-1.2-1.5-3.2-1.5-5.1
			c0-1.9,0.2-3.9,1.5-5.1c0.6-0.6,1.7-1.1,2.9-1.1c1.3,0,2.4,0.3,3.4,1.5v-6.8h1.8v17.4H126.3z M123.3,276.3c-2.6,0-3,2.2-3,4.6
			s0.4,4.6,3,4.6c2.6,0,3-2.2,3-4.6S125.9,276.3,123.3,276.3z"/>
		<path class="st21" d="M140.1,286.9v-1.3c-0.9,1-2.1,1.5-3.4,1.5c-1.3,0-2.4-0.4-3.1-1.1c-0.9-0.8-1.2-2-1.2-3.4v-7.7h1.8v7.4
			c0,2.1,1.1,3.2,2.9,3.2c1.8,0,3-1.1,3-3.2v-7.4h1.8v12H140.1z"/>
		<path class="st21" d="M152.9,277.2c-0.7-0.7-1.1-0.9-2.1-0.9c-1.8,0-2.9,1.4-2.9,3.2v7.4h-1.8v-12h1.8v1.5c0.7-1,2-1.6,3.4-1.6
			c1.1,0,2,0.3,2.9,1.1L152.9,277.2z"/>
		<path class="st21" d="M163.3,286.9v-1.1c-1,1-1.9,1.3-3.5,1.3c-1.7,0-2.6-0.3-3.4-1.1c-0.6-0.6-0.9-1.5-0.9-2.4
			c0-2.1,1.5-3.5,4.2-3.5h3.6v-1.1c0-1.8-0.9-2.6-3.1-2.6c-1.5,0-2.3,0.4-3,1.4l-1.2-1.1c1.1-1.4,2.3-1.8,4.2-1.8
			c3.2,0,4.8,1.4,4.8,4v8.2H163.3z M163.3,281.4h-3.4c-1.8,0-2.7,0.7-2.7,2.1c0,1.4,0.9,2.1,2.8,2.1c1,0,1.9-0.1,2.7-0.8
			c0.4-0.4,0.6-1.1,0.6-2.1V281.4z"/>
		<path class="st21" d="M177.4,286c-0.6,0.6-1.7,1.1-2.9,1.1c-1.3,0-2.4-0.3-3.4-1.6v1.4h-1.8v-17.4h1.8v6.8c1-1.2,2.1-1.5,3.4-1.5
			c1.2,0,2.3,0.4,2.9,1.1c1.2,1.2,1.5,3.2,1.5,5.1C178.9,282.8,178.6,284.8,177.4,286z M174.1,276.3c-2.6,0-3,2.2-3,4.6
			s0.4,4.6,3,4.6c2.6,0,3-2.2,3-4.6S176.7,276.3,174.1,276.3z"/>
		<path class="st21" d="M185.6,286.9c-2.1,0-3.1-1.4-3.1-3.2v-14.2h1.8v14.1c0,1.2,0.4,1.8,1.6,1.8h1v1.5H185.6z"/>
		<path class="st21" d="M191,281.4c0,2.6,1.2,4.2,3.5,4.2c1.4,0,2.2-0.4,3.1-1.4l1.2,1c-1.2,1.2-2.3,1.9-4.4,1.9
			c-3.2,0-5.3-1.9-5.3-6.2c0-3.9,1.9-6.2,4.9-6.2c3.1,0,4.9,2.2,4.9,5.8v0.8H191z M197,278.1c-0.5-1.1-1.5-1.8-2.8-1.8
			s-2.3,0.7-2.8,1.8c-0.3,0.7-0.3,1-0.4,2h6.4C197.3,279.1,197.2,278.7,197,278.1z"/>
	</g>
	<g>
		<path class="st21" d="M44.7,173.3v15.9h-3.8v-15.9h-5v-3.4h13.9v3.4H44.7z"/>
		<path class="st21" d="M63.1,189.2v-8.1h-6.5v8.1h-3.8v-19.3h3.8v7.9h6.5v-7.9h3.8v19.3H63.1z"/>
		<path class="st21" d="M71.4,189.2v-19.3h12.7v3.4h-8.9v4.5h7.6v3.4h-7.6v4.7h8.9v3.4H71.4z"/>
		<path class="st21" d="M106,187.2c-1.5,1.6-3.4,2.2-5.4,2.2c-2.1,0-3.8-0.8-5.2-2.1c-2-2-1.9-4.4-1.9-7.7s-0.1-5.7,1.9-7.7
			c1.4-1.4,3-2.1,5.2-2.1c4.5,0,6.8,2.9,7.3,6.2H104c-0.4-1.8-1.5-2.8-3.5-2.8c-1,0-1.9,0.4-2.4,1c-0.7,0.8-0.9,1.7-0.9,5.4
			s0.2,4.6,0.9,5.4c0.5,0.6,1.4,1,2.4,1c1.1,0,2.1-0.4,2.7-1.1c0.6-0.7,0.9-1.6,0.9-2.6v-0.7h-3.6v-3.1h7.3v2.8
			C107.8,184.1,107.3,185.8,106,187.2z"/>
		<path class="st21" d="M111.7,189.2v-19.3h3.8v15.9h8.8v3.4H111.7z"/>
		<path class="st21" d="M138.2,187.3c-1.4,1.4-3,2.1-5.2,2.1s-3.9-0.8-5.2-2.1c-2-2-1.9-4.4-1.9-7.7s-0.1-5.7,1.9-7.7
			c1.4-1.4,3-2.1,5.2-2.1s3.8,0.8,5.2,2.1c2,2,1.9,4.4,1.9,7.7S140.2,185.3,138.2,187.3z M135.4,174.2c-0.5-0.6-1.4-1-2.4-1
			s-1.9,0.4-2.4,1c-0.7,0.8-0.9,1.7-0.9,5.4s0.2,4.6,0.9,5.4c0.5,0.6,1.4,1,2.4,1s1.9-0.4,2.4-1c0.7-0.8,0.9-1.7,0.9-5.4
			S136.2,175,135.4,174.2z"/>
		<path class="st21" d="M152.1,189.2H144v-19.3h7.8c3.8,0,6,2.1,6,5.4c0,2.1-1.4,3.5-2.4,4c1.2,0.5,2.7,1.8,2.7,4.3
			C158,187.3,155.5,189.2,152.1,189.2z M151.5,173.3h-3.7v4.4h3.7c1.6,0,2.5-0.9,2.5-2.2C154,174.2,153.1,173.3,151.5,173.3z
			 M151.7,181.1h-3.9v4.7h3.9c1.7,0,2.5-1.1,2.5-2.4C154.2,182.2,153.4,181.1,151.7,181.1z"/>
		<path class="st21" d="M172.8,189.2l-1.1-3.4h-6.9l-1.2,3.4h-3.9l7-19.3h3l7,19.3H172.8z M168.3,175.6l-2.4,7h4.8L168.3,175.6z"/>
		<path class="st21" d="M179.2,189.2v-19.3h3.8v15.9h8.8v3.4H179.2z"/>
		<path class="st21" d="M213,187.2c-1.5,1.6-3.4,2.2-5.4,2.2c-2.1,0-3.8-0.8-5.2-2.1c-2-2-1.9-4.4-1.9-7.7s-0.1-5.7,1.9-7.7
			c1.4-1.4,3-2.1,5.2-2.1c4.5,0,6.8,2.9,7.3,6.2H211c-0.4-1.8-1.5-2.8-3.5-2.8c-1,0-1.9,0.4-2.4,1c-0.7,0.8-0.9,1.7-0.9,5.4
			s0.2,4.6,0.9,5.4c0.5,0.6,1.4,1,2.4,1c1.1,0,2.1-0.4,2.7-1.1c0.6-0.7,0.9-1.6,0.9-2.6v-0.7h-3.6v-3.1h7.3v2.8
			C214.8,184.1,214.3,185.8,213,187.2z"/>
		<path class="st21" d="M230.3,187.3c-1.4,1.4-3,2.1-5.2,2.1c-2.2,0-3.9-0.8-5.2-2.1c-1.9-2-1.9-4.4-1.9-7.7s-0.1-5.7,1.9-7.7
			c1.4-1.4,3-2.1,5.2-2.1c2.2,0,3.8,0.8,5.2,2.1c2,2,1.9,4.4,1.9,7.7S232.3,185.3,230.3,187.3z M227.5,174.2c-0.5-0.6-1.4-1-2.4-1
			c-1,0-1.9,0.4-2.4,1c-0.7,0.8-0.9,1.7-0.9,5.4s0.2,4.6,0.9,5.4c0.5,0.6,1.4,1,2.4,1c1,0,1.9-0.4,2.4-1c0.7-0.8,0.9-1.7,0.9-5.4
			S228.3,175,227.5,174.2z"/>
		<path class="st21" d="M246.8,189.2l-1.1-3.4h-6.9l-1.2,3.4h-3.9l7-19.3h3l7,19.3H246.8z M242.3,175.6l-2.4,7h4.8L242.3,175.6z"/>
		<path class="st21" d="M253.1,189.2v-19.3h3.8v15.9h8.8v3.4H253.1z"/>
		<path class="st21" d="M274.1,189.4c-2.9,0-5.2-0.6-7-2.5l2.4-2.4c1.2,1.2,2.9,1.6,4.7,1.6c2.2,0,3.4-0.8,3.4-2.4
			c0-0.7-0.2-1.2-0.6-1.6c-0.4-0.4-0.8-0.5-1.7-0.7l-2.3-0.3c-1.7-0.2-2.9-0.8-3.7-1.6c-0.9-0.9-1.4-2.2-1.4-3.8
			c0-3.4,2.5-5.9,6.7-5.9c2.7,0,4.6,0.7,6.2,2.3l-2.4,2.4c-1.2-1.2-2.7-1.3-4-1.3c-2,0-3,1.1-3,2.4c0,0.5,0.2,1,0.6,1.4
			c0.4,0.4,1,0.7,1.8,0.8l2.3,0.3c1.8,0.2,2.9,0.7,3.7,1.5c1,1,1.5,2.4,1.5,4.1C281.2,187.3,278.1,189.4,274.1,189.4z"/>
	</g>
	<g>
		<path class="st22" d="M132.4,66.2c1.4-2.3,3-4.4,4.9-6.3l-16-17.5c-4,3.8-7.4,8.3-10.1,13.2L132.4,66.2z"/>
		<path class="st23" d="M171.5,53.8c2.4,1.1,4.7,2.5,6.7,4.2l16-17.5c-4.2-3.6-9-6.6-14.2-8.9L171.5,53.8z"/>
		<path class="st24" d="M208.2,59.1L187,69.7c1,2.4,1.7,4.9,2.1,7.5l23.6-2.2C212,69.4,210.5,64,208.2,59.1"/>
		<path class="st25" d="M185.5,66.6L206.7,56c-2.6-4.9-6-9.3-9.9-13.2l-16,17.5C182.6,62.2,184.2,64.3,185.5,66.6"/>
		<path class="st26" d="M128.1,81.7c0-0.5,0-1,0-1.4l-23.6-2.1c-0.1,1.2-0.1,2.4-0.1,3.5c0,4.5,0.6,8.9,1.6,13.1l22.8-6.5
			C128.4,86.2,128.1,84,128.1,81.7"/>
		<path class="st27" d="M182.5,101.1c-1.7,2-3.6,3.9-5.8,5.4l12.5,20.2c4.6-3.1,8.8-7,12.2-11.3L182.5,101.1z"/>
		<path class="st28" d="M189.4,81.7c0,2.2-0.2,4.4-0.7,6.5l22.8,6.6c1-4.2,1.6-8.6,1.6-13.1c0-1.1,0-2.2-0.1-3.3l-23.6,2.2
			C189.4,81,189.4,81.3,189.4,81.7"/>
		<path class="st29" d="M135.5,101.6l-18.9,14.4c3.5,4.3,7.7,8.1,12.3,11.2l12.5-20.2C139.2,105.4,137.2,103.6,135.5,101.6"/>
		<path class="st30" d="M128.5,76.9c0.4-2.7,1.2-5.2,2.3-7.6l-21.2-10.6c-2.3,5-4,10.4-4.7,16.1L128.5,76.9z"/>
		<path class="st31" d="M186.3,128.6l-12.5-20.2c-2.3,1.3-4.7,2.3-7.3,3l4.4,23.3C176.4,133.4,181.6,131.3,186.3,128.6"/>
		<path class="st32" d="M187.8,91.5c-0.8,2.4-1.9,4.7-3.3,6.8l18.9,14.3c3.1-4.4,5.5-9.3,7.2-14.6L187.8,91.5z"/>
		<path class="st33" d="M163.2,112c-1.4,0.2-2.9,0.3-4.4,0.3c-1.2,0-2.4-0.1-3.6-0.2l-4.4,23.3c2.6,0.4,5.3,0.6,8,0.6
			c3,0,5.9-0.2,8.8-0.7L163.2,112z"/>
		<path class="st34" d="M160.7,51.1c2.6,0.2,5.2,0.7,7.6,1.5l8.5-22.2c-5.1-1.8-10.5-2.9-16.1-3V51.1z"/>
		<path class="st35" d="M151.8,111.6c-2.7-0.6-5.2-1.6-7.5-2.8l-12.5,20.2c4.8,2.7,10.1,4.8,15.6,6L151.8,111.6z"/>
		<path class="st36" d="M149.6,52.5c2.5-0.8,5.1-1.3,7.7-1.4V27.3c-5.7,0.2-11.2,1.2-16.3,3L149.6,52.5z"/>
		<path class="st37" d="M133.4,98.8c-1.5-2.2-2.7-4.7-3.6-7.2L107,98.1c1.7,5.4,4.3,10.5,7.5,15.1L133.4,98.8z"/>
		<path class="st38" d="M139.8,57.7c2-1.6,4.2-2.9,6.6-4l-8.6-22.1c-5.1,2.1-9.8,5-14,8.6L139.8,57.7z"/>
	</g>
</g>
</svg>
